<?xml version="1.0" encoding="utf-8"?>
<!-- Generator: Adobe Illustrator 24.0.3, SVG Export Plug-In . SVG Version: 6.00 Build 0)  -->
<svg version="1.1" id="Capa_1" xmlns="http://www.w3.org/2000/svg" xmlns:xlink="http://www.w3.org/1999/xlink" x="0px" y="0px"
	 width="200px" height="100px" viewBox="0 0 200 100" style="enable-background:new 0 0 200 100;" xml:space="preserve">
<style type="text/css">
	.st0{fill-rule:evenodd;clip-rule:evenodd;fill:#E42730;}
	.st1{fill-rule:evenodd;clip-rule:evenodd;fill:#FFFFFF;}
	.st2{fill:#1C1C1A;}
	.st3{fill:#E00D1A;}
	.st4{fill:#EAE9E9;}
	.st5{fill:#FFFFFF;}
	.st6{fill:#E42730;}
	.st7{fill-rule:evenodd;clip-rule:evenodd;fill:#2A2022;}
</style>
<g>
	<g>
		<rect x="377.2" y="136.073" class="st0" width="30.026" height="6.152"/>
		<g>
			<polygon class="st1" points="388.661,136.811 387.602,141.566 389.972,141.566 390.323,138.954 391.366,141.566 392.791,141.566 
				393.86,138.938 394.216,141.566 396.555,141.566 395.419,136.811 393.013,136.811 392.068,139.287 391.175,136.811 			"/>
			<polygon class="st1" points="395.987,136.811 401.061,136.811 401.061,138.378 399.74,138.378 399.74,141.566 397.308,141.566 
				397.308,138.378 395.987,138.378 			"/>
			<path class="st1" d="M401.025,141.179c0.589,0.181,1.409,0.325,1.409,0.325c0.496,0.08,0.609,0.101,1.405,0.085
				c0.79-0.013,1.512-0.328,1.512-0.328c0.775-0.318,0.94-0.855,0.94-0.855c0.325-0.614-0.067-1.146-0.067-1.146
				c-0.273-0.413-1.017-0.604-1.017-0.604c-0.191-0.106-1.296-0.222-1.296-0.222c-0.351-0.026-0.253-0.232-0.253-0.232
				c0.015-0.24,0.697-0.194,0.743-0.194c0.346,0,1.115,0.362,1.115,0.362l0.666-1.252c-0.635-0.343-1.766-0.4-1.766-0.4
				c-0.96-0.098-1.869,0.25-1.869,0.25c-1.358,0.442-1.29,1.482-1.29,1.482c-0.016,0.304,0.16,0.702,0.521,0.919
				c0.547,0.331,1.368,0.408,1.399,0.408c0.413,0,0.619,0.098,0.619,0.098c0.31,0.093,0.083,0.33,0.083,0.33
				c-0.17,0.096-0.48,0.109-0.48,0.109c-0.8,0.051-1.673-0.503-1.673-0.503L401.025,141.179z"/>
		</g>
		<g>
			<path class="st1" d="M379.704,141.548h-1.673v-0.741c0-0.15,0.016-0.261,0.041-0.341c0.031-0.077,0.083-0.137,0.16-0.183
				c0.077-0.047,0.16-0.072,0.258-0.072c0.114,0,0.217,0.041,0.299,0.119c0.077,0.072,0.129,0.191,0.155,0.354
				c0.026-0.057,0.052-0.103,0.083-0.134c0.057-0.062,0.134-0.127,0.222-0.183l0.454-0.289v0.276l-0.346,0.225
				c-0.103,0.062-0.181,0.114-0.232,0.157c-0.051,0.041-0.093,0.08-0.114,0.114c-0.021,0.034-0.036,0.064-0.047,0.098
				c0,0.029-0.005,0.067-0.005,0.124v0.258h0.743V141.548z M378.769,141.329v-0.475c0-0.103-0.01-0.18-0.031-0.24
				c-0.021-0.057-0.057-0.101-0.103-0.127c-0.041-0.031-0.098-0.047-0.145-0.047c-0.083,0-0.15,0.031-0.201,0.088
				c-0.052,0.054-0.072,0.145-0.072,0.268v0.532H378.769z"/>
			<polygon class="st1" points="379.704,139.772 378.031,139.772 378.031,138.564 378.227,138.564 378.227,139.55 378.738,139.55 
				378.738,138.626 378.934,138.626 378.934,139.55 379.508,139.55 379.508,138.523 379.704,138.523 			"/>
			<path class="st1" d="M379.704,138.13h-1.673v-0.575c0-0.132,0.005-0.232,0.026-0.297c0.015-0.098,0.062-0.178,0.119-0.245
				c0.072-0.088,0.165-0.155,0.284-0.199c0.119-0.044,0.247-0.064,0.397-0.064c0.129,0,0.238,0.013,0.341,0.044
				c0.098,0.028,0.175,0.064,0.243,0.114c0.062,0.047,0.114,0.098,0.149,0.152c0.042,0.054,0.067,0.121,0.083,0.199
				c0.021,0.08,0.031,0.168,0.031,0.268V138.13z M379.508,137.911v-0.359c0-0.108-0.01-0.199-0.031-0.258
				c-0.026-0.064-0.052-0.114-0.088-0.149c-0.056-0.055-0.123-0.093-0.212-0.124c-0.088-0.031-0.196-0.044-0.32-0.044
				c-0.175,0-0.315,0.028-0.408,0.085c-0.093,0.057-0.155,0.129-0.191,0.209c-0.021,0.06-0.031,0.155-0.031,0.287v0.354H379.508z"/>
		</g>
	</g>
	<g>
		<path class="st2" d="M276.864,141.933c-0.222,0.114-0.692,0.23-1.28,0.23c-1.368,0-2.385-0.864-2.385-2.457
			c0-1.525,1.027-2.548,2.53-2.548c0.599,0,0.986,0.129,1.151,0.217l-0.155,0.508c-0.232-0.113-0.568-0.199-0.976-0.199
			c-1.136,0-1.89,0.725-1.89,1.998c0,1.193,0.687,1.949,1.854,1.949c0.392,0,0.78-0.08,1.033-0.201L276.864,141.933z"/>
		<path class="st2" d="M282.667,139.811h-1.879v1.747h2.101v0.524h-2.731v-4.845h2.623v0.524h-1.993v1.533h1.879V139.811z"/>
		<path class="st2" d="M286.219,142.082v-4.845h0.687l1.549,2.45c0.351,0.571,0.64,1.079,0.862,1.575l0.021-0.008
			c-0.057-0.646-0.072-1.234-0.072-1.988v-2.029h0.589v4.845h-0.63l-1.539-2.457c-0.341-0.542-0.661-1.094-0.903-1.618l-0.021,0.008
			c0.041,0.612,0.046,1.195,0.046,1.998v2.07H286.219z"/>
		<path class="st2" d="M294.381,137.769h-1.471v-0.532h3.588v0.532h-1.482v4.313h-0.635V137.769z"/>
		<path class="st2" d="M299.544,137.302c0.32-0.059,0.779-0.101,1.203-0.101c0.666,0,1.105,0.129,1.399,0.392
			c0.237,0.22,0.382,0.55,0.382,0.929c0,0.635-0.403,1.058-0.904,1.231v0.021c0.362,0.129,0.589,0.475,0.702,0.979
			c0.16,0.676,0.274,1.143,0.377,1.329h-0.65c-0.078-0.142-0.186-0.555-0.315-1.156c-0.145-0.668-0.408-0.922-0.976-0.942h-0.594
			v2.099h-0.625V137.302z M300.168,139.509h0.64c0.671,0,1.094-0.364,1.094-0.919c0-0.627-0.454-0.898-1.115-0.898
			c-0.304,0-0.511,0.021-0.619,0.049V139.509z"/>
		<path class="st2" d="M310.07,139.61c0,1.662-1.012,2.553-2.251,2.553c-1.286,0-2.179-0.996-2.179-2.465
			c0-1.538,0.95-2.545,2.24-2.545C309.213,137.152,310.07,138.164,310.07,139.61z M306.301,139.682c0,1.043,0.563,1.97,1.554,1.97
			c0.992,0,1.554-0.916,1.554-2.014c0-0.97-0.506-1.975-1.549-1.975C306.818,137.663,306.301,138.626,306.301,139.682z"/>
		<path class="st2" d="M317.422,137.237h2.612v0.524h-1.977v1.611h1.827v0.519h-1.827v2.191h-0.635V137.237z"/>
		<path class="st2" d="M325.95,139.811h-1.879v1.747h2.101v0.524h-2.731v-4.845h2.623v0.524h-1.993v1.533h1.879V139.811z"/>
		<path class="st2" d="M329.497,137.302c0.32-0.059,0.779-0.101,1.203-0.101c0.671,0,1.11,0.129,1.404,0.392
			c0.238,0.22,0.377,0.55,0.377,0.929c0,0.635-0.398,1.058-0.903,1.231v0.021c0.366,0.129,0.588,0.475,0.707,0.979
			c0.155,0.676,0.268,1.143,0.372,1.329h-0.645c-0.083-0.142-0.191-0.555-0.32-1.156c-0.145-0.668-0.408-0.922-0.975-0.942h-0.588
			v2.099h-0.63V137.302z M330.127,139.509h0.64c0.666,0,1.09-0.364,1.09-0.919c0-0.627-0.449-0.898-1.115-0.898
			c-0.299,0-0.506,0.021-0.614,0.049V139.509z"/>
		<path class="st2" d="M335.883,137.302c0.315-0.059,0.779-0.101,1.198-0.101c0.671,0,1.11,0.129,1.404,0.392
			c0.238,0.22,0.382,0.55,0.382,0.929c0,0.635-0.403,1.058-0.909,1.231v0.021c0.367,0.129,0.594,0.475,0.707,0.979
			c0.155,0.676,0.274,1.143,0.372,1.329h-0.645c-0.078-0.142-0.186-0.555-0.315-1.156c-0.145-0.668-0.413-0.922-0.976-0.942h-0.594
			v2.099h-0.625V137.302z M336.508,139.509h0.64c0.666,0,1.094-0.364,1.094-0.919c0-0.627-0.454-0.898-1.115-0.898
			c-0.305,0-0.511,0.021-0.62,0.049V139.509z"/>
		<path class="st2" d="M344.768,139.811h-1.874v1.747h2.096v0.524h-2.731v-4.845h2.623v0.524h-1.988v1.533h1.874V139.811z"/>
		<path class="st2" d="M349.239,137.769h-1.477v-0.532h3.588v0.532h-1.477v4.313h-0.635V137.769z"/>
		<path class="st2" d="M356.911,139.811h-1.879v1.747h2.101v0.524h-2.731v-4.845h2.623v0.524h-1.993v1.533h1.879V139.811z"/>
		<path class="st2" d="M360.463,137.302c0.315-0.059,0.774-0.101,1.198-0.101c0.666,0,1.11,0.129,1.404,0.392
			c0.238,0.22,0.382,0.55,0.382,0.929c0,0.635-0.403,1.058-0.909,1.231v0.021c0.366,0.129,0.588,0.475,0.702,0.979
			c0.16,0.676,0.274,1.143,0.377,1.329h-0.645c-0.082-0.142-0.191-0.555-0.32-1.156c-0.14-0.668-0.408-0.922-0.976-0.942h-0.588
			v2.099h-0.625V137.302z M361.087,139.509h0.64c0.666,0,1.094-0.364,1.094-0.919c0-0.627-0.455-0.898-1.12-0.898
			c-0.299,0-0.506,0.021-0.614,0.049V139.509z"/>
		<path class="st2" d="M370.984,139.61c0,1.662-1.012,2.553-2.246,2.553c-1.291,0-2.184-0.996-2.184-2.465
			c0-1.538,0.95-2.545,2.246-2.545C370.127,137.152,370.984,138.164,370.984,139.61z M367.221,139.682
			c0,1.043,0.558,1.97,1.549,1.97c0.996,0,1.554-0.916,1.554-2.014c0-0.97-0.501-1.975-1.544-1.975
			C367.737,137.663,367.221,138.626,367.221,139.682z"/>
	</g>
	<g>
		<polygon class="st2" points="302.259,132.258 296.234,132.258 294.52,118.905 288.919,132.258 286.524,132.258 281.18,118.905 
			279.213,132.258 273.199,132.258 277.138,109.07 283.101,109.07 287.794,121.437 292.75,109.07 298.764,109.07 		"/>
		<path class="st2" d="M328.114,132.258h-6.438l-1.492-4.045h-8.328l-1.59,4.045h-6.376l8.921-23.188h6.572L328.114,132.258z
			 M318.553,123.626l-2.499-7.388l-2.529,7.388H318.553z"/>
		<path class="st2" d="M351.113,120.655c0,2.411-0.728,4.646-2.179,6.701c-1.456,2.055-3.315,3.482-5.581,4.272
			c-1.197,0.418-2.426,0.63-3.67,0.63h-8.9V109.07h8.9c2.173,0,4.192,0.607,6.046,1.817c1.827,1.18,3.221,2.752,4.197,4.721
			C350.721,117.242,351.113,118.923,351.113,120.655 M344.866,120.655c0-1.601-0.449-2.997-1.347-4.189
			c-1.188-1.577-2.969-2.367-5.328-2.367h-1.379v13.128h1.379c2.375,0,4.151-0.787,5.328-2.367
			C344.417,123.66,344.866,122.255,344.866,120.655"/>
		<path class="st2" d="M374.237,132.258h-7.496l-5.756-8.9v8.9h-6.03V109.07h9.375c2.741,0,4.77,0.821,6.081,2.462
			c1.069,1.327,1.601,2.883,1.601,4.672c0,2.05-0.614,3.686-1.838,4.907c-0.779,0.782-1.858,1.327-3.227,1.631L374.237,132.258z
			 M365.76,116.535c0-0.826-0.305-1.518-0.909-2.083c-0.568-0.532-1.482-0.798-2.742-0.798h-1.125v5.777h1.125
			c1.27,0,2.189-0.263,2.742-0.795C365.455,118.058,365.76,117.361,365.76,116.535"/>
		<rect x="376.761" y="109.07" class="st3" width="6.03" height="4.035"/>
		<rect x="376.761" y="114.481" class="st2" width="6.03" height="17.777"/>
		<path class="st2" d="M408,120.655c0,2.411-0.728,4.646-2.179,6.701c-1.456,2.055-3.314,3.482-5.581,4.272
			c-1.203,0.418-2.427,0.63-3.671,0.63h-8.9V109.07h8.9c2.174,0,4.192,0.607,6.046,1.817c1.827,1.18,3.222,2.752,4.197,4.721
			C407.608,117.242,408,118.923,408,120.655 M401.753,120.655c0-1.601-0.449-2.997-1.347-4.189
			c-1.192-1.577-2.968-2.367-5.328-2.367h-1.379v13.128h1.379c2.37,0,4.151-0.787,5.328-2.367
			C401.304,123.66,401.753,122.255,401.753,120.655"/>
		<polygon class="st3" points="239.719,124.021 249.079,108.311 271.433,142.147 251.8,142.147 		"/>
		<polygon class="st3" points="239.719,124.021 230.354,108.311 208,142.147 227.634,142.147 		"/>
	</g>
</g>
<g>
	<g>
		<g>
			<path class="st4" d="M114.823,94.023c-2.73-0.837-3.298-4.741-4.322-7.712c-0.451-1.308-1.091-2.358-1.667-3.123
				c-0.171,0.017-0.299-0.03-0.361-0.165c-0.374-0.82-1.157-1.185-2.431-1.219c-1.274-0.034-1.939,3.932-3.436,2.324
				c-1.945-2.09-0.486-5.754,0.113-8.839c0.432-2.225,0.076-4.104-0.157-4.978c-0.312-0.477-0.87-0.83-1.687-1.104
				c-1.208-0.405-3.004,3.194-3.965,1.218c-1.249-2.567,1.218-5.645,2.692-8.419c0.79-1.485,1.108-2.914,1.233-3.923
				c-0.022-0.056-0.024-0.116-0.003-0.181c0.025-0.328,0.04-0.611,0.06-0.893c-0.101-0.538-0.453-1.071-1.05-1.639
				c-0.924-0.878-4.072,1.625-4.109-0.571c-0.047-2.855,3.489-4.602,5.999-6.493c0.591-0.445,1.095-0.92,1.52-1.385
				c0.23-0.556,0.475-1.104,0.734-1.644c-0.143-0.169-0.191-0.33-0.087-0.469c0.535-0.725,0.476-1.587-0.112-2.717
				c-0.588-1.131-4.379,0.211-3.699-1.878c0.885-2.715,4.798-3.215,7.786-4.186c2.151-0.699,3.914-1.767,4.733-2.311
				c-0.018-0.157,0.025-0.278,0.149-0.343c0.799-0.416,1.123-1.217,1.091-2.491c-0.033-1.274-4.029-1.731-2.501-3.309
				c1.985-2.052,5.721-0.786,8.833-0.349c3.112,0.437,5.48-0.605,5.48-0.605l0.094,0.345c0.496-0.25,0.91-0.747,1.284-1.496
				c0.569-1.14-2.745-3.419-0.655-4.096c2.716-0.88,5.42,1.991,7.963,3.839c2.542,1.847,5.122,2.038,5.122,2.038l-0.037,0.163
				c0.604-0.006,1.218-0.325,1.896-0.946c0.94-0.86-1.337-4.176,0.857-4.059c2.851,0.152,4.347,3.802,6.058,6.437
				c1.296,1.996,2.953,3.113,3.681,3.538c0.493,0.134,1.089,0.084,1.814-0.131c1.222-0.361,0.629-4.339,2.549-3.272
				c2.496,1.387,2.24,5.323,2.624,8.442c0.383,3.119,2.003,5.136,2.003,5.136l-0.111,0.065l0.235,0.397
				c0.411,0.296,0.982,0.46,1.728,0.519c1.27,0.101,2.142-3.826,3.553-2.141c1.833,2.189,0.184,5.772-0.576,8.821
				c-0.574,2.303-0.264,4.273-0.079,5.098c0.445,0.082,0.746,0.234,0.697,0.501c-0.164,0.886,0.268,1.634,1.292,2.393
				c1.024,0.759,3.844-2.109,4.148,0.067c0.395,2.828-2.903,4.993-5.163,7.176c-2.261,2.183-2.897,4.691-2.897,4.691l-0.155-0.065
				c-0.1,0.614,0.129,1.282,0.664,2.063c0.721,1.051,4.321-0.743,3.9,1.413c-0.547,2.802-4.37,3.776-7.218,5.104
				c-1.722,0.803-2.921,1.911-3.601,2.662c0.071,0.206,0.057,0.371-0.089,0.463c-0.76,0.485-1.013,1.311-0.869,2.577
				c0.144,1.266,4.165,1.373,2.78,3.079c-1.799,2.217-5.631,1.282-8.769,1.118c-2.627-0.138-4.644,0.712-5.232,0.993
				c-0.344,0.341-0.604,0.846-0.806,1.524c-0.363,1.222,3.297,2.891,1.356,3.92c-2.522,1.338-5.684-1.02-8.508-2.397
				c-1.246-0.608-2.444-0.897-3.393-1.03c-0.08,0.281-0.211,0.451-0.415,0.421c-0.891-0.132-1.624,0.325-2.347,1.375
				c-0.722,1.05,2.242,3.768,0.078,4.147c-2.812,0.493-5.091-2.727-7.351-4.91c-1.493-1.442-3.104-2.171-4.025-2.499
				c-0.139,0.097-0.271,0.12-0.392,0.034c-0.734-0.523-1.594-0.448-2.715,0.16C115.516,90.899,116.924,94.667,114.823,94.023z"/>
			<path class="st5" d="M173.376,43.435v0.578c0.659-0.184,1.354-0.282,2.071-0.282c4.249,0,7.693,3.444,7.693,7.693
				c0,4.248-3.444,7.693-7.693,7.693c-0.717,0-1.412-0.099-2.071-0.282v16.259h-10.651V43.435H173.376z M146.388,73.998
				c-1.193,0.669-2.825,1.07-4.729,1.095c-7.114,0-9.066-3.727-9.066-9.053V43.452h11.344v20.404c0,0.503-0.02,1.037,0.05,1.555
				c0.039,0.287,0.1,0.483,0.173,0.627c0.161,0.115,0.329,0.163,0.642,0.163c0.757,0,0.862-0.218,0.992-0.561
				c0.108-0.284,0.184-0.674,0.223-1.178c0.043-0.544,0.038-1.084,0.038-1.556V43.452h11.344v30.928h-11.011V73.998z
				 M150.913,10.463c-2.114,0.251-5.884,0.723-7.901,1.126c-0.808,0.162-1.422,0.596-2.057,1.534
				c-0.694,1.026-1.281,2.459-2.038,4.428c-1.482,3.853-6.965,16.747-10.818,26.083c-1.942,4.704-3.327,8.884-5.25,12.822
				c-2.001,4.099-4.59,7.984-8.882,11.885c-9.361,8.51-26.569,12.836-38.324,8.706c-9.553-3.357-13.432-10.7-14.881-14.887
				c-0.641-1.851-1.275-3.953-2.342-6.125c-1.015-2.063-2.421-4.17-4.638-6.187c-2.131-1.937-4.385-2.837-6.105-3.255
				c-1.624-0.395-2.802-0.35-2.802-0.35l-28.016,0.002v-6.509h64.057v7.545h-7.327c-0.16,0.013-0.814,0.076-1.678,0.295
				c-1.071,0.272-2.345,0.755-3.409,1.581c-1.804,1.402-3.763,4.373-0.766,11.525c5.783,13.8,19.46,12.176,28.612,6.17
				c9.311-6.111,12.197-17.801,15.221-35.019c2.114-12.035,17.044-23.528,27.18-27.461c5.394-2.093,11.538-2.14,16.191-1.722
				c4.736,0.425,9.2,1.635,9.2,1.635l5.443,14.399l-10.856,10.438L150.913,10.463z"/>
			<path class="st6" d="M165.16,45.061h6.518v2.12c1.029-1.121,2.507-1.823,4.148-1.823c3.109,0,5.629,2.52,5.629,5.629
				c0,3.109-2.52,5.629-5.629,5.629c-1.641,0-3.119-0.703-4.148-1.823v17.822h-6.518V45.061z M149.146,71.9v-3.995h-0.112
				c-1.109,3.186-3.218,4.661-6.712,4.708c-5.715,0-6.99-2.52-6.99-6.991V45.078h7.212v18.357c0,1.188-0.056,2.52,0.721,3.567
				c0.61,0.57,1.276,0.856,2.219,0.856c3.384,0,3.329-3.282,3.329-5.374V45.078h7.212V71.9H149.146z M161.554,25.063l-7.259-17.332
				c0,0-6.666,0.741-9.629,1.333c-2.963,0.593-4.148,3.407-5.629,7.259c-1.481,3.851-6.962,16.739-10.814,26.071
				c-3.852,9.332-5.481,16.591-13.628,23.998c-8.884,8.076-25.331,12.147-36.293,8.295c-8.753-3.075-12.295-9.777-13.628-13.628
				c-1.333-3.852-2.666-8.74-7.555-13.184c-4.888-4.444-10.369-4.148-10.369-4.148H20.826v-2.37h59.995v3.407h-5.333
				c0,0-14.221,0.74-7.703,16.294c6.593,15.733,22.22,13.332,31.701,7.11c10.201-6.694,13.155-19.411,16.147-36.441
				c1.926-10.962,15.998-22.072,25.923-25.923c9.925-3.852,23.109-0.296,23.109-0.296l4.592,12.147L161.554,25.063z"/>
			<path class="st5" d="M103.953,10.937v-1.2h8.083v1.199l0.23-1.199h8.14l5.891,28.214l-10.004-0.148l-0.057-4.783l-0.056,0.362
				h-4.145h-4.31h-0.708h-3.065h-4.027h-0.612h-4.316h-3.154h-9.416h-0.503H75.24h-0.895H65.33h-3.164h-3.929h-0.612h-4.346h-3.124
				h-3.968h-0.613h-4.316h-3.154h-9.919V25.08h-1.619v8.302h-8.083V9.736h9.702h3.43h6.489h3.154h4.718
				c1.528,0,2.996,0.357,4.179,1.16v-1.16h7.872c1.511,0,2.964,0.349,4.14,1.133V9.736h8.956h4.117h6.685h3.705h6.214h3.154h4.718
				C101.27,9.736,102.761,10.106,103.953,10.937z"/>
			<g>
				<polygon class="st7" points="24.196,31.011 24.196,22.71 28.931,22.71 28.931,20.024 24.196,20.024 24.196,15.385 
					29.245,15.385 29.245,12.699 21.446,12.699 21.446,31.011 				"/>
				<polygon class="st7" points="38.889,31.011 38.889,28.325 33.898,28.325 33.898,22.685 38.496,22.685 38.496,19.999 
					33.898,19.999 33.898,15.385 38.889,15.385 38.889,12.699 31.148,12.699 31.148,31.011 				"/>
				<path class="st7" d="M44.308,23.125c0.785,0,1.591-0.024,2.338,0.244c0.943,0.342,0.923,1.88,0.943,3.003
					c0.02,1.221-0.039,3.467,0.294,4.639h3.026v-0.342c-0.668-0.537-0.59-5.03-0.59-5.786c0-1.758-0.491-3.052-2.122-3.32v-0.049
					c1.847-0.317,2.259-2.417,2.259-4.419c0-3.369-1.808-4.395-4.185-4.395h-5.206v18.312h2.75v-7.886H44.308z M43.817,15.385h2.043
					c1.041,0.024,1.729,0.366,1.729,2.417c0,1.831-0.707,2.564-1.611,2.637h-2.161V15.385z"/>
				<path class="st7" d="M56.359,23.125c0.785,0,1.591-0.024,2.338,0.244c0.943,0.342,0.923,1.88,0.943,3.003
					c0.02,1.221-0.039,3.467,0.294,4.639h3.026v-0.342c-0.668-0.537-0.589-5.03-0.589-5.786c0-1.758-0.491-3.052-2.122-3.32v-0.049
					c1.847-0.317,2.259-2.417,2.259-4.419c0-3.369-1.808-4.395-4.185-4.395h-5.206v18.312h2.75v-7.886H56.359z M55.868,15.385h2.043
					c1.041,0.024,1.729,0.366,1.729,2.417c0,1.831-0.707,2.564-1.611,2.637h-2.161V15.385z"/>
				<polygon class="st7" points="72.869,31.011 72.869,28.325 67.88,28.325 67.88,22.685 72.477,22.685 72.477,19.999 67.88,19.999 
					67.88,15.385 72.869,15.385 72.869,12.699 65.129,12.699 65.129,31.011 				"/>
				<polygon class="st7" points="74.085,15.385 77.307,15.385 77.307,31.011 80.057,31.011 80.057,15.385 83.259,15.385 
					83.259,12.699 74.085,12.699 				"/>
				<polygon class="st7" points="92.628,31.011 92.628,28.325 87.638,28.325 87.638,22.685 92.235,22.685 92.235,19.999 
					87.638,19.999 87.638,15.385 92.628,15.385 92.628,12.699 84.888,12.699 84.888,31.011 				"/>
				<path class="st7" d="M98.048,23.125c0.786,0,1.591-0.024,2.338,0.244c0.943,0.342,0.923,1.88,0.943,3.003
					c0.02,1.221-0.039,3.467,0.294,4.639h3.026v-0.342c-0.668-0.537-0.59-5.03-0.59-5.786c0-1.758-0.491-3.052-2.121-3.32v-0.049
					c1.846-0.317,2.259-2.417,2.259-4.419c0-3.369-1.807-4.395-4.184-4.395h-5.206v18.312h2.75v-7.886H98.048z M97.557,15.385H99.6
					c1.041,0.024,1.729,0.366,1.729,2.417c0,1.831-0.707,2.564-1.611,2.637h-2.161V15.385z"/>
				<rect x="106.916" y="12.699" class="st7" width="2.75" height="18.312"/>
				<path class="st7" d="M114.196,31.011l0.727-4.639h3.222l0.727,4.639h2.947l-3.34-18.312h-3.713l-3.517,18.312H114.196z
					 M116.181,18.486c0.138-0.855,0.197-1.685,0.275-2.539c0.019-0.415,0.059-0.83,0.098-1.221h0.039
					c0.039,0.391,0.079,0.806,0.098,1.221c0.078,0.854,0.137,1.685,0.275,2.539l0.746,5.201h-2.357L116.181,18.486z"/>
			</g>
			<rect x="19.049" y="32.618" class="st1" width="105.62" height="5.333"/>
			<rect x="20.826" y="34.395" class="st7" width="100.731" height="2.074"/>
		</g>
		<g>
			<rect x="20.767" y="48.75" class="st0" width="34.939" height="7.16"/>
			<g>
				<polygon class="st1" points="34.098,49.609 32.869,55.145 35.627,55.145 36.037,52.102 37.247,55.145 38.906,55.145 
					40.154,52.083 40.564,55.145 43.284,55.145 41.961,49.609 39.166,49.609 38.067,52.493 37.024,49.609 				"/>
				<polygon class="st1" points="42.627,49.609 48.531,49.609 48.531,51.434 46.994,51.434 46.994,55.145 44.164,55.145 
					44.164,51.434 42.627,51.434 				"/>
				<path class="st1" d="M48.491,54.692c0.685,0.212,1.638,0.378,1.638,0.378c0.575,0.094,0.708,0.118,1.629,0.102
					c0.922-0.016,1.763-0.385,1.763-0.385c0.897-0.369,1.095-0.99,1.095-0.99c0.378-0.716-0.079-1.337-0.079-1.337
					c-0.322-0.479-1.181-0.7-1.181-0.7c-0.228-0.126-1.512-0.259-1.512-0.259c-0.41-0.031-0.291-0.268-0.291-0.268
					c0.016-0.283,0.811-0.227,0.865-0.227c0.401,0,1.291,0.416,1.291,0.416l0.78-1.454c-0.74-0.401-2.055-0.464-2.055-0.464
					c-1.118-0.117-2.173,0.29-2.173,0.29c-1.582,0.511-1.503,1.722-1.503,1.722c-0.019,0.356,0.187,0.816,0.606,1.069
					c0.637,0.385,1.592,0.479,1.63,0.479c0.48,0,0.716,0.11,0.716,0.11c0.363,0.11,0.095,0.385,0.095,0.385
					c-0.196,0.11-0.559,0.126-0.559,0.126c-0.929,0.063-1.945-0.59-1.945-0.59L48.491,54.692z"/>
			</g>
			<g>
				<path class="st1" d="M23.678,55.123h-1.948V54.26c0-0.173,0.018-0.305,0.053-0.396c0.034-0.09,0.096-0.162,0.185-0.216
					c0.088-0.054,0.186-0.081,0.293-0.081c0.138,0,0.255,0.045,0.349,0.134c0.095,0.089,0.155,0.227,0.18,0.414
					c0.033-0.068,0.065-0.12,0.097-0.155c0.069-0.075,0.155-0.146,0.259-0.214l0.53-0.339v0.324l-0.405,0.257
					c-0.117,0.075-0.206,0.137-0.268,0.186c-0.062,0.049-0.105,0.093-0.13,0.131c-0.025,0.038-0.042,0.077-0.052,0.117
					c-0.006,0.029-0.009,0.077-0.009,0.143v0.298h0.865V55.123z M22.59,54.865v-0.553c0-0.118-0.012-0.21-0.036-0.276
					c-0.025-0.066-0.064-0.117-0.117-0.151c-0.054-0.034-0.112-0.052-0.175-0.052c-0.092,0-0.168,0.034-0.227,0.101
					c-0.059,0.066-0.089,0.172-0.089,0.316v0.616H22.59z"/>
				<polygon class="st1" points="23.678,53.056 21.731,53.056 21.731,51.649 21.961,51.649 21.961,52.798 22.557,52.798 
					22.557,51.722 22.786,51.722 22.786,52.798 23.449,52.798 23.449,51.604 23.678,51.604 				"/>
				<path class="st1" d="M23.678,51.145h-1.948v-0.67c0-0.151,0.009-0.267,0.028-0.347c0.026-0.111,0.072-0.206,0.139-0.285
					c0.087-0.103,0.198-0.179,0.334-0.23c0.135-0.051,0.289-0.077,0.462-0.077c0.148,0,0.279,0.017,0.394,0.052
					c0.114,0.034,0.209,0.079,0.284,0.133c0.075,0.054,0.134,0.113,0.177,0.178c0.042,0.064,0.075,0.141,0.097,0.232
					c0.022,0.09,0.033,0.194,0.033,0.312V51.145z M23.449,50.888v-0.415c0-0.128-0.012-0.229-0.036-0.301
					c-0.024-0.073-0.058-0.132-0.101-0.175c-0.061-0.061-0.143-0.108-0.246-0.142c-0.104-0.034-0.229-0.052-0.376-0.052
					c-0.203,0-0.36,0.034-0.469,0.101c-0.11,0.066-0.183,0.147-0.221,0.243c-0.026,0.069-0.04,0.18-0.04,0.333v0.409H23.449z"/>
			</g>
		</g>
	</g>
	
		<ellipse transform="matrix(0.1602 -0.9871 0.9871 0.1602 51.2007 173.986)" class="st5" cx="127.848" cy="56.903" rx="3.502" ry="3.502"/>
</g>
</svg>
