<?xml version="1.0" encoding="utf-8"?>
<!-- Generator: Adobe Illustrator 24.0.3, SVG Export Plug-In . SVG Version: 6.00 Build 0)  -->
<svg version="1.1" id="Capa_1" xmlns="http://www.w3.org/2000/svg" xmlns:xlink="http://www.w3.org/1999/xlink" x="0px" y="0px"
	 width="200px" height="100px" viewBox="0 0 200 100" style="enable-background:new 0 0 200 100;" xml:space="preserve">
<style type="text/css">
	.st0{fill:#CF3339;}
	.st1{fill:#6F7271;}
	.st2{fill:#FFFFFF;}
	.st3{fill:#FDFFFF;}
	.st4{fill:#E21F28;}
	.st5{fill:none;stroke:#FFFFFF;stroke-width:0.032;stroke-miterlimit:3.864;}
	.st6{fill:#000F9F;}
	.st7{fill:url(#SVGID_1_);}
	.st8{fill:url(#SVGID_2_);}
	.st9{fill:url(#SVGID_3_);}
	.st10{fill:#C72023;}
	.st11{fill:#E21D27;}
	.st12{fill-rule:evenodd;clip-rule:evenodd;fill:#E21D27;}
	.st13{fill:#001689;}
	.st14{fill-rule:evenodd;clip-rule:evenodd;fill:#001689;}
	.st15{fill-rule:evenodd;clip-rule:evenodd;fill:#E20D1A;}
	.st16{fill-rule:evenodd;clip-rule:evenodd;fill:#FFFFFF;}
	.st17{fill:#E20D1A;}
	.st18{fill-rule:evenodd;clip-rule:evenodd;fill:#50494D;}
	.st19{fill:#D92628;}
	.st20{fill-rule:evenodd;clip-rule:evenodd;fill:#D92628;}
	.st21{fill:#50494D;}
	.st22{fill:#464449;}
	.st23{fill:#C52328;}
</style>
<g>
	<path class="st0" d="M247.248,152.657v-8.334l9.657-0.067v8.401h11.335v7.678h-11.335v17.983c0,2.94,0.463,5.019,1.392,6.232
		c0.927,1.215,2.551,1.822,4.874,1.822c2.319,0,4.486-0.612,6.496-1.835v8.785c-2.241,0.764-5.437,1.147-9.586,1.147
		c-4.125,0-7.293-1.159-9.51-3.472c-2.215-2.314-3.323-5.604-3.323-9.875v-20.786"/>
	<path class="st0" d="M280.463,173.724c0,9.021,3.282,13.53,9.845,13.53c3.01,0,5.396-1.172,7.16-3.518
		c1.764-2.341,2.643-5.682,2.643-10.013c0-8.893-3.268-13.34-9.803-13.34c-3.013,0-5.404,1.171-7.182,3.516
		C281.35,166.244,280.463,169.519,280.463,173.724 M270.47,173.724c0-6.257,1.816-11.352,5.45-15.285
		c3.634-3.934,8.43-5.901,14.388-5.901c6.265,0,11.13,1.891,14.597,5.668c3.466,3.781,5.198,8.953,5.198,15.517
		c0,6.538-1.764,11.735-5.296,15.591c-3.528,3.857-8.362,5.785-14.499,5.785c-6.267,0-11.139-1.949-14.618-5.844
		C272.21,185.365,270.47,180.185,270.47,173.724"/>
	<path class="st0" d="M311.345,191.696l3.43-7.613c2.88,2.281,6.128,3.421,9.753,3.421c3.75,0,5.628-1.33,5.628-3.991
		c0-1.562-0.569-2.839-1.699-3.839c-1.132-1-3.329-2.176-6.596-3.535c-7.122-2.935-10.683-7.048-10.683-12.336
		c0-3.551,1.358-6.316,4.083-8.294c2.721-1.981,6.2-2.971,10.438-2.971c4.288,0,8.32,0.955,12.097,2.862l-2.779,7.403
		c-2.109-1.78-5.041-2.671-8.796-2.671c-3.368,0-5.052,1.332-5.052,3.993c0,1.05,0.552,1.996,1.658,2.842
		c1.104,0.844,3.471,1.976,7.096,3.396c3.629,1.422,6.236,3.14,7.83,5.158c1.596,2.017,2.393,4.457,2.393,7.316
		c0,3.806-1.419,6.802-4.254,8.987c-2.838,2.184-6.694,3.276-11.573,3.276c-2.744,0-4.946-0.226-6.601-0.672
		C316.06,193.985,313.935,193.072,311.345,191.696"/>
	<path class="st0" d="M351.204,173.724c0,9.021,3.28,13.53,9.845,13.53c3.009,0,5.397-1.172,7.159-3.518
		c1.765-2.341,2.646-5.682,2.646-10.013c0-8.893-3.267-13.34-9.804-13.34c-3.013,0-5.406,1.171-7.182,3.516
		C352.092,166.244,351.204,169.519,351.204,173.724 M341.211,173.724c0-6.257,1.816-11.352,5.452-15.285
		c3.633-3.934,8.428-5.901,14.387-5.901c6.265,0,11.131,1.891,14.598,5.668c3.466,3.781,5.198,8.953,5.198,15.517
		c0,6.538-1.765,11.735-5.295,15.591c-3.532,3.857-8.366,5.785-14.501,5.785c-6.267,0-11.139-1.949-14.618-5.844
		C342.95,185.365,341.211,180.185,341.211,173.724"/>
	<g>
		<path class="st1" d="M249.578,205.92v-5.508h1.372l0.827,3.761l0.82-3.761h1.379v5.508h-0.855v-4.34l-0.906,4.34h-0.883
			l-0.899-4.34v4.34H249.578z"/>
		<path class="st1" d="M258.748,205.92h-0.995l-0.398-1.247h-1.82l-0.376,1.247h-0.975l1.77-5.508h0.972L258.748,205.92z
			 M257.06,203.741l-0.627-2.044l-0.616,2.044H257.06z M255.981,200.043l0.428-1.123h0.982l-0.857,1.123H255.981z"/>
		<path class="st1" d="M258.774,204.124l0.896-0.105c0.101,0.704,0.431,1.056,0.99,1.056c0.278,0,0.495-0.072,0.654-0.216
			c0.159-0.144,0.238-0.323,0.238-0.535c0-0.125-0.028-0.231-0.083-0.319c-0.055-0.088-0.14-0.16-0.253-0.216
			c-0.113-0.056-0.388-0.151-0.824-0.283c-0.391-0.118-0.677-0.245-0.858-0.383c-0.181-0.138-0.326-0.319-0.433-0.543
			c-0.107-0.224-0.161-0.465-0.161-0.723c0-0.301,0.068-0.571,0.206-0.811c0.137-0.24,0.327-0.422,0.569-0.544
			c0.242-0.123,0.54-0.184,0.896-0.184c0.535,0,0.952,0.144,1.252,0.432c0.3,0.288,0.459,0.7,0.476,1.236l-0.919,0.049
			c-0.04-0.295-0.127-0.502-0.261-0.62c-0.134-0.118-0.324-0.177-0.571-0.177c-0.247,0-0.438,0.051-0.571,0.154
			c-0.134,0.102-0.201,0.23-0.201,0.382c0,0.15,0.06,0.276,0.182,0.378c0.121,0.102,0.4,0.215,0.836,0.338
			c0.461,0.133,0.794,0.273,1,0.419c0.205,0.147,0.362,0.336,0.471,0.567c0.108,0.232,0.162,0.513,0.162,0.843
			c0,0.479-0.148,0.88-0.444,1.206c-0.296,0.326-0.759,0.488-1.389,0.488C259.519,206.014,258.899,205.384,258.774,204.124z"/>
		<path class="st1" d="M264.774,204.124l0.896-0.105c0.101,0.704,0.431,1.056,0.99,1.056c0.278,0,0.495-0.072,0.654-0.216
			c0.159-0.144,0.238-0.323,0.238-0.535c0-0.125-0.028-0.231-0.083-0.319c-0.055-0.088-0.14-0.16-0.253-0.216
			c-0.113-0.056-0.388-0.151-0.824-0.283c-0.391-0.118-0.677-0.245-0.858-0.383c-0.181-0.138-0.326-0.319-0.433-0.543
			c-0.107-0.224-0.161-0.465-0.161-0.723c0-0.301,0.068-0.571,0.206-0.811c0.137-0.24,0.327-0.422,0.569-0.544
			c0.242-0.123,0.54-0.184,0.896-0.184c0.535,0,0.952,0.144,1.252,0.432c0.3,0.288,0.459,0.7,0.476,1.236l-0.919,0.049
			c-0.04-0.295-0.127-0.502-0.261-0.62c-0.134-0.118-0.324-0.177-0.571-0.177c-0.247,0-0.438,0.051-0.571,0.154
			c-0.134,0.102-0.201,0.23-0.201,0.382c0,0.15,0.06,0.276,0.182,0.378c0.121,0.102,0.4,0.215,0.836,0.338
			c0.461,0.133,0.794,0.273,1,0.419c0.205,0.147,0.362,0.336,0.471,0.567c0.108,0.232,0.162,0.513,0.162,0.843
			c0,0.479-0.148,0.88-0.444,1.206c-0.296,0.326-0.759,0.488-1.389,0.488C265.519,206.014,264.899,205.384,264.774,204.124z"/>
		<path class="st1" d="M269.018,205.92v-5.508h3.373v0.932h-2.457v1.221h2.283v0.928h-2.283v1.495h2.541v0.932H269.018z"/>
		<path class="st1" d="M273.028,205.92v-5.508h1.932c0.494,0,0.847,0.049,1.058,0.149c0.212,0.099,0.386,0.27,0.522,0.515
			c0.136,0.244,0.204,0.537,0.204,0.877c0,0.431-0.104,0.778-0.312,1.041c-0.209,0.263-0.504,0.428-0.887,0.496
			c0.197,0.14,0.359,0.294,0.488,0.46c0.128,0.166,0.304,0.465,0.525,0.896l0.552,1.075h-1.095l-0.664-1.199
			c-0.239-0.433-0.401-0.705-0.487-0.814c-0.086-0.109-0.177-0.184-0.272-0.225c-0.096-0.041-0.25-0.062-0.461-0.062h-0.189v2.299
			H273.028z M273.943,202.741h0.68c0.416,0,0.68-0.018,0.794-0.054c0.113-0.036,0.205-0.11,0.276-0.22
			c0.07-0.11,0.106-0.257,0.106-0.439c0-0.175-0.036-0.316-0.106-0.423c-0.07-0.107-0.166-0.18-0.288-0.22
			c-0.085-0.028-0.334-0.041-0.744-0.041h-0.718V202.741z"/>
		<path class="st1" d="M278.771,205.92l-1.626-5.508h0.995l1.151,4.077l1.114-4.077h0.975l-1.63,5.508H278.771z"/>
		<path class="st1" d="M281.814,205.92v-5.508h0.915v5.508H281.814z"/>
		<path class="st1" d="M286.518,203.895l0.888,0.342c-0.139,0.616-0.369,1.067-0.692,1.351c-0.323,0.284-0.72,0.427-1.191,0.427
			c-0.592,0-1.073-0.227-1.44-0.68c-0.423-0.524-0.635-1.23-0.635-2.119c0-0.939,0.213-1.675,0.639-2.206
			c0.371-0.461,0.87-0.691,1.495-0.691c0.509,0,0.936,0.173,1.279,0.518c0.245,0.246,0.424,0.61,0.537,1.093l-0.908,0.263
			c-0.058-0.298-0.174-0.527-0.346-0.686c-0.173-0.159-0.377-0.239-0.612-0.239c-0.336,0-0.61,0.145-0.822,0.436
			c-0.212,0.291-0.318,0.771-0.318,1.439c0,0.694,0.103,1.187,0.31,1.48c0.207,0.293,0.475,0.44,0.805,0.44
			c0.242,0,0.451-0.093,0.627-0.28C286.312,204.597,286.439,204.3,286.518,203.895z"/>
		<path class="st1" d="M288.162,205.92v-5.508h0.915v5.508H288.162z"/>
		<path class="st1" d="M289.769,203.2c0-0.656,0.098-1.197,0.293-1.621c0.195-0.424,0.451-0.741,0.766-0.949
			c0.315-0.208,0.697-0.312,1.145-0.312c0.65,0,1.18,0.247,1.59,0.74c0.41,0.494,0.614,1.196,0.614,2.108
			c0,0.922-0.217,1.642-0.65,2.161c-0.381,0.458-0.898,0.688-1.551,0.688c-0.657,0-1.177-0.227-1.557-0.68
			C289.986,204.815,289.769,204.104,289.769,203.2z M290.714,203.162c0,0.634,0.121,1.109,0.364,1.426
			c0.242,0.317,0.543,0.475,0.901,0.475c0.36,0,0.66-0.157,0.897-0.471c0.237-0.314,0.356-0.797,0.356-1.448
			c0-0.639-0.116-1.111-0.347-1.417c-0.231-0.306-0.533-0.458-0.906-0.458c-0.374,0-0.678,0.154-0.913,0.462
			C290.831,202.039,290.714,202.516,290.714,203.162z"/>
		<path class="st1" d="M294.665,204.124l0.896-0.105c0.101,0.704,0.431,1.056,0.99,1.056c0.278,0,0.496-0.072,0.654-0.216
			c0.159-0.144,0.238-0.323,0.238-0.535c0-0.125-0.028-0.231-0.083-0.319c-0.055-0.088-0.14-0.16-0.253-0.216
			c-0.113-0.056-0.388-0.151-0.824-0.283c-0.391-0.118-0.677-0.245-0.858-0.383c-0.181-0.138-0.326-0.319-0.433-0.543
			c-0.107-0.224-0.161-0.465-0.161-0.723c0-0.301,0.068-0.571,0.206-0.811c0.137-0.24,0.327-0.422,0.569-0.544
			c0.242-0.123,0.54-0.184,0.896-0.184c0.535,0,0.952,0.144,1.252,0.432c0.3,0.288,0.459,0.7,0.476,1.236l-0.919,0.049
			c-0.04-0.295-0.127-0.502-0.261-0.62c-0.134-0.118-0.324-0.177-0.571-0.177c-0.247,0-0.438,0.051-0.571,0.154
			c-0.134,0.102-0.2,0.23-0.2,0.382c0,0.15,0.06,0.276,0.182,0.378c0.121,0.102,0.4,0.215,0.836,0.338
			c0.461,0.133,0.794,0.273,1,0.419c0.205,0.147,0.362,0.336,0.471,0.567c0.108,0.232,0.162,0.513,0.162,0.843
			c0,0.479-0.148,0.88-0.444,1.206c-0.296,0.326-0.759,0.488-1.389,0.488C295.411,206.014,294.791,205.384,294.665,204.124z"/>
		<path class="st1" d="M299.103,204.864h0.87v0.755c0,0.428-0.05,0.746-0.151,0.955c-0.124,0.258-0.331,0.449-0.621,0.575
			l-0.17-0.436c0.171-0.07,0.295-0.165,0.37-0.284c0.076-0.119,0.116-0.289,0.121-0.509h-0.42V204.864z"/>
		<path class="st1" d="M302.65,205.92v-5.508h1.372l0.827,3.761l0.82-3.761h1.379v5.508h-0.855v-4.34l-0.906,4.34h-0.883l-0.9-4.34
			v4.34H302.65z"/>
		<path class="st1" d="M307.955,205.92v-5.508h3.373v0.932h-2.458v1.221h2.283v0.928h-2.283v1.495h2.541v0.932H307.955z"/>
		<path class="st1" d="M313.83,200.412h0.915v3.487c0,0.564-0.057,0.983-0.17,1.259c-0.114,0.276-0.283,0.487-0.509,0.635
			c-0.226,0.148-0.504,0.222-0.834,0.222c-0.436,0-0.777-0.149-1.025-0.447c-0.247-0.298-0.372-0.748-0.374-1.349l0.866-0.12
			c0.01,0.323,0.052,0.552,0.125,0.688c0.099,0.186,0.246,0.278,0.444,0.278c0.192,0,0.334-0.067,0.425-0.201
			c0.091-0.134,0.136-0.431,0.136-0.892V200.412z"/>
		<path class="st1" d="M315.531,203.2c0-0.656,0.098-1.197,0.293-1.621c0.195-0.424,0.451-0.741,0.766-0.949
			c0.315-0.208,0.697-0.312,1.145-0.312c0.65,0,1.18,0.247,1.59,0.74c0.41,0.494,0.614,1.196,0.614,2.108
			c0,0.922-0.217,1.642-0.65,2.161c-0.381,0.458-0.898,0.688-1.551,0.688c-0.657,0-1.177-0.227-1.557-0.68
			C315.749,204.815,315.531,204.104,315.531,203.2z M316.477,203.162c0,0.634,0.121,1.109,0.364,1.426
			c0.242,0.317,0.543,0.475,0.901,0.475c0.36,0,0.66-0.157,0.897-0.471c0.237-0.314,0.356-0.797,0.356-1.448
			c0-0.639-0.116-1.111-0.347-1.417c-0.231-0.306-0.533-0.458-0.906-0.458c-0.374,0-0.678,0.154-0.913,0.462
			C316.594,202.039,316.477,202.516,316.477,203.162z"/>
		<path class="st1" d="M320.662,205.92v-5.508h1.932c0.494,0,0.847,0.049,1.058,0.149c0.212,0.099,0.386,0.27,0.522,0.515
			c0.136,0.244,0.204,0.537,0.204,0.877c0,0.431-0.104,0.778-0.312,1.041c-0.209,0.263-0.504,0.428-0.887,0.496
			c0.197,0.14,0.359,0.294,0.488,0.46c0.128,0.166,0.304,0.465,0.525,0.896l0.552,1.075h-1.095l-0.664-1.199
			c-0.239-0.433-0.401-0.705-0.487-0.814c-0.086-0.109-0.177-0.184-0.272-0.225c-0.096-0.041-0.25-0.062-0.461-0.062h-0.189v2.299
			H320.662z M321.577,202.741h0.68c0.416,0,0.68-0.018,0.794-0.054c0.113-0.036,0.205-0.11,0.276-0.22
			c0.07-0.11,0.106-0.257,0.106-0.439c0-0.175-0.035-0.316-0.106-0.423c-0.07-0.107-0.166-0.18-0.288-0.22
			c-0.085-0.028-0.334-0.041-0.744-0.041h-0.718V202.741z"/>
		<path class="st1" d="M325.245,205.92v-5.508h3.373v0.932h-2.458v1.221h2.283v0.928h-2.283v1.495h2.541v0.932H325.245z"/>
		<path class="st1" d="M329.245,204.124l0.896-0.105c0.101,0.704,0.431,1.056,0.99,1.056c0.278,0,0.496-0.072,0.654-0.216
			c0.159-0.144,0.238-0.323,0.238-0.535c0-0.125-0.028-0.231-0.083-0.319c-0.055-0.088-0.14-0.16-0.253-0.216
			c-0.113-0.056-0.388-0.151-0.824-0.283c-0.391-0.118-0.677-0.245-0.858-0.383c-0.181-0.138-0.326-0.319-0.433-0.543
			c-0.107-0.224-0.161-0.465-0.161-0.723c0-0.301,0.068-0.571,0.206-0.811c0.137-0.24,0.327-0.422,0.569-0.544
			c0.242-0.123,0.54-0.184,0.896-0.184c0.535,0,0.952,0.144,1.252,0.432c0.3,0.288,0.459,0.7,0.476,1.236l-0.919,0.049
			c-0.04-0.295-0.127-0.502-0.261-0.62c-0.134-0.118-0.324-0.177-0.571-0.177c-0.247,0-0.438,0.051-0.571,0.154
			c-0.134,0.102-0.2,0.23-0.2,0.382c0,0.15,0.06,0.276,0.182,0.378c0.121,0.102,0.4,0.215,0.836,0.338
			c0.461,0.133,0.794,0.273,1,0.419c0.205,0.147,0.362,0.336,0.471,0.567c0.108,0.232,0.162,0.513,0.162,0.843
			c0,0.479-0.148,0.88-0.444,1.206c-0.296,0.326-0.759,0.488-1.389,0.488C329.99,206.014,329.37,205.384,329.245,204.124z"/>
		<path class="st1" d="M335.245,204.124l0.896-0.105c0.101,0.704,0.431,1.056,0.99,1.056c0.278,0,0.496-0.072,0.654-0.216
			c0.159-0.144,0.238-0.323,0.238-0.535c0-0.125-0.028-0.231-0.083-0.319c-0.055-0.088-0.14-0.16-0.253-0.216
			c-0.113-0.056-0.388-0.151-0.824-0.283c-0.391-0.118-0.677-0.245-0.858-0.383c-0.181-0.138-0.326-0.319-0.433-0.543
			c-0.107-0.224-0.161-0.465-0.161-0.723c0-0.301,0.068-0.571,0.206-0.811c0.137-0.24,0.327-0.422,0.569-0.544
			c0.242-0.123,0.54-0.184,0.896-0.184c0.535,0,0.952,0.144,1.252,0.432c0.3,0.288,0.459,0.7,0.476,1.236l-0.919,0.049
			c-0.04-0.295-0.127-0.502-0.261-0.62c-0.134-0.118-0.324-0.177-0.571-0.177c-0.247,0-0.438,0.051-0.571,0.154
			c-0.134,0.102-0.2,0.23-0.2,0.382c0,0.15,0.06,0.276,0.182,0.378c0.121,0.102,0.4,0.215,0.836,0.338
			c0.461,0.133,0.794,0.273,1,0.419c0.205,0.147,0.362,0.336,0.471,0.567c0.108,0.232,0.163,0.513,0.163,0.843
			c0,0.479-0.148,0.88-0.444,1.206c-0.296,0.326-0.759,0.488-1.389,0.488C335.99,206.014,335.37,205.384,335.245,204.124z"/>
		<path class="st1" d="M339.524,203.2c0-0.656,0.098-1.197,0.293-1.621c0.195-0.424,0.451-0.741,0.766-0.949
			c0.315-0.208,0.697-0.312,1.145-0.312c0.65,0,1.18,0.247,1.59,0.74c0.41,0.494,0.614,1.196,0.614,2.108
			c0,0.922-0.217,1.642-0.65,2.161c-0.381,0.458-0.898,0.688-1.551,0.688c-0.657,0-1.177-0.227-1.557-0.68
			C339.741,204.815,339.524,204.104,339.524,203.2z M340.47,203.162c0,0.634,0.121,1.109,0.364,1.426
			c0.242,0.317,0.543,0.475,0.901,0.475c0.36,0,0.66-0.157,0.897-0.471c0.237-0.314,0.356-0.797,0.356-1.448
			c0-0.639-0.116-1.111-0.347-1.417c-0.231-0.306-0.533-0.458-0.906-0.458c-0.374,0-0.678,0.154-0.913,0.462
			C340.587,202.039,340.47,202.516,340.47,203.162z"/>
		<path class="st1" d="M344.678,205.92v-5.463h0.914v4.531h2.284v0.932H344.678z"/>
		<path class="st1" d="M348.523,200.412h0.915v2.983c0,0.463,0.011,0.765,0.034,0.905c0.04,0.243,0.138,0.431,0.29,0.564
			c0.153,0.133,0.354,0.199,0.604,0.199c0.212,0,0.385-0.047,0.519-0.141c0.134-0.094,0.225-0.224,0.274-0.391
			c0.049-0.166,0.074-0.524,0.074-1.073v-3.047h0.915v2.893c0,0.739-0.04,1.273-0.12,1.603c-0.079,0.329-0.258,0.596-0.537,0.8
			c-0.279,0.204-0.646,0.306-1.102,0.306c-0.474,0-0.843-0.085-1.109-0.254c-0.266-0.169-0.459-0.407-0.579-0.714
			c-0.12-0.307-0.179-0.872-0.179-1.697V200.412z"/>
		<path class="st1" d="M356.024,203.895l0.888,0.342c-0.139,0.616-0.369,1.067-0.692,1.351c-0.323,0.284-0.72,0.427-1.191,0.427
			c-0.592,0-1.073-0.227-1.44-0.68c-0.423-0.524-0.635-1.23-0.635-2.119c0-0.939,0.213-1.675,0.639-2.206
			c0.371-0.461,0.87-0.691,1.495-0.691c0.509,0,0.936,0.173,1.279,0.518c0.245,0.246,0.424,0.61,0.537,1.093l-0.908,0.263
			c-0.058-0.298-0.174-0.527-0.346-0.686c-0.173-0.159-0.377-0.239-0.612-0.239c-0.336,0-0.61,0.145-0.822,0.436
			c-0.212,0.291-0.318,0.771-0.318,1.439c0,0.694,0.103,1.187,0.31,1.48c0.207,0.293,0.476,0.44,0.805,0.44
			c0.242,0,0.451-0.093,0.628-0.28C355.818,204.597,355.945,204.3,356.024,203.895z"/>
		<path class="st1" d="M357.668,205.92v-5.508h0.915v5.508H357.668z"/>
		<path class="st1" d="M359.275,203.2c0-0.656,0.098-1.197,0.293-1.621c0.195-0.424,0.451-0.741,0.766-0.949
			c0.315-0.208,0.697-0.312,1.145-0.312c0.651,0,1.18,0.247,1.59,0.74c0.41,0.494,0.614,1.196,0.614,2.108
			c0,0.922-0.217,1.642-0.65,2.161c-0.381,0.458-0.898,0.688-1.551,0.688c-0.657,0-1.177-0.227-1.557-0.68
			C359.492,204.815,359.275,204.104,359.275,203.2z M360.22,203.162c0,0.634,0.121,1.109,0.364,1.426
			c0.242,0.317,0.543,0.475,0.901,0.475c0.36,0,0.66-0.157,0.897-0.471c0.237-0.314,0.356-0.797,0.356-1.448
			c0-0.639-0.116-1.111-0.347-1.417c-0.231-0.306-0.533-0.458-0.906-0.458c-0.374,0-0.678,0.154-0.913,0.462
			C360.337,202.039,360.22,202.516,360.22,203.162z"/>
		<path class="st1" d="M364.413,205.92v-5.508h0.893l1.86,3.678v-3.678h0.855v5.508h-0.923l-1.83-3.592v3.592H364.413z"/>
		<path class="st1" d="M368.988,205.92v-5.508h3.373v0.932h-2.458v1.221h2.283v0.928h-2.283v1.495h2.541v0.932H368.988z"/>
		<path class="st1" d="M372.989,204.124l0.896-0.105c0.101,0.704,0.431,1.056,0.99,1.056c0.278,0,0.496-0.072,0.654-0.216
			c0.159-0.144,0.238-0.323,0.238-0.535c0-0.125-0.028-0.231-0.083-0.319c-0.055-0.088-0.14-0.16-0.253-0.216
			c-0.113-0.056-0.388-0.151-0.824-0.283c-0.391-0.118-0.677-0.245-0.858-0.383c-0.181-0.138-0.326-0.319-0.433-0.543
			c-0.107-0.224-0.161-0.465-0.161-0.723c0-0.301,0.068-0.571,0.206-0.811c0.137-0.24,0.327-0.422,0.569-0.544
			c0.242-0.123,0.54-0.184,0.896-0.184c0.535,0,0.952,0.144,1.252,0.432c0.3,0.288,0.459,0.7,0.476,1.236l-0.919,0.049
			c-0.04-0.295-0.127-0.502-0.261-0.62c-0.134-0.118-0.324-0.177-0.571-0.177c-0.247,0-0.438,0.051-0.571,0.154
			c-0.134,0.102-0.2,0.23-0.2,0.382c0,0.15,0.06,0.276,0.182,0.378c0.121,0.102,0.4,0.215,0.836,0.338
			c0.461,0.133,0.794,0.273,1,0.419c0.205,0.147,0.362,0.336,0.471,0.567c0.108,0.232,0.162,0.513,0.162,0.843
			c0,0.479-0.148,0.88-0.444,1.206c-0.296,0.326-0.759,0.488-1.389,0.488C373.734,206.014,373.114,205.384,372.989,204.124z"/>
	</g>
	<path class="st1" d="M213.69,195.367l3.14-16.041l0.137-2.51c0,0-0.754-1.073-1.165-3.03c0,0-0.514-1.277,0.274-2.587
		c0,0,0.685-1.294,2.517-2.622l-0.034-1.583c0,0-0.634-0.493-0.925-1.174c0,0-1.885-0.153-2.158-1.48c0,0-0.31-1.192,1.266-2.723
		c0,0,0.481-0.46,1.867-1.192c0,0,0.942-0.561,1.148-0.8c0,0,1.32-0.988,2.895-1.141c0,0-2.98-0.612-4.026-2.144
		c0,0-0.666,0.017-1.215-1.073l-0.771,1.277c0,0-1.353,0.29-1.73-1.021l1.302-2.843c0,0-1.542-4.766,0.96-8.459
		c0,0,2.277-3.286,6.063-3.711c0,0,5.292-0.647,7.125,4.425c0,0,6.268,1.362,0.393,4.477c0,0,1.183,7.949-4.573,9.328
		c0,0,1.335,0.554,1.994,1.239c0,0,0.849,0.871,1.911,1.042c0,0,0.925,0.324,1.165,0.528l0.137-0.187l2.191-0.562
		c0,0,0.479,0,0.428-0.732c0,0-0.256-0.392,0-1.004l0.514-0.869c0,0,0.428-0.273,1.045-0.085c0,0-1.473-2.707,0.223-3.354
		l1.419-2.146c0,0,0.036,1.006,4.147,0.444c0,0-0.522,2.729,1.841,3.921l-1.927,3.706c0,0-0.034,1.225-1.473,1.021
		c0,0,0.069,0.545-0.36,0.766c0,0,0.188,0.698-0.651,0.987c0,0-0.548,0.17-0.444,0.664c0,0-0.035,0.681-1.028,0.749
		c0,0-0.411,0.784-1.301,0.596c0,0-1.32,2.945-2.364,0.902c0,0-1.336,0.459-2.192-0.851c0,0-2.74-0.119-3.323-0.375
		c0,0,0.051,0.834,0.051,1.158c0,0,0.446,0.118,0.942,0.426c0,0,3.323-1.668,4.316,0.765l0.667,6.775c0,0,2.45,2.468-0.016,3.234
		l4.401,18.06L213.69,195.367z"/>
	<path class="st2" d="M216.318,152.417c0,0-1.255-5.695,1.91-9.05c0,0,3.094-3.213,6.903-2.427c0,0,3.595,0.57,4.747,3.996
		c0,0-4.1,0.858-6.689,1.928c0,0-2.027,1.153-4.329,3.081l-0.121-0.45l-1.498,0.934L216.318,152.417z"/>
	<path class="st2" d="M215.153,155.71l2.39-5.115l1.158-0.733l0.41,1.396l-0.914,2.182c0,0-1.046,0.035-0.859,1.306l-1.01,1.627
		C216.328,156.372,215.453,156.551,215.153,155.71"/>
	<path class="st2" d="M220.873,148.947c0,0,3.45-3.161,9.697-3.716c0,0,0.835,0.156,0.905,0.26c0,0-3.063,0.104-5.448,1.367
		C226.027,146.858,221.949,149.861,220.873,148.947"/>
	<path class="st2" d="M223.375,158.62c0,0-3.61-0.822-4.365-2.269c0,0,0.305-0.106,0.305-0.339c0,0-0.989,0.661-1.402-0.41
		c0,0-0.539-1.036-0.108-1.572c0,0,0.198-0.161,0.522-0.124l0.557-1.358c0,0-0.484,1.375,0.288,2.125c0,0,0.88,1.124,0.718-0.178
		c0,0-0.071-0.41-0.195-0.768c0,0-0.289-0.803,0.124-1.106c0,0,1.023-1.126,0.772-2.929c0,0,0.179,0.231,2.263-0.554
		c0,0,1.581-0.786,2.965-1.677c0,0,2.209-0.251,4.42,1.159c0,0,1.976,8.321-4.635,10.213l0.09,0.285c0,0-0.395,0.715-1.276,0.644
		c0,0-0.52-0.089-1.096-0.75L223.375,158.62z"/>
	<path class="st1" d="M224.435,152.844c0,0-0.59-0.181-0.273-0.992c0,0,0.227-0.811,0.998-0.744c0,0,0.385,0.203,0.158,0.968
		C225.319,152.077,225.319,152.754,224.435,152.844"/>
	<path class="st1" d="M224.59,155.172c0,0,1.449,1.24,2.451,0.741c0.059-0.029,0.025,0.133,0.025,0.133s-1.74,1.747-3.08-0.575"/>
	<path class="st1" d="M229.948,151.086c0,0-0.204-0.294-0.611,0.067c0,0-0.499,0.27-0.341,1.082c0,0,0.431,0.564,0.794-0.045
		c0.362-0.607-0.046,0-0.046,0S230.197,151.717,229.948,151.086"/>
	<path class="st1" d="M224.389,148.334c0.075-0.447,0.477,0.429,0.477,0.429c0.068,0.473-0.385,0.608-0.385,0.608
		c-1.34,0.315-1.679,0.97-1.679,0.97c-0.657,0.383-0.84-0.203-0.84-0.203c-0.157-0.383,0.137-0.655,0.137-0.655
		S224.328,148.701,224.389,148.334"/>
	<path class="st1" d="M228.042,148.604c0,0-0.022-0.45,0.635-0.427c0.66,0.022,1.452,1.037,1.452,1.037s0.296,0.766-0.361,0.653
		c0,0-0.113-0.091-0.364-0.338c0,0-0.453-0.315-0.772-0.315C228.632,149.215,227.861,149.371,228.042,148.604"/>
	<path class="st1" d="M226.961,152.51c0.02,0,1.02,0.15,1.158,0.972c0,0,0.103,1.247-1.341,1.024c0,0,1.301,0.02,1.189-0.965
		C227.855,152.555,226.961,152.51,226.961,152.51"/>
	<path class="st2" d="M218.563,166.698l6.288-0.393c0,0,0.681,0.643,1.077-0.036c0,0,0.539-0.607,0.791-1.428
		c0,0,0.372-0.991-0.55-1.657c0,0-0.024-0.522,0.838-0.487c0,0,0.611,0.677,0.97,0.464c0,0,0.179-0.499-1.077-1.179
		c0,0-1.367-0.214-2.156,0.215l-1.437,1l-4.025-1.107C219.281,162.092,216.12,164.272,218.563,166.698"/>
	<path class="st2" d="M233.655,166.047c0,0-2.061,1.289-2.529-2.512c-0.127-1.026,0-0.036,0-0.036s-0.199-0.496,0.397-1.839
		l2.131-0.496c0,0,0.849-0.247,0.722-1.256c0,0-0.641-0.395,0.253-1.344c0.136-0.145,0.019-0.053,0.019-0.053
		s0.342-0.497,1.301,0.087c0,0,1.443,0.69,1.064,1.257c0,0-0.505,0.885-1.789,0.053c0,0,0.488,0.371,1.103,0.461
		C236.328,160.368,233.601,164.296,233.655,166.047"/>
	<path class="st2" d="M238.116,160.649c0,0,0.985,0.827,1.432,0.827c0,0,0.307,0.699-0.422,0.775c0,0,0.499,0.738-0.396,0.852
		c0,0-0.498,0.241-0.601,0.825c0,0,0.09,0.662-0.908,0.56c0,0-0.243,0.863-1.086,0.609c0,0-0.32-0.609,0.894-0.787
		c0,0-1.266-0.088-0.383-0.979l0.28-0.051l-0.19-0.178c0,0-0.563-1.944,1.33-1.333c0,0,0.204-0.103-0.64-0.331
		C237.425,161.437,237.298,160.777,238.116,160.649"/>
	<path class="st2" d="M236.071,154.963l1.237-2.504c0,0,0.213,0.817,4.192,0.447c0,0-0.326,2.699,1.731,4.052l-2.007,3.258
		L236.071,154.963z"/>
	<path class="st0" d="M237.359,152.193l1.623-3.652c0,0,0.428-0.153,1.195,0.122l4.164,3.135c0,0,1.163,0.731,0.491,2.161
		l-1.439,2.769c0,0-1.869-0.852-1.747-4.108C241.647,152.619,238.678,153.41,237.359,152.193"/>
	<path class="st2" d="M218.29,169.025l-1.631,1.965c0,0-0.659,1.107-0.564,2.143c0,0,0.095,1.214,0.972,3.356
		c0,0,0.971,1.679,1.975,0.036c0,0-1.442-1.141-1.474-2.643C217.537,172.383,217.256,171.526,218.29,169.025"/>
	<path class="st2" d="M229.67,175.73c0,0,2.125-1.391,3.445-1.391c0,0,1.586,0.096,1.83,2.191c0,0-1.758,2.22-6.24,0.671
		l0.086-0.279l0.879-0.38V175.73z"/>
	<path class="st2" d="M220.588,176.312c0,0-0.106-5.065-0.341-6.026l0.132-0.027l0.052-0.285c0,0-1.124-0.364-0.678-1.715
		c0,0,0.288-1.013,1.489-1.325l3.529-0.234c0,0,0.495,0.52,1.123,0.13c0,0,0.289-0.312,0.418-0.467l0.941,0.312
		c0,0,0.052,1.896-0.627,5.403c0,0,0.366,0.727,1.02,0.027c0,0,0.471-4.287,0.418-5.274c0,0,2.484,0.444,1.386,2.727l-0.237,6.91
		C229.213,176.467,223.96,180.078,220.588,176.312"/>
	<path class="st2" d="M225.886,163.046c0,0,1.277-0.593,1.473,1.4c0,0,0.433,2.18-0.275,7.746c0,0-0.276,0.639-0.669,0.037
		c0,0,0.827-5.303,0.63-6.956l-0.433-0.789C226.611,164.484,226.771,163.451,225.886,163.046"/>
	<path class="st0" d="M221.424,169.64c0,0-0.613-0.365-0.705-1.156c0,0,0.092-0.762,0.796-0.822c0,0,3.46-1.127,5.605-0.031
		c0,0,0.061,0.426-0.306,2.038c0,0-0.705,0.184-0.675,0.883c0,0,0.214,2.131-0.275,2.223c0,0-0.428,0.091-0.397-1.157
		c0,0-0.339-0.517-0.644-0.03c0,0-0.183,0.242,0.03,1.034c0,0,0.858,2.557-0.336,2.1c0,0-0.736-0.455-0.459-2.1
		c0,0,0.092-1.064-0.889-0.791c0,0-0.398-0.091-0.398,0.67c0,0-0.274,0.851-0.918,0.487c0,0-0.766-0.762-0.337-1.979
		C221.514,171.009,221.852,170.096,221.424,169.64"/>
	<path class="st0" d="M228.222,167.965c0,0,1.5,0.67,0,1.034V167.965z"/>
	<path class="st2" d="M217.145,179.665l0.066-1.946l7.159,0.653l0.026,1.855C224.395,180.227,221.946,180.66,217.145,179.665"/>
	<polygon class="st2" points="224.729,178.61 225.899,178.37 226.1,179.93 224.8,180.323 	"/>
	<path class="st2" d="M226.29,178.25l2.506-0.504c0,0,2.273,0.571,3.346,0.231l0.002,0.144l-5.764,1.306L226.29,178.25z"/>
	<path class="st2" d="M213.91,196.123l3.233-15.89c0,0,2.695,0.465,3.521,0.465l-3.557,15.497L213.91,196.123z"/>
	<polygon class="st2" points="225.068,180.529 226.156,180.162 230.528,196.037 229.07,196.067 	"/>
	<polygon class="st2" points="233.017,177.98 233.761,177.775 238.188,195.694 237.294,195.694 	"/>
	<polygon class="st2" points="230.34,178.793 230.823,178.589 231.757,183.299 228.825,184.2 	"/>
	<polygon class="st2" points="227.624,186.816 235.29,183.972 235.402,184.797 227.8,187.78 	"/>
	<polygon class="st2" points="228.55,187.814 232.719,186.224 233.998,191.059 230.042,193.052 	"/>
	<polygon class="st2" points="222.354,180.777 224.626,180.777 228.688,196.105 226.209,196.173 	"/>
	<polygon class="st2" points="221.914,181.015 223.98,188.888 219.65,190.585 	"/>
	<polygon class="st2" points="218.595,195.649 219.348,192.399 223.698,190.508 222.295,195.613 	"/>
	<polygon class="st2" points="230.174,195.391 237.014,191.872 237.25,192.744 230.294,196.535 	"/>
	<rect x="212.188" y="195.256" class="st3" width="28.699" height="0.426"/>
	<polygon class="st3" points="232.646,195.641 234.984,194.338 235.36,195.708 	"/>
	<g>
		<rect x="330.057" y="207.886" class="st4" width="46.419" height="13.013"/>
		<polygon class="st2" points="335.972,209.448 333.726,219.51 338.766,219.51 339.517,213.98 341.728,219.51 344.763,219.51 
			347.042,213.946 347.793,219.51 352.766,219.51 350.351,209.448 345.24,209.448 343.225,214.69 341.318,209.448 		"/>
		<polygon class="st2" points="351.567,209.448 362.361,209.448 362.361,212.765 359.55,212.765 359.55,219.51 354.375,219.51 
			354.375,212.765 351.567,212.765 		"/>
		<g>
			<path class="st2" d="M375.345,218.908c0,0.153-0.102,0.231-0.25,0.231h-0.422v-0.466h0.422
				C375.243,218.672,375.345,218.755,375.345,218.908z M375.562,218.9c0-0.298-0.212-0.433-0.467-0.433h-0.639v1.446h0.217v-0.571
				h0.329l0.287,0.571h0.248l-0.294-0.59C375.441,219.277,375.562,219.133,375.562,218.9z"/>
			<path class="st5" d="M373.802,219.184c0-0.599,0.487-1.086,1.092-1.086c0.603,0,1.089,0.487,1.089,1.086
				c0,0.596-0.486,1.081-1.089,1.081C374.29,220.265,373.802,219.78,373.802,219.184z"/>
		</g>
		<path class="st2" d="M362.29,218.689c1.253,0.383,2.994,0.682,2.994,0.682c1.056,0.177,1.297,0.216,2.981,0.191
			c1.682-0.031,3.221-0.702,3.221-0.702c1.641-0.67,2.001-1.798,2.001-1.798c0.698-1.303-0.143-2.433-0.143-2.433
			c-0.587-0.87-2.159-1.269-2.159-1.269c-0.415-0.23-2.763-0.473-2.763-0.473c-0.752-0.055-0.534-0.487-0.534-0.487
			c0.027-0.511,1.48-0.41,1.582-0.41c0.735,0,2.362,0.754,2.362,0.754l1.424-2.642c-1.35-0.724-3.754-0.842-3.754-0.842
			c-2.045-0.213-3.976,0.528-3.976,0.528c-2.892,0.929-2.75,3.124-2.75,3.124c-0.034,0.655,0.343,1.488,1.109,1.947
			c1.164,0.7,2.909,0.873,2.982,0.873c0.876,0,1.31,0.202,1.31,0.202c0.661,0.197,0.171,0.698,0.171,0.698
			c-0.36,0.196-1.025,0.23-1.025,0.23c-1.696,0.114-3.554-1.075-3.554-1.075L362.29,218.689z"/>
	</g>
	<g>
		<path class="st0" d="M247.47,140.898v-11.621h6.572v1.966H249.4v2.75h4.02v1.966h-4.02v4.939H247.47z"/>
		<path class="st0" d="M255.646,140.898v-11.621h7.115v1.966h-5.185v2.576h4.818v1.958h-4.818v3.155h5.36v1.966H255.646z"/>
		<path class="st0" d="M264.579,140.898v-11.621h4.076c1.042,0,1.787,0.104,2.233,0.313c0.446,0.209,0.814,0.571,1.101,1.086
			c0.287,0.515,0.431,1.132,0.431,1.851c0,0.909-0.219,1.641-0.658,2.196c-0.439,0.555-1.063,0.904-1.871,1.046
			c0.415,0.296,0.758,0.62,1.029,0.971c0.271,0.352,0.641,0.982,1.109,1.891l1.165,2.267h-2.309l-1.401-2.529
			c-0.504-0.914-0.847-1.486-1.027-1.716c-0.181-0.23-0.372-0.388-0.575-0.475c-0.202-0.087-0.527-0.131-0.973-0.131h-0.399v4.851
			H264.579z M266.509,134.192h1.436c0.877,0,1.435-0.038,1.674-0.115c0.24-0.076,0.434-0.231,0.583-0.464
			c0.149-0.232,0.223-0.542,0.223-0.927c0-0.37-0.075-0.667-0.223-0.892c-0.149-0.225-0.351-0.379-0.606-0.464
			c-0.181-0.058-0.705-0.087-1.571-0.087h-1.516V134.192z"/>
		<path class="st0" d="M274.247,140.898v-11.621h4.076c1.042,0,1.786,0.104,2.233,0.313c0.446,0.209,0.814,0.571,1.101,1.086
			c0.287,0.515,0.431,1.132,0.431,1.851c0,0.909-0.219,1.641-0.658,2.196c-0.439,0.555-1.063,0.904-1.871,1.046
			c0.415,0.296,0.758,0.62,1.029,0.971c0.271,0.352,0.641,0.982,1.109,1.891l1.165,2.267h-2.309l-1.401-2.529
			c-0.504-0.914-0.847-1.486-1.027-1.716c-0.181-0.23-0.372-0.388-0.575-0.475c-0.202-0.087-0.527-0.131-0.973-0.131h-0.399v4.851
			H274.247z M276.177,134.192h1.436c0.877,0,1.435-0.038,1.674-0.115c0.24-0.076,0.434-0.231,0.583-0.464
			c0.149-0.232,0.223-0.542,0.223-0.927c0-0.37-0.075-0.667-0.223-0.892c-0.149-0.225-0.351-0.379-0.606-0.464
			c-0.181-0.058-0.705-0.087-1.571-0.087h-1.516V134.192z"/>
		<path class="st0" d="M283.914,140.898v-11.621h7.115v1.966h-5.185v2.576h4.818v1.958h-4.818v3.155h5.36v1.966H283.914z"/>
		<path class="st0" d="M295.001,140.898v-9.655h-2.848v-1.966h7.617v1.966h-2.839v9.655H295.001z"/>
		<path class="st0" d="M301.031,140.898v-11.621h7.115v1.966h-5.185v2.576h4.818v1.958h-4.818v3.155h5.36v1.966H301.031z"/>
		<path class="st0" d="M309.964,140.898v-11.621h4.076c1.042,0,1.787,0.104,2.233,0.313c0.446,0.209,0.814,0.571,1.101,1.086
			c0.287,0.515,0.431,1.132,0.431,1.851c0,0.909-0.219,1.641-0.658,2.196c-0.439,0.555-1.062,0.904-1.87,1.046
			c0.415,0.296,0.758,0.62,1.029,0.971c0.271,0.352,0.641,0.982,1.109,1.891l1.165,2.267h-2.309l-1.401-2.529
			c-0.504-0.914-0.847-1.486-1.027-1.716c-0.181-0.23-0.372-0.388-0.575-0.475c-0.202-0.087-0.527-0.131-0.973-0.131h-0.399v4.851
			H309.964z M311.895,134.192h1.436c0.877,0,1.435-0.038,1.674-0.115c0.24-0.076,0.434-0.231,0.583-0.464
			c0.149-0.232,0.223-0.542,0.223-0.927c0-0.37-0.075-0.667-0.223-0.892c-0.149-0.225-0.351-0.379-0.606-0.464
			c-0.181-0.058-0.705-0.087-1.571-0.087h-1.516V134.192z"/>
		<path class="st0" d="M319.568,140.898v-11.621h1.93v11.621H319.568z"/>
		<path class="st0" d="M332.003,140.898h-2.098l-0.84-2.632h-3.838l-0.793,2.632h-2.058l3.734-11.621h2.05L332.003,140.898z
			 M328.442,136.301l-1.324-4.312l-1.299,4.312H328.442z"/>
	</g>
</g>
<g>
	<path class="st2" d="M293.469,177.261h-46.83c-1.527,0-2.769-1.084-2.769-2.417v-38.606c0-1.333,1.242-2.417,2.769-2.417h46.83
		c1.528,0,2.772,1.084,2.772,2.417v38.606C296.241,176.176,294.998,177.261,293.469,177.261z M246.64,135.33
		c-0.683,0-1.261,0.416-1.261,0.908v38.606c0,0.492,0.577,0.908,1.261,0.908h46.83c0.685,0,1.263-0.416,1.263-0.908v-38.606
		c0-0.492-0.578-0.908-1.263-0.908H246.64z"/>
	<path class="st6" d="M280.147,176.506H246.64c-1.113,0-2.015-0.744-2.015-1.663v-38.606c0-0.918,0.902-1.662,2.015-1.662h46.83
		c1.113,0,2.017,0.744,2.017,1.662v38.606c0,0.918-0.904,1.663-2.017,1.663H280.147"/>
	<polygon class="st2" points="271.959,170.213 261.543,170.213 272.384,140.87 282.8,140.87 	"/>
	<linearGradient id="SVGID_1_" gradientUnits="userSpaceOnUse" x1="276.5007" y1="151.7808" x2="297.3384" y2="163.8114">
		<stop  offset="0" style="stop-color:#6F6C6C"/>
		<stop  offset="0.6532" style="stop-color:#C0C0C2"/>
		<stop  offset="0.9386" style="stop-color:#C3C5C7"/>
	</linearGradient>
	<polygon class="st7" points="282.8,140.87 277.593,154.964 283.228,170.213 293.643,170.213 	"/>
	<polygon class="st2" points="256.885,170.213 246.469,170.213 257.312,140.87 267.728,140.87 	"/>
	<g>
		<linearGradient id="SVGID_2_" gradientUnits="userSpaceOnUse" x1="275.264" y1="161.2662" x2="275.267" y2="161.2679">
			<stop  offset="0" style="stop-color:#6F6C6C"/>
			<stop  offset="0.7703" style="stop-color:#C3C5C7"/>
		</linearGradient>
		<polygon class="st8" points="275.264,161.268 275.267,161.268 275.265,161.264 		"/>
		<linearGradient id="SVGID_3_" gradientUnits="userSpaceOnUse" x1="262.9524" y1="149.1416" x2="269.6246" y2="152.9938">
			<stop  offset="0" style="stop-color:#6F6C6C"/>
			<stop  offset="0.7703" style="stop-color:#C3C5C7"/>
		</linearGradient>
		<polygon class="st9" points="270.057,147.17 267.728,140.87 262.52,154.964 264.849,161.266 		"/>
	</g>
	<g>
		<g>
			<polygon class="st6" points="290.89,222.483 280.122,222.483 280.122,223.728 280.593,223.728 280.593,224.872 282.746,224.872 
				282.746,223.728 288.264,223.728 288.264,224.872 290.418,224.872 290.418,223.728 290.89,223.728 			"/>
			<path class="st6" d="M281.564,214.361v7.888h7.935v-7.888H281.564z M282.886,221.732c-0.378,0-0.684-0.306-0.684-0.684
				c0-0.378,0.306-0.684,0.684-0.684c0.378,0,0.684,0.306,0.684,0.684C283.57,221.426,283.264,221.732,282.886,221.732z
				 M288.091,221.732c-0.378,0-0.685-0.306-0.685-0.684c0-0.378,0.307-0.684,0.685-0.684c0.378,0,0.684,0.306,0.684,0.684
				C288.776,221.426,288.469,221.732,288.091,221.732z M289.268,217.825h-7.476v-3.235h7.476V217.825z"/>
			<polygon class="st6" points="280.147,211.615 280.147,222.248 281.106,222.248 281.106,213.903 289.955,213.903 289.955,222.248 
				290.914,222.248 290.914,211.615 			"/>
			<g>
				<path class="st6" d="M227.306,216.46c0-0.883-0.715-1.598-1.597-1.598c-0.882,0-1.598,0.715-1.598,1.598
					c0,0.882,0.715,1.597,1.598,1.597C226.592,218.057,227.306,217.341,227.306,216.46z"/>
				<path class="st6" d="M233.408,214.862c-0.883,0-1.598,0.715-1.598,1.598c0,0.882,0.715,1.597,1.598,1.597
					c0.882,0,1.597-0.715,1.597-1.597C235.004,215.577,234.29,214.862,233.408,214.862z"/>
				<path class="st6" d="M229.482,221.678c-0.882,0-1.597,0.715-1.597,1.597c0,0.882,0.715,1.597,1.597,1.597
					c0.883,0,1.598-0.715,1.598-1.597C231.08,222.393,230.365,221.678,229.482,221.678z"/>
				<path class="st6" d="M229.194,219.958c0-0.881-0.716-1.597-1.598-1.597s-1.598,0.715-1.598,1.597
					c0,0.883,0.716,1.598,1.598,1.598S229.194,220.841,229.194,219.958z"/>
				<path class="st6" d="M231.37,218.361c-0.883,0-1.598,0.715-1.598,1.597c0,0.883,0.715,1.598,1.598,1.598
					c0.881,0,1.596-0.715,1.596-1.598C232.966,219.077,232.251,218.361,231.37,218.361z"/>
				<path class="st6" d="M229.269,214.878c-0.781,0.104-1.384,0.771-1.384,1.582c0,0.882,0.715,1.597,1.597,1.597
					c0.883,0,1.598-0.715,1.598-1.597c0-0.757-0.526-1.389-1.232-1.554v-2.296h2.86v-0.761h-6.298v0.761h2.86V214.878z"/>
			</g>
			<g>
				<path class="st6" d="M262.898,221.302c0,0-1.03,3.163,2.853,2.923C265.751,224.226,266.494,220.895,262.898,221.302z"/>
				<path class="st6" d="M263.021,217.753c0,0-0.986,3.03,2.732,2.8C265.753,220.553,266.465,217.363,263.021,217.753z"/>
				<path class="st6" d="M265.763,216.928c0,0,0.595-2.664-2.283-2.339C263.481,214.589,262.656,217.121,265.763,216.928z"/>
				<path class="st6" d="M270.121,221.302c-3.594-0.408-2.852,2.923-2.852,2.923C271.152,224.465,270.121,221.302,270.121,221.302z"
					/>
				<path class="st6" d="M269.999,217.753c-3.444-0.39-2.732,2.8-2.732,2.8C270.985,220.783,269.999,217.753,269.999,217.753z"/>
				<path class="st6" d="M269.538,214.589c-2.876-0.326-2.282,2.339-2.282,2.339C270.362,217.121,269.538,214.589,269.538,214.589z"
					/>
				<rect x="266.282" y="215.886" class="st6" width="0.455" height="8.987"/>
				<rect x="265.468" y="210.949" class="st6" width="0.259" height="2.803"/>
				<rect x="267.292" y="210.949" class="st6" width="0.26" height="2.803"/>
				<rect x="266.366" y="210.014" class="st6" width="0.26" height="3.738"/>
			</g>
			<polygon class="st6" points="255,217.491 252.239,213.73 252.239,211.713 249.575,211.713 249.575,212.932 243.998,212.932 
				240.651,217.491 242.191,217.491 242.191,224.872 246.525,224.872 246.525,221.503 249.126,221.503 249.126,224.872 
				253.459,224.872 253.459,217.491 			"/>
		</g>
		<g>
			<rect x="302.415" y="214.77" class="st10" width="28.025" height="7.182"/>
			<polygon class="st2" points="309.462,215.562 308.243,221.048 310.976,221.048 311.382,218.032 312.583,221.048 314.226,221.048 
				315.463,218.014 315.869,221.048 318.565,221.048 317.254,215.562 314.484,215.562 313.395,218.42 312.361,215.562 			"/>
			<polygon class="st2" points="317.914,215.562 323.765,215.562 323.765,217.371 322.241,217.371 322.241,221.048 319.437,221.048 
				319.437,217.371 317.914,217.371 			"/>
			<polygon class="st2" points="304.922,218.991 303.034,218.991 303.034,217.627 303.256,217.627 303.256,218.741 303.835,218.741 
				303.835,217.698 304.056,217.698 304.056,218.741 304.699,218.741 304.699,217.583 304.922,217.583 			"/>
			<path class="st2" d="M323.726,220.6c0.679,0.21,1.624,0.374,1.624,0.374c0.57,0.094,0.702,0.116,1.615,0.101
				c0.913-0.016,1.747-0.382,1.747-0.382c0.889-0.366,1.085-0.981,1.085-0.981c0.375-0.709-0.078-1.325-0.078-1.325
				c-0.32-0.475-1.17-0.693-1.17-0.693c-0.226-0.125-1.499-0.257-1.499-0.257c-0.406-0.031-0.288-0.265-0.288-0.265
				c0.015-0.281,0.804-0.226,0.858-0.226c0.398,0,1.28,0.413,1.28,0.413l0.773-1.441c-0.733-0.397-2.036-0.46-2.036-0.46
				c-1.108-0.116-2.153,0.288-2.153,0.288c-1.568,0.506-1.49,1.707-1.49,1.707c-0.019,0.352,0.185,0.808,0.601,1.06
				c0.631,0.381,1.577,0.475,1.615,0.475c0.476,0,0.71,0.109,0.71,0.109c0.359,0.109,0.094,0.382,0.094,0.382
				c-0.195,0.109-0.554,0.125-0.554,0.125c-0.92,0.063-1.927-0.584-1.927-0.584L323.726,220.6z"/>
			<path class="st2" d="M303.867,220.745v-0.537c0-0.114-0.012-0.203-0.035-0.268c-0.024-0.064-0.062-0.113-0.113-0.147
				c-0.052-0.033-0.109-0.05-0.17-0.05c-0.089,0-0.163,0.033-0.221,0.098c-0.057,0.064-0.086,0.167-0.086,0.306v0.597H303.867z
				 M304.922,220.994h-1.888v-0.836c0-0.168,0.017-0.296,0.052-0.384c0.033-0.087,0.093-0.157,0.179-0.21
				c0.086-0.052,0.181-0.078,0.285-0.078c0.134,0,0.247,0.043,0.338,0.13c0.092,0.087,0.15,0.221,0.175,0.401
				c0.032-0.066,0.063-0.116,0.094-0.151c0.067-0.073,0.15-0.142,0.251-0.207l0.514-0.328v0.314l-0.393,0.25
				c-0.113,0.073-0.2,0.133-0.26,0.18c-0.06,0.047-0.102,0.089-0.126,0.127c-0.024,0.037-0.041,0.075-0.05,0.113
				c-0.006,0.028-0.009,0.075-0.009,0.139v0.289h0.838V220.994z"/>
			<path class="st2" d="M304.699,216.889v-0.403c0-0.124-0.012-0.222-0.035-0.292c-0.023-0.071-0.056-0.128-0.098-0.17
				c-0.059-0.059-0.139-0.105-0.238-0.138c-0.1-0.034-0.222-0.05-0.364-0.05c-0.198,0-0.349,0.033-0.455,0.098
				c-0.107,0.064-0.178,0.143-0.214,0.235c-0.026,0.067-0.039,0.174-0.039,0.323v0.396H304.699z M304.922,217.138h-1.888v-0.65
				c0-0.147,0.009-0.259,0.027-0.336c0.025-0.108,0.07-0.2,0.135-0.276c0.084-0.099,0.192-0.174,0.323-0.223
				c0.13-0.05,0.28-0.074,0.448-0.075c0.143,0,0.27,0.017,0.381,0.051c0.111,0.033,0.203,0.076,0.276,0.128
				c0.072,0.052,0.129,0.11,0.171,0.172c0.041,0.062,0.073,0.137,0.094,0.225c0.022,0.087,0.032,0.188,0.032,0.302V217.138z"/>
		</g>
	</g>
	<g>
		<path class="st6" d="M226.5,205.581l3.66-17.101l-7.386,17.101h-7.722l-0.067-17.101l-3.66,17.101h-6.48l5.272-24.51h10.307
			l-0.034,17.696l7.554-17.696h10.307l-5.271,24.51H226.5z"/>
		<path class="st6" d="M235.496,205.581l3.793-17.629h5.976l-3.793,17.629H235.496z M239.592,186.463l1.174-5.392h5.977
			l-1.175,5.392H239.592z"/>
		<path class="st6" d="M265.643,205.581l2.047-9.559c0.571-2.58-0.167-3.672-1.679-3.672c-1.276,0-2.82,1.422-3.357,4.036
			l-1.981,9.194h-5.976l2.047-9.559c0.571-2.58-0.167-3.672-1.679-3.672c-1.274,0-2.819,1.422-3.357,4.036l-1.979,9.194h-5.976
			l3.793-17.629h5.707l-0.57,2.579c1.241-1.919,3.056-2.943,5.372-2.943c2.653,0,4.297,1.323,4.902,3.406
			c1.409-2.05,3.425-3.406,6.043-3.406c3.726,0,5.873,2.843,4.969,7.077l-2.351,10.916H265.643z"/>
		<path class="st6" d="M284.51,205.944c-2.117,0-4.063-1.323-4.399-2.778l-0.504,2.415h-5.707l5.271-24.51h5.977l-1.914,8.831
			c1.174-1.356,3.491-2.314,5.237-2.314c4.229,0,7.185,3.539,5.976,9.161C293.238,202.405,288.738,205.944,284.51,205.944z
			 M285.952,192.35c-1.746,0-3.524,1.356-4.196,4.399c-0.671,3.076,0.537,4.432,2.283,4.432c1.746,0,3.491-1.357,4.164-4.432
			C288.874,193.706,287.699,192.35,285.952,192.35z"/>
		<path class="st6" d="M305.892,192.482c-2.182,0-3.861,1.589-4.465,4.399l-1.847,8.7h-5.976l3.794-17.629h5.707l-0.571,2.678
			c1.075-1.654,3.189-3.042,6.984-3.042l-1.142,5.258C307.773,192.648,306.664,192.482,305.892,192.482z"/>
		<path class="st6" d="M316.031,205.581l0.503-2.449c-1.443,1.852-3.289,2.812-5.842,2.812c-3.692,0-5.673-2.448-5.069-5.259
			c0.705-3.307,4.231-5.755,9.938-5.755h2.484c0.368-1.687-0.773-3.076-2.786-3.076c-1.142,0-2.519,0.496-3.726,1.29l-2.586-3.275
			c2.451-1.554,4.968-2.414,8.124-2.414c5.507,0,7.892,3.175,7.018,7.21l-2.35,10.916H316.031z M314.889,198.105
			c-1.746,0-2.92,0.926-3.155,1.952c-0.201,0.859,0.168,1.852,1.746,1.852c2.014,0,3.459-1.919,3.895-3.804H314.889z"/>
		<path class="st6" d="M324.021,205.581l5.27-24.51h5.976l-5.271,24.51H324.021z"/>
	</g>
	<g>
		<circle class="st2" cx="335.166" cy="202.782" r="3.191"/>
		<circle class="st10" cx="335.166" cy="202.782" r="2.789"/>
		<path class="st2" d="M344.968,206.346c-0.884,0-1.702-0.154-2.431-0.457c-0.738-0.306-1.362-0.751-1.855-1.321
			c-0.495-0.572-0.84-1.273-1.026-2.085c-0.186-0.805-0.172-1.713,0.042-2.699c0.195-0.973,0.557-1.866,1.072-2.649
			c0.51-0.775,1.124-1.447,1.825-1.997c0.699-0.548,1.482-0.978,2.326-1.275c0.845-0.298,1.718-0.449,2.594-0.449
			c0.895,0,1.686,0.135,2.351,0.401c0.66,0.264,1.296,0.672,1.891,1.212l0.34,0.308l-3.432,2.906l-0.257-0.331
			c-0.12-0.154-0.29-0.285-0.504-0.388c-0.218-0.104-0.486-0.157-0.797-0.157c-0.26,0-0.53,0.059-0.802,0.175
			c-0.282,0.121-0.546,0.292-0.783,0.507c-0.242,0.219-0.459,0.495-0.644,0.82c-0.186,0.325-0.32,0.688-0.397,1.08
			c-0.077,0.404-0.094,0.767-0.05,1.078c0.041,0.294,0.132,0.545,0.269,0.748c0.136,0.202,0.301,0.353,0.504,0.461
			c0.201,0.108,0.422,0.16,0.673,0.16c0.325,0,0.623-0.055,0.91-0.168c0.289-0.115,0.542-0.262,0.754-0.438l0.321-0.267l2.309,2.986
			l-0.356,0.24c-0.805,0.543-1.596,0.949-2.35,1.205C346.695,206.214,345.856,206.346,344.968,206.346z"/>
		<path class="st10" d="M346.931,202.601c-0.331,0.131-0.683,0.197-1.057,0.197c-0.316,0-0.604-0.069-0.863-0.208
			c-0.259-0.138-0.475-0.335-0.647-0.59c-0.172-0.255-0.284-0.561-0.334-0.917c-0.051-0.357-0.032-0.762,0.054-1.213
			c0.086-0.437,0.234-0.838,0.443-1.202c0.208-0.364,0.449-0.67,0.723-0.918c0.273-0.248,0.572-0.44,0.895-0.579
			c0.323-0.138,0.643-0.208,0.96-0.208c0.374,0,0.698,0.066,0.971,0.197c0.273,0.131,0.489,0.299,0.647,0.503l2.762-2.338
			c-0.561-0.51-1.151-0.888-1.77-1.136c-0.619-0.248-1.352-0.372-2.201-0.372c-0.835,0-1.655,0.142-2.46,0.426
			c-0.806,0.284-1.543,0.688-2.212,1.213c-0.669,0.524-1.249,1.158-1.737,1.901c-0.489,0.743-0.827,1.581-1.015,2.513
			c-0.202,0.932-0.216,1.773-0.043,2.524c0.172,0.75,0.485,1.387,0.939,1.912c0.453,0.524,1.021,0.929,1.705,1.213
			c0.683,0.284,1.442,0.426,2.277,0.426c0.848,0,1.636-0.124,2.363-0.372c0.726-0.247,1.478-0.634,2.255-1.158l-1.791-2.316
			C347.55,202.302,347.262,202.47,346.931,202.601z"/>
		<polygon class="st2" points="349.695,206.106 353.251,189.109 357.915,189.109 354.358,206.106 		"/>
		<polygon class="st10" points="353.578,189.511 350.19,205.704 354.031,205.704 357.419,189.511 		"/>
	</g>
</g>
<g>
	<path class="st11" d="M335.606,188.74l0.095-4.482l-0.095-5.149l-0.191-4.673l-0.095-1.621c1.812,0,3.719,0.095,5.721,0.095
		l2.098-0.095h3.242v2.575l-1.049-0.095c-0.286,0-0.668,0-1.24,0c-0.477,0-0.953,0-1.525,0c-1.145,0-1.908,0-2.193,0
		c-0.382,0-0.858,0-1.526,0l0.095,4.1c0.953,0.095,2.003,0.095,3.051,0.095c0.668,0,1.907-0.095,3.528-0.095
		c0,0.667,0,1.526,0.095,2.575c-2.003-0.095-3.147-0.095-3.433-0.095c-0.858,0-2.003,0-3.242,0.095l0.095,4.386h1.24
		c0.286,0,1.144,0,2.384-0.095h2.479l1.526-0.095c0,0.953,0,1.716,0.095,2.575c-2.003,0-3.719,0-5.245,0h-3.623H335.606
		L335.606,188.74z M349.338,188.74c0.095-1.335,0-3.719,0-7.057c-0.095-3.433-0.191-6.389-0.286-8.869
		c0.763,0,1.24,0.095,1.621,0.095c0.381,0,0.953-0.095,1.621-0.095v4.291l0.191,9.44l0.095,2.193c-0.572,0-1.049,0-1.526,0
		C350.959,188.74,350.387,188.74,349.338,188.74z"/>
	<path class="st12" d="M286.115,187.405c0.573,0,1.049,0.286,1.43-0.095c0.286-0.286,0.286-0.477,0.286-0.477
		c0-0.477-0.763-0.667-1.717-0.286V187.405L286.115,187.405z M286.115,183.686c0.668-0.191,1.335,0,2.003,0.381
		c-0.381-0.477-1.24-1.049-2.003-1.144V183.686z M286.115,182.923v0.763c-0.477,0.095-0.953,0.381-1.43,0.858
		c-0.286,0.382-0.477-0.095-0.572-0.095c0,0,0.858-1.144,1.525-1.43C285.829,182.923,286.019,182.923,286.115,182.923
		L286.115,182.923z M286.115,186.547v0.858c-0.286,0-0.572,0-0.953,0.191c-0.286,0.191-0.382-0.095,0-0.381
		C285.447,186.928,285.829,186.737,286.115,186.547L286.115,186.547z M286.115,188.93c-0.572,0.286-1.144,0.667-1.24,0.858
		c-0.191,0.191-6.579-1.526-9.822-1.43v0.572c3.242,0.191,9.154,1.526,9.917,1.335c0.668-0.191,0.858-0.381,1.144-0.668V188.93
		L286.115,188.93z M286.115,192.554c-0.572-0.572-1.335-1.049-2.098-1.335c-1.145-0.286-6.294-1.43-8.964-1.907v0.381
		c2.002,0.381,5.149,0.954,7.152,1.43c0.858,0.191,2.193,0.763,2.289,0.858c0.953,0.381,1.24,0.763,1.621,1.144V192.554
		L286.115,192.554z M275.053,188.358v0.572c-0.573-0.095-1.049-0.095-1.335,0c-0.095,0-0.095,0-0.095,0.095l1.431,0.286v0.381
		l-1.431-0.286c0,0.095,0.095,0.095,0.191,0.191c0,0.095,0.572,0.191,1.24,0.382v0.381c-0.668-0.095-1.24-0.191-1.526-0.381
		c-0.381-0.191-0.381-0.668-0.191-0.954c0-0.095,0.095-0.191,0.191-0.286c0-0.095,0.095-0.095,0.191-0.095
		C274.004,188.454,274.481,188.358,275.053,188.358L275.053,188.358z M263.801,217.729h-3.624v-2.766
		c1.049-0.476,2.003-1.621,3.624-3.624V217.729L263.801,217.729z M260.177,190.266v-0.763h0.19l0.191,0.667L260.177,190.266z
		 M260.177,203.425v0.573c-0.191,0.477-0.286,0.667-0.286,0.667S259.7,204.284,260.177,203.425z"/>
	<path class="st11" d="M260.94,229.554h1.144l1.526-3.528l0.763,3.624h2.861h0.572l-0.572-2.288l-1.335-4.768h-3.719l-1.24,3.338
		l-1.335-3.338l-3.814,0.095l-1.717,6.962h3.624l0.572-3.529l1.43,3.433H260.94z M274.099,228.791
		c0.191,0.191,1.049,0.572,2.193,0.668c0.668,0.095,1.24,0.095,1.811,0.095c2.861,0.095,3.433-1.049,3.815-1.812
		c0.381-0.858,0.095-1.907-0.572-2.098c-0.573-0.286-1.907-0.668-2.956-0.668h-0.286c-0.667-0.191-0.286-0.667,0-0.858
		c0.286-0.286,2.67,0.573,2.67,0.573l1.049-1.621c-0.954-0.572-2.67-0.858-3.719-0.858h-0.858c-1.144,0-2.098,0.667-2.575,1.526
		c-0.477,0.858-0.286,2.003,0.573,2.479c0.858,0.477,1.811,0.477,2.86,0.763c0.763,0.191,0.573,0.572,0,0.763
		c-0.286,0.095-0.572,0.095-0.763,0.095c-0.954-0.095-2.098-0.763-2.098-0.763L274.099,228.791z M267.234,222.592h-0.572v2.193
		h0.572h1.43v4.959h1.716h1.812v-4.864h1.907v-2.288h-3.719H267.234z M267.234,231.27h-6.294H241.2v-10.585h19.74h6.294h3.147h3.719
		h4.005h5.531v10.585h-5.531h-4.005h-3.719H267.234z"/>
	<path class="st11" d="M263.801,173.006h11.253h10.775h0.286h25.175l-25.175,43.007l-0.763,1.43v0.286h-10.299h-11.253v-6.389
		l0.286-0.381c-0.095,1.144-0.286,2.384-0.095,4.005c0.858-1.811,1.335-2.956,2.098-8.105c0.286,0.858,0.19,2.67-0.477,6.484
		c0.858-0.381,2.766-2.765,3.242-5.722c-0.19,2.384,0.668,3.719,2.098,5.245c-0.191-1.049-1.24-2.67,0.191-7.724
		c0.095,1.049-0.668,3.433,1.144,7.915c0.477-0.763,1.24-0.477,2.766-6.675c-0.095,0.762-0.477,1.812,0,3.623
		c0.477,1.621,1.525,3.814,4.005,6.962c-0.286-0.763-1.431-4.387-1.335-6.294c0.095,0.763,2.479,6.485,2.479,6.485
		s-1.335-16.116-0.572-18.309c0.477-1.717,3.147-3.242,4.387-3.91c-0.954-0.095-6.008-0.858-8.392-1.43
		c-1.24,0.095,2.956-1.621,2.193-2.384c-0.477-0.381-1.716-0.668-2.765-0.763v-0.381c1.049,0.095,2.193,0.286,2.384,0.381
		c0.191,0.095,1.144,0.477,1.335,1.049c0.191,0.572-2.193,1.621-2.384,1.717c-0.19,0.095,8.296,1.526,8.296,1.526
		c0.382,0.095,0.954,0.286,1.43,0.477c1.145,0.286,2.48,0.667,3.814,1.144c0.858,0.286,1.43,0.572,1.812,0.763
		c-0.191-0.381-0.573-0.954-0.954-1.335c-0.763-0.572-1.812-0.763-3.338-1.621c-0.668-0.381-0.953-0.668-1.335-0.953v-0.572
		c0.477,0.381,0.858,0.667,1.145,0.954c0.572,0.477,2.384,1.24,3.719,1.812c0.858,0.477,1.144,1.526,1.24,2.193
		c0.19,0.286,0.095,0.572,0,0.954c-0.095,0.667-0.477,2.67-0.477,2.67s2.384-3.433,3.242-6.198c0.953-2.67-0.382-5.245-1.717-7.343
		c-0.381-0.572-1.049-1.144-1.812-1.717c-0.382,0-1.144,0-1.43,0.286c-0.095,0.286-0.381,0.953-0.668,1.526
		c0.668,0.286,2.575,1.24,3.338,2.861c0.858,1.907,0.763,2.384,0.477,3.719c-0.572-1.621-1.239-2.766-1.812-3.338
		c-1.049-1.24-2.288-1.621-3.814-2.003c-0.286,0.095-0.572,0.191-0.858,0.381l-0.573,0.286v-0.667
		c0.477-0.191,1.049-0.477,1.526-0.477c0.954-0.191,1.431-1.049,1.812-2.288c0.191-0.858,1.144-0.668,1.716-0.477
		c-1.049-0.668-2.288-1.24-3.051-1.621c0-1.526-0.668-2.765-2.003-4.005c-2.002-1.716-5.531-3.242-11.061-4.291
		c-1.621-0.381-3.433-0.667-5.436-0.858c-2.098-0.286-4.005-0.286-5.817,0c-1.24,0.095-2.479,0.381-3.624,0.668
		c-1.526,0.477-2.956,1.144-4.196,1.907c-4.863,2.765-7.724,7.343-8.773,11.729c2.098-3.051,3.623-3.624,4.768-4.386
		c-6.389,7.819-8.297,18.595-7.438,18.881c0.38-0.666,0.381-1.617,3.129-5.126c-0.777,1.013-2.841,6.221-2.652,11.992
		c1.43-2.289,0.191-2.575,5.531-9.822c-0.477,0.953-1.43,10.871-0.095,13.446c0.572-1.526,4.959-9.155,4.768-8.392
		c-0.668,1.335-2.098,5.817-0.953,7.533c0.477-1.049,0.953-1.907,1.716-3.051c0.453-0.816,1.079-1.804,1.876-3.127
		c-0.96,1.714-1.379,5.208-0.922,7.037c1.526-0.668,2.575-4.196,2.384-3.147c-0.191,0.954-0.191,2.67-0.095,4.1
		c0.382,0,0.668-0.095,0.954-0.191v2.766h-4.196H241.2v-44.723h14.781h4.196H263.801z"/>
	<path class="st11" d="M260.177,189.503v0.763c-0.858,0.095-3.147,0.477-4.196,1.049c-0.286,0.19-0.381,0.286-0.477,0.381
		c-0.763,1.049-3.147,3.624-3.433,4.959c-0.382,1.335-0.763,2.479-0.763,2.479s0.477-5.435,1.43-6.484
		c0.954-0.954,1.812-2.098,3.242-2.765c0.095-0.095,0.286-0.191,0.477-0.191C257.888,189.217,259.7,189.407,260.177,189.503z"/>
	<path class="st11" d="M263.801,200.85c-0.191,0-0.668,0.191-1.24,0.763c-1.144,1.049-1.621,1.049-2.003,1.811
		c-0.191,0.191-0.286,0.382-0.381,0.573v-0.573c0.095-0.095,0.286-0.381,0.477-0.572c0.954-1.24,0-0.858,2.193-2.384
		c0.381-0.286,0.667-0.572,0.953-0.763c1.144-0.954,1.144-1.24,2.193-1.621c1.24-0.381,1.716-0.381,1.716-0.381l-1.431,0.763
		c-0.286,0.477-1.43,2.289-2.479,3.91c-0.572,0.954-1.144,1.812-1.335,2.193c-0.572,1.24-1.049,1.716-1.049,1.716
		s0.381-1.526,0.953-2.575c0.572-1.049,1.049-1.811,1.43-2.479C263.991,201.041,263.991,200.85,263.801,200.85z"/>
	<path class="st11" d="M275.053,197.418c1.716-0.381,3.528-1.335,3.528-1.335l1.144-1.049l1.716-0.286c0,0-0.858,0.572-1.239,0.954
		c-0.477,0.381-1.144,1.43-2.098,2.67c-0.19,0.286-0.381,0.477-0.572,0.572c0,0.286-0.095,0.572-0.191,0.954
		c-0.191,1.621,0,1.812,0.191,3.242c0.191,1.43,0.381,3.433,0.286,3.814c0,0.381,0.668,1.525,0.668,1.525s-0.763,0.382-0.953-0.19
		c-0.095-0.572-0.286-1.43-0.572-2.003c-0.286-0.667-0.573-0.763-0.477-2.193c0.095-1.526-0.286-2.003-0.19-3.052l0.286-1.526
		c-0.191,0.095-0.381,0.191-0.668,0.381c-0.477,0.286-0.667,0.477-0.858,0.572c-0.382,0.381-0.191,0.286-0.858,0.954
		c-0.954,0.953-0.954,1.812-1.335,4.005c-0.381,2.193-0.572,2.479-0.572,2.479l-0.095-1.43c0,0-0.191-1.526-0.095-2.193
		c0.095-0.763,0.572-2.003,0.668-2.48c0-0.477,0.286-1.335,0.954-2.003c0.667-0.572,0.953-0.953,0.953-0.953
		s-1.431,0.191-3.433,0.572c-1.907,0.381-1.239,0.763-1.621,1.526c-0.477,0.763-1.526,2.574-1.526,2.574l0.382-1.43
		c0,0,1.24-2.67,1.526-3.052c0.381-0.477,2.384-1.335,4.196-1.43C274.481,197.513,274.767,197.513,275.053,197.418z"/>
	<path class="st11" d="M275.053,181.111c-1.526-0.572-2.384-0.191-3.338,0.858c-0.095,0.954,0.572,1.907,1.335,2.384
		c-0.763-0.858-0.954-1.812-0.382-2.479C273.718,181.016,274.195,181.016,275.053,181.111z M275.053,185.116
		c0.953,0.095,1.812-0.572,1.907-1.43c0.19-1.049-0.477-2.003-1.526-2.193h-0.381c-0.858,0-1.717,0.572-1.907,1.526
		c-0.191,0.954,0.572,1.907,1.621,2.098H275.053z M275.053,180.539c1.144,0.572,2.861,1.526,3.91,1.717
		c1.24,0.191,1.907,0.477,1.907,0.477s-0.858,0.095-1.716,0c-0.286-0.095-0.572-0.095-0.763-0.191c0,0.382-0.19,1.144-0.572,1.812
		c-0.381,0.667-2.574,1.335-2.574,1.335c-0.096,0.095-0.096,0.095-0.191,0.095c-2.289,0.572-4.482-2.098-4.864-4.291
		c2.193-1.526,3.338-1.717,4.386-1.24C274.672,180.348,274.862,180.444,275.053,180.539z"/>
	<path class="st11" d="M275.053,184.353h-0.191c-0.572-0.095-0.953-0.668-0.858-1.24c0.095-0.477,0.572-0.858,1.049-0.858h0.191
		c0.572,0.191,1.049,0.668,0.953,1.24C276.102,183.972,275.625,184.353,275.053,184.353z"/>
	<path class="st11" d="M314.818,173.864l0.477-0.763h5.531h3.624h5.531v44.247h-9.155V207.24h-6.007H304.71l-5.817,10.108h-9.155
		L314.818,173.864z M314.818,200.183h6.007v-17.26h-2.003l-4.005,6.866l-6.008,10.394H314.818z"/>
	<path class="st11" d="M345.619,213.342c0.763,0,1.525-0.095,2.288-0.381c0.668-0.286,1.335-0.668,1.812-1.24
		c0.572-0.477,1.049-1.144,1.43-2.003c0.381-0.763,0.668-1.621,0.763-2.67c0.095-0.954,0.191-2.288,0.191-3.719
		c0-1.526-0.095-3.338-0.095-5.34c-1.526-0.286-2.766-0.477-4.005-0.477c-0.858,0-1.716,0.095-2.384,0.191
		c-1.049,0.191-2.003,0.477-2.766,0.953c-1.335,0.763-2.289,1.907-2.956,3.433c-0.668,1.43-0.953,3.051-0.762,4.673
		c0,1.24,0.381,2.384,0.858,3.433c0.572,1.049,1.335,1.812,2.289,2.384C343.33,213.057,344.379,213.342,345.619,213.342z
		 M335.892,223.069c3.719,1.24,6.961,1.812,9.631,1.812c1.049,0,2.003-0.095,2.861-0.381c0.954-0.286,1.717-0.667,2.289-1.144
		c0.572-0.477,0.953-1.049,1.24-1.908c0.286-0.858,0.477-1.811,0.477-2.861c0.095-1.049,0.095-2.766,0-4.959
		c-0.572,0.858-1.144,1.525-1.621,2.003c-0.477,0.572-1.049,0.953-1.717,1.335c-0.668,0.381-1.431,0.667-2.384,0.953
		c-0.381,0.095-0.763,0.095-1.049,0.191c-0.668,0.095-1.24,0.095-1.908,0.095c-1.43,0-2.861-0.191-4.1-0.668
		c-1.335-0.381-2.575-1.145-3.624-2.098c-1.049-0.953-1.907-2.098-2.479-3.624c-0.667-1.43-1.049-2.956-1.144-4.482
		c-0.191-2.288,0.095-4.481,0.858-6.484c0.667-2.002,1.812-3.624,3.433-4.959c1.525-1.335,3.242-2.193,5.054-2.67
		c1.24-0.286,2.479-0.572,3.91-0.667c0.763-0.095,1.525-0.095,2.288-0.095c1.24,0,2.766,0.095,4.386,0.286
		c1.621,0.095,3.719,0.381,6.389,0.858v7.819l0.191,9.631l0.381,8.773c0,1.049,0,2.003-0.19,2.861
		c-0.096,0.954-0.382,1.812-0.668,2.48c-0.382,0.763-0.858,1.43-1.526,2.003c-0.572,0.572-1.335,1.049-2.098,1.335
		c-0.763,0.381-1.812,0.667-2.956,0.858c-1.24,0.286-2.479,0.382-3.91,0.382c-0.763,0-1.526,0-2.288-0.095
		c-0.858,0-1.812-0.095-2.766-0.191c-1.907-0.191-4.005-0.572-6.294-1.144L335.892,223.069z"/>
	<path class="st11" d="M388.149,217.92c-1.43-0.095-2.575-0.095-3.338-0.095c-0.953,0-2.002,0-3.242,0.095l-0.191-4.101
		c-0.477,0.668-0.763,1.24-1.144,1.621c-0.286,0.477-0.668,0.858-1.24,1.24c-0.477,0.381-1.144,0.763-1.717,0.953
		c-0.667,0.286-1.335,0.477-2.193,0.573c-0.858,0.19-1.717,0.286-2.67,0.286c-1.812,0-3.433-0.286-4.768-0.858
		c-1.43-0.476-2.575-1.335-3.433-2.384c-0.858-1.049-1.335-2.575-1.525-4.577V210.1l-0.095-6.294l-0.191-8.296
		c0-0.668-0.095-1.43-0.095-2.479c1.525,0.095,2.765,0.095,3.623,0.095c0.953,0,2.003,0,3.337-0.095v11.157v2.193
		c0,0.572,0.095,1.049,0.095,1.24c0.095,1.24,0.286,2.193,0.763,2.956c0.381,0.763,1.049,1.335,1.907,1.811
		c0.858,0.382,1.812,0.573,2.861,0.573c0.953,0,1.812-0.191,2.575-0.573c0.763-0.286,1.43-0.763,1.907-1.335
		c0.477-0.572,0.954-1.43,1.24-2.384c0.191-0.667,0.381-1.716,0.381-2.956c0.095-0.953,0.095-2.479,0-4.577
		c0-2.67-0.095-5.34-0.286-8.106c1.621,0.095,2.861,0.095,3.719,0.095c0.954,0,2.003,0,3.242-0.095v8.773
		c0,3.433,0.095,6.389,0.191,8.582C387.863,212.675,388.054,215.154,388.149,217.92z"/>
	<path class="st11" d="M391.677,217.92c0.095-2.479,0.095-4.481,0.095-6.198c0-2.575-0.095-5.531-0.191-8.964
		c-0.095-3.433-0.191-6.675-0.382-9.727c1.621,0.095,2.766,0.095,3.624,0.095c0.668,0,1.907,0,3.528-0.095v8.106
		c0,2.575,0.191,5.531,0.286,8.868c0.191,3.338,0.381,5.912,0.477,7.915c-1.526-0.095-2.67-0.095-3.528-0.095
		C394.729,217.824,393.394,217.824,391.677,217.92z M391.01,188.835c0-1.717-0.095-2.956-0.191-3.91v-0.763
		c1.43,0,2.67,0.096,3.624,0.096c1.24,0,2.384-0.096,3.528-0.096v1.431l0.095,3.242c-1.24-0.095-2.384-0.095-3.433-0.095
		C393.585,188.74,392.344,188.74,391.01,188.835z"/>
	<path class="st11" d="M403.12,217.92c0-2.766,0-7.724-0.191-14.876c-0.095-7.152-0.381-13.255-0.572-18.5
		c1.621,0.095,2.861,0.095,3.624,0.095c0.953,0,2.098,0,3.433-0.095l0.095,8.964l0.477,19.835l0.286,4.577
		c-1.335-0.095-2.479-0.095-3.433-0.095C406.553,217.824,405.314,217.824,403.12,217.92z"/>
	<path class="st11" d="M414.85,198.467c0.19-1.144,0.19-1.907,0.286-2.384c0-0.477,0-1.24,0.095-2.193
		c2.193-0.477,4.101-0.858,5.817-1.144c1.716-0.191,3.338-0.286,4.863-0.286c1.812,0,3.433,0.191,4.959,0.668
		c1.526,0.381,2.765,1.049,3.719,2.003c0.858,0.858,1.43,2.193,1.525,3.91c0.095,0.954,0.095,3.242,0.095,7.056
		c0,3.814,0.095,7.724,0.382,11.825c-1.24-0.095-2.384-0.095-3.433-0.095c-1.049,0-2.193,0-3.528,0.095
		c0.095-2.003,0.095-4.291,0.095-6.866l-0.191-6.103c-0.572,0.382-0.954,0.668-1.335,0.858c-0.286,0.19-0.668,0.286-1.049,0.477
		c-0.382,0.095-1.049,0.382-2.098,0.668c-1.049,0.286-1.812,0.477-2.384,0.667c-0.668,0.286-1.145,0.477-1.621,0.763
		c-0.477,0.286-0.954,0.572-1.24,0.858c-0.286,0.381-0.572,0.763-0.668,1.049c-0.095,0.382-0.19,0.763-0.19,1.24
		c0.095,0.668,0.381,1.24,0.763,1.716c0.477,0.572,0.954,0.858,1.621,1.049c0.572,0.191,1.24,0.286,2.098,0.286
		c0.573,0,1.049,0,1.621-0.095c0.572-0.095,1.335-0.286,2.288-0.573c-0.286,0.858-0.572,2.289-0.858,4.101
		c-1.145,0.191-2.098,0.286-2.766,0.381c-0.668,0.095-1.335,0.095-1.907,0.095c-2.003,0-3.719-0.286-5.054-0.858
		c-1.43-0.572-2.384-1.43-3.146-2.67c-0.668-1.144-1.145-2.384-1.145-3.624c-0.095-0.667,0-1.335,0.191-2.002
		c0.191-0.763,0.477-1.335,0.954-1.908c0.381-0.572,0.953-1.144,1.716-1.621c0.668-0.572,1.716-1.049,3.147-1.621
		c1.335-0.477,3.147-0.953,5.531-1.43c0.572-0.191,1.24-0.286,1.812-0.477c0.668-0.19,1.24-0.381,1.621-0.572
		c0.382-0.191,0.668-0.381,0.954-0.667c0.286-0.286,0.477-0.572,0.572-0.954c0.095-0.286,0.19-0.572,0.19-0.954
		c-0.095-0.572-0.286-1.144-0.762-1.621c-0.477-0.381-1.049-0.667-1.717-0.858c-0.668-0.191-1.335-0.286-2.193-0.286
		C421.525,196.369,418.378,197.131,414.85,198.467z"/>
</g>
<g>
	<path class="st13" d="M220.897,219.808l7.08-58.199h25.143c0,0,17.04-1.368,17.04,18.06c0,19.426-18.856,20.979-18.856,20.979
		h-12.082l-2.346,19.16H220.897z M242.372,173.985l-1.559,13.633c0,0,11.783,2.434,13.051-6.038
		C255.284,172.08,242.372,173.985,242.372,173.985 M269.491,219.808h15.026l2.216-18.565c3.025-14.439,15.833-7.824,15.833-7.824
		l1.996-14.218c-13.835,0-16.032,6.212-16.032,6.212l0.605-6.029h-14.643L269.491,219.808z M359.696,167.968h14.238l-1.372,11.819
		h8.189l-1.601,12.44h-8.028l-3.197,27.581h-14.843l3.52-27.581h-4.716l1.599-12.44h4.704L359.696,167.968z M317.549,199.694
		c-0.604,4.638,2.706,8.397,7.389,8.397c4.683,0,8.97-3.759,9.575-8.397c0.605-4.636-2.703-8.398-7.388-8.398
		C322.443,191.296,318.154,195.058,317.549,199.694 M302.841,199.731c1.385-11.801,11.203-21.367,21.933-21.367
		c4.686,0,8.772,1.827,11.772,4.868l0.517-3.849h14.438l-5.439,40.425h-14.436l0.413-3.075c-3.587,2.738-7.855,4.363-12.28,4.363
		C309.031,221.097,301.457,211.529,302.841,199.731"/>
	<polygon class="st13" points="223.687,224.161 221.94,224.161 220.873,230.879 224.715,230.879 224.948,229.4 222.854,229.4 	"/>
	<path class="st14" d="M230.319,223.936c-1.935,0-3.944,1.427-4.267,3.457c-0.343,2.175,0.974,3.708,3.13,3.708
		c2.153,0,3.958-1.533,4.304-3.708C233.809,225.363,232.252,223.936,230.319,223.936 M230.049,225.631
		c1.042,0,1.763,0.845,1.619,1.774c-0.183,1.156-1.174,2.002-2.217,2.002c-1.042,0-1.763-0.846-1.583-2.002
		C228.017,226.476,229.009,225.631,230.049,225.631"/>
	<path class="st13" d="M239.69,224.533c-0.543-0.337-1.335-0.552-2.014-0.552c-1.345,0-2.455,0.893-2.673,2.255
		c-0.207,1.3,0.471,1.589,1.518,1.898c0.357,0.109,1.017,0.278,0.938,0.767c-0.074,0.473-0.545,0.677-0.954,0.677
		c-0.596,0-1.064-0.313-1.441-0.695l-0.97,1.409c0.609,0.48,1.393,0.762,2.24,0.762c0.676,0,1.408-0.184,2.006-0.629
		c0.607-0.456,0.874-1.141,0.983-1.809c0.168-1.087-0.476-1.562-1.367-1.839l-0.422-0.132c-0.289-0.097-0.738-0.248-0.674-0.641
		c0.057-0.373,0.515-0.562,0.837-0.562c0.426,0,0.806,0.18,1.087,0.448L239.69,224.533z"/>
	<polygon class="st13" points="243.563,230.879 245.301,230.879 246.471,227.013 246.489,227.013 247.422,230.879 248.114,230.879 
		250.339,227.013 250.356,227.013 250.235,230.879 251.982,230.879 252.03,224.161 250.29,224.161 248.279,227.749 247.485,224.161 
		245.766,224.161 	"/>
	<path class="st14" d="M257.581,229.712l0.251,1.168h1.864l-1.467-6.719h-1.906l-3.651,6.719h1.853l0.653-1.168H257.581z
		 M257.319,228.375h-1.452l1.061-2.139h0.018L257.319,228.375z"/>
	<polygon class="st13" points="265.449,225.638 265.682,224.161 261.86,224.161 260.795,230.879 264.618,230.879 264.854,229.4 
		262.777,229.4 262.957,228.243 264.929,228.243 265.163,226.761 263.196,226.761 263.371,225.638 	"/>
	<path class="st13" d="M271.643,224.533c-0.543-0.337-1.339-0.552-2.016-0.552c-1.345,0-2.458,0.893-2.678,2.255
		c-0.203,1.3,0.474,1.589,1.522,1.898c0.356,0.109,1.015,0.278,0.936,0.767c-0.073,0.473-0.544,0.677-0.954,0.677
		c-0.594,0-1.062-0.313-1.437-0.695l-0.974,1.409c0.611,0.48,1.393,0.762,2.24,0.762c0.677,0,1.411-0.184,2.007-0.629
		c0.61-0.456,0.877-1.141,0.984-1.809c0.172-1.087-0.477-1.562-1.371-1.839l-0.419-0.132c-0.289-0.097-0.736-0.248-0.677-0.641
		c0.059-0.373,0.516-0.562,0.837-0.562c0.427,0,0.809,0.18,1.087,0.448L271.643,224.533z"/>
	<polygon class="st13" points="275.802,225.638 277.245,225.638 277.477,224.161 272.846,224.161 272.612,225.638 274.052,225.638 
		273.227,230.879 274.975,230.879 	"/>
	<path class="st14" d="M281.515,228.123c0.98-0.166,1.625-0.97,1.77-1.898c0.229-1.433-0.674-2.064-2.003-2.064h-2.613l-1.065,6.719
		h1.748l0.407-2.585h0.022l1.238,2.585h2.175L281.515,228.123z M280.206,225.497h0.169c0.568,0,1.196,0.107,1.079,0.836
		c-0.12,0.73-0.777,0.838-1.345,0.838h-0.169L280.206,225.497z"/>
	<path class="st14" d="M288.698,223.936c-1.932,0-3.942,1.427-4.263,3.457c-0.344,2.175,0.974,3.708,3.132,3.708
		c2.153,0,3.955-1.533,4.299-3.708C292.187,225.363,290.632,223.936,288.698,223.936 M288.431,225.631
		c1.041,0,1.763,0.845,1.617,1.774c-0.183,1.156-1.175,2.002-2.218,2.002c-1.038,0-1.759-0.846-1.578-2.002
		C286.4,226.476,287.391,225.631,288.431,225.631"/>
	<path class="st13" d="M298.072,224.533c-0.543-0.337-1.34-0.552-2.017-0.552c-1.342,0-2.458,0.893-2.672,2.255
		c-0.205,1.3,0.471,1.589,1.517,1.898c0.357,0.109,1.019,0.278,0.939,0.767c-0.073,0.473-0.545,0.677-0.952,0.677
		c-0.597,0-1.068-0.313-1.444-0.695l-0.969,1.409c0.611,0.48,1.393,0.762,2.242,0.762c0.677,0,1.409-0.184,2.004-0.629
		c0.608-0.456,0.88-1.141,0.982-1.809c0.174-1.087-0.475-1.562-1.366-1.839l-0.423-0.132c-0.289-0.097-0.736-0.248-0.676-0.641
		c0.062-0.373,0.519-0.562,0.838-0.562c0.431,0,0.812,0.18,1.089,0.448L298.072,224.533z"/>
	<path class="st14" d="M302.344,230.879h2.475c1.864,0,3.645-1.473,3.945-3.362c0.3-1.887-1.009-3.357-2.879-3.357h-2.481
		L302.344,230.879z M304.919,225.638h0.407c1.126,0,1.811,0.68,1.622,1.879c-0.207,1.311-1.19,1.882-2.233,1.882h-0.388
		L304.919,225.638z"/>
	<polygon class="st13" points="314.253,225.638 314.488,224.161 310.667,224.161 309.602,230.879 313.423,230.879 313.659,229.4 
		311.581,229.4 311.764,228.243 313.737,228.243 313.967,226.761 311.999,226.761 312.178,225.638 	"/>
	<polygon class="st13" points="317.87,224.161 316.122,224.161 315.059,230.879 318.899,230.879 319.136,229.4 317.04,229.4 	"/>
	<polygon class="st13" points="323.637,230.879 325.384,230.879 326.036,226.761 326.055,226.761 328.601,230.879 330.349,230.879 
		331.413,224.161 329.664,224.161 329.016,228.269 328.998,228.269 326.45,224.161 324.702,224.161 	"/>
	<path class="st14" d="M336.522,223.936c-1.933,0-3.942,1.427-4.265,3.457c-0.341,2.175,0.976,3.708,3.131,3.708
		c2.157,0,3.959-1.533,4.303-3.708C340.014,225.363,338.456,223.936,336.522,223.936 M336.252,225.631
		c1.044,0,1.769,0.845,1.623,1.774c-0.183,1.156-1.176,2.002-2.215,2.002c-1.047,0-1.765-0.846-1.583-2.002
		C334.22,226.476,335.212,225.631,336.252,225.631"/>
	<path class="st14" d="M344.42,228.123c0.981-0.166,1.623-0.97,1.769-1.898c0.228-1.433-0.677-2.064-2.005-2.064h-2.611
		l-1.064,6.719h1.745l0.408-2.585h0.02l1.236,2.585h2.177L344.42,228.123z M343.106,225.497h0.172c0.571,0,1.193,0.107,1.079,0.836
		c-0.114,0.73-0.775,0.838-1.349,0.838h-0.166L343.106,225.497z"/>
	<polygon class="st13" points="350.627,225.638 352.073,225.638 352.306,224.161 347.672,224.161 347.439,225.638 348.883,225.638 
		348.052,230.879 349.794,230.879 	"/>
	<polygon class="st13" points="357.085,225.638 357.316,224.161 353.495,224.161 352.428,230.879 356.255,230.879 356.489,229.4 
		354.411,229.4 354.594,228.243 356.567,228.243 356.8,226.761 354.828,226.761 355.006,225.638 	"/>
	<rect x="361.617" y="222.844" class="st15" width="44.404" height="9.1"/>
	<polygon class="st16" points="378.56,223.937 376.998,230.973 380.503,230.973 381.022,227.104 382.563,230.973 384.669,230.973 
		386.255,227.081 386.777,230.973 390.235,230.973 388.552,223.937 385,223.937 383.603,227.601 382.279,223.937 	"/>
	<polygon class="st16" points="389.399,223.937 396.901,223.937 396.901,226.255 394.948,226.255 394.948,230.973 391.351,230.973 
		391.351,226.255 389.399,226.255 	"/>
	<path class="st16" d="M396.852,230.398c0.871,0.268,2.081,0.479,2.081,0.479c0.732,0.121,0.901,0.15,2.072,0.13
		c1.171-0.02,2.24-0.489,2.24-0.489c1.139-0.469,1.391-1.258,1.391-1.258c0.482-0.91-0.099-1.699-0.099-1.699
		c-0.41-0.61-1.501-0.89-1.501-0.89c-0.29-0.161-1.921-0.33-1.921-0.33c-0.52-0.039-0.37-0.339-0.37-0.339
		c0.021-0.361,1.031-0.289,1.099-0.289c0.511,0,1.642,0.529,1.642,0.529l0.99-1.848c-0.939-0.51-2.611-0.59-2.611-0.59
		c-1.422-0.149-2.762,0.369-2.762,0.369c-2.011,0.65-1.911,2.189-1.911,2.189c-0.024,0.452,0.238,1.037,0.771,1.358
		c0.81,0.49,2.023,0.61,2.071,0.61c0.61,0,0.911,0.14,0.911,0.14c0.461,0.141,0.119,0.49,0.119,0.49
		c-0.248,0.139-0.709,0.159-0.709,0.159c-1.182,0.079-2.473-0.75-2.473-0.75L396.852,230.398z"/>
	<path class="st13" d="M338.396,176.302l1.244-7.85h2.139l-1.244,7.85H338.396z M339.801,167.679l1.174-1.887h1.662l-2.022,1.887
		H339.801z"/>
	<polygon class="st13" points="274.854,176.334 276.101,168.434 280.667,168.434 280.38,170.247 277.925,170.247 277.715,171.547 
		280.014,171.547 279.738,173.253 277.45,173.253 276.965,176.334 	"/>
	<polygon class="st13" points="284.645,174.575 287.089,174.575 286.814,176.334 282.259,176.334 283.506,168.433 288.061,168.433 
		287.775,170.258 285.33,170.258 285.13,171.547 287.397,171.547 287.133,173.263 284.855,173.263 	"/>
	<path class="st13" d="M291.807,176.334h-2.099l1.247-7.9h2.105c0.633,0,1.104,0.022,1.414,0.067
		c0.309,0.045,0.577,0.121,0.804,0.229c0.399,0.187,0.702,0.451,0.907,0.791c0.205,0.34,0.308,0.747,0.308,1.222
		c0,0.655-0.195,1.202-0.586,1.643c-0.391,0.441-0.927,0.717-1.611,0.829l1.921,3.119h-2.407l-1.527-3.017L291.807,176.334z
		 M292.482,172.044h0.664c0.417,0,0.738-0.095,0.961-0.286c0.223-0.191,0.335-0.466,0.335-0.826c0-0.338-0.104-0.584-0.313-0.737
		c-0.209-0.153-0.543-0.229-1.004-0.229h-0.313L292.482,172.044z"/>
	<path class="st13" d="M300.55,176.334h-2.099l1.247-7.9h2.105c0.633,0,1.104,0.022,1.414,0.067c0.31,0.045,0.577,0.121,0.804,0.229
		c0.399,0.187,0.702,0.451,0.907,0.791c0.205,0.34,0.308,0.747,0.308,1.222c0,0.655-0.195,1.202-0.585,1.643
		c-0.39,0.441-0.927,0.717-1.611,0.829l1.921,3.119h-2.407l-1.527-3.017L300.55,176.334z M301.225,172.044h0.664
		c0.417,0,0.738-0.095,0.961-0.286c0.223-0.191,0.335-0.466,0.335-0.826c0-0.338-0.104-0.584-0.313-0.737
		c-0.209-0.153-0.543-0.229-1.004-0.229h-0.313L301.225,172.044z"/>
	<polygon class="st13" points="309.58,174.575 312.024,174.575 311.749,176.334 307.194,176.334 308.441,168.433 312.996,168.433 
		312.71,170.258 310.265,170.258 310.065,171.547 312.332,171.547 312.068,173.263 309.79,173.263 	"/>
	<polygon class="st13" points="315.738,176.334 316.699,170.268 314.929,170.268 315.231,168.434 320.811,168.434 320.509,170.268 
		318.82,170.268 317.859,176.334 	"/>
	<polygon class="st13" points="324.487,174.575 326.931,174.575 326.656,176.334 322.102,176.334 323.348,168.433 327.903,168.433 
		327.617,170.258 325.172,170.258 324.973,171.547 327.239,171.547 326.975,173.263 324.697,173.263 	"/>
	<path class="st13" d="M331.649,176.334h-2.099l1.247-7.9h2.105c0.633,0,1.104,0.022,1.414,0.067
		c0.309,0.045,0.577,0.121,0.804,0.229c0.399,0.187,0.702,0.451,0.907,0.791c0.205,0.34,0.307,0.747,0.307,1.222
		c0,0.655-0.195,1.202-0.585,1.643c-0.391,0.441-0.927,0.717-1.611,0.829l1.921,3.119h-2.407l-1.527-3.017L331.649,176.334z
		 M332.324,172.044h0.664c0.418,0,0.738-0.095,0.961-0.286c0.223-0.191,0.335-0.466,0.335-0.826c0-0.338-0.104-0.584-0.313-0.737
		c-0.209-0.153-0.543-0.229-1.004-0.229h-0.313L332.324,172.044z"/>
	<path class="st13" d="M342.779,176.334l3.956-7.9h2.644l1.678,7.9h-2.142l-0.318-1.49h-2.763l-0.756,1.49H342.779z
		 M346.626,173.085h1.668l-0.362-1.846c-0.036-0.183-0.063-0.347-0.081-0.491c-0.018-0.144-0.029-0.279-0.032-0.405
		c-0.076,0.216-0.145,0.406-0.208,0.57c-0.063,0.163-0.112,0.285-0.148,0.364L346.626,173.085z"/>
	<path class="st17" d="M371.205,216.137c0-0.993,0.35-1.843,1.051-2.55c0.7-0.706,1.553-1.06,2.559-1.06
		c1.017,0,1.876,0.347,2.577,1.042c0.7,0.694,1.05,1.55,1.05,2.568c0,1.03-0.347,1.895-1.042,2.595
		c-0.694,0.7-1.544,1.051-2.55,1.051c-1.006,0-1.865-0.359-2.577-1.077C371.561,217.987,371.205,217.131,371.205,216.137"/>
	<path class="st17" d="M397.573,207.607c-0.659-0.706-1.326-1.233-2.002-1.58c-0.676-0.347-1.386-0.521-2.128-0.521
		c-1.257,0-2.311,0.488-3.16,1.463c-0.85,0.976-1.275,2.182-1.275,3.619c0,1.197,0.329,2.146,0.988,2.846
		c0.658,0.7,1.55,1.05,2.676,1.05c0.718,0,1.41-0.125,2.074-0.377c0.664-0.251,1.326-0.629,1.984-1.131l-0.97,5.962
		c-0.85,0.299-1.673,0.521-2.469,0.665c-0.796,0.144-1.577,0.215-2.343,0.215c-2.562,0-4.636-0.829-6.222-2.487
		c-1.586-1.658-2.379-3.822-2.379-6.491c0-3.125,0.981-5.66,2.945-7.605c1.963-1.945,4.537-2.919,7.722-2.919
		c1.017,0,1.987,0.147,2.909,0.44c0.922,0.294,1.766,0.727,2.532,1.302L397.573,207.607z"/>
	<polygon class="st17" points="403.926,191.856 410.372,191.856 405.919,219.69 399.49,219.69 	"/>
</g>
<g>
	<g>
		<path class="st18" d="M113.433,48.342c-0.289,1.201-0.593,2.398-0.89,3.597c-0.126,0.507-0.437,0.714-0.873,0.578
			c-0.317-0.099-0.44-0.466-0.34-0.888c0.288-1.217,0.553-2.439,0.84-3.656c0.123-0.52,0.258-1.04,0.432-1.544
			c0.009-0.026,0.021-0.05,0.032-0.074c-1.416,1-2.999,1.81-4.701,2.393c-0.234,0.229-0.468,0.457-0.701,0.686
			c-0.373,0.366-0.746,0.379-1.047,0.034c-0.049-0.057-0.081-0.12-0.1-0.187c-1.427,0.333-2.92,0.511-4.457,0.511
			c-10.002,0-18.11-7.485-18.11-16.72c0-9.234,8.107-16.72,18.11-16.72c5.322,0,10.107,1.91,13.421,5.284h7.325
			c-4.424-6.359-12.172-10.575-20.99-10.575c-13.752,0-24.9,10.252-24.9,22.898s11.148,22.898,24.9,22.898
			c5.275,0,10.17-1.511,14.199-4.084l-1.841-5.915C113.655,47.289,113.559,47.819,113.433,48.342"/>
		<path class="st19" d="M109.225,43.139c-0.423,0.13-0.945,0.306-1.476,0.451c-1.191,0.326-2.387,0.636-3.581,0.953
			c-0.505,0.134-0.836-0.039-0.927-0.487c-0.066-0.326,0.197-0.61,0.614-0.726c1.205-0.334,2.404-0.691,3.608-1.024
			c0.515-0.143,1.035-0.275,1.561-0.365c0.302-0.052,0.562,0.091,0.665,0.409C109.781,42.626,109.627,42.917,109.225,43.139"/>
		<path class="st19" d="M108.887,40.163c-0.43-0.107-0.968-0.226-1.497-0.376c-1.188-0.336-2.372-0.688-3.558-1.033
			c-0.502-0.146-0.696-0.465-0.543-0.895c0.111-0.313,0.483-0.421,0.901-0.304c1.204,0.336,2.415,0.65,3.619,0.986
			c0.515,0.144,1.028,0.299,1.526,0.493c0.285,0.111,0.434,0.368,0.358,0.694C109.627,40.011,109.346,40.181,108.887,40.163"/>
		<path class="st19" d="M110.065,37.245c-0.324-0.302-0.736-0.667-1.127-1.055c-0.876-0.87-1.741-1.753-2.61-2.629
			c-0.368-0.371-0.383-0.744-0.04-1.046c0.249-0.22,0.627-0.133,0.935,0.171c0.89,0.878,1.797,1.74,2.687,2.618
			c0.38,0.375,0.754,0.761,1.095,1.171c0.196,0.236,0.201,0.532-0.023,0.781C110.787,37.471,110.458,37.483,110.065,37.245"/>
		<path class="st19" d="M112.552,35.543c-0.118-0.427-0.279-0.954-0.409-1.488c-0.292-1.2-0.568-2.404-0.851-3.606
			c-0.12-0.508,0.062-0.834,0.513-0.913c0.328-0.057,0.604,0.214,0.708,0.635c0.3,1.214,0.622,2.422,0.922,3.636
			c0.128,0.519,0.245,1.043,0.321,1.571c0.044,0.303-0.107,0.559-0.428,0.654C113.05,36.113,112.763,35.952,112.552,35.543"/>
		<path class="st19" d="M115.664,35.234c0.097-0.432,0.203-0.973,0.34-1.505c0.308-1.196,0.631-2.388,0.947-3.582
			c0.134-0.505,0.448-0.707,0.882-0.564c0.316,0.104,0.432,0.473,0.326,0.893c-0.307,1.212-0.592,2.43-0.899,3.642
			c-0.131,0.518-0.275,1.035-0.456,1.537c-0.104,0.288-0.357,0.443-0.685,0.375C115.834,35.971,115.658,35.693,115.664,35.234"/>
		<path class="st19" d="M118.538,36.402c0.299-0.327,0.66-0.743,1.044-1.136c0.862-0.884,1.737-1.757,2.605-2.634
			c0.367-0.371,0.741-0.39,1.046-0.05c0.222,0.247,0.139,0.626-0.162,0.937c-0.87,0.898-1.723,1.813-2.593,2.711
			c-0.372,0.384-0.754,0.761-1.161,1.106c-0.234,0.198-0.53,0.206-0.781-0.016C118.318,37.126,118.303,36.797,118.538,36.402"/>
		<path class="st19" d="M120.229,38.974c0.422-0.134,0.942-0.315,1.472-0.465c1.188-0.337,2.381-0.659,3.571-0.988
			c0.503-0.139,0.836,0.03,0.932,0.478c0.069,0.325-0.191,0.612-0.607,0.732c-1.202,0.346-2.397,0.714-3.598,1.06
			c-0.513,0.148-1.032,0.285-1.557,0.381c-0.301,0.055-0.562-0.085-0.669-0.402C119.678,39.492,119.829,39.2,120.229,38.974"/>
		<path class="st19" d="M110.952,44.8c-0.247-0.226-0.544-0.222-0.781-0.027c-0.412,0.339-0.8,0.71-1.177,1.088
			c-0.883,0.885-1.749,1.787-2.633,2.672c-0.235,0.235-0.34,0.511-0.278,0.74l1.86-0.536c0.646-0.632,1.292-1.263,1.933-1.9
			c0.39-0.388,0.757-0.799,1.061-1.121C111.176,45.325,111.166,44.996,110.952,44.8"/>
		<path class="st20" d="M112.833,58.143c-0.555-0.473-1.192-0.599-1.586-0.755c-0.14-0.054-0.275-0.108-0.399-0.172
			c-2.946,1.014-6.133,1.571-9.463,1.571c-14.91,0-26.996-11.115-26.996-24.826c0-13.711,12.087-24.826,26.996-24.826
			c10.028,0,18.778,5.028,23.434,12.491l7.619-0.011c-5.196-11.035-17.143-18.756-31.053-18.756
			c-18.68,0-33.822,13.925-33.822,31.102c0,17.177,15.142,31.102,33.822,31.102c5.643,0,10.994-1.275,15.699-3.514
			C115.795,60.617,113.74,58.919,112.833,58.143"/>
		<path class="st2" d="M117.705,42.323c-0.163-0.808-0.951-1.33-1.758-1.166l-0.105,0.021c-1.026,0.208-1.688,1.207-1.481,2.232
			l0.429,2.52l0.943,5.552c-0.005,0.178,0.749,4.019,0.749,4.019c-0.391-0.265-0.829-0.57-1.226-0.866
			c-0.928-0.691-2.435-0.979-3.381-0.897c-0.498,0.043-0.857,0.185-1.067,0.421c-0.067,0.077-0.131,0.16-0.189,0.247
			c-0.382,0.567-0.589,1.399-0.143,1.888c0.193,0.214,0.473,0.325,0.771,0.441c0.394,0.155,1.031,0.281,1.586,0.755
			c0.93,0.796,3.07,2.563,4.35,3.478c0.246,0.092,0.803,0.46,1.045,0.533c0.75,0.29,1.372,0.579,1.604,0.757
			c0.181,0.139,1.14,0.407,1.14,0.407c0.792,0.303,2.155,0.46,3.632,0.161c1.474-0.298,2.831-0.481,3.644-1.552l0.053-0.011
			l0.013-0.071c0.82-1.126,1.187-2.53,0.901-3.943c-0.071-0.349-0.332-1.638-0.381-1.88l-0.987-4.874
			c-0.067-0.331-0.365-1.426-1.365-1.57c-0.481-0.069-0.892,0.078-1.222,0.307l-0.084,0.021l-0.026,0.007
			c-0.286-0.577-0.77-0.888-1.391-0.871c-0.749,0.021-1.207,0.339-1.465,0.619c-0.43-0.584-1.1-0.798-1.9-0.565
			c-0.6,0.175-0.993,0.567-1.243,1.029l-0.842-4.156L117.705,42.323z"/>
		<path class="st2" d="M123.019,63.748c-0.945,0-1.746-0.158-2.285-0.358c-1.072-0.303-1.285-0.466-1.366-0.528
			c-0.109-0.083-0.569-0.323-1.395-0.643c-0.204-0.068-0.439-0.2-0.687-0.34c-0.123-0.069-0.308-0.174-0.37-0.198l-0.091-0.035
			l-0.086-0.059c-1.276-0.912-3.377-2.642-4.402-3.519c-0.315-0.269-0.694-0.394-1.029-0.505c-0.125-0.041-0.24-0.08-0.341-0.12
			c-0.329-0.128-0.741-0.289-1.057-0.64c-0.726-0.795-0.485-1.993,0.076-2.826c0.074-0.111,0.158-0.221,0.248-0.324
			c0.348-0.392,0.877-0.619,1.576-0.679c1.002-0.086,2.481,0.171,3.563,0.819c-0.281-1.467-0.367-1.984-0.393-2.189l-1.369-8.059
			c-0.137-0.691,0.003-1.395,0.393-1.983c0.392-0.591,0.992-0.995,1.687-1.136l0.105-0.021c0.59-0.12,1.192-0.002,1.694,0.331
			c0.502,0.333,0.844,0.841,0.964,1.432l1.168,5.768c0.175-0.096,0.362-0.173,0.56-0.231c0.816-0.238,1.572-0.131,2.167,0.289
			c0.349-0.201,0.805-0.357,1.39-0.373c0.658-0.017,1.237,0.222,1.667,0.673c0.38-0.142,0.78-0.187,1.185-0.129
			c0.379,0.055,1.641,0.372,2.005,2.174l1.368,6.754c0.308,1.521-0.022,3.075-0.928,4.396l-0.075,0.414l-0.298,0.06
			c-0.92,1.016-2.25,1.278-3.539,1.532c-0.122,0.024-0.245,0.048-0.369,0.073C124.143,63.697,123.557,63.748,123.019,63.748z
			 M120.262,61.626c0.125,0.06,0.54,0.198,0.915,0.303l0.066,0.022c0.612,0.234,1.82,0.407,3.208,0.126
			c0.127-0.026,0.252-0.05,0.377-0.075c1.253-0.247,2.243-0.442,2.812-1.191l0.114-0.15c0.687-0.985,0.94-2.139,0.712-3.262
			l-1.368-6.754c-0.03-0.148-0.206-0.891-0.726-0.966c-0.235-0.034-0.457,0.025-0.678,0.178l-0.116,0.08l-0.23,0.057l-0.605,0.164
			l-0.278-0.561c-0.202-0.407-0.474-0.452-0.687-0.447c-0.396,0.011-0.707,0.137-0.923,0.372l-0.627,0.682l-0.55-0.746
			c-0.09-0.122-0.363-0.492-1.072-0.285c-0.343,0.1-0.599,0.315-0.785,0.658l-1.001,1.855l-1.865-9.212
			c-0.039-0.191-0.149-0.355-0.312-0.463c-0.162-0.108-0.356-0.145-0.548-0.107l-0.105,0.021c-0.296,0.06-0.551,0.232-0.718,0.483
			c-0.167,0.252-0.226,0.553-0.166,0.849l0.004,0.024l1.384,8.147l-0.001,0.029c0.045,0.332,0.406,2.225,0.734,3.896l0.357,1.818
			l-1.534-1.039c-0.473-0.321-0.895-0.619-1.254-0.886c-0.74-0.551-2.06-0.818-2.859-0.749c-0.435,0.037-0.55,0.154-0.562,0.167
			c-0.042,0.048-0.085,0.104-0.124,0.163c-0.26,0.386-0.328,0.826-0.214,0.951c0.077,0.086,0.293,0.17,0.484,0.245
			c0.08,0.031,0.168,0.06,0.264,0.092c0.421,0.139,0.997,0.33,1.54,0.793c0.834,0.714,2.94,2.458,4.23,3.389
			c0.142,0.064,0.3,0.153,0.477,0.253c0.13,0.073,0.347,0.195,0.42,0.221l0.048,0.017C119.099,61.019,119.88,61.348,120.262,61.626z
			 M120.284,61.642c0.004,0.003,0.007,0.005,0.01,0.008C120.291,61.648,120.288,61.645,120.284,61.642z M116.495,51.49l0,0.014
			C116.495,51.499,116.495,51.495,116.495,51.49z"/>
		<path class="st19" d="M117.705,42.323c-0.163-0.808-0.951-1.33-1.758-1.166l-0.105,0.021c-1.026,0.208-1.688,1.207-1.481,2.232
			l0.429,2.52l0.943,5.552c-0.005,0.178,0.749,4.019,0.749,4.019c-0.391-0.265-0.829-0.57-1.226-0.866
			c-0.928-0.691-2.435-0.979-3.381-0.897c-0.498,0.043-0.857,0.185-1.067,0.421c-0.067,0.077-0.131,0.16-0.189,0.247
			c-0.382,0.567-0.589,1.399-0.143,1.888c0.193,0.214,0.473,0.325,0.771,0.441c0.394,0.155,1.031,0.281,1.586,0.755
			c0.93,0.796,3.07,2.563,4.35,3.478c0.246,0.092,0.803,0.46,1.045,0.533c0.75,0.29,1.372,0.579,1.604,0.757
			c0.181,0.139,1.14,0.407,1.14,0.407c0.792,0.303,2.155,0.46,3.632,0.161c1.474-0.298,2.831-0.481,3.644-1.552l0.053-0.011
			l0.013-0.071c0.82-1.126,1.187-2.53,0.901-3.943c-0.071-0.349-0.332-1.638-0.381-1.88l-0.987-4.874
			c-0.067-0.331-0.365-1.426-1.365-1.57c-0.481-0.069-0.892,0.078-1.222,0.307l-0.084,0.021l-0.026,0.007
			c-0.286-0.577-0.77-0.888-1.391-0.871c-0.749,0.021-1.207,0.339-1.465,0.619c-0.43-0.584-1.1-0.798-1.9-0.565
			c-0.6,0.175-0.993,0.567-1.243,1.029l-0.842-4.156L117.705,42.323z"/>
	</g>
	<g>
		<path class="st19" d="M22.332,76.444l3.582,0.215c-0.168,1.565-0.747,2.766-1.735,3.601c-0.988,0.836-2.203,1.254-3.643,1.254
			c-1.734,0-3.134-0.574-4.2-1.721c-1.066-1.147-1.599-2.731-1.599-4.752c0-2.002,0.505-3.617,1.515-4.846
			c1.01-1.228,2.42-1.843,4.228-1.843c1.69,0,2.988,0.468,3.896,1.403c0.907,0.935,1.42,2.177,1.538,3.723l-3.657,0.196
			c0-0.854-0.164-1.471-0.491-1.851c-0.327-0.381-0.712-0.571-1.155-0.571c-1.235,0-1.852,1.241-1.852,3.723
			c0,1.391,0.161,2.335,0.482,2.834c0.321,0.499,0.772,0.748,1.352,0.748C21.627,78.558,22.207,77.853,22.332,76.444"/>
		<path class="st19" d="M32.864,81.514c-1.796,0-3.26-0.595-4.392-1.787c-1.132-1.191-1.698-2.784-1.698-4.78
			c0-1.908,0.541-3.484,1.623-4.728c1.082-1.244,2.583-1.866,4.504-1.866c1.777,0,3.225,0.586,4.344,1.758
			c1.119,1.173,1.679,2.738,1.679,4.696c0,2.027-0.564,3.651-1.693,4.874C36.104,80.903,34.648,81.514,32.864,81.514 M32.845,78.614
			c0.661,0,1.137-0.288,1.426-0.865c0.29-0.577,0.435-1.632,0.435-3.166c0-2.22-0.595-3.33-1.786-3.33
			c-1.285,0-1.927,1.266-1.927,3.798C30.993,77.426,31.611,78.614,32.845,78.614"/>
		<path class="st19" d="M51.497,81.317h-3.189l-3.497-5.641c-0.449-0.724-0.901-1.603-1.357-2.637
			c0.206,0.823,0.308,1.522,0.308,2.095v6.183h-3.18V68.549h3.704l2.975,4.677c0.593,0.929,1.041,1.746,1.347,2.451
			c-0.2-1.091-0.3-2.207-0.3-3.349v-3.779h3.189V81.317z"/>
		<path class="st19" d="M52.404,77.623l3.639-0.655c0.306,1.029,1.091,1.543,2.357,1.543c0.985,0,1.478-0.262,1.478-0.786
			c0-0.274-0.114-0.488-0.341-0.641c-0.228-0.152-0.635-0.288-1.221-0.406c-2.239-0.429-3.676-0.99-4.312-1.682
			c-0.636-0.692-0.954-1.507-0.954-2.442c0-1.204,0.457-2.205,1.37-3.003c0.914-0.798,2.228-1.198,3.943-1.198
			c2.6,0,4.318,1.045,5.154,3.134l-3.245,0.982c-0.337-0.854-1.02-1.281-2.048-1.281c-0.855,0-1.282,0.265-1.282,0.795
			c0,0.237,0.096,0.421,0.29,0.552c0.194,0.131,0.567,0.255,1.123,0.373c1.528,0.323,2.613,0.609,3.255,0.857
			c0.642,0.249,1.179,0.674,1.609,1.276c0.43,0.602,0.645,1.312,0.645,2.129c0,1.292-0.524,2.339-1.572,3.141
			c-1.047,0.802-2.422,1.203-4.125,1.203C55.054,81.514,53.134,80.217,52.404,77.623"/>
		<polygon class="st19" points="70.756,71.608 70.756,81.317 67.042,81.317 67.042,71.608 64.396,71.608 64.396,68.549 
			73.403,68.549 73.403,71.608 		"/>
		<path class="st19" d="M85.881,81.317h-4.345l-1.865-4.882h-1.236v4.882h-3.919V68.549h6.67c1.471,0,2.614,0.345,3.428,1.034
			c0.814,0.689,1.221,1.598,1.221,2.727c0,0.736-0.15,1.386-0.449,1.95c-0.299,0.564-0.904,1.062-1.815,1.492L85.881,81.317z
			 M78.435,73.704h1.675c0.492,0,0.888-0.103,1.188-0.309c0.299-0.206,0.449-0.508,0.449-0.907c0-0.817-0.502-1.225-1.506-1.225
			h-1.805V73.704z"/>
		<path class="st19" d="M98.087,68.549v8.456c0,1.603-0.475,2.755-1.427,3.456c-0.95,0.701-2.19,1.053-3.718,1.053
			c-1.609,0-2.902-0.337-3.878-1.01c-0.976-0.673-1.463-1.771-1.463-3.292v-8.662h3.985v8.203c0,0.612,0.129,1.057,0.387,1.337
			c0.258,0.281,0.67,0.421,1.236,0.421c0.472,0,0.86-0.101,1.161-0.304c0.301-0.203,0.482-0.431,0.541-0.687
			c0.059-0.255,0.089-0.754,0.089-1.497v-7.474H98.087z"/>
		<path class="st19" d="M104.158,76.678v4.639h-3.975V68.549h5.453c1.359,0,2.393,0.156,3.101,0.468
			c0.708,0.312,1.269,0.789,1.684,1.431c0.415,0.643,0.622,1.363,0.622,2.161c0,1.216-0.425,2.198-1.272,2.946
			c-0.848,0.748-1.98,1.122-3.395,1.122H104.158z M104.102,73.937h1.309c1.154,0,1.73-0.424,1.73-1.272
			c0-0.798-0.533-1.197-1.599-1.197h-1.441V73.937z"/>
		<polygon class="st19" points="121.453,78.184 121.453,81.317 112.501,81.317 112.501,68.549 116.42,68.549 116.42,78.184 		"/>
		<path class="st19" d="M129.859,81.317l-0.722-2.516h-3.42l-0.767,2.516h-3.182l3.942-12.768h4.144l4.004,12.768H129.859z
			 M126.383,76.014h2.066l-1.033-3.704L126.383,76.014z"/>
		<polygon class="st19" points="144.865,78.306 144.865,81.317 134.239,81.317 134.239,78.876 139.897,71.505 134.67,71.505 
			134.67,68.549 144.687,68.549 144.687,71.029 139.194,78.306 		"/>
		<path class="st19" d="M153.336,81.317l-0.722-2.516h-3.42l-0.767,2.516h-3.181l3.941-12.768h4.144l4.004,12.768H153.336z
			 M149.861,76.014h2.066l-1.033-3.704L149.861,76.014z"/>
		<rect x="158.746" y="77.903" class="st19" width="3.555" height="3.414"/>
		<path class="st21" d="M171.299,76.444l3.582,0.215c-0.169,1.565-0.747,2.766-1.735,3.601c-0.988,0.836-2.203,1.254-3.643,1.254
			c-1.734,0-3.134-0.574-4.2-1.721c-1.067-1.147-1.6-2.731-1.6-4.752c0-2.002,0.505-3.617,1.515-4.846
			c1.01-1.228,2.419-1.843,4.228-1.843c1.69,0,2.988,0.468,3.896,1.403c0.907,0.935,1.42,2.177,1.539,3.723l-3.657,0.196
			c0-0.854-0.164-1.471-0.491-1.851c-0.327-0.381-0.712-0.571-1.155-0.571c-1.235,0-1.852,1.241-1.852,3.723
			c0,1.391,0.16,2.335,0.482,2.834c0.321,0.499,0.772,0.748,1.352,0.748C170.594,78.558,171.173,77.853,171.299,76.444"/>
		<polygon class="st19" points="185.263,78.184 185.263,81.317 176.312,81.317 176.312,68.549 180.231,68.549 180.231,78.184 		"/>
	</g>
	<g>
		<path class="st19" d="M24.836,58.488c0.042,0.046,0.063,0.102,0.063,0.169c0,0.033-0.008,0.075-0.025,0.125l-2.131,6.055
			c-0.025,0.083-0.059,0.142-0.1,0.175c-0.042,0.033-0.105,0.05-0.188,0.05h-1.304c-0.1,0-0.178-0.021-0.232-0.063
			c-0.054-0.042-0.098-0.113-0.132-0.213l-0.802-2.633c-0.025-0.092-0.059-0.138-0.1-0.138c-0.042,0-0.075,0.046-0.1,0.138
			l-0.877,2.683c-0.025,0.083-0.059,0.142-0.1,0.175c-0.042,0.033-0.109,0.05-0.201,0.05h-1.341c-0.092,0-0.165-0.021-0.219-0.063
			c-0.054-0.042-0.098-0.113-0.132-0.213l-2.043-6.004c-0.008-0.025-0.012-0.058-0.012-0.1c0-0.075,0.023-0.138,0.069-0.188
			c0.046-0.05,0.107-0.075,0.182-0.075h1.943c0.075,0,0.144,0.025,0.207,0.075c0.063,0.05,0.102,0.109,0.119,0.175l0.865,2.683
			c0.025,0.075,0.054,0.113,0.088,0.113c0.042,0,0.075-0.042,0.1-0.125l0.815-2.67c0.017-0.067,0.056-0.125,0.119-0.175
			c0.063-0.05,0.132-0.075,0.207-0.075h1.366c0.067,0,0.132,0.025,0.194,0.075c0.063,0.05,0.102,0.109,0.119,0.175l0.79,2.683
			c0.025,0.075,0.054,0.113,0.088,0.113c0.042,0,0.075-0.042,0.1-0.125l0.852-2.67c0.075-0.167,0.184-0.251,0.326-0.251h1.253
			C24.736,58.42,24.794,58.443,24.836,58.488z"/>
		<path class="st19" d="M35.266,58.488c0.042,0.046,0.063,0.102,0.063,0.169c0,0.033-0.008,0.075-0.025,0.125l-2.131,6.055
			c-0.025,0.083-0.059,0.142-0.1,0.175c-0.042,0.033-0.105,0.05-0.188,0.05H31.58c-0.1,0-0.178-0.021-0.232-0.063
			c-0.054-0.042-0.098-0.113-0.132-0.213l-0.802-2.633c-0.025-0.092-0.059-0.138-0.1-0.138c-0.042,0-0.075,0.046-0.1,0.138
			l-0.877,2.683c-0.025,0.083-0.059,0.142-0.1,0.175c-0.042,0.033-0.109,0.05-0.201,0.05h-1.341c-0.092,0-0.165-0.021-0.219-0.063
			c-0.054-0.042-0.098-0.113-0.132-0.213L25.3,58.783c-0.008-0.025-0.012-0.058-0.012-0.1c0-0.075,0.023-0.138,0.069-0.188
			c0.046-0.05,0.107-0.075,0.182-0.075h1.943c0.075,0,0.144,0.025,0.207,0.075c0.063,0.05,0.102,0.109,0.119,0.175l0.865,2.683
			c0.025,0.075,0.054,0.113,0.088,0.113c0.042,0,0.075-0.042,0.1-0.125l0.815-2.67c0.017-0.067,0.056-0.125,0.119-0.175
			c0.063-0.05,0.132-0.075,0.207-0.075h1.366c0.067,0,0.132,0.025,0.194,0.075c0.063,0.05,0.102,0.109,0.119,0.175l0.79,2.683
			c0.025,0.075,0.054,0.113,0.088,0.113c0.042,0,0.075-0.042,0.1-0.125l0.852-2.67c0.075-0.167,0.184-0.251,0.326-0.251h1.253
			C35.165,58.42,35.224,58.443,35.266,58.488z"/>
		<path class="st19" d="M45.695,58.488c0.042,0.046,0.063,0.102,0.063,0.169c0,0.033-0.008,0.075-0.025,0.125l-2.131,6.055
			c-0.025,0.083-0.059,0.142-0.1,0.175c-0.042,0.033-0.105,0.05-0.188,0.05h-1.304c-0.1,0-0.178-0.021-0.232-0.063
			c-0.054-0.042-0.098-0.113-0.132-0.213l-0.802-2.633c-0.025-0.092-0.059-0.138-0.1-0.138c-0.042,0-0.075,0.046-0.1,0.138
			l-0.877,2.683c-0.025,0.083-0.059,0.142-0.1,0.175c-0.042,0.033-0.109,0.05-0.201,0.05h-1.341c-0.092,0-0.165-0.021-0.219-0.063
			c-0.054-0.042-0.098-0.113-0.132-0.213l-2.043-6.004c-0.008-0.025-0.012-0.058-0.012-0.1c0-0.075,0.023-0.138,0.069-0.188
			c0.046-0.05,0.107-0.075,0.182-0.075h1.943c0.075,0,0.144,0.025,0.207,0.075c0.063,0.05,0.102,0.109,0.119,0.175l0.865,2.683
			c0.025,0.075,0.054,0.113,0.088,0.113c0.042,0,0.075-0.042,0.1-0.125l0.815-2.67c0.017-0.067,0.056-0.125,0.119-0.175
			c0.063-0.05,0.132-0.075,0.207-0.075h1.366c0.067,0,0.132,0.025,0.194,0.075c0.063,0.05,0.102,0.109,0.119,0.175l0.79,2.683
			c0.025,0.075,0.054,0.113,0.088,0.113c0.042,0,0.075-0.042,0.1-0.125l0.852-2.67c0.075-0.167,0.184-0.251,0.326-0.251h1.253
			C45.594,58.42,45.653,58.443,45.695,58.488z"/>
		<path class="st19" d="M48.101,64.7c0,0.134-0.031,0.228-0.094,0.282c-0.063,0.054-0.169,0.081-0.32,0.081h-1.88
			c-0.125,0-0.213-0.025-0.263-0.075c-0.05-0.05-0.075-0.129-0.075-0.238v-1.93c0-0.092,0.021-0.161,0.063-0.207
			c0.042-0.046,0.1-0.069,0.175-0.069h2.169c0.15,0,0.226,0.084,0.226,0.251V64.7z"/>
	</g>
	<g>
		<path class="st2" d="M149.621,83.878v13.263h35.605V83.878H149.621z"/>
		<g>
			<path class="st22" d="M150.781,96.471h0.573V95.4h0.845v-0.468h-0.845v-0.628h0.902v-0.477h-1.475V96.471z M153.373,94.512
				c-0.594,0-0.908,0.493-0.908,1.028c0,0.599,0.348,0.967,0.96,0.967c0.238,0,0.467-0.039,0.645-0.111l-0.076-0.393
				c-0.141,0.048-0.294,0.077-0.48,0.077c-0.263,0-0.486-0.116-0.501-0.379h1.137c0.01-0.047,0.02-0.132,0.02-0.246
				C154.169,94.948,153.932,94.512,153.373,94.512z M153.01,95.307c0.013-0.169,0.105-0.404,0.331-0.404
				c0.236,0,0.3,0.23,0.299,0.404H153.01z M155.018,94.885h-0.014l-0.023-0.333h-0.493c0.009,0.17,0.016,0.362,0.016,0.616v1.303
				h0.573v-0.972c0-0.058,0.005-0.111,0.014-0.151c0.045-0.19,0.194-0.294,0.379-0.294c0.061,0,0.104,0.005,0.146,0.013v-0.546
				c-0.04-0.009-0.068-0.011-0.122-0.011C155.322,94.512,155.112,94.627,155.018,94.885z M156.402,94.885h-0.014l-0.023-0.333
				h-0.493c0.01,0.17,0.016,0.362,0.016,0.616v1.303h0.573v-0.972c0-0.058,0.005-0.111,0.014-0.151
				c0.045-0.19,0.194-0.294,0.38-0.294c0.061,0,0.104,0.005,0.146,0.013v-0.546c-0.04-0.009-0.068-0.011-0.122-0.011
				C156.707,94.512,156.497,94.627,156.402,94.885z M158.06,94.512c-0.594,0-0.908,0.493-0.908,1.028
				c0,0.599,0.348,0.967,0.96,0.967c0.238,0,0.467-0.039,0.645-0.111l-0.076-0.393c-0.141,0.048-0.294,0.077-0.48,0.077
				c-0.263,0-0.486-0.116-0.501-0.379h1.137c0.01-0.047,0.02-0.132,0.02-0.246C158.856,94.948,158.62,94.512,158.06,94.512z
				 M157.697,95.307c0.013-0.169,0.105-0.404,0.331-0.404c0.236,0,0.3,0.23,0.299,0.404H157.697z M159.839,94.014l-0.563,0.131
				v0.407h-0.246v0.418h0.246v0.822c0,0.281,0.055,0.453,0.164,0.563c0.095,0.096,0.247,0.153,0.426,0.153
				c0.157,0,0.29-0.021,0.365-0.046l-0.005-0.438c-0.043,0.009-0.096,0.016-0.165,0.016c-0.155,0-0.223-0.091-0.223-0.32v-0.75
				h0.413v-0.418h-0.413V94.014z M161.353,94.512c-0.594,0-0.908,0.493-0.908,1.028c0,0.599,0.348,0.967,0.96,0.967
				c0.238,0,0.467-0.039,0.645-0.111l-0.076-0.393c-0.141,0.048-0.294,0.077-0.48,0.077c-0.263,0-0.486-0.116-0.501-0.379h1.137
				c0.01-0.047,0.02-0.132,0.02-0.246C162.149,94.948,161.912,94.512,161.353,94.512z M160.99,95.307
				c0.013-0.169,0.105-0.404,0.331-0.404c0.236,0,0.3,0.23,0.299,0.404H160.99z M162.998,94.885h-0.014l-0.023-0.333h-0.493
				c0.01,0.17,0.016,0.362,0.016,0.616v1.303h0.573v-0.972c0-0.058,0.005-0.111,0.014-0.151c0.045-0.19,0.194-0.294,0.38-0.294
				c0.061,0,0.104,0.005,0.146,0.013v-0.546c-0.04-0.009-0.068-0.011-0.122-0.011C163.303,94.512,163.093,94.627,162.998,94.885z
				 M164.689,94.512c-0.546,0-0.941,0.371-0.941,1.011c0,0.621,0.386,0.988,0.914,0.988c0.447,0,0.928-0.284,0.928-1.015
				C165.59,94.909,165.236,94.512,164.689,94.512z M164.678,96.096c-0.233,0-0.346-0.257-0.346-0.584
				c0-0.279,0.088-0.583,0.344-0.583c0.241,0,0.331,0.303,0.331,0.581C165.007,95.836,164.891,96.096,164.678,96.096z
				 M166.697,95.303c-0.219-0.089-0.285-0.138-0.285-0.228c0-0.093,0.077-0.157,0.218-0.157c0.145,0,0.289,0.055,0.371,0.099
				l0.1-0.4c-0.113-0.056-0.29-0.105-0.495-0.105c-0.449,0-0.736,0.268-0.736,0.624c-0.002,0.21,0.127,0.422,0.5,0.567
				c0.204,0.082,0.264,0.134,0.264,0.233c0,0.102-0.077,0.162-0.242,0.162c-0.161,0-0.364-0.07-0.462-0.13l-0.103,0.411
				c0.129,0.075,0.343,0.128,0.566,0.128c0.504,0,0.784-0.248,0.784-0.617C167.175,95.629,167.036,95.438,166.697,95.303z
				 M169.969,93.708h-0.571v1.014h-0.008c-0.075-0.125-0.233-0.21-0.45-0.21c-0.417,0-0.788,0.361-0.786,1.013
				c0,0.578,0.313,0.986,0.753,0.986c0.226,0,0.435-0.11,0.54-0.301h0.009l0.026,0.262h0.504c-0.008-0.143-0.016-0.365-0.016-0.571
				V93.708z M169.398,95.671c0,0.048-0.004,0.093-0.014,0.131c-0.037,0.157-0.156,0.25-0.295,0.25c-0.217,0-0.358-0.2-0.358-0.535
				c0-0.305,0.117-0.553,0.362-0.553c0.159,0,0.268,0.124,0.297,0.271c0.007,0.035,0.008,0.076,0.008,0.109V95.671z M171.223,94.512
				c-0.594,0-0.908,0.493-0.908,1.028c0,0.599,0.348,0.967,0.96,0.967c0.238,0,0.467-0.039,0.645-0.111l-0.077-0.393
				c-0.141,0.048-0.294,0.077-0.48,0.077c-0.263,0-0.486-0.116-0.501-0.379H172c0.01-0.047,0.02-0.132,0.02-0.246
				C172.019,94.948,171.782,94.512,171.223,94.512z M170.86,95.307c0.013-0.169,0.105-0.404,0.331-0.404
				c0.236,0,0.3,0.23,0.299,0.404H170.86z M173.957,95.434c-0.039,0.17-0.07,0.318-0.097,0.488h-0.011
				c-0.029-0.166-0.06-0.323-0.101-0.488l-0.225-0.882h-0.617l0.646,1.92h0.558l0.655-1.92h-0.591L173.957,95.434z M175.768,94.512
				c-0.594,0-0.908,0.493-0.908,1.028c0,0.599,0.348,0.967,0.96,0.967c0.238,0,0.467-0.039,0.645-0.111l-0.077-0.393
				c-0.141,0.048-0.294,0.077-0.48,0.077c-0.263,0-0.486-0.116-0.501-0.379h1.137c0.01-0.047,0.02-0.132,0.02-0.246
				C176.564,94.948,176.327,94.512,175.768,94.512z M175.405,95.307c0.013-0.169,0.105-0.404,0.331-0.404
				c0.236,0,0.3,0.23,0.299,0.404H175.405z M177.413,94.885h-0.014l-0.023-0.333h-0.493c0.01,0.17,0.016,0.362,0.016,0.616v1.303
				h0.573v-0.972c0-0.058,0.005-0.111,0.014-0.151c0.045-0.19,0.194-0.294,0.379-0.294c0.061,0,0.104,0.005,0.146,0.013v-0.546
				c-0.04-0.009-0.068-0.011-0.122-0.011C177.718,94.512,177.508,94.627,177.413,94.885z M179.979,93.708h-0.571v1.014H179.4
				c-0.075-0.125-0.233-0.21-0.45-0.21c-0.417,0-0.788,0.361-0.786,1.013c0,0.578,0.313,0.986,0.753,0.986
				c0.226,0,0.435-0.11,0.54-0.301h0.009l0.026,0.262h0.504c-0.008-0.143-0.016-0.365-0.016-0.571V93.708z M179.408,95.671
				c0,0.048-0.004,0.093-0.014,0.131c-0.037,0.157-0.156,0.25-0.295,0.25c-0.217,0-0.358-0.2-0.358-0.535
				c0-0.305,0.117-0.553,0.362-0.553c0.159,0,0.268,0.124,0.297,0.271c0.007,0.035,0.008,0.076,0.008,0.109V95.671z M181.929,95.332
				c0-0.432-0.17-0.819-0.792-0.819c-0.326,0-0.576,0.093-0.701,0.164l0.105,0.371c0.124-0.075,0.305-0.134,0.488-0.134
				c0.262,0,0.327,0.135,0.327,0.252v0.03c-0.605,0.001-1.052,0.228-1.052,0.73c0,0.317,0.225,0.586,0.586,0.586
				c0.21,0,0.392-0.078,0.511-0.23h0.011l0.033,0.19h0.514c-0.021-0.114-0.03-0.283-0.03-0.457V95.332z M181.372,95.803
				c0,0.033-0.002,0.069-0.011,0.098c-0.038,0.121-0.152,0.204-0.279,0.204c-0.119,0-0.221-0.074-0.221-0.239
				c0-0.24,0.241-0.311,0.512-0.31V95.803z M184.088,95.9v-2.192h-0.571v1.014h-0.008c-0.075-0.125-0.233-0.21-0.45-0.21
				c-0.417,0-0.788,0.361-0.786,1.013c0,0.578,0.313,0.986,0.753,0.986c0.226,0,0.435-0.11,0.54-0.301h0.009l0.026,0.262h0.504
				C184.095,96.329,184.088,96.107,184.088,95.9z M183.516,95.671c0,0.048-0.004,0.093-0.014,0.131
				c-0.037,0.157-0.156,0.25-0.295,0.25c-0.217,0-0.358-0.2-0.358-0.535c0-0.305,0.117-0.553,0.362-0.553
				c0.159,0,0.268,0.124,0.297,0.271c0.007,0.035,0.008,0.076,0.008,0.109V95.671z"/>
			<path class="st23" d="M150.139,84.395v8.868h34.607v-8.868H150.139z"/>
			<path class="st2" d="M152.29,90.688c-0.038,0.043-0.076,0.105-0.116,0.186c-0.031-0.223-0.102-0.389-0.216-0.495
				c-0.112-0.107-0.253-0.16-0.418-0.16c-0.128,0-0.246,0.031-0.351,0.096c-0.106,0.065-0.18,0.151-0.222,0.259
				c-0.042,0.108-0.063,0.266-0.063,0.474v1.032h2.331v-0.308H152.2v-0.358c0-0.079,0.003-0.136,0.011-0.171
				c0.011-0.048,0.032-0.094,0.062-0.14c0.03-0.046,0.082-0.098,0.156-0.157c0.074-0.059,0.182-0.133,0.321-0.222l0.484-0.309
				v-0.387l-0.634,0.405C152.476,90.513,152.373,90.599,152.29,90.688z M151.932,91.773h-0.771v-0.738
				c0-0.172,0.035-0.298,0.106-0.378c0.071-0.081,0.162-0.121,0.272-0.121c0.076,0,0.145,0.02,0.21,0.061
				c0.063,0.043,0.11,0.102,0.14,0.182c0.028,0.079,0.043,0.189,0.043,0.33V91.773z M183.854,88.86
				c-0.395-0.586-1.446-0.856-1.446-0.856c-0.279-0.154-1.851-0.317-1.851-0.317c-0.501-0.039-0.355-0.328-0.355-0.328
				c0.019-0.347,0.992-0.278,1.059-0.278c0.491,0,1.58,0.509,1.58,0.509l0.954-1.779c-0.904-0.491-2.515-0.568-2.515-0.568
				c-1.367-0.143-2.658,0.355-2.658,0.355c-1.937,0.625-1.84,2.107-1.84,2.107c-0.024,0.436,0.228,0.999,0.742,1.309
				c0.778,0.471,1.947,0.586,1.993,0.586c0.589,0,0.877,0.135,0.877,0.135c0.444,0.134,0.117,0.471,0.117,0.471
				c-0.241,0.135-0.684,0.153-0.684,0.153c-1.137,0.078-2.381-0.721-2.381-0.721l-0.994,1.953c0.84,0.26,2.006,0.463,2.006,0.463
				c0.704,0.115,0.867,0.143,1.994,0.124c1.128-0.019,2.158-0.471,2.158-0.471c1.098-0.452,1.34-1.212,1.34-1.212
				C184.414,89.62,183.854,88.86,183.854,88.86z M152.959,89.297h-0.793v-1.288h-0.273v1.288h-0.715v-1.376h-0.275v1.684h2.331
				v-1.738h-0.275V89.297z M176.503,85.372h-7.226v2.234h1.881v4.54h3.463v-4.54h1.882V85.372z M153.077,85.826
				c-0.05-0.076-0.122-0.148-0.21-0.213c-0.09-0.064-0.203-0.117-0.34-0.158c-0.137-0.041-0.293-0.062-0.471-0.062
				c-0.208,0-0.392,0.031-0.553,0.092c-0.162,0.06-0.295,0.153-0.399,0.275c-0.081,0.094-0.136,0.208-0.167,0.341
				c-0.023,0.096-0.033,0.234-0.033,0.415v0.803h2.331v-0.84c0-0.141-0.012-0.266-0.039-0.374
				C153.168,85.996,153.129,85.904,153.077,85.826z M152.959,87.01h-1.782v-0.49c0-0.183,0.017-0.316,0.049-0.398
				c0.044-0.115,0.132-0.211,0.264-0.291c0.131-0.081,0.317-0.121,0.561-0.121c0.175,0,0.326,0.021,0.449,0.062
				c0.123,0.04,0.221,0.097,0.294,0.17c0.052,0.051,0.092,0.121,0.121,0.209c0.028,0.087,0.043,0.208,0.043,0.36V87.01z
				 M184.138,92.152c-0.257,0-0.465,0.208-0.465,0.464c0,0.256,0.208,0.464,0.465,0.464c0.256,0,0.463-0.208,0.463-0.464
				C184.601,92.36,184.394,92.152,184.138,92.152z M184.138,93.01c-0.217,0-0.393-0.177-0.393-0.394
				c0-0.217,0.177-0.392,0.393-0.392c0.217,0,0.393,0.176,0.393,0.392C184.531,92.833,184.355,93.01,184.138,93.01z M184.382,92.497
				c0-0.112-0.08-0.164-0.176-0.164h-0.24v0.549h0.08v-0.217h0.124l0.109,0.217h0.094l-0.112-0.224
				C184.337,92.639,184.382,92.585,184.382,92.497z M184.207,92.587h-0.161V92.41h0.161c0.055,0,0.093,0.032,0.093,0.089
				C184.3,92.558,184.261,92.587,184.207,92.587z M165.042,85.372l-1.345,3.529l-1.276-3.529h-3.58l-1.506,6.774h3.376l0.501-3.724
				l1.482,3.724h2.03l1.527-3.747l0.502,3.747h3.328l-1.619-6.774H165.042z"/>
		</g>
	</g>
</g>
</svg>
