<?xml version="1.0" encoding="utf-8"?>
<!-- Generator: Adobe Illustrator 24.0.3, SVG Export Plug-In . SVG Version: 6.00 Build 0)  -->
<svg version="1.1" id="Capa_1" xmlns="http://www.w3.org/2000/svg" xmlns:xlink="http://www.w3.org/1999/xlink" x="0px" y="0px"
	 width="200px" height="100px" viewBox="0 0 200 100" style="enable-background:new 0 0 200 100;" xml:space="preserve">
<style type="text/css">
	.st0{fill-rule:evenodd;clip-rule:evenodd;fill:#E42730;}
	.st1{fill-rule:evenodd;clip-rule:evenodd;fill:#FFFFFF;}
	.st2{fill:#1C1C1A;}
	.st3{fill:#E00D1A;}
	.st4{fill:#EAE9E9;}
	.st5{fill:#FFFFFF;}
	.st6{fill:#E42730;}
	.st7{fill-rule:evenodd;clip-rule:evenodd;fill:#2A2022;}
	.st8{fill:#0082CA;}
	.st9{fill:#FFA400;}
	.st10{fill:#3B3C3A;}
</style>
<g>
	<g>
		<rect x="377.2" y="136.073" class="st0" width="30.026" height="6.152"/>
		<g>
			<polygon class="st1" points="388.661,136.811 387.602,141.566 389.972,141.566 390.323,138.954 391.366,141.566 392.791,141.566 
				393.86,138.938 394.216,141.566 396.555,141.566 395.419,136.811 393.013,136.811 392.068,139.287 391.175,136.811 			"/>
			<polygon class="st1" points="395.987,136.811 401.061,136.811 401.061,138.378 399.74,138.378 399.74,141.566 397.308,141.566 
				397.308,138.378 395.987,138.378 			"/>
			<path class="st1" d="M401.025,141.179c0.589,0.181,1.409,0.325,1.409,0.325c0.496,0.08,0.609,0.101,1.405,0.085
				c0.79-0.013,1.512-0.328,1.512-0.328c0.775-0.318,0.94-0.855,0.94-0.855c0.325-0.614-0.067-1.146-0.067-1.146
				c-0.273-0.413-1.017-0.604-1.017-0.604c-0.191-0.106-1.296-0.222-1.296-0.222c-0.351-0.026-0.253-0.232-0.253-0.232
				c0.015-0.24,0.697-0.194,0.743-0.194c0.346,0,1.115,0.362,1.115,0.362l0.666-1.252c-0.635-0.343-1.766-0.4-1.766-0.4
				c-0.96-0.098-1.869,0.25-1.869,0.25c-1.358,0.442-1.29,1.482-1.29,1.482c-0.016,0.304,0.16,0.702,0.521,0.919
				c0.547,0.331,1.368,0.408,1.399,0.408c0.413,0,0.619,0.098,0.619,0.098c0.31,0.093,0.083,0.33,0.083,0.33
				c-0.17,0.096-0.48,0.109-0.48,0.109c-0.8,0.051-1.673-0.503-1.673-0.503L401.025,141.179z"/>
		</g>
		<g>
			<path class="st1" d="M379.704,141.548h-1.673v-0.741c0-0.15,0.016-0.261,0.041-0.341c0.031-0.077,0.083-0.137,0.16-0.183
				c0.077-0.047,0.16-0.072,0.258-0.072c0.114,0,0.217,0.041,0.299,0.119c0.077,0.072,0.129,0.191,0.155,0.354
				c0.026-0.057,0.052-0.103,0.083-0.134c0.057-0.062,0.134-0.127,0.222-0.183l0.454-0.289v0.276l-0.346,0.225
				c-0.103,0.062-0.181,0.114-0.232,0.157c-0.051,0.041-0.093,0.08-0.114,0.114c-0.021,0.034-0.036,0.064-0.047,0.098
				c0,0.029-0.005,0.067-0.005,0.124v0.258h0.743V141.548z M378.769,141.329v-0.475c0-0.103-0.01-0.18-0.031-0.24
				c-0.021-0.057-0.057-0.101-0.103-0.127c-0.041-0.031-0.098-0.047-0.145-0.047c-0.083,0-0.15,0.031-0.201,0.088
				c-0.052,0.054-0.072,0.145-0.072,0.268v0.532H378.769z"/>
			<polygon class="st1" points="379.704,139.772 378.031,139.772 378.031,138.564 378.227,138.564 378.227,139.55 378.738,139.55 
				378.738,138.626 378.934,138.626 378.934,139.55 379.508,139.55 379.508,138.523 379.704,138.523 			"/>
			<path class="st1" d="M379.704,138.13h-1.673v-0.575c0-0.132,0.005-0.232,0.026-0.297c0.015-0.098,0.062-0.178,0.119-0.245
				c0.072-0.088,0.165-0.155,0.284-0.199c0.119-0.044,0.247-0.064,0.397-0.064c0.129,0,0.238,0.013,0.341,0.044
				c0.098,0.028,0.175,0.064,0.243,0.114c0.062,0.047,0.114,0.098,0.149,0.152c0.042,0.054,0.067,0.121,0.083,0.199
				c0.021,0.08,0.031,0.168,0.031,0.268V138.13z M379.508,137.911v-0.359c0-0.108-0.01-0.199-0.031-0.258
				c-0.026-0.064-0.052-0.114-0.088-0.149c-0.056-0.055-0.123-0.093-0.212-0.124c-0.088-0.031-0.196-0.044-0.32-0.044
				c-0.175,0-0.315,0.028-0.408,0.085c-0.093,0.057-0.155,0.129-0.191,0.209c-0.021,0.06-0.031,0.155-0.031,0.287v0.354H379.508z"/>
		</g>
	</g>
	<g>
		<path class="st2" d="M276.864,141.933c-0.222,0.114-0.692,0.23-1.28,0.23c-1.368,0-2.385-0.864-2.385-2.457
			c0-1.525,1.027-2.548,2.53-2.548c0.599,0,0.986,0.129,1.151,0.217l-0.155,0.508c-0.232-0.113-0.568-0.199-0.976-0.199
			c-1.136,0-1.89,0.725-1.89,1.998c0,1.193,0.687,1.949,1.854,1.949c0.392,0,0.78-0.08,1.033-0.201L276.864,141.933z"/>
		<path class="st2" d="M282.667,139.811h-1.879v1.747h2.101v0.524h-2.731v-4.845h2.623v0.524h-1.993v1.533h1.879V139.811z"/>
		<path class="st2" d="M286.219,142.082v-4.845h0.687l1.549,2.45c0.351,0.571,0.64,1.079,0.862,1.575l0.021-0.008
			c-0.057-0.646-0.072-1.234-0.072-1.988v-2.029h0.589v4.845h-0.63l-1.539-2.457c-0.341-0.542-0.661-1.094-0.903-1.618l-0.021,0.008
			c0.041,0.612,0.046,1.195,0.046,1.998v2.07H286.219z"/>
		<path class="st2" d="M294.381,137.769h-1.471v-0.532h3.588v0.532h-1.482v4.313h-0.635V137.769z"/>
		<path class="st2" d="M299.544,137.302c0.32-0.059,0.779-0.101,1.203-0.101c0.666,0,1.105,0.129,1.399,0.392
			c0.237,0.22,0.382,0.55,0.382,0.929c0,0.635-0.403,1.058-0.904,1.231v0.021c0.362,0.129,0.589,0.475,0.702,0.979
			c0.16,0.676,0.274,1.143,0.377,1.329h-0.65c-0.078-0.142-0.186-0.555-0.315-1.156c-0.145-0.668-0.408-0.922-0.976-0.942h-0.594
			v2.099h-0.625V137.302z M300.168,139.509h0.64c0.671,0,1.094-0.364,1.094-0.919c0-0.627-0.454-0.898-1.115-0.898
			c-0.304,0-0.511,0.021-0.619,0.049V139.509z"/>
		<path class="st2" d="M310.07,139.61c0,1.662-1.012,2.553-2.251,2.553c-1.286,0-2.179-0.996-2.179-2.465
			c0-1.538,0.95-2.545,2.24-2.545C309.213,137.152,310.07,138.164,310.07,139.61z M306.301,139.682c0,1.043,0.563,1.97,1.554,1.97
			c0.992,0,1.554-0.916,1.554-2.014c0-0.97-0.506-1.975-1.549-1.975C306.818,137.663,306.301,138.626,306.301,139.682z"/>
		<path class="st2" d="M317.422,137.237h2.612v0.524h-1.977v1.611h1.827v0.519h-1.827v2.191h-0.635V137.237z"/>
		<path class="st2" d="M325.95,139.811h-1.879v1.747h2.101v0.524h-2.731v-4.845h2.623v0.524h-1.993v1.533h1.879V139.811z"/>
		<path class="st2" d="M329.497,137.302c0.32-0.059,0.779-0.101,1.203-0.101c0.671,0,1.11,0.129,1.404,0.392
			c0.238,0.22,0.377,0.55,0.377,0.929c0,0.635-0.398,1.058-0.903,1.231v0.021c0.366,0.129,0.588,0.475,0.707,0.979
			c0.155,0.676,0.268,1.143,0.372,1.329h-0.645c-0.083-0.142-0.191-0.555-0.32-1.156c-0.145-0.668-0.408-0.922-0.975-0.942h-0.588
			v2.099h-0.63V137.302z M330.127,139.509h0.64c0.666,0,1.09-0.364,1.09-0.919c0-0.627-0.449-0.898-1.115-0.898
			c-0.299,0-0.506,0.021-0.614,0.049V139.509z"/>
		<path class="st2" d="M335.883,137.302c0.315-0.059,0.779-0.101,1.198-0.101c0.671,0,1.11,0.129,1.404,0.392
			c0.238,0.22,0.382,0.55,0.382,0.929c0,0.635-0.403,1.058-0.909,1.231v0.021c0.367,0.129,0.594,0.475,0.707,0.979
			c0.155,0.676,0.274,1.143,0.372,1.329h-0.645c-0.078-0.142-0.186-0.555-0.315-1.156c-0.145-0.668-0.413-0.922-0.976-0.942h-0.594
			v2.099h-0.625V137.302z M336.508,139.509h0.64c0.666,0,1.094-0.364,1.094-0.919c0-0.627-0.454-0.898-1.115-0.898
			c-0.305,0-0.511,0.021-0.62,0.049V139.509z"/>
		<path class="st2" d="M344.768,139.811h-1.874v1.747h2.096v0.524h-2.731v-4.845h2.623v0.524h-1.988v1.533h1.874V139.811z"/>
		<path class="st2" d="M349.239,137.769h-1.477v-0.532h3.588v0.532h-1.477v4.313h-0.635V137.769z"/>
		<path class="st2" d="M356.911,139.811h-1.879v1.747h2.101v0.524h-2.731v-4.845h2.623v0.524h-1.993v1.533h1.879V139.811z"/>
		<path class="st2" d="M360.463,137.302c0.315-0.059,0.774-0.101,1.198-0.101c0.666,0,1.11,0.129,1.404,0.392
			c0.238,0.22,0.382,0.55,0.382,0.929c0,0.635-0.403,1.058-0.909,1.231v0.021c0.366,0.129,0.588,0.475,0.702,0.979
			c0.16,0.676,0.274,1.143,0.377,1.329h-0.645c-0.082-0.142-0.191-0.555-0.32-1.156c-0.14-0.668-0.408-0.922-0.976-0.942h-0.588
			v2.099h-0.625V137.302z M361.087,139.509h0.64c0.666,0,1.094-0.364,1.094-0.919c0-0.627-0.455-0.898-1.12-0.898
			c-0.299,0-0.506,0.021-0.614,0.049V139.509z"/>
		<path class="st2" d="M370.984,139.61c0,1.662-1.012,2.553-2.246,2.553c-1.291,0-2.184-0.996-2.184-2.465
			c0-1.538,0.95-2.545,2.246-2.545C370.127,137.152,370.984,138.164,370.984,139.61z M367.221,139.682
			c0,1.043,0.558,1.97,1.549,1.97c0.996,0,1.554-0.916,1.554-2.014c0-0.97-0.501-1.975-1.544-1.975
			C367.737,137.663,367.221,138.626,367.221,139.682z"/>
	</g>
	<g>
		<polygon class="st2" points="302.259,132.258 296.234,132.258 294.52,118.905 288.919,132.258 286.524,132.258 281.18,118.905 
			279.213,132.258 273.199,132.258 277.138,109.07 283.101,109.07 287.794,121.437 292.75,109.07 298.764,109.07 		"/>
		<path class="st2" d="M328.114,132.258h-6.438l-1.492-4.045h-8.328l-1.59,4.045h-6.376l8.921-23.188h6.572L328.114,132.258z
			 M318.553,123.626l-2.499-7.388l-2.529,7.388H318.553z"/>
		<path class="st2" d="M351.113,120.655c0,2.411-0.728,4.646-2.179,6.701c-1.456,2.055-3.315,3.482-5.581,4.272
			c-1.197,0.418-2.426,0.63-3.67,0.63h-8.9V109.07h8.9c2.173,0,4.192,0.607,6.046,1.817c1.827,1.18,3.221,2.752,4.197,4.721
			C350.721,117.242,351.113,118.923,351.113,120.655 M344.866,120.655c0-1.601-0.449-2.997-1.347-4.189
			c-1.188-1.577-2.969-2.367-5.328-2.367h-1.379v13.128h1.379c2.375,0,4.151-0.787,5.328-2.367
			C344.417,123.66,344.866,122.255,344.866,120.655"/>
		<path class="st2" d="M374.237,132.258h-7.496l-5.756-8.9v8.9h-6.03V109.07h9.375c2.741,0,4.77,0.821,6.081,2.462
			c1.069,1.327,1.601,2.883,1.601,4.672c0,2.05-0.614,3.686-1.838,4.907c-0.779,0.782-1.858,1.327-3.227,1.631L374.237,132.258z
			 M365.76,116.535c0-0.826-0.305-1.518-0.909-2.083c-0.568-0.532-1.482-0.798-2.742-0.798h-1.125v5.777h1.125
			c1.27,0,2.189-0.263,2.742-0.795C365.455,118.058,365.76,117.361,365.76,116.535"/>
		<rect x="376.761" y="109.07" class="st3" width="6.03" height="4.035"/>
		<rect x="376.761" y="114.481" class="st2" width="6.03" height="17.777"/>
		<path class="st2" d="M408,120.655c0,2.411-0.728,4.646-2.179,6.701c-1.456,2.055-3.314,3.482-5.581,4.272
			c-1.203,0.418-2.427,0.63-3.671,0.63h-8.9V109.07h8.9c2.174,0,4.192,0.607,6.046,1.817c1.827,1.18,3.222,2.752,4.197,4.721
			C407.608,117.242,408,118.923,408,120.655 M401.753,120.655c0-1.601-0.449-2.997-1.347-4.189
			c-1.192-1.577-2.968-2.367-5.328-2.367h-1.379v13.128h1.379c2.37,0,4.151-0.787,5.328-2.367
			C401.304,123.66,401.753,122.255,401.753,120.655"/>
		<polygon class="st3" points="239.719,124.021 249.079,108.311 271.433,142.147 251.8,142.147 		"/>
		<polygon class="st3" points="239.719,124.021 230.354,108.311 208,142.147 227.634,142.147 		"/>
	</g>
</g>
<g>
	<g>
		<g>
			<path class="st4" d="M314.752,240.317c-2.73-0.837-3.298-4.741-4.322-7.711c-0.451-1.308-1.091-2.358-1.667-3.123
				c-0.171,0.017-0.299-0.03-0.361-0.165c-0.374-0.82-1.157-1.185-2.431-1.219c-1.274-0.034-1.939,3.932-3.436,2.324
				c-1.945-2.09-0.486-5.754,0.113-8.839c0.432-2.225,0.076-4.104-0.157-4.978c-0.312-0.477-0.87-0.83-1.687-1.104
				c-1.208-0.405-3.004,3.194-3.965,1.218c-1.249-2.567,1.217-5.645,2.692-8.419c0.79-1.485,1.108-2.914,1.233-3.923
				c-0.022-0.056-0.024-0.116-0.003-0.181c0.025-0.328,0.04-0.611,0.06-0.893c-0.101-0.538-0.453-1.071-1.05-1.639
				c-0.924-0.878-4.072,1.625-4.109-0.571c-0.047-2.855,3.489-4.602,5.999-6.493c0.591-0.445,1.095-0.92,1.52-1.385
				c0.23-0.556,0.475-1.104,0.734-1.644c-0.143-0.169-0.191-0.329-0.087-0.469c0.535-0.725,0.476-1.587-0.112-2.717
				c-0.588-1.131-4.379,0.211-3.699-1.878c0.885-2.715,4.798-3.215,7.786-4.186c2.151-0.699,3.914-1.767,4.733-2.311
				c-0.018-0.157,0.025-0.278,0.149-0.343c0.799-0.416,1.123-1.217,1.091-2.491c-0.033-1.274-4.029-1.73-2.501-3.309
				c1.985-2.052,5.721-0.786,8.833-0.349c3.112,0.437,5.48-0.605,5.48-0.605l0.094,0.345c0.496-0.25,0.91-0.747,1.284-1.496
				c0.569-1.14-2.745-3.419-0.655-4.096c2.716-0.88,5.42,1.991,7.963,3.839c2.542,1.847,5.122,2.038,5.122,2.038l-0.037,0.163
				c0.604-0.006,1.218-0.325,1.896-0.946c0.94-0.86-1.337-4.176,0.857-4.059c2.851,0.152,4.347,3.802,6.058,6.437
				c1.296,1.996,2.953,3.113,3.681,3.538c0.493,0.134,1.089,0.084,1.814-0.131c1.222-0.361,0.629-4.339,2.549-3.272
				c2.496,1.387,2.24,5.323,2.624,8.442c0.383,3.119,2.003,5.136,2.003,5.136l-0.111,0.065l0.235,0.397
				c0.411,0.296,0.982,0.46,1.728,0.519c1.27,0.101,2.142-3.826,3.553-2.141c1.833,2.189,0.184,5.772-0.576,8.821
				c-0.574,2.303-0.264,4.273-0.079,5.098c0.445,0.082,0.746,0.234,0.697,0.501c-0.164,0.886,0.268,1.634,1.292,2.393
				c1.024,0.759,3.844-2.109,4.148,0.067c0.395,2.828-2.903,4.993-5.163,7.176c-2.261,2.183-2.897,4.691-2.897,4.691l-0.155-0.065
				c-0.099,0.614,0.129,1.282,0.664,2.063c0.721,1.051,4.321-0.743,3.9,1.413c-0.547,2.802-4.37,3.776-7.218,5.104
				c-1.722,0.803-2.921,1.911-3.601,2.662c0.071,0.206,0.057,0.371-0.089,0.463c-0.76,0.485-1.013,1.311-0.869,2.577
				c0.144,1.266,4.165,1.373,2.78,3.079c-1.799,2.217-5.631,1.282-8.769,1.118c-2.627-0.138-4.644,0.712-5.232,0.993
				c-0.344,0.341-0.604,0.846-0.806,1.524c-0.363,1.222,3.297,2.891,1.356,3.92c-2.522,1.338-5.684-1.02-8.508-2.397
				c-1.246-0.608-2.444-0.897-3.393-1.03c-0.08,0.281-0.211,0.451-0.415,0.421c-0.891-0.132-1.624,0.325-2.347,1.375
				c-0.722,1.05,2.242,3.768,0.078,4.147c-2.812,0.493-5.091-2.727-7.351-4.91c-1.493-1.442-3.104-2.171-4.025-2.499
				c-0.139,0.097-0.271,0.12-0.392,0.034c-0.734-0.523-1.594-0.448-2.715,0.16C315.444,237.193,316.852,240.961,314.752,240.317z"/>
			<path class="st5" d="M373.305,189.728v0.578c0.659-0.184,1.354-0.282,2.071-0.282c4.249,0,7.693,3.444,7.693,7.693
				c0,4.248-3.444,7.693-7.693,7.693c-0.717,0-1.412-0.099-2.071-0.282v16.259h-10.651v-31.658H373.305z M346.316,220.291
				c-1.193,0.669-2.825,1.07-4.729,1.095c-7.114,0-9.066-3.727-9.066-9.053v-22.588h11.344v20.404c0,0.503-0.02,1.037,0.05,1.555
				c0.039,0.287,0.1,0.483,0.173,0.627c0.161,0.115,0.329,0.163,0.642,0.163c0.757,0,0.862-0.218,0.992-0.561
				c0.108-0.284,0.184-0.674,0.223-1.178c0.043-0.544,0.038-1.084,0.038-1.556v-19.454h11.344v30.928h-11.011V220.291z
				 M350.841,156.756c-2.114,0.251-5.884,0.723-7.901,1.126c-0.808,0.162-1.422,0.596-2.057,1.534
				c-0.694,1.026-1.281,2.459-2.038,4.428c-1.482,3.853-6.965,16.747-10.818,26.083c-1.942,4.704-3.327,8.884-5.25,12.822
				c-2.001,4.099-4.59,7.984-8.882,11.885c-9.361,8.51-26.569,12.836-38.324,8.706c-9.553-3.357-13.432-10.7-14.881-14.887
				c-0.641-1.851-1.275-3.953-2.342-6.125c-1.015-2.063-2.421-4.17-4.638-6.187c-2.131-1.937-4.385-2.837-6.105-3.255
				c-1.624-0.395-2.802-0.35-2.802-0.35l-28.016,0.002v-6.509h64.057v7.545h-7.327c-0.16,0.013-0.814,0.076-1.678,0.295
				c-1.071,0.272-2.345,0.755-3.409,1.581c-1.804,1.402-3.763,4.373-0.766,11.525c5.783,13.8,19.46,12.176,28.612,6.17
				c9.311-6.111,12.197-17.801,15.221-35.019c2.114-12.035,17.044-23.528,27.18-27.461c5.394-2.093,11.538-2.14,16.191-1.722
				c4.736,0.425,9.2,1.635,9.2,1.635l5.443,14.399l-10.856,10.438L350.841,156.756z"/>
			<path class="st6" d="M365.088,191.354h6.518v2.12c1.029-1.121,2.507-1.823,4.148-1.823c3.109,0,5.629,2.52,5.629,5.629
				c0,3.109-2.52,5.629-5.629,5.629c-1.641,0-3.119-0.703-4.148-1.823v17.822h-6.518V191.354z M349.074,218.194v-3.995h-0.112
				c-1.109,3.186-3.217,4.661-6.712,4.708c-5.715,0-6.99-2.52-6.99-6.991v-20.544h7.212v18.357c0,1.188-0.056,2.52,0.721,3.567
				c0.61,0.57,1.276,0.856,2.219,0.856c3.384,0,3.329-3.282,3.329-5.374v-17.406h7.212v26.822H349.074z M361.482,171.356
				l-7.259-17.332c0,0-6.666,0.741-9.629,1.333c-2.962,0.593-4.148,3.407-5.629,7.258c-1.481,3.851-6.962,16.739-10.814,26.071
				c-3.852,9.332-5.481,16.591-13.628,23.998c-8.884,8.076-25.331,12.147-36.293,8.295c-8.753-3.075-12.295-9.777-13.628-13.628
				c-1.333-3.852-2.666-8.74-7.555-13.184c-4.888-4.444-10.369-4.148-10.369-4.148h-25.924v-2.37h59.995v3.407h-5.333
				c0,0-14.221,0.74-7.703,16.294c6.593,15.733,22.22,13.332,31.701,7.11c10.201-6.694,13.155-19.411,16.147-36.441
				c1.926-10.962,15.998-22.072,25.923-25.923c9.925-3.852,23.109-0.296,23.109-0.296l4.592,12.147L361.482,171.356z"/>
			<path class="st5" d="M303.882,157.23v-1.2h8.083v1.199l0.23-1.199h8.14l5.891,28.214l-10.004-0.148l-0.057-4.783l-0.056,0.362
				h-4.145h-4.31h-0.708h-3.065h-4.027h-0.612h-4.316h-3.154h-9.416h-0.503h-6.685h-0.895h-9.014h-3.164h-3.929h-0.612h-4.346
				h-3.124h-3.968h-0.613h-4.316h-3.154h-9.919v-8.302h-1.619v8.302h-8.083V156.03h9.702h3.43h6.489h3.154h4.718
				c1.528,0,2.996,0.357,4.179,1.16v-1.16h7.872c1.511,0,2.964,0.349,4.14,1.133v-1.133h8.956h4.117h6.685h3.705h6.214h3.154h4.718
				C301.198,156.03,302.689,156.399,303.882,157.23z"/>
			<g>
				<polygon class="st7" points="224.124,177.305 224.124,169.003 228.859,169.003 228.859,166.317 224.124,166.317 
					224.124,161.678 229.173,161.678 229.173,158.992 221.374,158.992 221.374,177.305 				"/>
				<polygon class="st7" points="238.817,177.305 238.817,174.619 233.827,174.619 233.827,168.979 238.424,168.979 
					238.424,166.293 233.827,166.293 233.827,161.678 238.817,161.678 238.817,158.992 231.076,158.992 231.076,177.305 				"/>
				<path class="st7" d="M244.236,169.418c0.785,0,1.591-0.024,2.338,0.244c0.943,0.342,0.923,1.88,0.943,3.003
					c0.02,1.221-0.039,3.467,0.294,4.639h3.026v-0.342c-0.668-0.537-0.59-5.03-0.59-5.786c0-1.758-0.491-3.052-2.122-3.32v-0.049
					c1.847-0.317,2.259-2.417,2.259-4.419c0-3.369-1.808-4.395-4.185-4.395h-5.206v18.312h2.75v-7.886H244.236z M243.745,161.678
					h2.043c1.041,0.024,1.729,0.366,1.729,2.417c0,1.831-0.707,2.564-1.611,2.637h-2.161V161.678z"/>
				<path class="st7" d="M256.288,169.418c0.785,0,1.591-0.024,2.338,0.244c0.943,0.342,0.923,1.88,0.943,3.003
					c0.02,1.221-0.039,3.467,0.294,4.639h3.026v-0.342c-0.668-0.537-0.589-5.03-0.589-5.786c0-1.758-0.491-3.052-2.122-3.32v-0.049
					c1.847-0.317,2.259-2.417,2.259-4.419c0-3.369-1.808-4.395-4.185-4.395h-5.206v18.312h2.75v-7.886H256.288z M255.796,161.678
					h2.043c1.041,0.024,1.729,0.366,1.729,2.417c0,1.831-0.707,2.564-1.611,2.637h-2.161V161.678z"/>
				<polygon class="st7" points="272.798,177.305 272.798,174.619 267.808,174.619 267.808,168.979 272.405,168.979 
					272.405,166.293 267.808,166.293 267.808,161.678 272.798,161.678 272.798,158.992 265.057,158.992 265.057,177.305 				"/>
				<polygon class="st7" points="274.013,161.678 277.235,161.678 277.235,177.305 279.986,177.305 279.986,161.678 
					283.188,161.678 283.188,158.992 274.013,158.992 				"/>
				<polygon class="st7" points="292.556,177.305 292.556,174.619 287.566,174.619 287.566,168.979 292.163,168.979 
					292.163,166.293 287.566,166.293 287.566,161.678 292.556,161.678 292.556,158.992 284.816,158.992 284.816,177.305 				"/>
				<path class="st7" d="M297.976,169.418c0.786,0,1.591-0.024,2.338,0.244c0.943,0.342,0.923,1.88,0.943,3.003
					c0.02,1.221-0.039,3.467,0.294,4.639h3.026v-0.342c-0.668-0.537-0.59-5.03-0.59-5.786c0-1.758-0.491-3.052-2.121-3.32v-0.049
					c1.846-0.317,2.259-2.417,2.259-4.419c0-3.369-1.807-4.395-4.184-4.395h-5.206v18.312h2.75v-7.886H297.976z M297.485,161.678
					h2.043c1.041,0.024,1.729,0.366,1.729,2.417c0,1.831-0.707,2.564-1.611,2.637h-2.161V161.678z"/>
				<rect x="306.844" y="158.992" class="st7" width="2.75" height="18.312"/>
				<path class="st7" d="M314.125,177.305l0.727-4.639h3.222l0.727,4.639h2.947l-3.34-18.312h-3.713l-3.517,18.312H314.125z
					 M316.109,164.779c0.138-0.855,0.197-1.685,0.275-2.539c0.019-0.415,0.059-0.83,0.098-1.221h0.039
					c0.039,0.391,0.079,0.806,0.098,1.221c0.078,0.854,0.137,1.685,0.275,2.539l0.746,5.201h-2.357L316.109,164.779z"/>
			</g>
			<rect x="218.977" y="178.911" class="st1" width="105.62" height="5.333"/>
			<rect x="220.755" y="180.689" class="st7" width="100.731" height="2.074"/>
		</g>
		<g>
			<rect x="220.695" y="195.043" class="st0" width="34.939" height="7.16"/>
			<g>
				<polygon class="st1" points="234.027,195.902 232.797,201.439 235.555,201.439 235.965,198.395 237.176,201.439 
					238.834,201.439 240.082,198.377 240.492,201.439 243.212,201.439 241.889,195.902 239.094,195.902 237.995,198.786 
					236.952,195.902 				"/>
				<polygon class="st1" points="242.555,195.902 248.459,195.902 248.459,197.728 246.922,197.728 246.922,201.439 
					244.092,201.439 244.092,197.728 242.555,197.728 				"/>
				<path class="st1" d="M248.419,200.986c0.685,0.212,1.638,0.378,1.638,0.378c0.575,0.094,0.708,0.118,1.629,0.102
					c0.922-0.016,1.763-0.385,1.763-0.385c0.897-0.369,1.095-0.99,1.095-0.99c0.378-0.716-0.079-1.337-0.079-1.337
					c-0.322-0.479-1.181-0.7-1.181-0.7c-0.228-0.126-1.512-0.259-1.512-0.259c-0.41-0.031-0.291-0.268-0.291-0.268
					c0.016-0.283,0.811-0.227,0.865-0.227c0.401,0,1.291,0.416,1.291,0.416l0.78-1.454c-0.74-0.401-2.055-0.464-2.055-0.464
					c-1.118-0.117-2.173,0.29-2.173,0.29c-1.582,0.511-1.503,1.722-1.503,1.722c-0.019,0.356,0.187,0.816,0.606,1.069
					c0.637,0.385,1.592,0.479,1.63,0.479c0.48,0,0.716,0.11,0.716,0.11c0.363,0.11,0.095,0.385,0.095,0.385
					c-0.196,0.11-0.559,0.126-0.559,0.126c-0.929,0.063-1.945-0.59-1.945-0.59L248.419,200.986z"/>
			</g>
			<g>
				<path class="st1" d="M223.606,201.416h-1.948v-0.863c0-0.173,0.018-0.305,0.053-0.396c0.034-0.09,0.096-0.162,0.185-0.216
					c0.088-0.054,0.186-0.081,0.293-0.081c0.138,0,0.255,0.045,0.349,0.134c0.095,0.089,0.155,0.227,0.18,0.414
					c0.033-0.068,0.065-0.12,0.097-0.155c0.069-0.075,0.155-0.146,0.259-0.214l0.53-0.339v0.324l-0.405,0.257
					c-0.117,0.075-0.206,0.137-0.268,0.186c-0.062,0.049-0.105,0.093-0.13,0.131c-0.025,0.038-0.042,0.077-0.052,0.117
					c-0.006,0.029-0.009,0.077-0.009,0.143v0.298h0.865V201.416z M222.518,201.159v-0.553c0-0.118-0.012-0.21-0.036-0.276
					c-0.025-0.066-0.064-0.117-0.117-0.151c-0.054-0.034-0.112-0.052-0.175-0.052c-0.092,0-0.168,0.034-0.227,0.101
					c-0.059,0.066-0.089,0.172-0.089,0.316v0.616H222.518z"/>
				<polygon class="st1" points="223.606,199.349 221.659,199.349 221.659,197.942 221.889,197.942 221.889,199.092 
					222.485,199.092 222.485,198.015 222.714,198.015 222.714,199.092 223.377,199.092 223.377,197.897 223.606,197.897 				"/>
				<path class="st1" d="M223.606,197.438h-1.948v-0.67c0-0.151,0.009-0.267,0.028-0.347c0.026-0.111,0.072-0.206,0.139-0.285
					c0.087-0.103,0.198-0.179,0.334-0.23c0.135-0.051,0.289-0.077,0.462-0.077c0.148,0,0.279,0.017,0.394,0.052
					c0.114,0.034,0.209,0.079,0.284,0.133c0.075,0.054,0.134,0.113,0.177,0.178c0.042,0.064,0.075,0.141,0.097,0.232
					c0.022,0.09,0.033,0.194,0.033,0.312V197.438z M223.377,197.181v-0.415c0-0.128-0.012-0.229-0.036-0.301
					c-0.024-0.073-0.058-0.132-0.101-0.175c-0.061-0.061-0.143-0.108-0.246-0.142c-0.104-0.034-0.229-0.052-0.376-0.052
					c-0.203,0-0.36,0.034-0.469,0.101c-0.11,0.066-0.183,0.147-0.221,0.243c-0.026,0.069-0.04,0.18-0.04,0.333v0.409H223.377z"/>
			</g>
		</g>
	</g>
	
		<ellipse transform="matrix(0.1602 -0.9871 0.9871 0.1602 74.6994 494.1923)" class="st5" cx="327.777" cy="203.197" rx="3.502" ry="3.502"/>
</g>
<g>
	<g>
		<path class="st8" d="M184.572,50.679c-5.313,0.005-8.074-2.46-8.079-7.094l-0.008-7.923c-0.004-4.677,2.751-7.148,8.064-7.154
			c5.315-0.006,8.077,2.459,8.082,7.136l0.008,7.923C192.643,48.201,189.887,50.672,184.572,50.679 M198.915,35.594
			c-0.009-7.576-5.327-11.988-14.371-11.979c-9.044,0.01-14.353,4.431-14.344,12.009l0.007,7.968
			c0.009,7.578,5.326,12.032,14.37,12.023c9.044-0.01,14.353-4.474,14.346-12.053L198.915,35.594z"/>
		<path class="st8" d="M142.8,24.271c-0.458,0-0.766,0.218-0.765,0.65l0.004,3.551c0,0.389,0.309,0.605,0.766,0.605l10.322-0.01
			l0.026,25.505c0,0.431,0.257,0.65,0.715,0.649l4.701-0.006c0.461,0,0.717-0.217,0.716-0.65l-0.026-25.504l10.269-0.012
			c0.46,0,0.768-0.217,0.768-0.605l-0.004-3.552c-0.001-0.431-0.31-0.65-0.768-0.649L142.8,24.271z"/>
		<path class="st8" d="M140.298,24.903c-0.001-0.433-0.257-0.65-0.717-0.65l-4.7,0.007c-0.461,0-0.716,0.217-0.716,0.651
			l0.031,29.66c0.001,0.432,0.257,0.65,0.717,0.649l4.701-0.006c0.46,0,0.716-0.217,0.715-0.65L140.298,24.903z"/>
		<path class="st8" d="M131.693,55.198c0.512-0.001,0.767-0.218,0.767-0.649l-0.004-3.551c0-0.391-0.256-0.607-0.768-0.607
			l-15.021,0.016l-0.026-25.504c0-0.433-0.256-0.65-0.716-0.649l-4.752,0.005c-0.46,0-0.714,0.218-0.714,0.651l0.031,29.661
			c0,0.432,0.256,0.65,0.715,0.649L131.693,55.198z"/>
		<path class="st8" d="M92.04,50.775c-5.315,0.005-8.075-2.46-8.081-7.094l-0.008-7.923c-0.004-4.675,2.751-7.147,8.066-7.154
			c5.313-0.004,8.076,2.461,8.08,7.138l0.008,7.921C100.11,48.298,97.353,50.768,92.04,50.775 M106.383,35.69
			c-0.008-7.577-5.327-11.989-14.371-11.979c-9.043,0.009-14.352,4.431-14.345,12.008l0.008,7.969
			c0.008,7.578,5.327,12.033,14.371,12.023c9.044-0.009,14.353-4.476,14.346-12.053L106.383,35.69z"/>
		<path class="st8" d="M65.782,55.218c0.511-0.001,0.766-0.218,0.766-0.65l-0.012-10.695l11.683-18.83
			c0.255-0.433,0.049-0.781-0.512-0.779l-5.364,0.005c-0.36,0.001-0.715,0.131-0.869,0.476l-8.059,14.236l-8.139-14.239
			c-0.154-0.344-0.46-0.473-0.818-0.473l-5.365,0.005c-0.613,0-0.818,0.347-0.561,0.781l11.771,18.737l0.012,10.781
			c0,0.432,0.306,0.65,0.766,0.649L65.782,55.218z"/>
		<path class="st9" d="M23.96,54.252c-0.919,1.326-2.424,1.326-3.343,0L1.516,26.681c-0.919-1.328-0.35-2.413,1.264-2.413h39.016
			c1.614,0,2.183,1.085,1.263,2.413L23.96,54.252z"/>
	</g>
	<g>
		<path class="st10" d="M42.987,69.076c0.53,0.272,0.961,0.644,1.294,1.113l-0.443,0.352c-0.628-0.886-1.487-1.328-2.576-1.328
			c-0.915,0-1.681,0.316-2.298,0.947c-0.617,0.631-0.925,1.417-0.925,2.355c0,0.946,0.307,1.734,0.919,2.366
			c0.613,0.632,1.381,0.947,2.303,0.947c1.097,0,1.956-0.438,2.576-1.316l0.443,0.353c-0.333,0.468-0.764,0.839-1.294,1.111
			c-0.529,0.272-1.108,0.409-1.736,0.409c-1.075,0-1.982-0.372-2.724-1.112c-0.741-0.742-1.112-1.657-1.112-2.747
			c0-1.089,0.371-2.005,1.112-2.745c0.741-0.743,1.649-1.113,2.724-1.113C41.879,68.667,42.458,68.804,42.987,69.076z"/>
		<path class="st10" d="M54.337,73.661h-4.573c0.03,0.644,0.255,1.169,0.675,1.578c0.419,0.408,0.944,0.613,1.572,0.613
			c0.726,0,1.335-0.288,1.827-0.863l0.363,0.374c-0.582,0.682-1.316,1.022-2.201,1.022c-0.794,0-1.466-0.275-2.014-0.823
			c-0.549-0.549-0.823-1.224-0.823-2.026c0-0.794,0.269-1.469,0.806-2.025c0.537-0.556,1.191-0.834,1.962-0.834
			c0.689,0,1.269,0.225,1.742,0.675c0.473,0.45,0.71,1.039,0.71,1.765C54.383,73.359,54.367,73.541,54.337,73.661z M50.49,71.748
			c-0.393,0.368-0.628,0.835-0.703,1.402h4.005c0.023-0.59-0.151-1.062-0.522-1.418c-0.371-0.356-0.825-0.533-1.362-0.533
			C51.356,71.199,50.883,71.382,50.49,71.748z"/>
		<path class="st10" d="M63.586,71.266c0.356,0.394,0.533,0.908,0.533,1.543v3.463h-0.567v-3.428c0-0.484-0.138-0.878-0.414-1.181
			c-0.276-0.303-0.649-0.455-1.118-0.455c-0.476,0-0.868,0.156-1.174,0.466c-0.306,0.31-0.459,0.7-0.459,1.169v3.428h-0.568v-5.483
			h0.545v0.739c0.401-0.568,0.983-0.851,1.747-0.851C62.739,70.677,63.231,70.873,63.586,71.266z"/>
		<path class="st10" d="M72.632,75.771v0.501c-0.288,0.075-0.571,0.113-0.851,0.113c-0.514,0-0.923-0.132-1.225-0.398
			c-0.302-0.264-0.454-0.68-0.454-1.248v-3.427h-0.953v-0.523h0.953v-1.554h0.579v1.554h1.77v0.523h-1.77v3.405
			c0,0.764,0.397,1.147,1.191,1.147C72.091,75.864,72.344,75.832,72.632,75.771z"/>
		<path class="st10" d="M80.463,70.789v0.501h-0.284c-0.491,0-0.925,0.159-1.299,0.477c-0.375,0.317-0.562,0.745-0.562,1.282v3.223
			h-0.567v-5.483h0.545v0.92c0.408-0.635,1.013-0.953,1.816-0.953C80.142,70.756,80.258,70.767,80.463,70.789z"/>
		<path class="st10" d="M89.781,71.499c0.552,0.549,0.828,1.224,0.828,2.026c0,0.803-0.276,1.48-0.828,2.031
			c-0.552,0.552-1.225,0.829-2.02,0.829c-0.787,0-1.454-0.277-2.003-0.829c-0.549-0.552-0.823-1.229-0.823-2.031
			c0-0.802,0.275-1.477,0.823-2.026c0.549-0.548,1.22-0.822,2.014-0.822C88.559,70.677,89.228,70.951,89.781,71.499z M86.166,71.878
			c-0.427,0.447-0.641,0.999-0.641,1.657c0,0.658,0.214,1.209,0.641,1.652c0.427,0.443,0.959,0.664,1.595,0.664
			s1.17-0.223,1.606-0.669c0.435-0.446,0.652-0.994,0.652-1.646c0-0.658-0.215-1.21-0.646-1.657c-0.432-0.446-0.965-0.669-1.6-0.669
			C87.129,71.209,86.594,71.432,86.166,71.878z"/>
		<path class="st10" d="M107.576,69.315h-3.983v2.893h3.314v0.533h-3.314v3.531h-0.59v-7.491h4.573V69.315z"/>
		<path class="st10" d="M116.849,73.661h-4.574c0.031,0.644,0.255,1.169,0.675,1.578c0.42,0.408,0.944,0.613,1.572,0.613
			c0.726,0,1.335-0.288,1.827-0.863l0.363,0.374c-0.583,0.682-1.316,1.022-2.201,1.022c-0.794,0-1.466-0.275-2.014-0.823
			c-0.548-0.549-0.823-1.224-0.823-2.026c0-0.794,0.269-1.469,0.806-2.025c0.537-0.556,1.192-0.834,1.963-0.834
			c0.688,0,1.269,0.225,1.742,0.675c0.473,0.45,0.709,1.039,0.709,1.765C116.894,73.359,116.879,73.541,116.849,73.661z
			 M113.002,71.748c-0.394,0.368-0.628,0.835-0.704,1.402h4.007c0.023-0.59-0.152-1.062-0.522-1.418
			c-0.37-0.356-0.825-0.533-1.361-0.533C113.868,71.199,113.395,71.382,113.002,71.748z"/>
		<path class="st10" d="M125.043,70.789v0.501h-0.283c-0.493,0-0.925,0.159-1.3,0.477c-0.375,0.317-0.562,0.745-0.562,1.282v3.223
			h-0.567v-5.483h0.544v0.92c0.409-0.635,1.014-0.953,1.816-0.953C124.721,70.756,124.839,70.767,125.043,70.789z"/>
		<path class="st10" d="M132.761,70.789v0.501h-0.284c-0.492,0-0.925,0.159-1.3,0.477c-0.375,0.317-0.562,0.745-0.562,1.282v3.223
			h-0.568v-5.483h0.545v0.92c0.409-0.635,1.014-0.953,1.816-0.953C132.439,70.756,132.556,70.767,132.761,70.789z"/>
		<path class="st10" d="M142.407,73.661h-4.574c0.031,0.644,0.256,1.169,0.676,1.578c0.419,0.408,0.944,0.613,1.571,0.613
			c0.726,0,1.336-0.288,1.827-0.863l0.363,0.374c-0.582,0.682-1.316,1.022-2.201,1.022c-0.794,0-1.466-0.275-2.014-0.823
			c-0.549-0.549-0.823-1.224-0.823-2.026c0-0.794,0.269-1.469,0.805-2.025c0.538-0.556,1.192-0.834,1.964-0.834
			c0.688,0,1.269,0.225,1.742,0.675c0.473,0.45,0.709,1.039,0.709,1.765C142.452,73.359,142.438,73.541,142.407,73.661z
			 M138.56,71.748c-0.393,0.368-0.628,0.835-0.704,1.402h4.006c0.023-0.59-0.15-1.062-0.522-1.418
			c-0.371-0.356-0.825-0.533-1.362-0.533C139.426,71.199,138.954,71.382,138.56,71.748z"/>
		<path class="st10" d="M150.635,75.771v0.501c-0.287,0.075-0.571,0.113-0.851,0.113c-0.514,0-0.923-0.132-1.225-0.398
			c-0.303-0.264-0.454-0.68-0.454-1.248v-3.427h-0.953v-0.523h0.953v-1.554h0.579v1.554h1.77v0.523h-1.77v3.405
			c0,0.764,0.397,1.147,1.192,1.147C150.095,75.864,150.348,75.832,150.635,75.771z"/>
		<path class="st10" d="M160.395,73.661h-4.573c0.03,0.644,0.255,1.169,0.675,1.578c0.42,0.408,0.944,0.613,1.572,0.613
			c0.726,0,1.336-0.288,1.827-0.863l0.363,0.374c-0.582,0.682-1.317,1.022-2.201,1.022c-0.794,0-1.466-0.275-2.014-0.823
			c-0.548-0.549-0.823-1.224-0.823-2.026c0-0.794,0.269-1.469,0.806-2.025c0.537-0.556,1.191-0.834,1.963-0.834
			c0.688,0,1.269,0.225,1.742,0.675c0.473,0.45,0.709,1.039,0.709,1.765C160.441,73.359,160.426,73.541,160.395,73.661z
			 M156.548,71.748c-0.393,0.368-0.628,0.835-0.704,1.402h4.006c0.023-0.59-0.151-1.062-0.522-1.418
			c-0.371-0.356-0.825-0.533-1.362-0.533C157.414,71.199,156.941,71.382,156.548,71.748z"/>
		<path class="st10" d="M168.59,70.789v0.501h-0.284c-0.492,0-0.925,0.159-1.3,0.477c-0.375,0.317-0.562,0.745-0.562,1.282v3.223
			h-0.568v-5.483h0.545v0.92c0.409-0.635,1.014-0.953,1.815-0.953C168.268,70.756,168.386,70.767,168.59,70.789z"/>
		<path class="st10" d="M177.907,71.499c0.552,0.549,0.828,1.224,0.828,2.026c0,0.803-0.276,1.48-0.828,2.031
			c-0.553,0.552-1.225,0.829-2.02,0.829c-0.787,0-1.455-0.277-2.003-0.829c-0.549-0.552-0.823-1.229-0.823-2.031
			c0-0.802,0.275-1.477,0.823-2.026c0.548-0.548,1.22-0.822,2.014-0.822C176.686,70.677,177.355,70.951,177.907,71.499z
			 M174.293,71.878c-0.427,0.447-0.641,0.999-0.641,1.657c0,0.658,0.213,1.209,0.641,1.652c0.427,0.443,0.959,0.664,1.595,0.664
			c0.635,0,1.17-0.223,1.606-0.669c0.435-0.446,0.652-0.994,0.652-1.646c0-0.658-0.215-1.21-0.646-1.657
			c-0.431-0.446-0.964-0.669-1.6-0.669C175.256,71.209,174.72,71.432,174.293,71.878z"/>
	</g>
</g>
</svg>
