<?xml version="1.0" encoding="utf-8"?>
<!-- Generator: Adobe Illustrator 24.0.3, SVG Export Plug-In . SVG Version: 6.00 Build 0)  -->
<svg version="1.1" id="Capa_1" xmlns="http://www.w3.org/2000/svg" xmlns:xlink="http://www.w3.org/1999/xlink" x="0px" y="0px"
	 width="200px" height="100px" viewBox="0 0 200 100" style="enable-background:new 0 0 200 100;" xml:space="preserve">
<style type="text/css">
	.st0{fill-rule:evenodd;clip-rule:evenodd;fill:#E42730;}
	.st1{fill-rule:evenodd;clip-rule:evenodd;fill:#FFFFFF;}
	.st2{fill:#1C1C1A;}
	.st3{fill:#E00D1A;}
	.st4{fill:#EAE9E9;}
	.st5{fill:#FFFFFF;}
	.st6{fill:#E42730;}
	.st7{fill-rule:evenodd;clip-rule:evenodd;fill:#2A2022;}
	.st8{fill:#0082CA;}
	.st9{fill:#FFA400;}
	.st10{fill:#3B3C3A;}
	.st11{fill:#374995;}
	.st12{clip-path:url(#SVGID_2_);}
	.st13{fill:#C62023;}
	.st14{fill:#494245;}
	.st15{fill:#FFFFFF;stroke:#FFFFFF;stroke-width:1.0554;stroke-miterlimit:10;}
	.st16{fill:#F2CD16;}
	.st17{opacity:0.5;fill:#97979D;}
	.st18{fill:#E9E5F0;}
	.st19{fill:#E6E3F0;}
	.st20{fill:#F2F0F2;}
</style>
<g>
	<g>
		<rect x="377.2" y="136.073" class="st0" width="30.026" height="6.152"/>
		<g>
			<polygon class="st1" points="388.661,136.811 387.602,141.566 389.972,141.566 390.323,138.954 391.366,141.566 392.791,141.566 
				393.86,138.938 394.216,141.566 396.555,141.566 395.419,136.811 393.013,136.811 392.068,139.287 391.175,136.811 			"/>
			<polygon class="st1" points="395.987,136.811 401.061,136.811 401.061,138.378 399.74,138.378 399.74,141.566 397.308,141.566 
				397.308,138.378 395.987,138.378 			"/>
			<path class="st1" d="M401.025,141.179c0.589,0.181,1.409,0.325,1.409,0.325c0.496,0.08,0.609,0.101,1.405,0.085
				c0.79-0.013,1.512-0.328,1.512-0.328c0.775-0.318,0.94-0.855,0.94-0.855c0.325-0.614-0.067-1.146-0.067-1.146
				c-0.273-0.413-1.017-0.604-1.017-0.604c-0.191-0.106-1.296-0.222-1.296-0.222c-0.351-0.026-0.253-0.232-0.253-0.232
				c0.015-0.24,0.697-0.194,0.743-0.194c0.346,0,1.115,0.362,1.115,0.362l0.666-1.252c-0.635-0.343-1.766-0.4-1.766-0.4
				c-0.96-0.098-1.869,0.25-1.869,0.25c-1.358,0.442-1.29,1.482-1.29,1.482c-0.016,0.304,0.16,0.702,0.521,0.919
				c0.547,0.331,1.368,0.408,1.399,0.408c0.413,0,0.619,0.098,0.619,0.098c0.31,0.093,0.083,0.33,0.083,0.33
				c-0.17,0.096-0.48,0.109-0.48,0.109c-0.8,0.051-1.673-0.503-1.673-0.503L401.025,141.179z"/>
		</g>
		<g>
			<path class="st1" d="M379.704,141.548h-1.673v-0.741c0-0.15,0.016-0.261,0.041-0.341c0.031-0.077,0.083-0.137,0.16-0.183
				c0.077-0.047,0.16-0.072,0.258-0.072c0.114,0,0.217,0.041,0.299,0.119c0.077,0.072,0.129,0.191,0.155,0.354
				c0.026-0.057,0.052-0.103,0.083-0.134c0.057-0.062,0.134-0.127,0.222-0.183l0.454-0.289v0.276l-0.346,0.225
				c-0.103,0.062-0.181,0.114-0.232,0.157c-0.051,0.041-0.093,0.08-0.114,0.114c-0.021,0.034-0.036,0.064-0.047,0.098
				c0,0.029-0.005,0.067-0.005,0.124v0.258h0.743V141.548z M378.769,141.329v-0.475c0-0.103-0.01-0.18-0.031-0.24
				c-0.021-0.057-0.057-0.101-0.103-0.127c-0.041-0.031-0.098-0.047-0.145-0.047c-0.083,0-0.15,0.031-0.201,0.088
				c-0.052,0.054-0.072,0.145-0.072,0.268v0.532H378.769z"/>
			<polygon class="st1" points="379.704,139.772 378.031,139.772 378.031,138.564 378.227,138.564 378.227,139.55 378.738,139.55 
				378.738,138.626 378.934,138.626 378.934,139.55 379.508,139.55 379.508,138.523 379.704,138.523 			"/>
			<path class="st1" d="M379.704,138.13h-1.673v-0.575c0-0.132,0.005-0.232,0.026-0.297c0.015-0.098,0.062-0.178,0.119-0.245
				c0.072-0.088,0.165-0.155,0.284-0.199c0.119-0.044,0.247-0.064,0.397-0.064c0.129,0,0.238,0.013,0.341,0.044
				c0.098,0.028,0.175,0.064,0.243,0.114c0.062,0.047,0.114,0.098,0.149,0.152c0.042,0.054,0.067,0.121,0.083,0.199
				c0.021,0.08,0.031,0.168,0.031,0.268V138.13z M379.508,137.911v-0.359c0-0.108-0.01-0.199-0.031-0.258
				c-0.026-0.064-0.052-0.114-0.088-0.149c-0.056-0.055-0.123-0.093-0.212-0.124c-0.088-0.031-0.196-0.044-0.32-0.044
				c-0.175,0-0.315,0.028-0.408,0.085c-0.093,0.057-0.155,0.129-0.191,0.209c-0.021,0.06-0.031,0.155-0.031,0.287v0.354H379.508z"/>
		</g>
	</g>
	<g>
		<path class="st2" d="M276.864,141.933c-0.222,0.114-0.692,0.23-1.28,0.23c-1.368,0-2.385-0.864-2.385-2.457
			c0-1.525,1.027-2.548,2.53-2.548c0.599,0,0.986,0.129,1.151,0.217l-0.155,0.508c-0.232-0.113-0.568-0.199-0.976-0.199
			c-1.136,0-1.89,0.725-1.89,1.998c0,1.193,0.687,1.949,1.854,1.949c0.392,0,0.78-0.08,1.033-0.201L276.864,141.933z"/>
		<path class="st2" d="M282.667,139.811h-1.879v1.747h2.101v0.524h-2.731v-4.845h2.623v0.524h-1.993v1.533h1.879V139.811z"/>
		<path class="st2" d="M286.219,142.082v-4.845h0.687l1.549,2.45c0.351,0.571,0.64,1.079,0.862,1.575l0.021-0.008
			c-0.057-0.646-0.072-1.234-0.072-1.988v-2.029h0.589v4.845h-0.63l-1.539-2.457c-0.341-0.542-0.661-1.094-0.903-1.618l-0.021,0.008
			c0.041,0.612,0.046,1.195,0.046,1.998v2.07H286.219z"/>
		<path class="st2" d="M294.381,137.769h-1.471v-0.532h3.588v0.532h-1.482v4.313h-0.635V137.769z"/>
		<path class="st2" d="M299.544,137.302c0.32-0.059,0.779-0.101,1.203-0.101c0.666,0,1.105,0.129,1.399,0.392
			c0.237,0.22,0.382,0.55,0.382,0.929c0,0.635-0.403,1.058-0.904,1.231v0.021c0.362,0.129,0.589,0.475,0.702,0.979
			c0.16,0.676,0.274,1.143,0.377,1.329h-0.65c-0.078-0.142-0.186-0.555-0.315-1.156c-0.145-0.668-0.408-0.922-0.976-0.942h-0.594
			v2.099h-0.625V137.302z M300.168,139.509h0.64c0.671,0,1.094-0.364,1.094-0.919c0-0.627-0.454-0.898-1.115-0.898
			c-0.304,0-0.511,0.021-0.619,0.049V139.509z"/>
		<path class="st2" d="M310.07,139.61c0,1.662-1.012,2.553-2.251,2.553c-1.286,0-2.179-0.996-2.179-2.465
			c0-1.538,0.95-2.545,2.24-2.545C309.213,137.152,310.07,138.164,310.07,139.61z M306.301,139.682c0,1.043,0.563,1.97,1.554,1.97
			c0.992,0,1.554-0.916,1.554-2.014c0-0.97-0.506-1.975-1.549-1.975C306.818,137.663,306.301,138.626,306.301,139.682z"/>
		<path class="st2" d="M317.422,137.237h2.612v0.524h-1.977v1.611h1.827v0.519h-1.827v2.191h-0.635V137.237z"/>
		<path class="st2" d="M325.95,139.811h-1.879v1.747h2.101v0.524h-2.731v-4.845h2.623v0.524h-1.993v1.533h1.879V139.811z"/>
		<path class="st2" d="M329.497,137.302c0.32-0.059,0.779-0.101,1.203-0.101c0.671,0,1.11,0.129,1.404,0.392
			c0.238,0.22,0.377,0.55,0.377,0.929c0,0.635-0.398,1.058-0.903,1.231v0.021c0.366,0.129,0.588,0.475,0.707,0.979
			c0.155,0.676,0.268,1.143,0.372,1.329h-0.645c-0.083-0.142-0.191-0.555-0.32-1.156c-0.145-0.668-0.408-0.922-0.975-0.942h-0.588
			v2.099h-0.63V137.302z M330.127,139.509h0.64c0.666,0,1.09-0.364,1.09-0.919c0-0.627-0.449-0.898-1.115-0.898
			c-0.299,0-0.506,0.021-0.614,0.049V139.509z"/>
		<path class="st2" d="M335.883,137.302c0.315-0.059,0.779-0.101,1.198-0.101c0.671,0,1.11,0.129,1.404,0.392
			c0.238,0.22,0.382,0.55,0.382,0.929c0,0.635-0.403,1.058-0.909,1.231v0.021c0.367,0.129,0.594,0.475,0.707,0.979
			c0.155,0.676,0.274,1.143,0.372,1.329h-0.645c-0.078-0.142-0.186-0.555-0.315-1.156c-0.145-0.668-0.413-0.922-0.976-0.942h-0.594
			v2.099h-0.625V137.302z M336.508,139.509h0.64c0.666,0,1.094-0.364,1.094-0.919c0-0.627-0.454-0.898-1.115-0.898
			c-0.305,0-0.511,0.021-0.62,0.049V139.509z"/>
		<path class="st2" d="M344.768,139.811h-1.874v1.747h2.096v0.524h-2.731v-4.845h2.623v0.524h-1.988v1.533h1.874V139.811z"/>
		<path class="st2" d="M349.239,137.769h-1.477v-0.532h3.588v0.532h-1.477v4.313h-0.635V137.769z"/>
		<path class="st2" d="M356.911,139.811h-1.879v1.747h2.101v0.524h-2.731v-4.845h2.623v0.524h-1.993v1.533h1.879V139.811z"/>
		<path class="st2" d="M360.463,137.302c0.315-0.059,0.774-0.101,1.198-0.101c0.666,0,1.11,0.129,1.404,0.392
			c0.238,0.22,0.382,0.55,0.382,0.929c0,0.635-0.403,1.058-0.909,1.231v0.021c0.366,0.129,0.588,0.475,0.702,0.979
			c0.16,0.676,0.274,1.143,0.377,1.329h-0.645c-0.082-0.142-0.191-0.555-0.32-1.156c-0.14-0.668-0.408-0.922-0.976-0.942h-0.588
			v2.099h-0.625V137.302z M361.087,139.509h0.64c0.666,0,1.094-0.364,1.094-0.919c0-0.627-0.455-0.898-1.12-0.898
			c-0.299,0-0.506,0.021-0.614,0.049V139.509z"/>
		<path class="st2" d="M370.984,139.61c0,1.662-1.012,2.553-2.246,2.553c-1.291,0-2.184-0.996-2.184-2.465
			c0-1.538,0.95-2.545,2.246-2.545C370.127,137.152,370.984,138.164,370.984,139.61z M367.221,139.682
			c0,1.043,0.558,1.97,1.549,1.97c0.996,0,1.554-0.916,1.554-2.014c0-0.97-0.501-1.975-1.544-1.975
			C367.737,137.663,367.221,138.626,367.221,139.682z"/>
	</g>
	<g>
		<polygon class="st2" points="302.259,132.258 296.234,132.258 294.52,118.905 288.919,132.258 286.524,132.258 281.18,118.905 
			279.213,132.258 273.199,132.258 277.138,109.07 283.101,109.07 287.794,121.437 292.75,109.07 298.764,109.07 		"/>
		<path class="st2" d="M328.114,132.258h-6.438l-1.492-4.045h-8.328l-1.59,4.045h-6.376l8.921-23.188h6.572L328.114,132.258z
			 M318.553,123.626l-2.499-7.388l-2.529,7.388H318.553z"/>
		<path class="st2" d="M351.113,120.655c0,2.411-0.728,4.646-2.179,6.701c-1.456,2.055-3.315,3.482-5.581,4.272
			c-1.197,0.418-2.426,0.63-3.67,0.63h-8.9V109.07h8.9c2.173,0,4.192,0.607,6.046,1.817c1.827,1.18,3.221,2.752,4.197,4.721
			C350.721,117.242,351.113,118.923,351.113,120.655 M344.866,120.655c0-1.601-0.449-2.997-1.347-4.189
			c-1.188-1.577-2.969-2.367-5.328-2.367h-1.379v13.128h1.379c2.375,0,4.151-0.787,5.328-2.367
			C344.417,123.66,344.866,122.255,344.866,120.655"/>
		<path class="st2" d="M374.237,132.258h-7.496l-5.756-8.9v8.9h-6.03V109.07h9.375c2.741,0,4.77,0.821,6.081,2.462
			c1.069,1.327,1.601,2.883,1.601,4.672c0,2.05-0.614,3.686-1.838,4.907c-0.779,0.782-1.858,1.327-3.227,1.631L374.237,132.258z
			 M365.76,116.535c0-0.826-0.305-1.518-0.909-2.083c-0.568-0.532-1.482-0.798-2.742-0.798h-1.125v5.777h1.125
			c1.27,0,2.189-0.263,2.742-0.795C365.455,118.058,365.76,117.361,365.76,116.535"/>
		<rect x="376.761" y="109.07" class="st3" width="6.03" height="4.035"/>
		<rect x="376.761" y="114.481" class="st2" width="6.03" height="17.777"/>
		<path class="st2" d="M408,120.655c0,2.411-0.728,4.646-2.179,6.701c-1.456,2.055-3.314,3.482-5.581,4.272
			c-1.203,0.418-2.427,0.63-3.671,0.63h-8.9V109.07h8.9c2.174,0,4.192,0.607,6.046,1.817c1.827,1.18,3.222,2.752,4.197,4.721
			C407.608,117.242,408,118.923,408,120.655 M401.753,120.655c0-1.601-0.449-2.997-1.347-4.189
			c-1.192-1.577-2.968-2.367-5.328-2.367h-1.379v13.128h1.379c2.37,0,4.151-0.787,5.328-2.367
			C401.304,123.66,401.753,122.255,401.753,120.655"/>
		<polygon class="st3" points="239.719,124.021 249.079,108.311 271.433,142.147 251.8,142.147 		"/>
		<polygon class="st3" points="239.719,124.021 230.354,108.311 208,142.147 227.634,142.147 		"/>
	</g>
</g>
<g>
	<g>
		<g>
			<path class="st4" d="M314.752,240.317c-2.73-0.837-3.298-4.741-4.322-7.711c-0.451-1.308-1.091-2.358-1.667-3.123
				c-0.171,0.017-0.299-0.03-0.361-0.165c-0.374-0.82-1.157-1.185-2.431-1.219c-1.274-0.034-1.939,3.932-3.436,2.324
				c-1.945-2.09-0.486-5.754,0.113-8.839c0.432-2.225,0.076-4.104-0.157-4.978c-0.312-0.477-0.87-0.83-1.687-1.104
				c-1.208-0.405-3.004,3.194-3.965,1.218c-1.249-2.567,1.217-5.645,2.692-8.419c0.79-1.485,1.108-2.914,1.233-3.923
				c-0.022-0.056-0.024-0.116-0.003-0.181c0.025-0.328,0.04-0.611,0.06-0.893c-0.101-0.538-0.453-1.071-1.05-1.639
				c-0.924-0.878-4.072,1.625-4.109-0.571c-0.047-2.855,3.489-4.602,5.999-6.493c0.591-0.445,1.095-0.92,1.52-1.385
				c0.23-0.556,0.475-1.104,0.734-1.644c-0.143-0.169-0.191-0.329-0.087-0.469c0.535-0.725,0.476-1.587-0.112-2.717
				c-0.588-1.131-4.379,0.211-3.699-1.878c0.885-2.715,4.798-3.215,7.786-4.186c2.151-0.699,3.914-1.767,4.733-2.311
				c-0.018-0.157,0.025-0.278,0.149-0.343c0.799-0.416,1.123-1.217,1.091-2.491c-0.033-1.274-4.029-1.73-2.501-3.309
				c1.985-2.052,5.721-0.786,8.833-0.349c3.112,0.437,5.48-0.605,5.48-0.605l0.094,0.345c0.496-0.25,0.91-0.747,1.284-1.496
				c0.569-1.14-2.745-3.419-0.655-4.096c2.716-0.88,5.42,1.991,7.963,3.839c2.542,1.847,5.122,2.038,5.122,2.038l-0.037,0.163
				c0.604-0.006,1.218-0.325,1.896-0.946c0.94-0.86-1.337-4.176,0.857-4.059c2.851,0.152,4.347,3.802,6.058,6.437
				c1.296,1.996,2.953,3.113,3.681,3.538c0.493,0.134,1.089,0.084,1.814-0.131c1.222-0.361,0.629-4.339,2.549-3.272
				c2.496,1.387,2.24,5.323,2.624,8.442c0.383,3.119,2.003,5.136,2.003,5.136l-0.111,0.065l0.235,0.397
				c0.411,0.296,0.982,0.46,1.728,0.519c1.27,0.101,2.142-3.826,3.553-2.141c1.833,2.189,0.184,5.772-0.576,8.821
				c-0.574,2.303-0.264,4.273-0.079,5.098c0.445,0.082,0.746,0.234,0.697,0.501c-0.164,0.886,0.268,1.634,1.292,2.393
				c1.024,0.759,3.844-2.109,4.148,0.067c0.395,2.828-2.903,4.993-5.163,7.176c-2.261,2.183-2.897,4.691-2.897,4.691l-0.155-0.065
				c-0.099,0.614,0.129,1.282,0.664,2.063c0.721,1.051,4.321-0.743,3.9,1.413c-0.547,2.802-4.37,3.776-7.218,5.104
				c-1.722,0.803-2.921,1.911-3.601,2.662c0.071,0.206,0.057,0.371-0.089,0.463c-0.76,0.485-1.013,1.311-0.869,2.577
				c0.144,1.266,4.165,1.373,2.78,3.079c-1.799,2.217-5.631,1.282-8.769,1.118c-2.627-0.138-4.644,0.712-5.232,0.993
				c-0.344,0.341-0.604,0.846-0.806,1.524c-0.363,1.222,3.297,2.891,1.356,3.92c-2.522,1.338-5.684-1.02-8.508-2.397
				c-1.246-0.608-2.444-0.897-3.393-1.03c-0.08,0.281-0.211,0.451-0.415,0.421c-0.891-0.132-1.624,0.325-2.347,1.375
				c-0.722,1.05,2.242,3.768,0.078,4.147c-2.812,0.493-5.091-2.727-7.351-4.91c-1.493-1.442-3.104-2.171-4.025-2.499
				c-0.139,0.097-0.271,0.12-0.392,0.034c-0.734-0.523-1.594-0.448-2.715,0.16C315.444,237.193,316.852,240.961,314.752,240.317z"/>
			<path class="st5" d="M373.305,189.728v0.578c0.659-0.184,1.354-0.282,2.071-0.282c4.249,0,7.693,3.444,7.693,7.693
				c0,4.248-3.444,7.693-7.693,7.693c-0.717,0-1.412-0.099-2.071-0.282v16.259h-10.651v-31.658H373.305z M346.316,220.291
				c-1.193,0.669-2.825,1.07-4.729,1.095c-7.114,0-9.066-3.727-9.066-9.053v-22.588h11.344v20.404c0,0.503-0.02,1.037,0.05,1.555
				c0.039,0.287,0.1,0.483,0.173,0.627c0.161,0.115,0.329,0.163,0.642,0.163c0.757,0,0.862-0.218,0.992-0.561
				c0.108-0.284,0.184-0.674,0.223-1.178c0.043-0.544,0.038-1.084,0.038-1.556v-19.454h11.344v30.928h-11.011V220.291z
				 M350.841,156.756c-2.114,0.251-5.884,0.723-7.901,1.126c-0.808,0.162-1.422,0.596-2.057,1.534
				c-0.694,1.026-1.281,2.459-2.038,4.428c-1.482,3.853-6.965,16.747-10.818,26.083c-1.942,4.704-3.327,8.884-5.25,12.822
				c-2.001,4.099-4.59,7.984-8.882,11.885c-9.361,8.51-26.569,12.836-38.324,8.706c-9.553-3.357-13.432-10.7-14.881-14.887
				c-0.641-1.851-1.275-3.953-2.342-6.125c-1.015-2.063-2.421-4.17-4.638-6.187c-2.131-1.937-4.385-2.837-6.105-3.255
				c-1.624-0.395-2.802-0.35-2.802-0.35l-28.016,0.002v-6.509h64.057v7.545h-7.327c-0.16,0.013-0.814,0.076-1.678,0.295
				c-1.071,0.272-2.345,0.755-3.409,1.581c-1.804,1.402-3.763,4.373-0.766,11.525c5.783,13.8,19.46,12.176,28.612,6.17
				c9.311-6.111,12.197-17.801,15.221-35.019c2.114-12.035,17.044-23.528,27.18-27.461c5.394-2.093,11.538-2.14,16.191-1.722
				c4.736,0.425,9.2,1.635,9.2,1.635l5.443,14.399l-10.856,10.438L350.841,156.756z"/>
			<path class="st6" d="M365.088,191.354h6.518v2.12c1.029-1.121,2.507-1.823,4.148-1.823c3.109,0,5.629,2.52,5.629,5.629
				c0,3.109-2.52,5.629-5.629,5.629c-1.641,0-3.119-0.703-4.148-1.823v17.822h-6.518V191.354z M349.074,218.194v-3.995h-0.112
				c-1.109,3.186-3.217,4.661-6.712,4.708c-5.715,0-6.99-2.52-6.99-6.991v-20.544h7.212v18.357c0,1.188-0.056,2.52,0.721,3.567
				c0.61,0.57,1.276,0.856,2.219,0.856c3.384,0,3.329-3.282,3.329-5.374v-17.406h7.212v26.822H349.074z M361.482,171.356
				l-7.259-17.332c0,0-6.666,0.741-9.629,1.333c-2.962,0.593-4.148,3.407-5.629,7.258c-1.481,3.851-6.962,16.739-10.814,26.071
				c-3.852,9.332-5.481,16.591-13.628,23.998c-8.884,8.076-25.331,12.147-36.293,8.295c-8.753-3.075-12.295-9.777-13.628-13.628
				c-1.333-3.852-2.666-8.74-7.555-13.184c-4.888-4.444-10.369-4.148-10.369-4.148h-25.924v-2.37h59.995v3.407h-5.333
				c0,0-14.221,0.74-7.703,16.294c6.593,15.733,22.22,13.332,31.701,7.11c10.201-6.694,13.155-19.411,16.147-36.441
				c1.926-10.962,15.998-22.072,25.923-25.923c9.925-3.852,23.109-0.296,23.109-0.296l4.592,12.147L361.482,171.356z"/>
			<path class="st5" d="M303.882,157.23v-1.2h8.083v1.199l0.23-1.199h8.14l5.891,28.214l-10.004-0.148l-0.057-4.783l-0.056,0.362
				h-4.145h-4.31h-0.708h-3.065h-4.027h-0.612h-4.316h-3.154h-9.416h-0.503h-6.685h-0.895h-9.014h-3.164h-3.929h-0.612h-4.346
				h-3.124h-3.968h-0.613h-4.316h-3.154h-9.919v-8.302h-1.619v8.302h-8.083V156.03h9.702h3.43h6.489h3.154h4.718
				c1.528,0,2.996,0.357,4.179,1.16v-1.16h7.872c1.511,0,2.964,0.349,4.14,1.133v-1.133h8.956h4.117h6.685h3.705h6.214h3.154h4.718
				C301.198,156.03,302.689,156.399,303.882,157.23z"/>
			<g>
				<polygon class="st7" points="224.124,177.305 224.124,169.003 228.859,169.003 228.859,166.317 224.124,166.317 
					224.124,161.678 229.173,161.678 229.173,158.992 221.374,158.992 221.374,177.305 				"/>
				<polygon class="st7" points="238.817,177.305 238.817,174.619 233.827,174.619 233.827,168.979 238.424,168.979 
					238.424,166.293 233.827,166.293 233.827,161.678 238.817,161.678 238.817,158.992 231.076,158.992 231.076,177.305 				"/>
				<path class="st7" d="M244.236,169.418c0.785,0,1.591-0.024,2.338,0.244c0.943,0.342,0.923,1.88,0.943,3.003
					c0.02,1.221-0.039,3.467,0.294,4.639h3.026v-0.342c-0.668-0.537-0.59-5.03-0.59-5.786c0-1.758-0.491-3.052-2.122-3.32v-0.049
					c1.847-0.317,2.259-2.417,2.259-4.419c0-3.369-1.808-4.395-4.185-4.395h-5.206v18.312h2.75v-7.886H244.236z M243.745,161.678
					h2.043c1.041,0.024,1.729,0.366,1.729,2.417c0,1.831-0.707,2.564-1.611,2.637h-2.161V161.678z"/>
				<path class="st7" d="M256.288,169.418c0.785,0,1.591-0.024,2.338,0.244c0.943,0.342,0.923,1.88,0.943,3.003
					c0.02,1.221-0.039,3.467,0.294,4.639h3.026v-0.342c-0.668-0.537-0.589-5.03-0.589-5.786c0-1.758-0.491-3.052-2.122-3.32v-0.049
					c1.847-0.317,2.259-2.417,2.259-4.419c0-3.369-1.808-4.395-4.185-4.395h-5.206v18.312h2.75v-7.886H256.288z M255.796,161.678
					h2.043c1.041,0.024,1.729,0.366,1.729,2.417c0,1.831-0.707,2.564-1.611,2.637h-2.161V161.678z"/>
				<polygon class="st7" points="272.798,177.305 272.798,174.619 267.808,174.619 267.808,168.979 272.405,168.979 
					272.405,166.293 267.808,166.293 267.808,161.678 272.798,161.678 272.798,158.992 265.057,158.992 265.057,177.305 				"/>
				<polygon class="st7" points="274.013,161.678 277.235,161.678 277.235,177.305 279.986,177.305 279.986,161.678 
					283.188,161.678 283.188,158.992 274.013,158.992 				"/>
				<polygon class="st7" points="292.556,177.305 292.556,174.619 287.566,174.619 287.566,168.979 292.163,168.979 
					292.163,166.293 287.566,166.293 287.566,161.678 292.556,161.678 292.556,158.992 284.816,158.992 284.816,177.305 				"/>
				<path class="st7" d="M297.976,169.418c0.786,0,1.591-0.024,2.338,0.244c0.943,0.342,0.923,1.88,0.943,3.003
					c0.02,1.221-0.039,3.467,0.294,4.639h3.026v-0.342c-0.668-0.537-0.59-5.03-0.59-5.786c0-1.758-0.491-3.052-2.121-3.32v-0.049
					c1.846-0.317,2.259-2.417,2.259-4.419c0-3.369-1.807-4.395-4.184-4.395h-5.206v18.312h2.75v-7.886H297.976z M297.485,161.678
					h2.043c1.041,0.024,1.729,0.366,1.729,2.417c0,1.831-0.707,2.564-1.611,2.637h-2.161V161.678z"/>
				<rect x="306.844" y="158.992" class="st7" width="2.75" height="18.312"/>
				<path class="st7" d="M314.125,177.305l0.727-4.639h3.222l0.727,4.639h2.947l-3.34-18.312h-3.713l-3.517,18.312H314.125z
					 M316.109,164.779c0.138-0.855,0.197-1.685,0.275-2.539c0.019-0.415,0.059-0.83,0.098-1.221h0.039
					c0.039,0.391,0.079,0.806,0.098,1.221c0.078,0.854,0.137,1.685,0.275,2.539l0.746,5.201h-2.357L316.109,164.779z"/>
			</g>
			<rect x="218.977" y="178.911" class="st1" width="105.62" height="5.333"/>
			<rect x="220.755" y="180.689" class="st7" width="100.731" height="2.074"/>
		</g>
		<g>
			<rect x="220.695" y="195.043" class="st0" width="34.939" height="7.16"/>
			<g>
				<polygon class="st1" points="234.027,195.902 232.797,201.439 235.555,201.439 235.965,198.395 237.176,201.439 
					238.834,201.439 240.082,198.377 240.492,201.439 243.212,201.439 241.889,195.902 239.094,195.902 237.995,198.786 
					236.952,195.902 				"/>
				<polygon class="st1" points="242.555,195.902 248.459,195.902 248.459,197.728 246.922,197.728 246.922,201.439 
					244.092,201.439 244.092,197.728 242.555,197.728 				"/>
				<path class="st1" d="M248.419,200.986c0.685,0.212,1.638,0.378,1.638,0.378c0.575,0.094,0.708,0.118,1.629,0.102
					c0.922-0.016,1.763-0.385,1.763-0.385c0.897-0.369,1.095-0.99,1.095-0.99c0.378-0.716-0.079-1.337-0.079-1.337
					c-0.322-0.479-1.181-0.7-1.181-0.7c-0.228-0.126-1.512-0.259-1.512-0.259c-0.41-0.031-0.291-0.268-0.291-0.268
					c0.016-0.283,0.811-0.227,0.865-0.227c0.401,0,1.291,0.416,1.291,0.416l0.78-1.454c-0.74-0.401-2.055-0.464-2.055-0.464
					c-1.118-0.117-2.173,0.29-2.173,0.29c-1.582,0.511-1.503,1.722-1.503,1.722c-0.019,0.356,0.187,0.816,0.606,1.069
					c0.637,0.385,1.592,0.479,1.63,0.479c0.48,0,0.716,0.11,0.716,0.11c0.363,0.11,0.095,0.385,0.095,0.385
					c-0.196,0.11-0.559,0.126-0.559,0.126c-0.929,0.063-1.945-0.59-1.945-0.59L248.419,200.986z"/>
			</g>
			<g>
				<path class="st1" d="M223.606,201.416h-1.948v-0.863c0-0.173,0.018-0.305,0.053-0.396c0.034-0.09,0.096-0.162,0.185-0.216
					c0.088-0.054,0.186-0.081,0.293-0.081c0.138,0,0.255,0.045,0.349,0.134c0.095,0.089,0.155,0.227,0.18,0.414
					c0.033-0.068,0.065-0.12,0.097-0.155c0.069-0.075,0.155-0.146,0.259-0.214l0.53-0.339v0.324l-0.405,0.257
					c-0.117,0.075-0.206,0.137-0.268,0.186c-0.062,0.049-0.105,0.093-0.13,0.131c-0.025,0.038-0.042,0.077-0.052,0.117
					c-0.006,0.029-0.009,0.077-0.009,0.143v0.298h0.865V201.416z M222.518,201.159v-0.553c0-0.118-0.012-0.21-0.036-0.276
					c-0.025-0.066-0.064-0.117-0.117-0.151c-0.054-0.034-0.112-0.052-0.175-0.052c-0.092,0-0.168,0.034-0.227,0.101
					c-0.059,0.066-0.089,0.172-0.089,0.316v0.616H222.518z"/>
				<polygon class="st1" points="223.606,199.349 221.659,199.349 221.659,197.942 221.889,197.942 221.889,199.092 
					222.485,199.092 222.485,198.015 222.714,198.015 222.714,199.092 223.377,199.092 223.377,197.897 223.606,197.897 				"/>
				<path class="st1" d="M223.606,197.438h-1.948v-0.67c0-0.151,0.009-0.267,0.028-0.347c0.026-0.111,0.072-0.206,0.139-0.285
					c0.087-0.103,0.198-0.179,0.334-0.23c0.135-0.051,0.289-0.077,0.462-0.077c0.148,0,0.279,0.017,0.394,0.052
					c0.114,0.034,0.209,0.079,0.284,0.133c0.075,0.054,0.134,0.113,0.177,0.178c0.042,0.064,0.075,0.141,0.097,0.232
					c0.022,0.09,0.033,0.194,0.033,0.312V197.438z M223.377,197.181v-0.415c0-0.128-0.012-0.229-0.036-0.301
					c-0.024-0.073-0.058-0.132-0.101-0.175c-0.061-0.061-0.143-0.108-0.246-0.142c-0.104-0.034-0.229-0.052-0.376-0.052
					c-0.203,0-0.36,0.034-0.469,0.101c-0.11,0.066-0.183,0.147-0.221,0.243c-0.026,0.069-0.04,0.18-0.04,0.333v0.409H223.377z"/>
			</g>
		</g>
	</g>
	
		<ellipse transform="matrix(0.1602 -0.9871 0.9871 0.1602 74.6994 494.1923)" class="st5" cx="327.777" cy="203.197" rx="3.502" ry="3.502"/>
</g>
<g>
	<g>
		<path class="st8" d="M404.191,193.797c-5.313,0.005-8.074-2.46-8.079-7.094l-0.008-7.923c-0.004-4.677,2.751-7.148,8.064-7.154
			c5.315-0.006,8.077,2.459,8.082,7.136l0.008,7.923C412.261,191.319,409.505,193.789,404.191,193.797 M418.533,178.711
			c-0.009-7.576-5.327-11.988-14.371-11.979c-9.044,0.01-14.353,4.432-14.344,12.009l0.007,7.968
			c0.009,7.578,5.326,12.033,14.37,12.023c9.044-0.01,14.353-4.474,14.346-12.053L418.533,178.711z"/>
		<path class="st8" d="M362.418,167.388c-0.458,0-0.766,0.218-0.765,0.65l0.004,3.551c0,0.389,0.309,0.605,0.766,0.605l10.322-0.01
			l0.026,25.505c0,0.431,0.257,0.65,0.715,0.649l4.701-0.006c0.461,0,0.717-0.217,0.716-0.65l-0.026-25.504l10.269-0.012
			c0.46,0,0.768-0.217,0.768-0.605l-0.004-3.552c-0.001-0.431-0.31-0.65-0.768-0.649L362.418,167.388z"/>
		<path class="st8" d="M359.916,168.02c-0.001-0.433-0.257-0.65-0.717-0.65l-4.7,0.007c-0.461,0-0.716,0.217-0.716,0.651
			l0.031,29.66c0.001,0.432,0.257,0.65,0.717,0.649l4.701-0.006c0.46,0,0.716-0.217,0.715-0.65L359.916,168.02z"/>
		<path class="st8" d="M351.312,198.315c0.512-0.001,0.767-0.218,0.767-0.649l-0.004-3.551c0-0.391-0.256-0.607-0.768-0.607
			l-15.021,0.016l-0.026-25.504c0-0.433-0.256-0.65-0.716-0.649l-4.752,0.005c-0.46,0-0.714,0.218-0.714,0.651l0.031,29.661
			c0,0.432,0.256,0.65,0.715,0.649L351.312,198.315z"/>
		<path class="st8" d="M311.658,193.892c-5.315,0.005-8.075-2.46-8.081-7.094l-0.008-7.923c-0.004-4.675,2.751-7.147,8.066-7.154
			c5.313-0.004,8.076,2.461,8.08,7.138l0.008,7.921C319.729,191.415,316.971,193.886,311.658,193.892 M326.001,178.808
			c-0.008-7.577-5.327-11.989-14.371-11.979c-9.043,0.009-14.352,4.431-14.345,12.008l0.008,7.969
			c0.008,7.578,5.327,12.033,14.371,12.023c9.044-0.009,14.353-4.476,14.346-12.053L326.001,178.808z"/>
		<path class="st8" d="M285.4,198.336c0.511-0.001,0.766-0.218,0.766-0.65l-0.012-10.695l11.683-18.83
			c0.255-0.433,0.049-0.781-0.512-0.779l-5.364,0.005c-0.36,0.001-0.715,0.131-0.869,0.476l-8.059,14.236l-8.139-14.239
			c-0.154-0.344-0.46-0.473-0.818-0.473l-5.365,0.005c-0.613,0-0.818,0.347-0.561,0.781l11.771,18.737l0.012,10.781
			c0,0.432,0.306,0.65,0.766,0.649L285.4,198.336z"/>
		<path class="st9" d="M243.578,197.37c-0.919,1.326-2.424,1.326-3.343,0l-19.101-27.572c-0.919-1.328-0.35-2.413,1.264-2.413
			h39.016c1.614,0,2.183,1.085,1.263,2.413L243.578,197.37z"/>
	</g>
	<g>
		<path class="st10" d="M262.605,212.193c0.53,0.272,0.961,0.644,1.294,1.113l-0.443,0.352c-0.628-0.886-1.487-1.328-2.576-1.328
			c-0.915,0-1.681,0.316-2.298,0.947c-0.617,0.631-0.925,1.417-0.925,2.355c0,0.946,0.307,1.734,0.919,2.366
			c0.613,0.632,1.381,0.947,2.303,0.947c1.097,0,1.956-0.438,2.576-1.316l0.443,0.353c-0.333,0.468-0.764,0.839-1.294,1.111
			c-0.529,0.272-1.108,0.409-1.736,0.409c-1.075,0-1.982-0.372-2.724-1.112c-0.741-0.742-1.112-1.657-1.112-2.747
			c0-1.089,0.371-2.005,1.112-2.745c0.741-0.743,1.649-1.113,2.724-1.113C261.497,211.785,262.077,211.922,262.605,212.193z"/>
		<path class="st10" d="M273.955,216.778h-4.573c0.03,0.644,0.255,1.169,0.675,1.578c0.419,0.408,0.944,0.613,1.572,0.613
			c0.726,0,1.335-0.288,1.827-0.863l0.363,0.374c-0.582,0.682-1.316,1.022-2.201,1.022c-0.794,0-1.466-0.275-2.014-0.823
			c-0.549-0.549-0.823-1.224-0.823-2.026c0-0.794,0.268-1.469,0.806-2.025c0.537-0.556,1.191-0.834,1.962-0.834
			c0.689,0,1.269,0.225,1.742,0.675c0.473,0.45,0.71,1.039,0.71,1.765C274.001,216.476,273.986,216.658,273.955,216.778z
			 M270.108,214.865c-0.393,0.368-0.628,0.835-0.703,1.402h4.005c0.023-0.59-0.151-1.062-0.522-1.418s-0.825-0.533-1.362-0.533
			C270.974,214.316,270.502,214.5,270.108,214.865z"/>
		<path class="st10" d="M283.205,214.384c0.356,0.394,0.533,0.908,0.533,1.543v3.463h-0.567v-3.428c0-0.484-0.138-0.878-0.414-1.181
			c-0.276-0.303-0.649-0.455-1.118-0.455c-0.476,0-0.868,0.156-1.174,0.466c-0.306,0.31-0.459,0.7-0.459,1.169v3.428h-0.568v-5.483
			h0.545v0.739c0.401-0.568,0.983-0.851,1.747-0.851C282.357,213.794,282.849,213.99,283.205,214.384z"/>
		<path class="st10" d="M292.251,218.889v0.501c-0.288,0.075-0.571,0.113-0.851,0.113c-0.514,0-0.923-0.132-1.225-0.398
			c-0.302-0.264-0.454-0.68-0.454-1.248v-3.427h-0.953v-0.523h0.953v-1.554h0.579v1.554h1.77v0.523h-1.77v3.405
			c0,0.764,0.397,1.147,1.191,1.147C291.709,218.981,291.963,218.95,292.251,218.889z"/>
		<path class="st10" d="M300.081,213.906v0.501h-0.284c-0.491,0-0.925,0.159-1.299,0.477c-0.375,0.317-0.562,0.745-0.562,1.282
			v3.223h-0.567v-5.483h0.545v0.92c0.408-0.635,1.013-0.953,1.816-0.953C299.76,213.874,299.877,213.885,300.081,213.906z"/>
		<path class="st10" d="M309.399,214.616c0.552,0.549,0.828,1.224,0.828,2.026c0,0.803-0.276,1.48-0.828,2.031
			c-0.552,0.552-1.225,0.829-2.02,0.829c-0.787,0-1.454-0.277-2.003-0.829c-0.549-0.552-0.823-1.229-0.823-2.031
			c0-0.802,0.275-1.477,0.823-2.026c0.549-0.548,1.22-0.822,2.014-0.822C308.177,213.794,308.847,214.068,309.399,214.616z
			 M305.784,214.996c-0.427,0.447-0.641,0.999-0.641,1.657c0,0.658,0.214,1.209,0.641,1.652s0.959,0.664,1.595,0.664
			c0.636,0,1.17-0.223,1.606-0.669c0.435-0.446,0.652-0.994,0.652-1.646c0-0.658-0.215-1.21-0.646-1.657
			c-0.432-0.446-0.965-0.669-1.6-0.669C306.747,214.326,306.212,214.55,305.784,214.996z"/>
		<path class="st10" d="M327.194,212.433h-3.983v2.893h3.314v0.533h-3.314v3.531h-0.59v-7.491h4.573V212.433z"/>
		<path class="st10" d="M336.467,216.778h-4.574c0.031,0.644,0.255,1.169,0.675,1.578c0.42,0.408,0.944,0.613,1.572,0.613
			c0.726,0,1.335-0.288,1.827-0.863l0.363,0.374c-0.583,0.682-1.316,1.022-2.201,1.022c-0.794,0-1.466-0.275-2.014-0.823
			c-0.548-0.549-0.823-1.224-0.823-2.026c0-0.794,0.269-1.469,0.806-2.025c0.537-0.556,1.192-0.834,1.963-0.834
			c0.688,0,1.269,0.225,1.742,0.675c0.473,0.45,0.709,1.039,0.709,1.765C336.512,216.476,336.497,216.658,336.467,216.778z
			 M332.62,214.865c-0.394,0.368-0.628,0.835-0.704,1.402h4.007c0.023-0.59-0.152-1.062-0.522-1.418
			c-0.37-0.356-0.825-0.533-1.361-0.533C333.486,214.316,333.013,214.5,332.62,214.865z"/>
		<path class="st10" d="M344.661,213.906v0.501h-0.283c-0.493,0-0.925,0.159-1.3,0.477c-0.375,0.317-0.562,0.745-0.562,1.282v3.223
			h-0.567v-5.483h0.544v0.92c0.409-0.635,1.014-0.953,1.816-0.953C344.339,213.874,344.457,213.885,344.661,213.906z"/>
		<path class="st10" d="M352.379,213.906v0.501h-0.284c-0.492,0-0.926,0.159-1.3,0.477c-0.375,0.317-0.562,0.745-0.562,1.282v3.223
			h-0.568v-5.483h0.545v0.92c0.409-0.635,1.014-0.953,1.816-0.953C352.057,213.874,352.174,213.885,352.379,213.906z"/>
		<path class="st10" d="M362.025,216.778h-4.574c0.031,0.644,0.256,1.169,0.676,1.578c0.419,0.408,0.944,0.613,1.571,0.613
			c0.727,0,1.336-0.288,1.827-0.863l0.363,0.374c-0.582,0.682-1.316,1.022-2.201,1.022c-0.794,0-1.466-0.275-2.014-0.823
			c-0.549-0.549-0.823-1.224-0.823-2.026c0-0.794,0.268-1.469,0.805-2.025c0.538-0.556,1.192-0.834,1.964-0.834
			c0.688,0,1.269,0.225,1.742,0.675c0.473,0.45,0.709,1.039,0.709,1.765C362.071,216.476,362.056,216.658,362.025,216.778z
			 M358.178,214.865c-0.393,0.368-0.628,0.835-0.704,1.402h4.006c0.023-0.59-0.15-1.062-0.522-1.418
			c-0.371-0.356-0.825-0.533-1.362-0.533C359.044,214.316,358.572,214.5,358.178,214.865z"/>
		<path class="st10" d="M370.254,218.889v0.501c-0.287,0.075-0.571,0.113-0.851,0.113c-0.514,0-0.923-0.132-1.225-0.398
			c-0.303-0.264-0.454-0.68-0.454-1.248v-3.427h-0.953v-0.523h0.953v-1.554h0.579v1.554h1.77v0.523h-1.77v3.405
			c0,0.764,0.397,1.147,1.192,1.147C369.713,218.981,369.967,218.95,370.254,218.889z"/>
		<path class="st10" d="M380.013,216.778h-4.573c0.03,0.644,0.255,1.169,0.675,1.578c0.42,0.408,0.944,0.613,1.572,0.613
			c0.726,0,1.336-0.288,1.827-0.863l0.363,0.374c-0.582,0.682-1.317,1.022-2.201,1.022c-0.794,0-1.466-0.275-2.014-0.823
			c-0.548-0.549-0.823-1.224-0.823-2.026c0-0.794,0.269-1.469,0.806-2.025c0.537-0.556,1.191-0.834,1.963-0.834
			c0.688,0,1.269,0.225,1.742,0.675c0.473,0.45,0.709,1.039,0.709,1.765C380.059,216.476,380.044,216.658,380.013,216.778z
			 M376.167,214.865c-0.393,0.368-0.628,0.835-0.704,1.402h4.006c0.023-0.59-0.151-1.062-0.522-1.418s-0.825-0.533-1.362-0.533
			C377.032,214.316,376.56,214.5,376.167,214.865z"/>
		<path class="st10" d="M388.208,213.906v0.501h-0.284c-0.492,0-0.925,0.159-1.3,0.477c-0.375,0.317-0.562,0.745-0.562,1.282v3.223
			h-0.568v-5.483h0.545v0.92c0.409-0.635,1.014-0.953,1.815-0.953C387.887,213.874,388.004,213.885,388.208,213.906z"/>
		<path class="st10" d="M397.526,214.616c0.552,0.549,0.828,1.224,0.828,2.026c0,0.803-0.276,1.48-0.828,2.031
			c-0.553,0.552-1.225,0.829-2.02,0.829c-0.787,0-1.455-0.277-2.003-0.829c-0.549-0.552-0.823-1.229-0.823-2.031
			c0-0.802,0.275-1.477,0.823-2.026c0.548-0.548,1.22-0.822,2.014-0.822C396.304,213.794,396.973,214.068,397.526,214.616z
			 M393.911,214.996c-0.427,0.447-0.641,0.999-0.641,1.657c0,0.658,0.213,1.209,0.641,1.652c0.427,0.443,0.959,0.664,1.595,0.664
			c0.635,0,1.17-0.223,1.606-0.669c0.435-0.446,0.652-0.994,0.652-1.646c0-0.658-0.215-1.21-0.646-1.657
			c-0.431-0.446-0.964-0.669-1.6-0.669C394.874,214.326,394.339,214.55,393.911,214.996z"/>
	</g>
</g>
<g>
	<g>
		<path class="st11" d="M45.138,72.379v0.856h2.401v1.276h-2.401v1.878h-2.028v-5.285h4.524v1.276H45.138z"/>
		<path class="st11" d="M57.862,76.388v-5.285h4.579v1.276h-2.599V73.1h2.504v1.276h-2.504v0.737h2.646v1.276H57.862z"/>
		<path class="st11" d="M76.124,76.388l-0.254-1.149c-0.026-0.111-0.053-0.207-0.079-0.289c-0.027-0.082-0.063-0.149-0.111-0.202
			c-0.048-0.053-0.111-0.091-0.19-0.115c-0.079-0.024-0.182-0.036-0.309-0.036h-0.428v1.791h-1.981v-5.285h3.24
			c0.238,0,0.478,0.021,0.721,0.063c0.243,0.042,0.464,0.116,0.662,0.222c0.198,0.106,0.36,0.251,0.487,0.436
			c0.127,0.185,0.19,0.423,0.19,0.713c0,0.206-0.03,0.386-0.091,0.539c-0.061,0.153-0.147,0.285-0.258,0.396
			c-0.111,0.111-0.244,0.202-0.4,0.273c-0.156,0.071-0.326,0.128-0.511,0.17c0.153,0.032,0.286,0.07,0.4,0.115
			c0.114,0.045,0.211,0.103,0.293,0.174c0.082,0.071,0.149,0.161,0.202,0.269c0.053,0.108,0.1,0.239,0.143,0.392l0.38,1.521H76.124z
			 M75.985,72.565c-0.045-0.066-0.106-0.116-0.182-0.151c-0.077-0.034-0.162-0.057-0.258-0.067c-0.095-0.011-0.19-0.016-0.285-0.016
			h-0.523v1.038h0.491c0.106,0,0.209-0.005,0.309-0.016c0.1-0.011,0.189-0.034,0.265-0.071c0.077-0.037,0.137-0.091,0.182-0.162
			c0.045-0.071,0.067-0.168,0.067-0.289C76.052,72.72,76.03,72.631,75.985,72.565z"/>
		<path class="st11" d="M91.716,76.388l-0.254-1.149c-0.026-0.111-0.053-0.207-0.079-0.289c-0.027-0.082-0.063-0.149-0.111-0.202
			c-0.048-0.053-0.111-0.091-0.19-0.115c-0.079-0.024-0.182-0.036-0.309-0.036h-0.428v1.791h-1.981v-5.285h3.24
			c0.238,0,0.478,0.021,0.721,0.063c0.243,0.042,0.464,0.116,0.662,0.222c0.198,0.106,0.36,0.251,0.487,0.436
			c0.127,0.185,0.19,0.423,0.19,0.713c0,0.206-0.03,0.386-0.091,0.539c-0.061,0.153-0.147,0.285-0.258,0.396
			c-0.111,0.111-0.244,0.202-0.4,0.273c-0.156,0.071-0.326,0.128-0.511,0.17c0.153,0.032,0.286,0.07,0.4,0.115
			c0.114,0.045,0.211,0.103,0.293,0.174c0.082,0.071,0.149,0.161,0.202,0.269c0.053,0.108,0.1,0.239,0.143,0.392l0.38,1.521H91.716z
			 M91.577,72.565c-0.045-0.066-0.106-0.116-0.182-0.151c-0.077-0.034-0.162-0.057-0.258-0.067c-0.095-0.011-0.19-0.016-0.285-0.016
			h-0.523v1.038h0.491c0.106,0,0.209-0.005,0.309-0.016c0.1-0.011,0.189-0.034,0.265-0.071c0.077-0.037,0.137-0.091,0.182-0.162
			c0.045-0.071,0.067-0.168,0.067-0.289C91.644,72.72,91.622,72.631,91.577,72.565z"/>
		<path class="st11" d="M103.956,76.388v-5.285h4.579v1.276h-2.599V73.1h2.504v1.276h-2.504v0.737h2.646v1.276H103.956z"/>
		<path class="st11" d="M122.345,72.664v3.724h-2.028v-3.724h-1.791v-1.561h5.609v1.561H122.345z"/>
		<path class="st11" d="M134.237,76.388v-5.285h4.579v1.276h-2.599V73.1h2.504v1.276h-2.504v0.737h2.646v1.276H134.237z"/>
		<path class="st11" d="M152.499,76.388l-0.254-1.149c-0.026-0.111-0.053-0.207-0.079-0.289c-0.027-0.082-0.063-0.149-0.111-0.202
			c-0.048-0.053-0.111-0.091-0.19-0.115c-0.079-0.024-0.182-0.036-0.309-0.036h-0.428v1.791h-1.981v-5.285h3.24
			c0.238,0,0.478,0.021,0.721,0.063c0.243,0.042,0.464,0.116,0.662,0.222c0.198,0.106,0.36,0.251,0.487,0.436
			c0.127,0.185,0.19,0.423,0.19,0.713c0,0.206-0.03,0.386-0.091,0.539c-0.061,0.153-0.147,0.285-0.258,0.396
			c-0.111,0.111-0.244,0.202-0.4,0.273c-0.156,0.071-0.326,0.128-0.511,0.17c0.153,0.032,0.286,0.07,0.4,0.115
			c0.114,0.045,0.211,0.103,0.293,0.174c0.082,0.071,0.149,0.161,0.202,0.269c0.053,0.108,0.1,0.239,0.143,0.392l0.38,1.521H152.499
			z M152.361,72.565c-0.045-0.066-0.106-0.116-0.182-0.151c-0.077-0.034-0.162-0.057-0.258-0.067
			c-0.095-0.011-0.19-0.016-0.285-0.016h-0.523v1.038h0.491c0.106,0,0.209-0.005,0.309-0.016c0.1-0.011,0.189-0.034,0.265-0.071
			c0.077-0.037,0.137-0.091,0.182-0.162c0.045-0.071,0.067-0.168,0.067-0.289C152.428,72.72,152.406,72.631,152.361,72.565z"/>
		<path class="st11" d="M164.74,76.388v-5.285h2.028v5.285H164.74z"/>
		<path class="st11" d="M181.101,76.388l-0.341-1.141h-1.719l-0.341,1.141h-2.005l1.854-5.285h2.789l1.886,5.285H181.101z
			 M179.912,72.22l-0.531,1.751h1.046L179.912,72.22z"/>
		<path class="st11" d="M197.39,75.588c-0.158,0.227-0.362,0.407-0.61,0.539c-0.248,0.132-0.523,0.223-0.824,0.273
			c-0.301,0.05-0.597,0.075-0.887,0.075c-0.37,0-0.737-0.02-1.101-0.059c-0.364-0.04-0.729-0.102-1.093-0.186l0.04-1.371
			c0.301,0.122,0.611,0.21,0.931,0.265c0.32,0.055,0.64,0.083,0.963,0.083c0.063,0,0.14-0.003,0.23-0.008
			c0.09-0.005,0.177-0.02,0.261-0.044c0.084-0.024,0.157-0.059,0.218-0.107c0.061-0.048,0.091-0.116,0.091-0.206
			c0-0.074-0.04-0.136-0.119-0.186c-0.079-0.05-0.17-0.092-0.273-0.127c-0.103-0.034-0.207-0.062-0.313-0.083
			c-0.106-0.021-0.185-0.04-0.238-0.056l-0.539-0.135c-0.407-0.1-0.722-0.272-0.947-0.515c-0.225-0.243-0.337-0.581-0.337-1.014
			c0-0.364,0.09-0.659,0.269-0.883c0.179-0.224,0.404-0.397,0.673-0.519c0.269-0.121,0.565-0.203,0.887-0.246
			c0.322-0.042,0.626-0.063,0.911-0.063c0.581,0,1.167,0.061,1.759,0.182l-0.04,1.355c-0.248-0.09-0.501-0.157-0.757-0.202
			c-0.256-0.045-0.516-0.067-0.78-0.067c-0.063,0-0.147,0.001-0.25,0.004c-0.103,0.003-0.203,0.016-0.301,0.04
			c-0.098,0.024-0.184,0.059-0.257,0.107c-0.074,0.048-0.111,0.116-0.111,0.206c0,0.074,0.034,0.135,0.103,0.182
			c0.069,0.048,0.149,0.086,0.242,0.115c0.092,0.029,0.185,0.052,0.277,0.067c0.092,0.016,0.165,0.029,0.218,0.04l0.594,0.127
			c0.222,0.048,0.417,0.11,0.586,0.186c0.169,0.077,0.309,0.174,0.42,0.293c0.111,0.119,0.195,0.265,0.254,0.44
			c0.058,0.174,0.087,0.38,0.087,0.618C197.628,75.067,197.548,75.361,197.39,75.588z"/>
	</g>
	<g>
		<path class="st11" d="M61.132,36.71c-1.254,1.215-3.009,1.823-5.264,1.823h-5.424v5.599h-7.291V24.68h12.715
			c1.03,0,1.983,0.156,2.858,0.467c0.875,0.311,1.628,0.758,2.26,1.342c0.632,0.583,1.127,1.298,1.487,2.143
			c0.36,0.846,0.539,1.804,0.539,2.873C63.013,33.76,62.386,35.495,61.132,36.71z M55.241,30.28c-0.224-0.311-0.515-0.544-0.875-0.7
			c-0.36-0.155-0.754-0.257-1.181-0.306c-0.428-0.048-0.846-0.073-1.254-0.073h-1.546v4.812h1.575c0.427,0,0.86-0.024,1.298-0.073
			c0.437-0.048,0.826-0.16,1.167-0.335c0.34-0.175,0.617-0.427,0.831-0.758c0.214-0.33,0.321-0.768,0.321-1.312
			C55.577,31.009,55.465,30.591,55.241,30.28z"/>
		<path class="st11" d="M83.69,39.904c-0.545,1.05-1.269,1.91-2.173,2.581c-0.904,0.671-1.959,1.167-3.164,1.487
			c-1.206,0.321-2.46,0.481-3.762,0.481c-1.322,0-2.566-0.136-3.733-0.408c-1.167-0.272-2.192-0.724-3.077-1.356
			c-0.885-0.632-1.585-1.453-2.1-2.464c-0.515-1.011-0.773-2.255-0.773-3.733V24.68h7.466v11.549c0,0.389,0.029,0.778,0.087,1.167
			c0.058,0.389,0.17,0.734,0.335,1.035c0.165,0.302,0.394,0.545,0.685,0.729c0.292,0.185,0.68,0.277,1.167,0.277
			c0.486,0,0.884-0.092,1.196-0.277c0.311-0.185,0.554-0.427,0.729-0.729c0.175-0.301,0.296-0.642,0.365-1.021
			c0.068-0.379,0.102-0.763,0.102-1.152V24.68h7.466v11.432C84.507,37.59,84.234,38.854,83.69,39.904z"/>
		<path class="st11" d="M97.688,44.132l-3.791-14.086v14.086h-6.416V24.68h11.111l3.791,14.115V24.68h6.416v19.452H97.688z"/>
		<path class="st11" d="M124.751,30.426v13.707h-7.466V30.426h-6.591V24.68h20.648v5.745H124.751z"/>
		<path class="st11" d="M152.15,38.883c-0.515,1.264-1.244,2.309-2.187,3.135c-0.943,0.827-2.085,1.439-3.427,1.837
			c-1.341,0.398-2.829,0.598-4.462,0.598c-1.653,0-3.145-0.2-4.477-0.598c-1.332-0.398-2.464-1.011-3.398-1.837
			c-0.933-0.826-1.653-1.866-2.158-3.12c-0.506-1.254-0.758-2.746-0.758-4.477c0-1.691,0.257-3.164,0.773-4.418
			c0.515-1.254,1.244-2.299,2.187-3.135c0.943-0.836,2.075-1.458,3.398-1.866c1.322-0.408,2.8-0.612,4.433-0.612
			c1.652,0,3.145,0.2,4.477,0.598c1.331,0.399,2.469,1.006,3.412,1.823c0.943,0.817,1.672,1.857,2.187,3.12
			c0.515,1.264,0.773,2.761,0.773,4.491C152.923,36.132,152.665,37.619,152.15,38.883z M145.049,32.686
			c-0.058-0.632-0.19-1.215-0.394-1.75c-0.204-0.535-0.51-0.981-0.919-1.341c-0.408-0.36-0.962-0.539-1.662-0.539
			c-0.681,0-1.22,0.185-1.619,0.554c-0.399,0.37-0.7,0.827-0.904,1.371c-0.204,0.545-0.335,1.128-0.394,1.75
			c-0.058,0.622-0.087,1.186-0.087,1.691c0,0.506,0.029,1.069,0.087,1.691c0.058,0.622,0.194,1.206,0.408,1.75
			c0.214,0.545,0.515,1.002,0.904,1.371c0.389,0.37,0.923,0.554,1.604,0.554c0.719,0,1.283-0.18,1.691-0.539
			c0.408-0.36,0.714-0.807,0.919-1.342c0.204-0.535,0.33-1.113,0.379-1.735c0.048-0.622,0.073-1.205,0.073-1.75
			C145.137,33.896,145.107,33.318,145.049,32.686z"/>
	</g>
	<g>
		<path class="st11" d="M63.492,66.348l-0.029-15.282l-3.908,15.282h-6.212l-3.908-15.282v15.282H43.02V46.896h10.995l2.654,11.49
			l2.537-11.49h10.965v19.452H63.492z"/>
		<path class="st11" d="M87.639,66.348l-1.254-4.2h-6.328l-1.254,4.2h-7.378l6.824-19.452h10.265l6.941,19.452H87.639z
			 M83.265,51.008l-1.954,6.445h3.85L83.265,51.008z"/>
		<path class="st11" d="M96.708,66.348V46.896h16.856v4.695h-9.566v2.654h9.216v4.695h-9.216v2.712h9.741v4.695H96.708z"/>
		<path class="st11" d="M132.258,63.403c-0.583,0.836-1.332,1.497-2.246,1.983c-0.914,0.486-1.925,0.822-3.033,1.006
			c-1.108,0.185-2.197,0.277-3.266,0.277c-1.361,0-2.712-0.073-4.054-0.219c-1.342-0.146-2.683-0.374-4.025-0.685l0.146-5.045
			c1.108,0.447,2.25,0.773,3.427,0.977c1.176,0.204,2.357,0.306,3.543,0.306c0.233,0,0.515-0.01,0.846-0.029
			c0.33-0.019,0.651-0.073,0.962-0.16c0.311-0.087,0.578-0.219,0.802-0.394c0.223-0.175,0.335-0.427,0.335-0.758
			c0-0.272-0.146-0.5-0.437-0.685c-0.292-0.185-0.627-0.34-1.006-0.467c-0.379-0.126-0.763-0.228-1.152-0.306
			c-0.389-0.077-0.681-0.146-0.875-0.204l-1.983-0.496c-1.497-0.369-2.659-1.001-3.485-1.896c-0.827-0.894-1.239-2.138-1.239-3.733
			c0-1.341,0.33-2.425,0.992-3.252c0.661-0.826,1.487-1.463,2.479-1.91c0.992-0.447,2.08-0.748,3.266-0.904
			c1.186-0.155,2.304-0.233,3.354-0.233c2.139,0,4.297,0.224,6.474,0.671l-0.146,4.987c-0.914-0.33-1.842-0.578-2.785-0.744
			c-0.943-0.165-1.901-0.248-2.873-0.248c-0.233,0-0.54,0.005-0.919,0.015c-0.379,0.01-0.749,0.058-1.108,0.146
			c-0.36,0.087-0.676,0.219-0.948,0.394c-0.273,0.175-0.408,0.428-0.408,0.758c0,0.272,0.126,0.496,0.379,0.671
			c0.252,0.175,0.549,0.316,0.889,0.423c0.34,0.107,0.68,0.19,1.021,0.248c0.34,0.058,0.607,0.107,0.802,0.146l2.187,0.467
			c0.817,0.175,1.536,0.404,2.158,0.685c0.622,0.282,1.137,0.642,1.546,1.079c0.408,0.437,0.719,0.977,0.933,1.619
			c0.214,0.642,0.321,1.4,0.321,2.275C133.133,61.488,132.842,62.567,132.258,63.403z"/>
		<path class="st11" d="M147.569,52.641v13.707h-7.466V52.641h-6.591v-5.745h20.648v5.745H147.569z"/>
		<path class="st11" d="M168.392,66.348l-0.933-4.229c-0.098-0.408-0.195-0.763-0.292-1.064c-0.098-0.301-0.233-0.549-0.408-0.744
			c-0.175-0.194-0.408-0.335-0.7-0.423c-0.292-0.087-0.671-0.131-1.137-0.131h-1.575v6.591h-7.291V46.896h11.928
			c0.875,0,1.759,0.078,2.654,0.233c0.894,0.156,1.706,0.428,2.435,0.817c0.729,0.389,1.327,0.924,1.794,1.604
			c0.467,0.681,0.7,1.556,0.7,2.625c0,0.758-0.112,1.419-0.335,1.983c-0.224,0.564-0.539,1.05-0.948,1.458
			c-0.408,0.408-0.9,0.744-1.473,1.006c-0.574,0.263-1.201,0.472-1.881,0.627c0.564,0.117,1.054,0.258,1.473,0.423
			c0.418,0.165,0.777,0.379,1.079,0.642c0.301,0.262,0.549,0.593,0.744,0.992c0.194,0.399,0.369,0.88,0.525,1.444l1.4,5.599H168.392
			z M167.882,52.277c-0.165-0.243-0.389-0.427-0.671-0.554c-0.282-0.126-0.598-0.209-0.948-0.248c-0.35-0.039-0.7-0.058-1.05-0.058
			h-1.925v3.82h1.808c0.389,0,0.768-0.019,1.137-0.058c0.369-0.039,0.695-0.126,0.977-0.262c0.282-0.136,0.505-0.335,0.671-0.598
			c0.165-0.262,0.248-0.617,0.248-1.064C168.129,52.845,168.047,52.52,167.882,52.277z"/>
		<path class="st11" d="M198.124,61.099c-0.515,1.264-1.244,2.309-2.187,3.135c-0.943,0.827-2.085,1.439-3.427,1.837
			c-1.342,0.398-2.829,0.598-4.462,0.598c-1.653,0-3.145-0.2-4.477-0.598c-1.332-0.398-2.464-1.011-3.398-1.837
			c-0.933-0.826-1.653-1.866-2.158-3.12c-0.506-1.254-0.758-2.746-0.758-4.477c0-1.691,0.257-3.164,0.773-4.418
			c0.515-1.254,1.244-2.299,2.187-3.135c0.943-0.836,2.075-1.458,3.398-1.866c1.322-0.408,2.8-0.612,4.433-0.612
			c1.652,0,3.145,0.2,4.477,0.598c1.331,0.399,2.469,1.006,3.412,1.823c0.943,0.817,1.672,1.857,2.187,3.12
			c0.515,1.264,0.773,2.761,0.773,4.491C198.897,58.348,198.639,59.835,198.124,61.099z M191.022,54.901
			c-0.058-0.632-0.19-1.215-0.394-1.75c-0.204-0.535-0.51-0.981-0.919-1.341c-0.408-0.36-0.962-0.539-1.662-0.539
			c-0.681,0-1.22,0.185-1.619,0.554c-0.399,0.37-0.7,0.827-0.904,1.371c-0.204,0.545-0.335,1.128-0.394,1.75
			c-0.058,0.622-0.087,1.186-0.087,1.691c0,0.506,0.029,1.069,0.087,1.691c0.058,0.622,0.194,1.206,0.408,1.75
			c0.214,0.545,0.515,1.002,0.904,1.371c0.389,0.37,0.923,0.554,1.604,0.554c0.719,0,1.283-0.18,1.691-0.539
			c0.408-0.36,0.714-0.807,0.919-1.342c0.204-0.535,0.33-1.113,0.379-1.735c0.048-0.622,0.073-1.205,0.073-1.75
			C191.11,56.112,191.081,55.533,191.022,54.901z"/>
	</g>
	<g>
		<defs>
			<rect id="SVGID_1_" x="154.904" y="28.069" width="43.906" height="12.211"/>
		</defs>
		<clipPath id="SVGID_2_">
			<use xlink:href="#SVGID_1_"  style="overflow:visible;"/>
		</clipPath>
		<g class="st12">
			<rect x="154.904" y="28.069" class="st5" width="43.906" height="16.355"/>
			<rect x="155.541" y="28.707" class="st13" width="42.673" height="10.935"/>
			<polygon class="st5" points="166.271,29.913 164.416,38.265 168.577,38.265 169.195,33.675 171.023,38.265 173.524,38.265 
				175.408,33.646 176.027,38.265 180.131,38.265 178.135,29.913 173.919,29.913 172.258,34.264 170.685,29.913 			"/>
			<polygon class="st5" points="179.14,29.913 188.048,29.913 188.048,32.667 185.728,32.667 185.728,38.265 181.46,38.265 
				181.46,32.667 179.14,32.667 			"/>
			<polygon class="st5" points="159.356,35.133 156.484,35.133 156.484,33.056 156.823,33.056 156.823,34.752 157.704,34.752 
				157.704,33.163 158.041,33.163 158.041,34.752 159.018,34.752 159.018,32.989 159.356,32.989 			"/>
			<g>
				<path class="st5" d="M197.682,38.71c0,0.077-0.049,0.112-0.119,0.112h-0.207v-0.225h0.207
					C197.633,38.597,197.682,38.636,197.682,38.71 M197.788,38.708c0-0.146-0.102-0.212-0.225-0.212h-0.309v0.706h0.103v-0.278h0.16
					l0.14,0.278h0.123l-0.146-0.288C197.731,38.89,197.788,38.82,197.788,38.708"/>
				<path class="st5" d="M197.465,39.394c-0.303,0-0.548-0.247-0.548-0.549c0-0.303,0.245-0.547,0.548-0.547
					c0.301,0,0.547,0.244,0.547,0.547C198.012,39.147,197.766,39.394,197.465,39.394 M197.465,38.335
					c-0.282,0-0.511,0.229-0.511,0.511c0,0.28,0.229,0.511,0.511,0.511c0.281,0,0.509-0.231,0.509-0.511
					C197.974,38.564,197.746,38.335,197.465,38.335"/>
				<path class="st5" d="M187.989,37.582c1.036,0.321,2.474,0.573,2.474,0.573c0.867,0.142,1.068,0.176,2.458,0.152
					c1.391-0.024,2.66-0.58,2.66-0.58c1.355-0.557,1.653-1.494,1.653-1.494c0.571-1.082-0.118-2.017-0.118-2.017
					c-0.488-0.724-1.782-1.057-1.782-1.057c-0.345-0.19-2.283-0.39-2.283-0.39c-0.616-0.048-0.437-0.403-0.437-0.403
					c0.023-0.429,1.224-0.346,1.307-0.346c0.605,0,1.948,0.629,1.948,0.629l1.177-2.194c-1.117-0.604-3.102-0.699-3.102-0.699
					c-1.688-0.179-3.279,0.437-3.279,0.437c-2.388,0.769-2.269,2.601-2.269,2.601c-0.026,0.534,0.282,1.229,0.915,1.612
					c0.961,0.58,2.402,0.722,2.458,0.722c0.725,0,1.081,0.167,1.081,0.167c0.547,0.167,0.143,0.582,0.143,0.582
					c-0.296,0.166-0.842,0.191-0.842,0.191c-1.401,0.095-2.936-0.89-2.936-0.89L187.989,37.582z"/>
				<path class="st5" d="M157.752,37.805v-0.818c0-0.174-0.017-0.309-0.052-0.405c-0.039-0.099-0.095-0.174-0.174-0.225
					c-0.079-0.05-0.166-0.076-0.258-0.076c-0.135,0-0.249,0.049-0.336,0.149c-0.088,0.098-0.13,0.253-0.13,0.467v0.909H157.752z
					 M159.356,38.185h-2.873v-1.273c0-0.257,0.025-0.45,0.079-0.583c0.051-0.136,0.141-0.242,0.27-0.321
					c0.132-0.08,0.276-0.121,0.435-0.121c0.204,0,0.376,0.067,0.515,0.199c0.14,0.131,0.229,0.335,0.268,0.61
					c0.047-0.1,0.095-0.176,0.141-0.23c0.103-0.11,0.23-0.214,0.385-0.315l0.779-0.497v0.476l-0.598,0.38
					c-0.172,0.11-0.303,0.201-0.394,0.274c-0.092,0.072-0.157,0.137-0.192,0.194c-0.038,0.055-0.063,0.113-0.076,0.172
					c-0.01,0.044-0.014,0.113-0.014,0.212v0.441h1.274V38.185z"/>
				<path class="st5" d="M159.018,31.933v-0.614c0-0.188-0.017-0.337-0.054-0.444c-0.034-0.108-0.083-0.195-0.148-0.258
					c-0.091-0.091-0.211-0.162-0.363-0.209c-0.152-0.052-0.337-0.078-0.555-0.078c-0.301,0-0.531,0.051-0.691,0.149
					c-0.163,0.099-0.271,0.218-0.326,0.36c-0.039,0.101-0.058,0.266-0.058,0.493v0.602H159.018z M159.356,32.314h-2.873v-0.989
					c0-0.225,0.013-0.396,0.04-0.512c0.039-0.165,0.108-0.306,0.206-0.423c0.129-0.151,0.293-0.263,0.493-0.337
					c0.2-0.078,0.426-0.115,0.682-0.115c0.218,0,0.411,0.024,0.581,0.076c0.168,0.052,0.308,0.117,0.419,0.196
					c0.11,0.079,0.197,0.168,0.26,0.262c0.064,0.094,0.113,0.209,0.144,0.344c0.033,0.131,0.048,0.285,0.048,0.459V32.314z"/>
				<polygon class="st14" points="156.484,40.46 158.333,40.46 158.333,41.023 157.169,41.023 157.169,41.714 158.258,41.714 
					158.258,42.272 157.169,42.272 157.169,43.489 156.484,43.489 				"/>
				<path class="st14" d="M159.237,42.609c0.024,0.283,0.301,0.418,0.62,0.418c0.234,0,0.422-0.032,0.608-0.09l0.089,0.463
					c-0.225,0.089-0.499,0.135-0.795,0.135c-0.745,0-1.173-0.433-1.173-1.119c0-0.557,0.346-1.173,1.11-1.173
					c0.71,0,0.979,0.552,0.979,1.096c0,0.117-0.013,0.221-0.022,0.27H159.237z M160.04,42.142c0-0.167-0.071-0.445-0.386-0.445
					c-0.288,0-0.403,0.261-0.422,0.445H160.04z"/>
				<path class="st14" d="M161.083,42.015c0-0.323-0.009-0.533-0.018-0.723h0.589l0.021,0.404h0.02
					c0.112-0.319,0.381-0.454,0.592-0.454c0.064,0,0.093,0,0.145,0.008v0.643c-0.051-0.007-0.109-0.017-0.185-0.017
					c-0.251,0-0.422,0.135-0.467,0.345c-0.009,0.047-0.013,0.101-0.013,0.155v1.112h-0.683V42.015z"/>
				<path class="st14" d="M162.79,42.015c0-0.323-0.008-0.533-0.018-0.723h0.59l0.022,0.404h0.018
					c0.111-0.319,0.381-0.454,0.592-0.454c0.063,0,0.095,0,0.144,0.008v0.643c-0.049-0.007-0.107-0.017-0.184-0.017
					c-0.252,0-0.423,0.135-0.467,0.345c-0.01,0.047-0.014,0.101-0.014,0.155v1.112h-0.683V42.015z"/>
				<path class="st14" d="M164.988,42.609c0.022,0.283,0.301,0.418,0.62,0.418c0.234,0,0.422-0.032,0.606-0.09l0.089,0.463
					c-0.224,0.089-0.498,0.135-0.793,0.135c-0.745,0-1.172-0.433-1.172-1.119c0-0.557,0.345-1.173,1.109-1.173
					c0.71,0,0.979,0.552,0.979,1.096c0,0.117-0.013,0.221-0.022,0.27H164.988z M165.792,42.142c0-0.167-0.071-0.445-0.387-0.445
					c-0.287,0-0.404,0.261-0.422,0.445H165.792z"/>
				<path class="st14" d="M167.597,40.663v0.63h0.489v0.502h-0.489v0.796c0,0.264,0.063,0.387,0.27,0.387
					c0.086,0,0.153-0.01,0.203-0.018l0.004,0.515c-0.09,0.037-0.251,0.059-0.444,0.059c-0.22,0-0.405-0.076-0.512-0.19
					c-0.128-0.13-0.19-0.341-0.19-0.65v-0.901h-0.292v-0.502h0.292v-0.477L167.597,40.663z"/>
				<path class="st14" d="M168.985,42.609c0.023,0.283,0.303,0.418,0.62,0.418c0.234,0,0.423-0.032,0.608-0.09l0.089,0.463
					c-0.223,0.089-0.498,0.135-0.795,0.135c-0.746,0-1.173-0.433-1.173-1.119c0-0.557,0.346-1.173,1.109-1.173
					c0.71,0,0.98,0.552,0.98,1.096c0,0.117-0.013,0.221-0.023,0.27H168.985z M169.791,42.142c0-0.167-0.073-0.445-0.387-0.445
					c-0.288,0-0.406,0.261-0.423,0.445H169.791z"/>
				<path class="st14" d="M170.833,42.015c0-0.323-0.009-0.533-0.02-0.723h0.59l0.023,0.404h0.018
					c0.112-0.319,0.382-0.454,0.593-0.454c0.062,0,0.095,0,0.144,0.008v0.643c-0.049-0.007-0.107-0.017-0.184-0.017
					c-0.251,0-0.421,0.135-0.467,0.345c-0.009,0.047-0.013,0.101-0.013,0.155v1.112h-0.683V42.015z"/>
				<path class="st14" d="M174.674,42.367c0,0.805-0.571,1.172-1.16,1.172c-0.641,0-1.136-0.423-1.136-1.132
					c0-0.71,0.467-1.164,1.173-1.164C174.224,41.243,174.674,41.706,174.674,42.367 M173.084,42.388
					c0,0.379,0.158,0.662,0.449,0.662c0.265,0,0.435-0.266,0.435-0.662c0-0.327-0.126-0.661-0.435-0.661
					C173.203,41.726,173.084,42.065,173.084,42.388"/>
				<path class="st14" d="M175.091,42.892c0.127,0.076,0.386,0.167,0.589,0.167c0.205,0,0.293-0.073,0.293-0.186
					c0-0.11-0.068-0.164-0.325-0.25c-0.453-0.153-0.629-0.401-0.624-0.66c0-0.409,0.351-0.719,0.895-0.719
					c0.255,0,0.486,0.057,0.62,0.125l-0.121,0.471c-0.1-0.052-0.287-0.125-0.476-0.125c-0.167,0-0.261,0.067-0.261,0.179
					c0,0.104,0.085,0.157,0.356,0.252c0.417,0.143,0.592,0.355,0.596,0.678c0,0.409-0.323,0.71-0.952,0.71
					c-0.288,0-0.545-0.063-0.711-0.152L175.091,42.892z"/>
				<path class="st14" d="M180.081,40.299v2.535c0,0.245,0.01,0.507,0.018,0.654h-0.605l-0.031-0.323h-0.01
					c-0.139,0.247-0.403,0.373-0.688,0.373c-0.521,0-0.938-0.446-0.938-1.128c-0.006-0.741,0.457-1.168,0.984-1.168
					c0.269,0,0.479,0.094,0.578,0.248h0.009v-1.192H180.081z M179.399,42.221c0-0.035-0.004-0.083-0.009-0.12
					c-0.039-0.185-0.188-0.337-0.399-0.337c-0.31,0-0.472,0.28-0.472,0.624c0,0.375,0.185,0.607,0.466,0.607
					c0.198,0,0.356-0.135,0.397-0.328c0.014-0.049,0.018-0.097,0.018-0.156V42.221z"/>
				<path class="st14" d="M181.156,42.609c0.023,0.283,0.301,0.418,0.621,0.418c0.233,0,0.422-0.032,0.606-0.09l0.09,0.463
					c-0.224,0.089-0.5,0.135-0.797,0.135c-0.744,0-1.172-0.433-1.172-1.119c0-0.557,0.347-1.173,1.112-1.173
					c0.71,0,0.978,0.552,0.978,1.096c0,0.117-0.014,0.221-0.022,0.27H181.156z M181.96,42.142c0-0.167-0.072-0.445-0.386-0.445
					c-0.287,0-0.404,0.261-0.423,0.445H181.96z"/>
				<path class="st14" d="M184.418,41.293l0.297,1.02c0.053,0.183,0.094,0.358,0.125,0.535h0.013
					c0.036-0.181,0.073-0.346,0.12-0.535l0.284-1.02h0.718l-0.816,2.196h-0.683l-0.8-2.196H184.418z"/>
				<path class="st14" d="M186.749,42.609c0.022,0.283,0.301,0.418,0.62,0.418c0.233,0,0.422-0.032,0.605-0.09l0.092,0.463
					c-0.226,0.089-0.499,0.135-0.796,0.135c-0.746,0-1.173-0.433-1.173-1.119c0-0.557,0.346-1.173,1.11-1.173
					c0.71,0,0.98,0.552,0.98,1.096c0,0.117-0.014,0.221-0.021,0.27H186.749z M187.553,42.142c0-0.167-0.073-0.445-0.385-0.445
					c-0.288,0-0.405,0.261-0.423,0.445H187.553z"/>
				<path class="st14" d="M188.594,42.015c0-0.323-0.007-0.533-0.017-0.723h0.589l0.023,0.404h0.018
					c0.112-0.319,0.381-0.454,0.592-0.454c0.065,0,0.095,0,0.146,0.008v0.643c-0.051-0.007-0.109-0.017-0.186-0.017
					c-0.25,0-0.421,0.135-0.467,0.345c-0.007,0.047-0.013,0.101-0.013,0.155v1.112h-0.685V42.015z"/>
				<path class="st14" d="M192.397,40.299v2.535c0,0.245,0.008,0.507,0.019,0.654h-0.608l-0.03-0.323h-0.01
					c-0.14,0.247-0.405,0.373-0.687,0.373c-0.52,0-0.939-0.446-0.939-1.128c-0.005-0.741,0.458-1.168,0.985-1.168
					c0.269,0,0.48,0.094,0.578,0.248h0.01v-1.192H192.397z M191.714,42.221c0-0.035-0.004-0.083-0.01-0.12
					c-0.04-0.185-0.188-0.337-0.4-0.337c-0.31,0-0.472,0.28-0.472,0.624c0,0.375,0.183,0.607,0.467,0.607
					c0.197,0,0.355-0.135,0.395-0.328c0.015-0.049,0.019-0.097,0.019-0.156V42.221z"/>
				<path class="st14" d="M194.193,43.489l-0.039-0.221h-0.016c-0.143,0.177-0.367,0.271-0.629,0.271
					c-0.443,0-0.709-0.324-0.709-0.674c0-0.569,0.512-0.843,1.29-0.84v-0.031c0-0.117-0.063-0.283-0.4-0.283
					c-0.224,0-0.463,0.076-0.607,0.165l-0.125-0.44c0.152-0.085,0.453-0.193,0.853-0.193c0.734,0,0.967,0.431,0.967,0.947v0.764
					c0,0.212,0.009,0.415,0.031,0.535H194.193z M194.112,42.452c-0.36-0.004-0.637,0.08-0.637,0.345c0,0.176,0.118,0.262,0.27,0.262
					c0.171,0,0.31-0.113,0.356-0.253c0.008-0.035,0.012-0.074,0.012-0.115V42.452z"/>
				<path class="st14" d="M197.447,40.299v2.535c0,0.245,0.009,0.507,0.018,0.654h-0.607l-0.031-0.323h-0.009
					c-0.14,0.247-0.406,0.373-0.688,0.373c-0.522,0-0.939-0.446-0.939-1.128c-0.005-0.741,0.458-1.168,0.984-1.168
					c0.269,0,0.482,0.094,0.58,0.248h0.009v-1.192H197.447z M196.763,42.221c0-0.035-0.005-0.083-0.009-0.12
					c-0.04-0.185-0.188-0.337-0.4-0.337c-0.31,0-0.472,0.28-0.472,0.624c0,0.375,0.185,0.607,0.467,0.607
					c0.199,0,0.355-0.135,0.396-0.328c0.013-0.049,0.018-0.097,0.018-0.156V42.221z"/>
			</g>
		</g>
	</g>
	<path class="st15" d="M37.132,51.964c-1.123-1.563-2.349-3.034-3.809-4.297c-0.34-0.294-0.694-0.571-1.033-0.848
		c0.253-0.493,0.514-0.948,0.726-1.425c0.973-2.19,1.331-4.489,1.136-6.87c-0.089-1.084-0.324-2.144-0.827-3.122
		c-0.727-1.413-1.801-2.537-3.005-3.55c-0.076-0.064-0.147-0.133-0.17-0.153c0.693-0.682,1.401-1.306,2.021-2.008
		c0.785-0.89,1.372-1.881,1.217-3.163c-0.086-0.714-0.413-1.203-1.079-1.459c-0.706-0.272-1.43-0.211-2.15-0.076
		c-1.643,0.306-3.16,0.967-4.66,1.673c-0.722,0.34-0.722,0.342-1.272-0.252c-1.499-1.617-3.235-2.841-5.437-3.3
		c-0.254-0.053-0.533-0.07-0.755-0.189c-1.453-0.776-2.97-1.197-4.635-0.987c-1.376,0.173-2.639,0.594-3.574,1.666
		c-0.748,0.858-1.623,1.558-2.484,2.29c-3.671,3.12-5.201,7.062-4.374,11.855c0.346,2.006,1.116,3.858,2.067,5.643
		c0.044,0.084,0.09,0.168,0.119,0.258c0.19,0.594,0.302,1.226,0.576,1.777c0.935,1.883,2.306,3.432,3.865,4.825
		c0.135,0.12,0.25,0.289,0.313,0.458c0.338,0.913,0.469,1.869,0.511,2.835c0.069,1.601-0.053,3.19-0.345,4.767
		c-0.047,0.253-0.153,0.356-0.389,0.422c-1.329,0.367-2.568,0.947-3.742,1.661c-0.231,0.141-0.388,0.403-0.615,0.647
		c0.3,0.12,0.505,0.185,0.693,0.282c0.279,0.144,0.521,0.113,0.807-0.02c0.732-0.34,1.514-0.476,2.383-0.466
		c-0.039,0.106-0.061,0.171-0.088,0.234c-1.169,2.764-2.336,5.529-3.515,8.288c-0.106,0.248-0.075,0.409,0.102,0.6
		C6.281,70.581,7,70.666,7.779,70.6c0.28-0.024,0.409-0.142,0.478-0.413c0.4-1.567,0.815-3.131,1.227-4.695
		c0.116-0.44,0.239-0.878,0.369-1.354c0.234,0.268,0.407,0.517,0.63,0.706c0.215,0.183,0.244,0.374,0.207,0.629
		c-0.123,0.872-0.211,1.75-0.348,2.62c-0.24,1.528-0.491,3.054-0.771,4.575c-0.098,0.53-0.295,1.042-0.445,1.556
		c0.907,0,1.801,0,2.711,0c0.264,0.57,0.3,0.572,0.733,0.018c0.037-0.047,0.072-0.095,0.107-0.144
		c0.683-0.962,1.354-1.932,2.051-2.883c0.511-0.696,1.101-1.31,1.893-1.706c0.714-0.357,1.421-0.729,2.108-1.135
		c0.448-0.265,0.877-0.431,1.411-0.302c0.331,0.08,0.686,0.084,1.031,0.088c0.914,0.011,1.828,0.004,2.766,0.004
		c0.361,2.09,0.168,4.152-0.032,6.141c0.211-0.05,0.378-0.118,0.547-0.124c0.403-0.016,0.807-0.012,1.211,0.002
		c0.319,0.011,0.639,0.038,0.955,0.081c0.244,0.034,0.431,0.01,0.566-0.231c0.198-0.353,0.415-0.695,0.635-1.036
		c0.833-1.291,1.731-2.545,2.494-3.877c1.76-3.072,3.256-6.278,4.677-9.519c0.055-0.126,0.09-0.281,0.073-0.415
		c-0.068-0.53-0.138-1.063-0.249-1.585c-0.118-0.552-0.284-1.094-0.438-1.675c1.134-0.051,1.73-0.746,2.128-1.68
		c0.229-0.537,0.414-1.095,0.68-1.612C37.321,52.363,37.293,52.188,37.132,51.964z"/>
	<path class="st15" d="M11.178,75.024c-0.264-0.143-0.58-0.091-0.866-0.078c-0.575,0.027-1.197,0.072-1.764-0.048
		c-0.557-0.118-1.11-0.251-1.661-0.394c-1.035-0.269-2.049-0.593-3.154-0.41c-1.117,0.185-1.944,0.674-2.295,1.804
		c-0.035,0.113-0.081,0.226-0.143,0.326c-0.287,0.457-0.272,0.641,0.189,0.915c0.959,0.571,1.964,1.025,3.12,0.971
		c0.856-0.04,1.712-0.105,2.568-0.125c0.364-0.009,0.583-0.164,0.792-0.442c0.274-0.364,0.598-0.688,0.957-1.092
		c0.076,0.378,0.088,0.638,0.187,0.859c0.079,0.176,0.24,0.389,0.407,0.439c0.75,0.222,1.516,0.257,2.294,0.099
		c0.313-0.064,0.402-0.219,0.415-0.51c0.028-0.633-0.315-1.131-0.554-1.673C11.561,75.417,11.424,75.157,11.178,75.024z"/>
	<path class="st15" d="M34.389,75.645c-0.146-0.256-0.272-0.541-0.474-0.746C33.03,74,31.88,73.924,30.752,74.099
		c-1.158,0.18-2.285,0.558-3.431,0.829c-0.282,0.067-0.583,0.068-0.876,0.068c-0.17,0-0.341-0.09-0.511-0.089
		c-0.381,0.003-0.761,0.031-1.141,0.064c-0.075,0.007-0.177,0.063-0.212,0.126c-0.228,0.418-0.479,0.829-0.648,1.271
		c-0.128,0.335-0.162,0.71-0.207,1.071c-0.028,0.218,0.103,0.341,0.328,0.391c0.687,0.152,1.369,0.144,2.055,0
		c0.571-0.12,0.787-0.353,0.828-0.93c0.007-0.106,0.001-0.213,0.001-0.428c0.195,0.159,0.325,0.241,0.423,0.351
		c0.261,0.294,0.496,0.61,0.765,0.896c0.103,0.11,0.265,0.221,0.406,0.231c1.046,0.068,2.093,0.163,3.139,0.148
		c1.1-0.015,2.071-0.487,2.974-1.092c0.247-0.166,0.206-0.411,0.111-0.637C34.651,76.12,34.523,75.88,34.389,75.645z"/>
	<path class="st16" d="M10.381,24.253c0.989-0.798,2.056-1.351,3.306-1.52c1.702-0.229,3.235,0.27,4.659,1.133
		c1.71,1.036,3.141,2.384,4.272,4.042c0.032,0.047,0.061,0.097,0.108,0.173c-0.526,0.383-1.042,0.759-1.575,1.148
		c-0.311-0.423-0.604-0.838-0.915-1.239c-0.993-1.281-2.13-2.407-3.565-3.189c-1.981-1.081-4.041-1.339-6.188-0.528
		C10.466,24.28,10.441,24.266,10.381,24.253z"/>
	<path class="st17" d="M10.358,24.264c-0.067,0.043,5.067-3.266,11.61,4.37c1.101,1.286-1.104,1.519-4.086-2.84
		c-2.82-2.094-6.429-1.62-7.374-1.509C10.424,24.295,10.405,24.257,10.358,24.264z"/>
	<path class="st16" d="M22.346,29.243c1.847-0.931,3.687-1.876,5.543-2.787c1.024-0.503,2.123-0.766,3.264-0.844
		c1.285-0.088,1.918,0.761,1.531,2.077c-0.286,0.971-0.922,1.713-1.651,2.376c-0.44,0.4-0.924,0.75-1.38,1.132
		c-0.175,0.147-0.309,0.126-0.504,0.013c-1.944-1.124-3.999-1.888-6.285-1.864c-0.153,0.002-0.306,0-0.46,0
		C22.385,29.312,22.366,29.278,22.346,29.243z"/>
	<path class="st17" d="M29.672,25.828c0,0,4.489,0.75-2.1,4.57c1.577,0.812,1.796,1.489,1.796,1.489s5.067-3.493,3.301-6.282
		C30.237,24.993,29.672,25.828,29.672,25.828z"/>
	<path class="st16" d="M6.539,43.616c-0.84-1.065-1.289-2.265-1.682-3.491c-0.574-1.787-0.831-3.625-0.71-5.495
		c0.175-2.713,0.971-5.195,2.959-7.161c1.654-1.636,3.665-2.586,5.955-2.928c0.824-0.123,1.611,0.148,2.351,0.485
		c2.067,0.94,3.623,2.43,4.669,4.448c0.065,0.125,0.133,0.248,0.193,0.358c-2.048,1.147-3.828,2.635-5.553,4.187
		c-3.104,2.795-5.833,5.918-8.072,9.455C6.626,43.512,6.595,43.546,6.539,43.616z"/>
	<path class="st17" d="M7.735,41.846c0,0-5.925-13.32,3.605-16.916C3.653,27.035,1.05,34.789,6.741,44.594
		C7.308,42.468,7.735,41.846,7.735,41.846z"/>
	<path class="st16" d="M13.052,62.302c-0.913-0.778-0.906-1.697-0.605-2.66c0.313-1.002,1.076-1.621,2.086-1.739
		c-0.235-0.223-0.907-0.287-1.323-0.123c-0.077,0.031-0.166,0.056-0.223,0.111c-0.482,0.466-1.111,0.403-1.756,0.508
		c0.485-2.358,0.562-4.693,0.055-7.039c0.679,0.259,1.336,0.509,2.02,0.77c-0.411,0.358-0.935,0.581-1.211,1.208
		c0.455-0.195,0.812-0.376,1.187-0.503c0.979-0.329,1.952-0.697,2.955-0.928c0.806-0.185,1.642-0.139,2.346,0.432
		c0.203,0.164,0.279,0.304,0.159,0.595c-0.164,0.398-0.264,0.838-0.302,1.267c-0.041,0.459,0.164,0.66,0.624,0.775
		c-0.353,0.97-0.213,1.919,0.189,2.932c-0.767-0.052-1.477-0.075-2.181-0.157c-0.566-0.065-1.122-0.21-1.686-0.299
		c-0.121-0.019-0.255,0.051-0.384,0.08c0.098,0.086,0.184,0.227,0.296,0.25c1.315,0.275,2.627,0.581,3.955,0.778
		c1.033,0.154,2.09,0.246,3.132,0.22c1.173-0.029,2.345-0.2,3.511-0.354c0.583-0.077,0.929-0.545,1.268-0.979
		c0.565-0.722,1.118-1.452,1.696-2.163c0.084-0.103,0.285-0.177,0.42-0.16c1.156,0.141,2.31,0.304,3.463,0.47
		c0.078,0.011,0.186,0.077,0.212,0.144c0.377,0.989,0.778,1.976,0.834,3.047c0.013,0.238-0.078,0.523-0.215,0.722
		c-0.893,1.291-2.085,2.246-3.559,2.755c-2.6,0.897-5.235,1.668-8.009,1.841c-3.113,0.195-6.137-0.171-9.025-1.386
		c-0.741-0.312-1.424-0.761-2.142-1.133c-0.274-0.142-0.168-0.346-0.088-0.508c0.038-0.077,0.225-0.121,0.34-0.113
		c0.34,0.025,0.615,0.124,0.764,0.507C12.001,61.846,12.487,62.138,13.052,62.302z M16.522,59.948c0-0.095,0.009-0.191-0.001-0.286
		c-0.061-0.581-0.246-1.098-0.807-1.38c-0.567-0.285-1.089-0.119-1.576,0.213c-0.896,0.612-1.409,1.997-1.132,3.037
		c0.281,1.054,1.225,1.465,2.166,0.902C16.096,61.88,16.472,60.994,16.522,59.948z"/>
	<path class="st17" d="M23.188,58.36c0,0,1.673,0.943,1.73,1.741s-1.533,4.354,0.684,4.051c2.052-0.801,6.383-2.455,7.068-2.683
		c0.685-0.228,3.388-3.9,0.685-6.245l-4.041-0.855C29.314,54.369,26.627,59.215,23.188,58.36z"/>
	<path class="st5" d="M10.435,48.504c1.029-0.451,1.374-0.957,1.26-1.753c-0.257,0.239-0.535,0.488-0.804,0.747
		c-0.286,0.275-0.611,0.326-0.99,0.238c-0.582-0.135-1.076-0.418-1.42-0.897c-0.612-0.854-1.046-1.792-1.076-2.864
		c-0.006-0.23,0.093-0.481,0.201-0.692c0.14-0.274,0.361-0.506,0.505-0.778c0.19-0.359,0.472-0.412,0.801-0.277
		c0.517,0.212,1.025,0.446,1.53,0.685c0.36,0.17,0.387,0.151,0.519-0.224c0.601-1.718,1.212-3.433,1.829-5.146
		c0.05-0.138,0.158-0.266,0.266-0.369c2.669-2.529,5.48-4.884,8.578-6.878c0.114-0.073,0.261-0.148,0.389-0.141
		c2.68,0.151,5.223,0.759,7.494,2.27c2.132,1.418,3.183,3.441,3.381,5.953c0.294,3.729-0.968,6.904-3.34,9.734
		c-0.881,1.051-1.724,2.127-2.74,3.052c-0.423,0.385-0.865,0.749-1.292,1.129c-0.148,0.132-0.266,0.136-0.436,0.02
		c-0.631-0.429-1.269-0.847-1.913-1.254c-1.032-0.653-1.985-0.644-2.819,0.02c-0.345,0.274-0.694,0.546-1.014,0.847
		c-0.166,0.157-0.263,0.141-0.453,0.035c-0.524-0.295-1.048-0.625-1.615-0.802c-0.797-0.249-1.574,0.053-2.331,0.31
		c-0.259,0.088-0.53,0.164-0.762,0.302c-0.311,0.184-0.574,0.139-0.861-0.032c-0.582-0.348-1.178-0.674-1.755-1.031
		c-0.351-0.217-0.602-0.519-0.711-0.943C10.749,49.341,10.582,48.934,10.435,48.504z M25.996,40.222
		c0.281,0.014,0.477,0.006,0.666,0.039c0.141,0.025,0.304,0.069,0.403,0.162c0.563,0.53,1.105,1.083,1.664,1.617
		c0.322,0.308,0.664,0.595,1.029,0.92c-1.283,1.191-2.633,2.196-4.152,2.966c-0.079,0.04-0.187,0.053-0.276,0.039
		c-0.983-0.151-1.934-0.405-2.795-0.923c-0.502-0.302-0.924-0.693-1.241-1.186c0.294-0.353,0.573-0.667,0.524-1.193
		c-0.347,0.323-0.608,0.644-0.94,0.854c-0.323,0.204-0.718,0.293-1.099,0.44c0.108,0.055,0.23,0.174,0.335,0.161
		c0.674-0.081,0.976,0.418,1.411,0.784c1.231,1.034,2.727,1.35,4.301,1.361c0.099,0.001,0.209-0.052,0.295-0.108
		c0.72-0.464,1.446-0.921,2.15-1.409c0.659-0.456,1.25-0.99,1.697-1.669c0.155-0.236,0.135-0.37-0.101-0.553
		c-0.582-0.451-1.15-0.924-1.689-1.424c-0.201-0.187-0.309-0.474-0.472-0.737c0.661-0.206,1.237-0.36,1.793-0.565
		c0.574-0.212,1.179-0.468,1.415-1.072c0.494-1.264,0.663-2.584,0.345-3.923c-0.169-0.714-0.766-1.074-1.471-0.839
		c-0.59,0.197-1.136,0.529-1.693,0.818c-0.193,0.1-0.343,0.175-0.587,0.093c-0.526-0.177-0.939-0.052-1.137,0.269
		c0.265,0.062,0.53,0.123,0.857,0.199c-0.911,0.795-1.76,1.534-2.608,2.274c0.036,0.045,0.072,0.09,0.108,0.136
		c0.235-0.163,0.477-0.318,0.704-0.491c1.137-0.866,2.253-1.762,3.415-2.592c0.329-0.235,0.779-0.351,1.19-0.409
		c0.547-0.076,0.659,0.039,0.781,0.586c0.406,1.821-0.115,4.026-2.532,4.775C27.568,39.845,26.83,40.005,25.996,40.222z
		 M17.28,35.524c0.107-0.013,0.135-0.008,0.15-0.019c1.104-0.81,2.207-1.62,3.308-2.433c0.053-0.039,0.137-0.121,0.125-0.151
		c-0.12-0.299-0.199-0.643-0.405-0.871c-0.204-0.226-0.435,0.034-0.61,0.18c-0.97,0.812-1.684,1.841-2.398,2.867
		C17.374,35.207,17.347,35.351,17.28,35.524z M23.567,31.9c0.953,0.339,1.901,0.677,2.978,1.06c-0.14-0.233-0.2-0.433-0.334-0.535
		c-0.463-0.353-0.935-0.702-1.439-0.993c-0.355-0.205-0.763-0.324-1.155-0.455c-0.089-0.03-0.244,0.019-0.311,0.088
		c-0.044,0.045,0.001,0.197,0.035,0.291C23.411,31.553,23.501,31.744,23.567,31.9z M21.926,38.402
		c0.041-0.017,0.081-0.035,0.122-0.052c-0.126-0.369-0.226-0.749-0.385-1.103c-0.305-0.683-0.44-0.745-1.061-0.327
		c-0.548,0.37-1.04,0.827-1.535,1.27c-0.206,0.185-0.356,0.432-0.532,0.651c0.707-0.651,1.509-1.133,2.345-1.573
		c0.228-0.12,0.352-0.104,0.473,0.134C21.527,37.744,21.733,38.07,21.926,38.402z"/>
	<path class="st18" d="M26.739,31.04c0,0,11.352,2.703-1.213,21.252c3.251-3.014,7.472-7.095,8.266-13.451
		C33.139,34.927,31.455,31.926,26.739,31.04z"/>
	<path class="st5" d="M29.672,54.128c0.757-0.964,1.477-1.879,2.193-2.797c0.123-0.157,0.354-0.281,0.175-0.545
		c-0.178-0.264-0.249-0.649-0.704-0.578c-0.086,0.013-0.178-0.006-0.348-0.013c0.172-0.161,0.276-0.29,0.408-0.377
		c0.406-0.27,0.815-0.537,1.237-0.78c0.48-0.276,0.5-0.276,0.859,0.124c0.85,0.948,1.684,1.911,2.531,2.863
		c0.175,0.196,0.198,0.378,0.065,0.607c-0.269,0.463-0.501,0.948-0.789,1.399c-0.103,0.161-0.315,0.336-0.491,0.351
		c-1.628,0.145-3.257,0.171-4.872-0.157C29.871,54.211,29.808,54.178,29.672,54.128z"/>
	<path class="st18" d="M33.792,55.198c0,0,0.855-5.563-2.104-5.929c1.237-0.78,1.61-0.999,1.61-0.999l3.421,4.115
		C36.719,52.385,35.711,55.54,33.792,55.198z"/>
	<path class="st5" d="M21.598,54.454c-0.116-0.059-0.205-0.104-0.336-0.17c0.304-0.396,0.597-0.779,0.919-1.199
		c-0.632,0.178-1.129,0.525-1.488,0.996c-0.322,0.421-0.659,0.367-1.155,0.247c0.358-0.544,0.689-1.047,1.02-1.551
		c-0.032-0.024-0.064-0.049-0.096-0.073c-0.608,0.351-0.904,1.004-1.347,1.515c-0.031-0.011-0.061-0.023-0.092-0.034
		c0.045-0.221,0.063-0.452,0.14-0.661c0.418-1.139,1.164-2.012,2.208-2.622c0.135-0.079,0.376-0.132,0.49-0.065
		c0.88,0.516,1.741,1.064,2.61,1.603c-0.73,0.745-1.398,1.427-2.067,2.109c0.032,0.041,0.065,0.082,0.097,0.123
		c0.119-0.072,0.239-0.143,0.356-0.218c1.737-1.111,3.486-2.201,5.377-3.037c0.971-0.43,1.966-0.789,3.037-0.887
		c0.199-0.018,0.385-0.011,0.414,0.21c0.015,0.111-0.078,0.261-0.164,0.357c-1.029,1.156-2.089,2.284-3.093,3.461
		c-0.78,0.915-1.489,1.89-2.242,2.829c-0.096,0.12-0.254,0.242-0.397,0.263c-1.035,0.149-2.07,0.312-3.111,0.388
		c-0.745,0.054-1.499-0.028-2.249-0.035c-0.357-0.003-0.562-0.166-0.682-0.498c-0.257-0.711-0.38-1.426-0.145-2.166
		c0.085-0.267,0.223-0.428,0.554-0.441C20.654,54.878,21.151,54.791,21.598,54.454z"/>
	<path class="st19" d="M19.2,56.615c0,0,5.349-0.348,5.963-0.676s6.409-5.779,6.525-5.554c0.115,0.225,0.115,0.225,0.115,0.225
		s-3.504,6.099-5.984,7.445C23.606,58.541,18.913,58.685,19.2,56.615z"/>
	<path class="st11" d="M9.289,60.841c-0.869-0.01-1.651,0.127-2.383,0.466C6.62,61.44,6.379,61.471,6.1,61.327
		c-0.189-0.097-0.394-0.162-0.693-0.282c0.227-0.244,0.384-0.507,0.615-0.647c1.174-0.714,2.413-1.294,3.742-1.661
		c0.236-0.065,0.342-0.168,0.389-0.422c0.292-1.577,0.414-3.166,0.345-4.767c-0.042-0.966-0.172-1.922-0.511-2.835
		c-0.063-0.169-0.178-0.338-0.313-0.458c-1.559-1.393-2.93-2.942-3.865-4.825c-0.274-0.552-0.386-1.184-0.576-1.777
		c-0.029-0.09-0.074-0.174-0.119-0.258c-0.95-1.785-1.721-3.637-2.067-5.643C2.219,32.957,3.75,29.015,7.42,25.896
		c0.862-0.732,1.736-1.433,2.484-2.29c0.935-1.072,2.198-1.493,3.574-1.666c1.665-0.21,3.182,0.212,4.635,0.987
		c0.222,0.118,0.5,0.136,0.755,0.189c2.202,0.459,3.938,1.683,5.437,3.3c0.55,0.594,0.55,0.592,1.272,0.252
		c1.5-0.706,3.017-1.367,4.66-1.673c0.721-0.134,1.444-0.195,2.15,0.076c0.666,0.256,0.993,0.745,1.079,1.459
		c0.155,1.282-0.432,2.272-1.217,3.163c-0.619,0.702-1.328,1.326-2.021,2.008c0.022,0.02,0.094,0.089,0.169,0.153
		c1.203,1.013,2.278,2.137,3.005,3.55c0.503,0.978,0.739,2.038,0.827,3.122c0.194,2.38-0.163,4.68-1.136,6.87
		c-0.212,0.477-0.473,0.931-0.726,1.425c0.339,0.277,0.693,0.554,1.033,0.848c1.46,1.263,2.686,2.734,3.809,4.297
		c0.161,0.225,0.189,0.4,0.05,0.671c-0.266,0.517-0.451,1.075-0.68,1.612c-0.398,0.933-0.994,1.629-2.128,1.68
		c0.154,0.58,0.32,1.122,0.438,1.675c0.112,0.522,0.182,1.055,0.249,1.585c0.017,0.134-0.018,0.289-0.073,0.415
		c-1.421,3.241-2.917,6.447-4.677,9.519c-0.763,1.331-1.661,2.585-2.494,3.877c-0.22,0.34-0.437,0.683-0.635,1.036
		c-0.135,0.242-0.323,0.265-0.566,0.231c-0.316-0.044-0.636-0.07-0.955-0.081c-0.403-0.014-0.808-0.018-1.211-0.002
		c-0.169,0.007-0.336,0.074-0.547,0.124c0.2-1.989,0.393-4.05,0.032-6.141c-0.939,0-1.853,0.007-2.766-0.004
		c-0.345-0.004-0.699-0.008-1.031-0.088c-0.534-0.129-0.963,0.037-1.411,0.302c-0.686,0.406-1.394,0.778-2.108,1.135
		c-0.793,0.397-1.383,1.01-1.893,1.706c-0.698,0.951-1.369,1.921-2.051,2.883c-0.034,0.049-0.07,0.097-0.107,0.144
		c-0.432,0.554-0.468,0.552-0.733-0.018c-0.91,0-1.804,0-2.711,0c0.15-0.514,0.348-1.026,0.445-1.556
		c0.28-1.521,0.531-3.047,0.771-4.575c0.137-0.87,0.225-1.747,0.348-2.62c0.036-0.255,0.007-0.447-0.207-0.629
		c-0.223-0.19-0.395-0.438-0.63-0.706c-0.13,0.476-0.254,0.914-0.369,1.354c-0.412,1.564-0.827,3.127-1.227,4.695
		c-0.069,0.271-0.198,0.389-0.478,0.413c-0.779,0.066-1.498-0.019-2.067-0.636c-0.177-0.191-0.208-0.352-0.102-0.6
		c1.179-2.76,2.346-5.525,3.515-8.288C9.228,61.012,9.25,60.946,9.289,60.841z M10.435,48.504c0.147,0.43,0.313,0.838,0.422,1.26
		c0.109,0.424,0.36,0.725,0.711,0.943c0.577,0.357,1.172,0.682,1.755,1.031c0.286,0.171,0.55,0.217,0.861,0.032
		c0.232-0.138,0.503-0.214,0.762-0.302c0.757-0.258,1.535-0.559,2.331-0.31c0.567,0.177,1.091,0.507,1.615,0.802
		c0.189,0.106,0.286,0.122,0.453-0.035c0.32-0.301,0.669-0.573,1.014-0.847c0.834-0.664,1.787-0.673,2.819-0.02
		c0.644,0.408,1.283,0.825,1.913,1.254c0.17,0.116,0.288,0.112,0.436-0.02c0.427-0.38,0.869-0.744,1.292-1.129
		c1.016-0.925,1.859-2.001,2.74-3.052c2.373-2.83,3.635-6.005,3.34-9.734c-0.198-2.513-1.25-4.535-3.381-5.953
		c-2.272-1.511-4.814-2.119-7.494-2.27c-0.127-0.007-0.274,0.067-0.389,0.141c-3.099,1.994-5.909,4.348-8.578,6.878
		c-0.109,0.103-0.217,0.232-0.266,0.369c-0.617,1.713-1.228,3.428-1.829,5.146c-0.131,0.376-0.158,0.394-0.519,0.224
		c-0.505-0.239-1.013-0.472-1.53-0.685c-0.329-0.135-0.611-0.082-0.801,0.277c-0.144,0.272-0.365,0.504-0.505,0.778
		c-0.108,0.212-0.207,0.462-0.201,0.692c0.03,1.072,0.464,2.01,1.076,2.864c0.344,0.48,0.837,0.763,1.42,0.897
		c0.379,0.088,0.704,0.037,0.99-0.238c0.269-0.259,0.547-0.509,0.804-0.747C11.81,47.547,11.465,48.053,10.435,48.504z
		 M6.539,43.616c0.055-0.07,0.087-0.104,0.111-0.142c2.238-3.538,4.967-6.66,8.072-9.455c1.724-1.553,3.505-3.04,5.553-4.187
		c-0.06-0.11-0.128-0.233-0.193-0.358c-1.046-2.018-2.602-3.508-4.669-4.448c-0.74-0.337-1.527-0.608-2.351-0.485
		c-2.29,0.341-4.301,1.292-5.955,2.928c-1.988,1.967-2.784,4.449-2.959,7.161c-0.121,1.87,0.136,3.708,0.71,5.495
		C5.251,41.35,5.699,42.551,6.539,43.616z M13.052,62.302c-0.566-0.163-1.051-0.456-1.196-0.832
		c-0.148-0.384-0.424-0.482-0.764-0.507c-0.114-0.009-0.301,0.035-0.34,0.113c-0.08,0.162-0.187,0.366,0.088,0.508
		c0.717,0.372,1.4,0.821,2.142,1.133c2.887,1.215,5.912,1.581,9.025,1.386c2.774-0.173,5.41-0.944,8.009-1.841
		c1.474-0.509,2.666-1.464,3.559-2.755c0.137-0.198,0.228-0.483,0.215-0.722c-0.056-1.072-0.457-2.058-0.834-3.047
		c-0.025-0.067-0.134-0.133-0.212-0.144c-1.153-0.165-2.307-0.328-3.463-0.47c-0.134-0.016-0.336,0.058-0.42,0.16
		c-0.578,0.711-1.132,1.441-1.696,2.163c-0.34,0.434-0.685,0.902-1.268,0.979c-1.166,0.155-2.338,0.325-3.511,0.354
		c-1.042,0.026-2.099-0.066-3.132-0.22c-1.328-0.197-2.639-0.504-3.955-0.778c-0.111-0.023-0.198-0.164-0.296-0.25
		c0.128-0.029,0.263-0.099,0.384-0.08c0.564,0.089,1.12,0.234,1.686,0.299c0.704,0.081,1.414,0.105,2.181,0.157
		c-0.401-1.013-0.541-1.962-0.189-2.932c-0.461-0.115-0.665-0.316-0.624-0.775c0.038-0.43,0.138-0.87,0.302-1.267
		c0.12-0.291,0.044-0.431-0.159-0.595c-0.704-0.57-1.54-0.617-2.346-0.432c-1.003,0.23-1.976,0.599-2.955,0.928
		c-0.376,0.126-0.733,0.308-1.187,0.503c0.276-0.626,0.8-0.85,1.211-1.208c-0.684-0.261-1.341-0.511-2.02-0.77
		c0.507,2.346,0.43,4.681-0.055,7.039c0.645-0.105,1.274-0.042,1.756-0.508c0.057-0.055,0.146-0.08,0.223-0.111
		c0.416-0.164,1.087-0.101,1.323,0.123c-1.009,0.118-1.773,0.736-2.086,1.739C12.146,60.605,12.139,61.524,13.052,62.302z
		 M21.598,54.454c-0.446,0.337-0.943,0.425-1.44,0.444c-0.331,0.013-0.469,0.174-0.554,0.441c-0.235,0.74-0.112,1.455,0.145,2.166
		c0.12,0.332,0.325,0.494,0.682,0.498c0.75,0.007,1.504,0.089,2.249,0.035c1.041-0.076,2.077-0.239,3.111-0.388
		c0.144-0.021,0.301-0.143,0.397-0.263c0.752-0.939,1.461-1.914,2.242-2.829c1.004-1.177,2.064-2.306,3.093-3.461
		c0.085-0.096,0.178-0.246,0.164-0.357c-0.029-0.221-0.216-0.228-0.414-0.21c-1.071,0.098-2.065,0.457-3.037,0.887
		c-1.891,0.837-3.64,1.926-5.377,3.037c-0.117,0.075-0.238,0.145-0.356,0.218c-0.032-0.041-0.065-0.082-0.097-0.123
		c0.668-0.682,1.337-1.364,2.067-2.109c-0.869-0.539-1.73-1.088-2.61-1.603c-0.114-0.067-0.355-0.014-0.49,0.065
		c-1.044,0.61-1.79,1.483-2.208,2.622c-0.077,0.209-0.095,0.44-0.14,0.661c0.031,0.011,0.061,0.023,0.092,0.034
		c0.442-0.511,0.739-1.164,1.347-1.515c0.032,0.024,0.064,0.049,0.096,0.073c-0.331,0.504-0.663,1.007-1.02,1.551
		c0.496,0.12,0.833,0.174,1.155-0.247c0.359-0.47,0.856-0.818,1.488-0.996c-0.322,0.42-0.616,0.803-0.919,1.199
		C21.392,54.35,21.481,54.395,21.598,54.454z M22.346,29.243c0.019,0.034,0.039,0.069,0.058,0.103c0.153,0,0.306,0.001,0.46,0
		c2.286-0.024,4.341,0.74,6.285,1.864c0.195,0.113,0.329,0.133,0.504-0.013c0.456-0.382,0.94-0.733,1.38-1.132
		c0.729-0.663,1.365-1.405,1.651-2.376c0.387-1.316-0.246-2.165-1.531-2.077c-1.14,0.078-2.239,0.342-3.264,0.844
		C26.033,27.367,24.193,28.312,22.346,29.243z M29.672,54.128c0.137,0.05,0.199,0.083,0.266,0.096
		c1.615,0.328,3.243,0.302,4.872,0.157c0.176-0.016,0.388-0.191,0.491-0.351c0.288-0.45,0.521-0.935,0.789-1.399
		c0.133-0.229,0.109-0.411-0.065-0.607c-0.847-0.952-1.681-1.914-2.531-2.863c-0.359-0.4-0.378-0.4-0.859-0.124
		c-0.422,0.243-0.831,0.51-1.237,0.78c-0.132,0.087-0.236,0.216-0.408,0.377c0.171,0.008,0.262,0.027,0.348,0.013
		c0.455-0.07,0.525,0.315,0.704,0.578c0.178,0.263-0.053,0.387-0.175,0.545C31.148,52.249,30.428,53.164,29.672,54.128z
		 M10.381,24.253c0.059,0.012,0.085,0.027,0.102,0.02c2.147-0.811,4.207-0.552,6.188,0.528c1.435,0.783,2.572,1.908,3.565,3.189
		c0.311,0.401,0.604,0.816,0.915,1.239c0.533-0.389,1.049-0.765,1.575-1.148c-0.047-0.076-0.076-0.126-0.108-0.173
		c-1.13-1.657-2.562-3.006-4.272-4.042c-1.424-0.863-2.957-1.362-4.659-1.133C12.437,22.902,11.37,23.456,10.381,24.253z
		 M31.598,47.435c-0.594,0.581-1.153,1.125-1.709,1.675c-0.143,0.142-0.277,0.294-0.406,0.449c-0.236,0.282-0.192,0.584-0.065,0.919
		c0.25-0.06,0.483-0.103,0.706-0.176c0.113-0.037,0.225-0.113,0.307-0.2c0.287-0.309,0.522-0.68,0.85-0.935
		c0.413-0.321,0.897-0.552,1.39-0.845C32.295,48.011,31.932,47.712,31.598,47.435z M30.667,62.518
		c-0.897,0.288-1.697,0.542-2.495,0.805c-0.091,0.03-0.211,0.095-0.238,0.172c-0.13,0.372-0.233,0.754-0.362,1.187
		c0.915-0.082,1.732-0.247,2.478-0.679c0.059-0.034,0.126-0.088,0.148-0.148C30.355,63.427,30.502,62.993,30.667,62.518z
		 M20.835,24.93c-0.019,0.022-0.039,0.044-0.058,0.066c0.928,0.891,1.856,1.783,2.799,2.689c0.126-0.092,0.277-0.202,0.486-0.355
		C22.96,26.511,21.898,25.721,20.835,24.93z"/>
	<path class="st11" d="M8.998,76.45c-0.358,0.404-0.683,0.729-0.957,1.092c-0.209,0.278-0.429,0.434-0.792,0.442
		c-0.857,0.021-1.712,0.085-2.568,0.125c-1.156,0.054-2.16-0.4-3.12-0.971c-0.461-0.274-0.476-0.458-0.189-0.915
		c0.062-0.099,0.108-0.213,0.143-0.326c0.352-1.13,1.178-1.619,2.295-1.804c1.105-0.183,2.119,0.141,3.154,0.41
		c0.551,0.143,1.104,0.276,1.661,0.394c0.567,0.12,1.189,0.075,1.764,0.048c0.286-0.013,0.601-0.065,0.866,0.078
		c0.246,0.133,0.383,0.393,0.492,0.64c0.239,0.542,0.581,1.04,0.554,1.673c-0.013,0.291-0.102,0.446-0.415,0.51
		c-0.777,0.158-1.544,0.123-2.294-0.099c-0.168-0.05-0.329-0.263-0.407-0.439C9.086,77.088,9.074,76.828,8.998,76.45z"/>
	<path class="st11" d="M27.015,76.471c0,0.216,0.006,0.323-0.001,0.428c-0.041,0.578-0.256,0.811-0.828,0.93
		c-0.686,0.144-1.368,0.152-2.055,0c-0.225-0.05-0.356-0.173-0.328-0.391c0.046-0.361,0.079-0.736,0.207-1.071
		c0.169-0.442,0.42-0.854,0.648-1.271c0.035-0.063,0.136-0.12,0.212-0.126c0.379-0.033,0.76-0.061,1.141-0.064
		c0.17-0.001,0.341,0.089,0.511,0.089c0.293,0,0.594-0.002,0.876-0.068c1.146-0.271,2.273-0.649,3.431-0.829
		c1.128-0.176,2.278-0.099,3.163,0.799c0.202,0.205,0.328,0.49,0.474,0.746c0.134,0.235,0.262,0.475,0.367,0.724
		c0.095,0.225,0.137,0.471-0.111,0.637c-0.902,0.605-1.874,1.076-2.974,1.092c-1.046,0.015-2.094-0.08-3.139-0.148
		c-0.142-0.009-0.303-0.121-0.406-0.231c-0.269-0.286-0.504-0.603-0.765-0.896C27.34,76.712,27.209,76.63,27.015,76.471z"/>
	<path class="st16" d="M31.598,47.435c0.334,0.276,0.696,0.575,1.071,0.886c-0.494,0.293-0.977,0.524-1.39,0.845
		c-0.327,0.255-0.562,0.626-0.85,0.935c-0.081,0.087-0.194,0.163-0.307,0.2c-0.223,0.073-0.456,0.116-0.706,0.176
		c-0.126-0.335-0.171-0.637,0.065-0.919c0.13-0.155,0.263-0.307,0.406-0.449C30.445,48.561,31.005,48.016,31.598,47.435z"/>
	<path class="st20" d="M30.667,62.518c-0.165,0.475-0.312,0.908-0.469,1.338c-0.022,0.06-0.089,0.113-0.148,0.148
		c-0.746,0.432-1.562,0.597-2.478,0.679c0.129-0.434,0.232-0.815,0.362-1.187c0.027-0.077,0.147-0.142,0.238-0.172
		C28.97,63.06,29.77,62.806,30.667,62.518z"/>
	<path class="st16" d="M20.835,24.93c1.063,0.79,2.125,1.581,3.228,2.401c-0.209,0.153-0.36,0.263-0.486,0.355
		c-0.944-0.907-1.872-1.798-2.799-2.689C20.797,24.974,20.816,24.952,20.835,24.93z"/>
	<path class="st11" d="M25.996,40.222c0.834-0.216,1.572-0.377,2.292-0.6c2.417-0.749,2.938-2.954,2.532-4.775
		c-0.122-0.548-0.234-0.662-0.781-0.586c-0.411,0.057-0.861,0.173-1.19,0.409c-1.162,0.831-2.279,1.726-3.415,2.592
		c-0.227,0.173-0.469,0.328-0.704,0.491c-0.036-0.045-0.072-0.09-0.108-0.136c0.849-0.74,1.697-1.48,2.608-2.274
		c-0.327-0.076-0.592-0.138-0.857-0.199c0.198-0.321,0.611-0.446,1.137-0.269c0.244,0.082,0.393,0.007,0.587-0.093
		c0.557-0.289,1.103-0.621,1.693-0.818c0.705-0.236,1.302,0.125,1.471,0.839c0.317,1.34,0.148,2.659-0.345,3.923
		c-0.236,0.604-0.841,0.86-1.415,1.072c-0.556,0.205-1.132,0.359-1.793,0.565c0.164,0.263,0.271,0.55,0.472,0.737
		c0.54,0.5,1.107,0.974,1.689,1.424c0.236,0.183,0.256,0.317,0.101,0.553c-0.447,0.679-1.038,1.213-1.697,1.669
		c-0.704,0.488-1.43,0.944-2.15,1.409c-0.087,0.056-0.196,0.109-0.295,0.108c-1.573-0.01-3.07-0.327-4.301-1.361
		c-0.436-0.366-0.737-0.865-1.411-0.784c-0.105,0.013-0.226-0.106-0.335-0.161c0.381-0.147,0.776-0.236,1.099-0.44
		c0.332-0.209,0.593-0.53,0.94-0.854c0.049,0.526-0.231,0.84-0.524,1.193c0.317,0.493,0.739,0.883,1.241,1.186
		c0.86,0.518,1.812,0.772,2.795,0.923c0.089,0.014,0.197,0.001,0.276-0.039c1.519-0.77,2.869-1.775,4.152-2.966
		c-0.365-0.325-0.707-0.612-1.029-0.92c-0.559-0.534-1.101-1.087-1.664-1.617c-0.099-0.093-0.262-0.137-0.403-0.162
		C26.473,40.228,26.277,40.236,25.996,40.222z"/>
	<path class="st11" d="M17.28,35.524c0.067-0.173,0.094-0.317,0.17-0.426c0.714-1.027,1.428-2.056,2.398-2.867
		c0.175-0.146,0.406-0.407,0.61-0.18c0.206,0.228,0.285,0.572,0.405,0.871c0.012,0.03-0.072,0.112-0.125,0.151
		c-1.101,0.813-2.204,1.623-3.308,2.433C17.414,35.516,17.387,35.511,17.28,35.524z"/>
	<path class="st11" d="M23.567,31.9c-0.066-0.156-0.155-0.346-0.226-0.544c-0.034-0.094-0.079-0.246-0.035-0.291
		c0.067-0.069,0.222-0.117,0.311-0.088c0.393,0.131,0.8,0.25,1.155,0.455c0.503,0.291,0.975,0.64,1.439,0.993
		c0.134,0.102,0.194,0.303,0.334,0.535C25.468,32.577,24.52,32.239,23.567,31.9z"/>
	<path class="st11" d="M21.926,38.402c-0.193-0.332-0.399-0.658-0.573-0.999c-0.121-0.238-0.245-0.254-0.473-0.134
		c-0.836,0.44-1.638,0.922-2.345,1.573c0.176-0.219,0.325-0.467,0.532-0.651c0.495-0.443,0.987-0.9,1.535-1.27
		c0.621-0.419,0.756-0.356,1.061,0.327c0.158,0.354,0.258,0.735,0.385,1.103C22.007,38.367,21.967,38.385,21.926,38.402z"/>
	<path class="st11" d="M16.522,59.948c-0.05,1.046-0.425,1.932-1.351,2.487c-0.94,0.563-1.885,0.152-2.166-0.902
		c-0.277-1.039,0.236-2.425,1.132-3.037c0.487-0.332,1.009-0.499,1.576-0.213c0.561,0.282,0.745,0.799,0.807,1.38
		C16.53,59.756,16.522,59.853,16.522,59.948z"/>
</g>
</svg>
