<?xml version="1.0" encoding="utf-8"?>
<!-- Generator: Adobe Illustrator 24.0.3, SVG Export Plug-In . SVG Version: 6.00 Build 0)  -->
<svg version="1.1" id="Capa_1" xmlns="http://www.w3.org/2000/svg" xmlns:xlink="http://www.w3.org/1999/xlink" x="0px" y="0px"
	 width="200px" height="100px" viewBox="0 0 200 100" style="enable-background:new 0 0 200 100;" xml:space="preserve">
<style type="text/css">
	.st0{fill:#FFFFFF;}
	.st1{fill:#3B3636;}
	.st2{fill:#E52724;}
	.st3{fill:#D31D1C;}
	.st4{fill:#26201F;}
</style>
<g>
	<g>
		<g>
			<path class="st0" d="M61.8,70c2.6,4-1.4,7.9-5.6,7.9H5c-3.3,0-6-4.6-4.1-7.6l26.1-45.5c2.2-3.4,6.9-3.4,8.5,0L61.8,70z"/>
			<path class="st1" d="M5,78.2c-1.4,0-2.7-0.7-3.6-1.8l0,0C0.6,75.3,0,73.9,0,72.5l0,0c0-0.8,0.2-1.7,0.7-2.4l0,0l26.1-45.5l0,0
				c1.1-1.8,3-2.7,4.8-2.7l0,0c1.8,0,3.5,0.9,4.3,2.7l0,0l26.2,45.2c0.6,0.9,0.9,1.9,0.9,2.8l0,0c0,1.6-0.9,3-2.1,4l0,0
				c-1.3,1-2.9,1.6-4.6,1.6l0,0H5L5,78.2z M1.3,70.4L1.3,70.4c-0.4,0.6-0.6,1.4-0.6,2.1l0,0c0,1.2,0.5,2.5,1.3,3.4l0,0
				c0.8,1,1.9,1.6,3,1.6l0,0h51.2c1.5,0,3.1-0.6,4.2-1.5l0,0c1.1-0.9,1.9-2.1,1.9-3.5l0,0c0-0.8-0.2-1.6-0.8-2.4l0,0l0.3-0.2
				l0.3-0.2L61.8,70l-0.3,0.2l0,0L35.3,24.9l0,0c-0.7-1.6-2.2-2.3-3.7-2.4l0,0c-1.5,0-3.2,0.8-4.2,2.4l0,0L1.3,70.4L1.3,70.4z"/>
		</g>
		<g>
			<path class="st1" d="M55.5,69.4c1,2-0.8,3.3-2.1,3.3H9c-2,0-2.8-2-2-3.3L29.3,31c0.9-1.4,3.2-1.4,4,0L55.5,69.4z"/>
		</g>
		<g>
			<path class="st2" d="M54.3,70c0.4,0.8-0.1,1.5-0.8,1.5H8.9c-0.6,0-1.3-0.8-0.8-1.7l22.1-38c0.6-0.9,1.6-0.9,2.1,0L54.3,70z"/>
			<path class="st2" d="M8.9,71.6c-0.6,0-1.1-0.5-1.1-1.2l0,0c0-0.2,0.1-0.4,0.2-0.7l0,0l0,0l22.1-38l0,0c0.3-0.5,0.7-0.7,1.2-0.7
				l0,0c0.5,0,0.9,0.3,1.2,0.7l0,0L54.4,70L54.3,70l0.1-0.1c0.1,0.2,0.2,0.4,0.2,0.6l0,0c0,0.6-0.5,1.1-1.1,1.1l0,0H8.9L8.9,71.6z
				 M8.1,70.4c0,0.3,0.1,0.5,0.3,0.7l0,0c0.2,0.2,0.4,0.3,0.6,0.3l0,0h44.5c0.4,0,0.8-0.3,0.8-0.8l0,0c0-0.1,0-0.3-0.1-0.5l0,0
				L32.2,31.9c-0.2-0.4-0.6-0.6-0.9-0.6l0,0c-0.3,0-0.7,0.2-1,0.6l0,0l-22.1,38C8.1,70.1,8.1,70.3,8.1,70.4L8.1,70.4z"/>
		</g>
		<g>
			<g>
				<path class="st0" d="M37,58.4v9h-1.6v2.2c0,0,7,0,7.5,0c2,0,2.8-1,2.8-2.2v-2.7c0-1.8-1.5-2-1.5-2v-0.1c0,0,1.5-0.4,1.5-1.7
					v-2.7c0-0.9-0.7-2.3-2.8-2.3c-1.7,0-4.8,0-6.4,0 M43.7,66.4c0,0.3-0.5,1.1-1,1.1c-0.6,0-3.6,0-3.6,0v-3.7c0,0,2.7,0,3.6,0
					c0.7,0,1,0.8,1,1.4C43.7,66.4,43.7,66.3,43.7,66.4z M43.7,60.5c0,0.6-0.4,1.2-1,1.2c-0.6,0-3.7,0-3.7,0v-3.5h3.6
					c0.8,0,1,0.6,1,1.2C43.7,59.4,43.7,60.1,43.7,60.5z M36.5,55.8c-0.6,0-1,0-1,0v2.3H37v0.3"/>
				<path class="st1" d="M39,69.8c-1.8,0-3.6,0-3.6,0l0,0c0,0-0.1,0-0.1,0l0,0c0,0,0,0,0-0.1l0,0v-2.2c0,0,0-0.1,0-0.1l0,0
					c0,0,0,0,0.1,0l0,0h1.5v-8.9v-0.2h-1.5c0,0-0.1,0-0.1,0l0,0c0,0,0,0,0-0.1l0,0v-2.3c0,0,0-0.1,0-0.1l0,0c0,0,0,0,0.1,0l0,0
					c0,0,0.4,0,1,0l0,0c1.6,0,4.7,0,6.4,0l0,0c1.1,0,1.8,0.4,2.3,0.8l0,0c0.5,0.5,0.6,1.1,0.6,1.6l0,0v2.7c0,0.7-0.4,1.2-0.8,1.4
					l0,0c-0.3,0.2-0.5,0.3-0.6,0.3l0,0c0.2,0,0.4,0.1,0.6,0.3l0,0c0.4,0.3,0.8,0.8,0.8,1.8l0,0v2.7c0,0.7-0.2,1.3-0.7,1.7l0,0
					c-0.5,0.4-1.2,0.7-2.2,0.7l0,0C42.7,69.8,40.8,69.8,39,69.8L39,69.8z M43,69.6c1,0,1.6-0.2,2-0.6l0,0c0.4-0.4,0.6-0.9,0.6-1.5
					l0,0v-2.7c0-0.8-0.3-1.2-0.6-1.5l0,0c-0.3-0.3-0.6-0.4-0.8-0.4l0,0c0,0-0.1,0-0.1,0l0,0c-0.1,0-0.1,0-0.1-0.1l0,0v-0.1
					c0,0,0-0.1,0.1-0.1l0,0c0,0,0,0,0.1,0l0,0c0,0,0.1,0,0.2-0.1l0,0c0.1-0.1,0.3-0.1,0.5-0.3l0,0c0.4-0.3,0.7-0.7,0.7-1.3l0,0v-2.7
					c0-0.4-0.2-1-0.6-1.4l0,0c-0.4-0.4-1.1-0.8-2.1-0.8l0,0c-1.7,0-4.8,0-6.4,0l0,0c-0.4,0-0.8,0-0.9,0l0,0v2.1H37c0,0,0.1,0,0.1,0
					l0,0c0,0,0,0,0,0.1l0,0v0.3v9c0,0,0,0.1,0,0.1l0,0c0,0,0,0-0.1,0l0,0h-1.5v2C36.4,69.6,42.5,69.6,43,69.6L43,69.6z M39,67.6
					C39,67.6,39,67.5,39,67.6L39,67.6c-0.1,0-0.1-0.1-0.1-0.1l0,0v-3.7c0,0,0-0.1,0-0.1l0,0c0,0,0,0,0.1,0l0,0c0,0,2.7,0,3.6,0l0,0
					c0.4,0,0.7,0.2,0.9,0.5l0,0c0.2,0.3,0.3,0.6,0.3,0.9l0,0c0,1.3,0,1.2,0,1.2l0,0c0,0.2-0.1,0.5-0.3,0.7l0,0
					c-0.2,0.2-0.5,0.5-0.8,0.5l0,0C42.1,67.6,39,67.6,39,67.6L39,67.6z M42.6,67.3c0.2,0,0.5-0.2,0.7-0.4l0,0
					c0.2-0.2,0.3-0.5,0.3-0.6l0,0c0-0.1,0,0,0-1.2l0,0c0-0.3-0.1-0.6-0.2-0.8l0,0c-0.2-0.3-0.4-0.4-0.7-0.4l0,0c-0.8,0-3,0-3.5,0
					l0,0v3.5C39.7,67.3,42.1,67.3,42.6,67.3L42.6,67.3z M42.7,61.8c-0.6,0-3.7,0-3.7,0l0,0c0,0-0.1,0-0.1,0l0,0c0,0,0,0,0-0.1l0,0
					v-3.5c0,0,0-0.1,0-0.1l0,0c0,0,0,0,0.1,0l0,0h3.6c0.4,0,0.7,0.2,0.9,0.4l0,0c0.2,0.3,0.2,0.6,0.2,0.9l0,0c0,0,0,0.8,0,1.1l0,0
					c0,0.3-0.1,0.6-0.3,0.9l0,0C43.3,61.6,43,61.8,42.7,61.8L42.7,61.8C42.7,61.8,42.7,61.8,42.7,61.8L42.7,61.8z M42.7,61.6
					c0.3,0,0.5-0.1,0.6-0.3l0,0c0.2-0.2,0.2-0.5,0.2-0.8l0,0c0-0.4,0-1.1,0-1.1l0,0c0-0.3-0.1-0.6-0.2-0.8l0,0
					c-0.1-0.2-0.4-0.3-0.7-0.3l0,0h-3.5v3.3C39.7,61.6,42.2,61.6,42.7,61.6L42.7,61.6z"/>
			</g>
			<g>
				<path class="st0" d="M39.1,64.6l-7.2-21.1h-2.3l-7.4,21.1H20v1.8h6.4v-1.8h-1.5l2-6.5h7.5l2,6.4H35v1.8h6.2v-1.8H39.1z
					 M27.7,55.9l3-9l2.9,9H27.7z"/>
				<path class="st1" d="M19.9,66.5v-2h2.2l7.4-21.1H32l7.2,21.1h2.2v2h-6.5v-2h1.3l-1.9-6.2H27l-1.9,6.2h1.5v2H19.9L19.9,66.5z
					 M20.1,66.3h6.2v-1.6h-1.5l2.1-6.7h7.6l2,6.6h-1.4v1.6h6v-1.6h-2.1v-0.1l0.1,0l-0.1,0v0.1H39l-7.2-21.1h-2.1l-7.4,21.1h-2.2
					V66.3L20.1,66.3z M27.7,56v-0.1V56v-0.1V56h-0.1l3.2-9.4l3.1,9.4H27.7L27.7,56z M33.5,55.8l-2.8-8.5l-2.9,8.5H33.5L33.5,55.8z"
					/>
			</g>
			<g>
				<path class="st0" d="M25.1,55.8c-1.7,0-8.2,0-8.2,0v2.3h1.5v9.3h-1.5v2.2c0,0,7.4,0,8.2,0c1.3,0,2.2-1,2.2-2.2v-9.3
					C27.3,57,26.6,55.8,25.1,55.8z M25.1,65.7c0,0.6-0.3,1.8-1.6,1.8c-1.8,0-2.9,0-2.9,0l0-9.3c0,0,2.4,0,3,0c0.6,0,1.6,0.4,1.6,1.9
					V65.7z"/>
				<path class="st1" d="M25.1,69.8c-0.8,0-8.2,0-8.2,0l0,0h-0.1v-2.4h1.5v-9.1h-1.5v-2.5h0.1c0,0,6.6,0,8.2,0l0,0v0.1v0.1
					c-1.6,0-7.3,0-8.1,0l0,0v2.1h1.5v9.5H17v2c0.4,0,2,0,3.7,0l0,0c2,0,4,0,4.4,0l0,0c1.2,0,2-0.9,2.1-2.1l0,0v-9.3
					c0-0.5-0.2-1.1-0.5-1.5l0,0c-0.3-0.4-0.8-0.7-1.5-0.7l0,0v-0.1v-0.1c0.8,0,1.3,0.3,1.7,0.8l0,0c0.4,0.5,0.5,1.1,0.5,1.6l0,0v9.3
					c0,0.7-0.2,1.3-0.6,1.7l0,0C26.3,69.5,25.8,69.8,25.1,69.8L25.1,69.8C25.1,69.8,25.1,69.8,25.1,69.8L25.1,69.8z M23.5,67.6
					c-1.8,0-2.9,0-2.9,0l0,0h-0.1l0-9.5h0.1c0,0,2.4,0,3,0l0,0c0.3,0,0.8,0.1,1.1,0.4l0,0c0.3,0.3,0.6,0.8,0.6,1.6l0,0v5.6
					c0,0.3-0.1,0.8-0.3,1.2l0,0C24.6,67.2,24.2,67.6,23.5,67.6L23.5,67.6C23.5,67.6,23.5,67.6,23.5,67.6L23.5,67.6z M23.5,67.3
					c0.6,0,1-0.3,1.2-0.6l0,0c0.2-0.3,0.3-0.8,0.3-1.1l0,0v-5.6c0-0.7-0.2-1.2-0.5-1.5l0,0c-0.3-0.3-0.7-0.4-0.9-0.4l0,0
					c-0.3,0-1.1,0-1.7,0l0,0c-0.5,0-1,0-1.2,0l0,0l0,9.1C21,67.3,22,67.3,23.5,67.3L23.5,67.3z"/>
			</g>
			<g>
				<path class="st0" d="M37.7,55.8c-0.6,0-2.3,0-2.3,0v2.3h1.4l0.3,0.8"/>
				<path class="st1" d="M37.1,59l-0.3-0.7h-1.4c0,0-0.1,0-0.1,0l0,0c0,0,0,0,0-0.1l0,0v-2.3c0,0,0-0.1,0-0.1l0,0c0,0,0,0,0.1,0l0,0
					c0,0,1.7,0,2.3,0l0,0l0,0c0.1,0,0.1,0,0.1,0.1l0,0c0,0.1,0,0.1-0.1,0.1l0,0c-0.3,0-0.9,0-1.4,0l0,0c-0.3,0-0.7,0-0.8,0l0,0v2.1
					h1.3c0,0,0.1,0,0.1,0.1l0,0l0.3,0.8c0,0.1,0,0.1-0.1,0.1l0,0C37.2,59.1,37.2,59.1,37.1,59L37.1,59C37.1,59.1,37.1,59,37.1,59
					L37.1,59z"/>
			</g>
			<g>
				<polyline class="st0" points="24.4,58.4 22.2,64.6 20,64.6 20,66.4 26.4,66.4 26.4,64.6 24.9,64.6 				"/>
				<polygon class="st1" points="19.9,66.5 19.9,64.5 22.2,64.5 24.3,58.4 24.3,58.4 24.5,58.5 22.3,64.7 20.1,64.7 20.1,66.3 
					26.3,66.3 26.3,64.7 24.9,64.7 24.9,64.5 26.5,64.5 26.5,66.5 19.9,66.5 				"/>
			</g>
		</g>
	</g>
	<g>
		<path class="st3" d="M95.9,22.5V63h-3.7v-5.7c-2.4,3.9-6.3,6-11.1,6c-8.2,0-14.3-6-14.3-14.7c0-8.7,6.1-14.6,14.3-14.6
			c4.6,0,8.5,2,10.9,5.7V22.5H95.9z M92.1,48.7c0-6.7-4.6-11.2-10.7-11.2c-6.1,0-10.7,4.5-10.7,11.2c0,6.7,4.6,11.2,10.7,11.2
			C87.5,59.9,92.1,55.4,92.1,48.7z"/>
		<path class="st3" d="M128.4,45.2V63h-3.7v-4.5c-1.7,3-5.1,4.8-9.9,4.8c-6.5,0-10.5-3.4-10.5-8.4c0-4.4,2.8-8.1,11.1-8.1h9.1V45
			c0-4.9-2.8-7.6-8.1-7.6c-3.7,0-7.2,1.3-9.6,3.4l-1.7-2.9c2.9-2.5,7.2-3.9,11.7-3.9C124.2,34.1,128.4,37.8,128.4,45.2z M124.5,54.4
			v-4.7h-9c-5.6,0-7.4,2.2-7.4,5.1c0,3.3,2.7,5.4,7.3,5.4C119.8,60.2,123,58.2,124.5,54.4z"/>
		<path class="st3" d="M168.1,48.7c0,8.7-6.1,14.7-14.3,14.7c-4.8,0-8.7-2.1-11.1-6V63H139V22.5h3.9v17.3c2.4-3.7,6.3-5.7,10.9-5.7
			C162,34.1,168.1,40,168.1,48.7z M164.2,48.7c0-6.7-4.6-11.2-10.7-11.2c-6.1,0-10.7,4.5-10.7,11.2c0,6.7,4.6,11.2,10.7,11.2
			C159.6,59.9,164.2,55.4,164.2,48.7z"/>
		<path class="st3" d="M173,61c0-1,0.8-1.7,1.7-1.7c0.9,0,1.7,0.7,1.7,1.7c0,1-0.8,1.8-1.7,1.8C173.7,62.7,173,62,173,61z"/>
		<path class="st3" d="M179.4,55.5c0-4.5,3.3-7.7,7.8-7.7c2.6,0,4.7,1,5.9,3l-1.5,1c-1-1.5-2.6-2.2-4.4-2.2c-3.3,0-5.7,2.4-5.7,5.9
			c0,3.6,2.4,5.9,5.7,5.9c1.8,0,3.4-0.7,4.4-2.2l1.5,1c-1.2,2-3.4,3-5.9,3C182.6,63.2,179.4,60,179.4,55.5z"/>
		<path class="st3" d="M197.8,41.8h2V63h-2V41.8z"/>
	</g>
	<g>
		<g>
			<path class="st4" d="M75.8,70.7c-0.1,0-0.7-0.1-1.2-0.1c-0.2,0-0.7,0-1.2,0.2c-0.6,0.1-1,0.4-1.4,0.9c-0.5,0.6-0.5,1.2-0.5,1.5
				c0,0.2,0,0.8,0.5,1.3c0.4,0.5,1.1,0.5,1.3,0.5c0.8,0,1.6-0.4,2.3-0.8l-0.3,1.8c-0.8,0.3-1.3,0.5-2.2,0.5c-0.2,0-0.7,0-1.3-0.2
				c-1.4-0.5-2-1.6-2-3.1c0-0.5,0.1-1.9,1.2-2.9c1-0.9,2.2-1.2,3.5-1.2c0.4,0,0.8,0,1.5,0.2L75.8,70.7z"/>
			<path class="st4" d="M73.2,76.4c-0.2,0-0.7,0-1.3-0.2l0,0c-1.4-0.5-2-1.6-2-3.1l0,0c0-0.5,0.1-1.9,1.2-2.9l0,0
				c1-0.9,2.2-1.2,3.5-1.2l0,0c0.4,0,0.8,0,1.5,0.2l0,0l0,0l-0.2,1.5l0,0l0,0c-0.1,0-0.7-0.1-1.2-0.1l0,0c-0.2,0-0.7,0-1.2,0.2l0,0
				c-0.5,0.1-1,0.4-1.4,0.9l0,0c-0.5,0.6-0.5,1.2-0.5,1.5l0,0c0,0.2,0,0.8,0.5,1.3l0,0c0.4,0.5,1.1,0.5,1.3,0.5l0,0
				c0.8,0,1.6-0.4,2.3-0.8l0,0l0,0l-0.3,1.9C74.6,76.2,74,76.4,73.2,76.4L73.2,76.4C73.2,76.4,73.2,76.4,73.2,76.4L73.2,76.4z
				 M71,70.2c-1.1,1.1-1.2,2.4-1.2,2.9l0,0c0,1.4,0.6,2.6,2,3l0,0c0.6,0.2,1.1,0.2,1.3,0.2l0,0c0.8,0,1.4-0.2,2.2-0.5l0,0l0.3-1.8
				c-0.7,0.4-1.5,0.8-2.3,0.8l0,0c-0.2,0-0.9,0-1.3-0.5l0,0c-0.4-0.5-0.5-1.1-0.5-1.3l0,0c0-0.3,0-0.9,0.5-1.5l0,0
				c0.4-0.5,0.8-0.8,1.4-0.9l0,0c0.5-0.1,1-0.2,1.2-0.2l0,0c0.5,0,1,0.1,1.2,0.1l0,0l0.2-1.5C75.2,69,74.9,69,74.5,69l0,0
				C73.2,69,72,69.3,71,70.2L71,70.2z M75.8,70.7L75.8,70.7L75.8,70.7L75.8,70.7z"/>
		</g>
		<g>
			<path class="st4" d="M81.5,69.2l-0.2,1.4h-2.9l-0.2,1.2h2.6l-0.2,1.5H78l-0.2,1.4h3.4L81,76.1h-5.1l1-7H81.5z"/>
		</g>
		<g>
			<path class="st4" d="M84.3,69.2c0.3,0.6,0.6,1.1,0.9,1.6c0.3,0.5,0.5,1,0.8,1.5c0.3,0.5,0.5,1.1,0.8,1.6c0-0.6,0.1-1.2,0.2-1.7
				c0.1-0.5,0.1-0.9,0.2-1.4c0.1-0.5,0.2-1,0.2-1.6H89l-1,7h-1.6c-0.3-0.5-0.5-1-0.8-1.5c-0.3-0.5-0.5-0.9-0.7-1.4
				c-0.3-0.6-0.6-1.3-0.9-2c0,0.5-0.1,1-0.1,1.6c-0.1,0.6-0.2,1.1-0.2,1.7c-0.1,0.5-0.2,1-0.2,1.5h-1.6l1-7L84.3,69.2z"/>
		</g>
		<g>
			<path class="st4" d="M94.9,69.2l-0.2,1.4h-1.9L92,76.1h-1.7l0.8-5.5h-1.9l0.2-1.4H94.9z"/>
		</g>
		<g>
			<path class="st4" d="M97.7,69.2c0.3,0,0.6,0,0.9,0.1c0.8,0.3,1.3,1.1,1.3,1.9c0,0.3-0.1,1.1-0.8,1.6c-0.2,0.1-0.3,0.2-0.6,0.3
				c0.4,0.3,0.5,0.4,0.8,0.8l0.9,1.8l0.2,0.4h-1.9l-0.9-2c-0.1-0.2-0.2-0.5-0.4-0.6c-0.3-0.3-0.6-0.3-0.7-0.3L96,76.1h-1.7l1-7H97.7
				z M96.6,72.1c0.5,0,0.8,0,1-0.1c0.1,0,0.2-0.1,0.3-0.2c0.1-0.1,0.3-0.3,0.3-0.6c0-0.2-0.1-0.3-0.2-0.5c-0.3-0.4-0.8-0.3-1.3-0.3
				L96.6,72.1z"/>
		</g>
		<g>
			<path class="st4" d="M101.7,70.2c0.4-0.4,1.3-1.2,2.9-1.2c1.4,0,2.1,0.6,2.5,1c0.2,0.2,0.6,0.6,0.8,1.4c0.1,0.4,0.1,0.7,0.1,0.9
				c0,0.6-0.1,2.2-1.6,3.4c-0.4,0.3-0.8,0.5-1.3,0.7c-0.3,0.1-0.7,0.1-1,0.1c-1,0-2-0.3-2.7-1.1c-0.3-0.4-0.7-1-0.7-2
				C100.7,72.7,100.8,71.3,101.7,70.2z M102.5,73.7c0.2,0.8,0.8,1.2,1.6,1.2c0.4,0,1-0.1,1.6-0.8c0.5-0.7,0.6-1.5,0.6-1.8
				c0-0.6-0.2-0.9-0.4-1.1c-0.3-0.4-0.8-0.6-1.3-0.6c-0.2,0-0.5,0-0.9,0.2c-0.9,0.4-1.4,1.3-1.4,2.3
				C102.4,73.2,102.4,73.4,102.5,73.7z"/>
		</g>
		<g>
			<path class="st4" d="M116.3,69.2l-0.2,1.4h-2.6l-0.2,1.3h2.3l-0.2,1.5h-2.3l-0.4,2.7H111l1.1-7H116.3z"/>
		</g>
		<g>
			<path class="st4" d="M121.5,69.2l-0.2,1.4h-2.9l-0.2,1.2h2.6l-0.2,1.5H118l-0.2,1.4h3.4l-0.2,1.5h-5.1l1-7H121.5z"/>
		</g>
		<g>
			<path class="st4" d="M125,69.2c0.3,0,0.6,0,0.9,0.1c0.8,0.3,1.3,1.1,1.3,1.9c0,0.3-0.1,1.1-0.8,1.6c-0.2,0.1-0.3,0.2-0.6,0.3
				c0.4,0.3,0.5,0.4,0.8,0.8l0.9,1.8l0.2,0.4h-1.9l-0.9-2c-0.1-0.2-0.2-0.5-0.4-0.6c-0.3-0.3-0.6-0.3-0.7-0.3l-0.4,2.9h-1.7l1-7H125
				z M123.9,72.1c0.5,0,0.8,0,1-0.1c0.1,0,0.2-0.1,0.3-0.2c0.1-0.1,0.3-0.3,0.3-0.6c0-0.2-0.1-0.3-0.2-0.5c-0.3-0.4-0.8-0.3-1.3-0.3
				L123.9,72.1z"/>
		</g>
		<g>
			<path class="st4" d="M131.1,69.2c0.3,0,0.6,0,0.9,0.1c0.8,0.3,1.3,1.1,1.3,1.9c0,0.3-0.1,1.1-0.8,1.6c-0.2,0.1-0.3,0.2-0.6,0.3
				c0.4,0.3,0.5,0.4,0.8,0.8l0.9,1.8l0.2,0.4h-1.9l-0.9-2c-0.1-0.2-0.2-0.5-0.4-0.6c-0.3-0.3-0.6-0.3-0.7-0.3l-0.4,2.9h-1.7l1-7
				H131.1z M130,72.1c0.5,0,0.8,0,1-0.1c0.1,0,0.2-0.1,0.3-0.2c0.1-0.1,0.3-0.3,0.3-0.6c0-0.2-0.1-0.3-0.2-0.5
				c-0.3-0.4-0.8-0.3-1.2-0.3L130,72.1z"/>
		</g>
		<g>
			<path class="st4" d="M139.5,69.2l-0.2,1.4h-2.9l-0.2,1.2h2.6l-0.2,1.5H136l-0.2,1.4h3.4l-0.2,1.5h-5.1l1-7H139.5z"/>
		</g>
		<g>
			<path class="st4" d="M145.5,69.2l-0.2,1.4h-1.9l-0.9,5.5h-1.7l0.8-5.5h-1.9l0.2-1.4H145.5z"/>
		</g>
		<g>
			<path class="st4" d="M150.5,69.2l-0.2,1.4h-2.9l-0.2,1.2h2.6l-0.2,1.5H147l-0.2,1.4h3.4l-0.2,1.5h-5.1l1-7H150.5z"/>
		</g>
		<g>
			<path class="st4" d="M154,69.2c0.3,0,0.6,0,0.9,0.1c0.8,0.3,1.3,1.1,1.3,1.9c0,0.3-0.1,1.1-0.8,1.6c-0.2,0.1-0.3,0.2-0.6,0.3
				c0.4,0.3,0.5,0.4,0.8,0.8l0.9,1.8l0.2,0.4h-1.9l-0.9-2c-0.1-0.2-0.2-0.5-0.4-0.6c-0.3-0.3-0.6-0.3-0.7-0.3l-0.4,2.9h-1.7l1-7H154
				z M152.9,72.1c0.5,0,0.8,0,1-0.1c0.1,0,0.2-0.1,0.3-0.2c0.1-0.1,0.3-0.3,0.3-0.6c0-0.2-0.1-0.3-0.2-0.5c-0.3-0.4-0.8-0.3-1.3-0.3
				L152.9,72.1z"/>
		</g>
		<g>
			<path class="st4" d="M158,70.2c0.4-0.4,1.3-1.2,2.9-1.2c1.4,0,2.1,0.6,2.5,1c0.2,0.2,0.6,0.6,0.8,1.4c0.1,0.4,0.1,0.7,0.1,0.9
				c0,0.6-0.1,2.2-1.6,3.4c-0.4,0.3-0.8,0.5-1.3,0.7c-0.3,0.1-0.7,0.1-1,0.1c-1,0-2-0.3-2.7-1.1c-0.3-0.4-0.7-1-0.7-2
				C157,72.7,157,71.3,158,70.2z M158.8,73.7c0.2,0.8,0.8,1.2,1.6,1.2c0.4,0,1-0.1,1.6-0.8c0.6-0.7,0.6-1.5,0.6-1.8
				c0-0.6-0.2-0.9-0.4-1.1c-0.3-0.4-0.8-0.6-1.3-0.6c-0.2,0-0.5,0-0.9,0.2c-0.9,0.4-1.4,1.3-1.4,2.3
				C158.7,73.2,158.7,73.4,158.8,73.7z"/>
		</g>
		<g>
			<rect x="169" y="68.7" class="st3" width="31" height="7.9"/>
			<polygon class="st0" points="176.8,69.6 175.4,75.7 178.5,75.7 178.9,72.3 180.2,75.7 182.1,75.7 183.4,72.3 183.9,75.7 
				186.9,75.7 185.4,69.6 182.3,69.6 181.1,72.7 180,69.6 			"/>
			<polygon class="st0" points="186.1,69.6 192.6,69.6 192.6,71.6 190.9,71.6 190.9,75.7 187.8,75.7 187.8,71.6 186.1,71.6 			"/>
			<polygon class="st0" points="171.8,73.4 169.7,73.4 169.7,71.9 169.9,71.9 169.9,73.1 170.6,73.1 170.6,71.9 170.8,71.9 
				170.8,73.1 171.5,73.1 171.5,71.8 171.8,71.8 			"/>
			<path class="st0" d="M192.6,75.2c0.8,0.2,1.8,0.4,1.8,0.4c0.6,0.1,0.8,0.1,1.8,0.1c1,0,1.9-0.4,1.9-0.4c1-0.4,1.2-1.1,1.2-1.1
				c0.4-0.8-0.1-1.5-0.1-1.5c-0.4-0.5-1.3-0.8-1.3-0.8c-0.2-0.1-1.7-0.3-1.7-0.3c-0.4,0-0.3-0.3-0.3-0.3c0-0.3,0.9-0.2,0.9-0.2
				c0.4,0,1.4,0.5,1.4,0.5l0.9-1.6c-0.8-0.4-2.3-0.5-2.3-0.5c-1.2-0.1-2.4,0.3-2.4,0.3c-1.7,0.6-1.6,1.9-1.6,1.9
				c0,0.4,0.2,0.9,0.7,1.2c0.7,0.4,1.7,0.5,1.8,0.5c0.5,0,0.8,0.1,0.8,0.1c0.4,0.1,0.1,0.4,0.1,0.4c-0.2,0.1-0.6,0.1-0.6,0.1
				c-1,0.1-2.1-0.6-2.1-0.6L192.6,75.2z"/>
			<path class="st0" d="M170.6,75.3v-0.6c0-0.1,0-0.2,0-0.3c0-0.1-0.1-0.1-0.1-0.2c-0.1,0-0.1-0.1-0.2-0.1c-0.1,0-0.2,0-0.2,0.1
				c-0.1,0.1-0.1,0.2-0.1,0.3v0.7H170.6z M171.8,75.6h-2.1v-0.9c0-0.2,0-0.3,0.1-0.4c0-0.1,0.1-0.2,0.2-0.2c0.1-0.1,0.2-0.1,0.3-0.1
				c0.1,0,0.3,0,0.4,0.1c0.1,0.1,0.2,0.2,0.2,0.4c0-0.1,0.1-0.1,0.1-0.2c0.1-0.1,0.2-0.2,0.3-0.2l0.6-0.4v0.3l-0.4,0.3
				c-0.1,0.1-0.2,0.1-0.3,0.2c-0.1,0.1-0.1,0.1-0.1,0.1c0,0,0,0.1-0.1,0.1c0,0,0,0.1,0,0.2v0.3h0.9V75.6z"/>
			<path class="st0" d="M171.5,71.1v-0.4c0-0.1,0-0.2,0-0.3c0-0.1-0.1-0.1-0.1-0.2c-0.1-0.1-0.2-0.1-0.3-0.2c-0.1,0-0.2-0.1-0.4-0.1
				c-0.2,0-0.4,0-0.5,0.1c-0.1,0.1-0.2,0.2-0.2,0.3c0,0.1,0,0.2,0,0.4v0.4H171.5z M171.8,71.3h-2.1v-0.7c0-0.2,0-0.3,0-0.4
				c0-0.1,0.1-0.2,0.1-0.3c0.1-0.1,0.2-0.2,0.4-0.2c0.1-0.1,0.3-0.1,0.5-0.1c0.2,0,0.3,0,0.4,0.1c0.1,0,0.2,0.1,0.3,0.1
				c0.1,0.1,0.1,0.1,0.2,0.2c0,0.1,0.1,0.2,0.1,0.2c0,0.1,0,0.2,0,0.3V71.3z"/>
		</g>
	</g>
</g>
</svg>
