<?xml version="1.0" encoding="utf-8"?>
<!-- Generator: Adobe Illustrator 24.0.3, SVG Export Plug-In . SVG Version: 6.00 Build 0)  -->
<svg version="1.1" id="Capa_1" xmlns="http://www.w3.org/2000/svg" xmlns:xlink="http://www.w3.org/1999/xlink" x="0px" y="0px"
	 width="200px" height="100px" viewBox="0 0 200 100" style="enable-background:new 0 0 200 100;" xml:space="preserve">
<style type="text/css">
	.st0{fill:#CF3339;}
	.st1{fill:#6F7271;}
	.st2{fill:#FFFFFF;}
	.st3{fill:#FDFFFF;}
	.st4{fill:#E21F28;}
	.st5{fill:none;stroke:#FFFFFF;stroke-width:0.032;stroke-miterlimit:3.864;}
</style>
<g>
	<path class="st0" d="M50.731,27.569v-8.334l9.657-0.067v8.401h11.335v7.678H60.388V53.23c0,2.94,0.463,5.019,1.392,6.232
		c0.927,1.215,2.551,1.822,4.874,1.822c2.319,0,4.486-0.612,6.496-1.835v8.785c-2.241,0.764-5.437,1.147-9.586,1.147
		c-4.125,0-7.293-1.159-9.51-3.472c-2.215-2.314-3.323-5.604-3.323-9.875V35.246"/>
	<path class="st0" d="M83.946,48.636c0,9.021,3.282,13.53,9.845,13.53c3.01,0,5.396-1.172,7.16-3.518
		c1.764-2.341,2.643-5.682,2.643-10.013c0-8.893-3.268-13.34-9.803-13.34c-3.013,0-5.404,1.171-7.182,3.516
		C84.833,41.156,83.946,44.431,83.946,48.636 M73.953,48.636c0-6.257,1.816-11.352,5.45-15.285c3.634-3.934,8.43-5.901,14.388-5.901
		c6.265,0,11.13,1.891,14.597,5.668c3.466,3.781,5.198,8.953,5.198,15.517c0,6.538-1.764,11.735-5.296,15.591
		c-3.528,3.857-8.362,5.785-14.499,5.785c-6.267,0-11.139-1.949-14.618-5.844C75.693,60.277,73.953,55.097,73.953,48.636"/>
	<path class="st0" d="M114.827,66.608l3.43-7.613c2.88,2.281,6.128,3.421,9.753,3.421c3.75,0,5.628-1.33,5.628-3.991
		c0-1.562-0.569-2.839-1.699-3.839c-1.132-1-3.329-2.176-6.596-3.535c-7.122-2.935-10.683-7.048-10.683-12.336
		c0-3.551,1.358-6.316,4.083-8.294c2.722-1.981,6.2-2.971,10.438-2.971c4.288,0,8.32,0.955,12.097,2.862l-2.779,7.403
		c-2.109-1.78-5.041-2.671-8.796-2.671c-3.368,0-5.052,1.332-5.052,3.993c0,1.05,0.552,1.996,1.658,2.842
		c1.104,0.844,3.471,1.976,7.096,3.396c3.629,1.422,6.236,3.14,7.83,5.158c1.596,2.017,2.393,4.457,2.393,7.316
		c0,3.806-1.419,6.802-4.254,8.987c-2.838,2.184-6.694,3.276-11.573,3.276c-2.744,0-4.946-0.226-6.601-0.672
		C119.543,68.897,117.418,67.984,114.827,66.608"/>
	<path class="st0" d="M154.687,48.636c0,9.021,3.28,13.53,9.845,13.53c3.009,0,5.397-1.172,7.159-3.518
		c1.765-2.341,2.646-5.682,2.646-10.013c0-8.893-3.267-13.34-9.804-13.34c-3.013,0-5.406,1.171-7.182,3.516
		C155.575,41.156,154.687,44.431,154.687,48.636 M144.694,48.636c0-6.257,1.816-11.352,5.452-15.285
		c3.633-3.934,8.428-5.901,14.387-5.901c6.265,0,11.131,1.891,14.598,5.668c3.466,3.781,5.198,8.953,5.198,15.517
		c0,6.538-1.765,11.735-5.295,15.591c-3.532,3.857-8.366,5.785-14.501,5.785c-6.267,0-11.139-1.949-14.618-5.844
		C146.433,60.277,144.694,55.097,144.694,48.636"/>
	<g>
		<path class="st1" d="M53.061,80.832v-5.508h1.372l0.827,3.761l0.82-3.761h1.379v5.508h-0.855v-4.34l-0.906,4.34h-0.883
			l-0.899-4.34v4.34H53.061z"/>
		<path class="st1" d="M62.231,80.832h-0.995l-0.398-1.247h-1.82l-0.376,1.247h-0.975l1.77-5.508h0.972L62.231,80.832z
			 M60.543,78.653l-0.627-2.044L59.3,78.653H60.543z M59.464,74.955l0.428-1.123h0.982l-0.857,1.123H59.464z"/>
		<path class="st1" d="M62.257,79.036l0.896-0.105c0.101,0.704,0.431,1.056,0.99,1.056c0.278,0,0.495-0.072,0.654-0.216
			c0.159-0.144,0.238-0.323,0.238-0.535c0-0.125-0.028-0.231-0.083-0.319c-0.055-0.088-0.14-0.16-0.253-0.216
			c-0.113-0.056-0.388-0.151-0.824-0.283c-0.391-0.118-0.677-0.245-0.858-0.383c-0.181-0.138-0.326-0.319-0.433-0.543
			c-0.107-0.224-0.161-0.465-0.161-0.723c0-0.301,0.068-0.571,0.206-0.811c0.137-0.24,0.327-0.422,0.569-0.544
			c0.242-0.123,0.54-0.184,0.896-0.184c0.535,0,0.952,0.144,1.252,0.432c0.3,0.288,0.459,0.7,0.476,1.236l-0.919,0.049
			c-0.04-0.295-0.127-0.502-0.261-0.62c-0.134-0.118-0.324-0.177-0.571-0.177c-0.247,0-0.438,0.051-0.571,0.154
			c-0.134,0.102-0.2,0.23-0.2,0.382c0,0.15,0.06,0.276,0.182,0.378c0.121,0.102,0.4,0.215,0.836,0.338
			c0.461,0.133,0.794,0.273,1,0.419c0.205,0.147,0.362,0.336,0.471,0.567c0.108,0.232,0.162,0.513,0.162,0.843
			c0,0.479-0.148,0.88-0.444,1.206c-0.296,0.326-0.759,0.488-1.389,0.488C63.002,80.926,62.382,80.296,62.257,79.036z"/>
		<path class="st1" d="M68.257,79.036l0.896-0.105c0.101,0.704,0.431,1.056,0.99,1.056c0.278,0,0.495-0.072,0.654-0.216
			c0.159-0.144,0.238-0.323,0.238-0.535c0-0.125-0.028-0.231-0.083-0.319c-0.055-0.088-0.14-0.16-0.253-0.216
			c-0.113-0.056-0.388-0.151-0.824-0.283c-0.391-0.118-0.677-0.245-0.858-0.383c-0.181-0.138-0.326-0.319-0.433-0.543
			c-0.107-0.224-0.161-0.465-0.161-0.723c0-0.301,0.068-0.571,0.206-0.811c0.137-0.24,0.327-0.422,0.569-0.544
			c0.242-0.123,0.54-0.184,0.896-0.184c0.535,0,0.952,0.144,1.252,0.432c0.3,0.288,0.459,0.7,0.476,1.236l-0.919,0.049
			c-0.04-0.295-0.127-0.502-0.261-0.62c-0.134-0.118-0.324-0.177-0.571-0.177c-0.247,0-0.438,0.051-0.571,0.154
			c-0.134,0.102-0.2,0.23-0.2,0.382c0,0.15,0.06,0.276,0.182,0.378c0.121,0.102,0.4,0.215,0.836,0.338
			c0.461,0.133,0.794,0.273,1,0.419c0.205,0.147,0.362,0.336,0.471,0.567c0.108,0.232,0.162,0.513,0.162,0.843
			c0,0.479-0.148,0.88-0.444,1.206c-0.296,0.326-0.759,0.488-1.389,0.488C69.002,80.926,68.382,80.296,68.257,79.036z"/>
		<path class="st1" d="M72.501,80.832v-5.508h3.373v0.932h-2.457v1.221h2.283v0.928h-2.283V79.9h2.541v0.932H72.501z"/>
		<path class="st1" d="M76.511,80.832v-5.508h1.932c0.494,0,0.847,0.049,1.058,0.149c0.212,0.099,0.386,0.27,0.522,0.515
			c0.136,0.244,0.204,0.537,0.204,0.877c0,0.431-0.104,0.778-0.312,1.041c-0.209,0.263-0.504,0.428-0.887,0.496
			c0.197,0.14,0.359,0.294,0.488,0.46c0.128,0.166,0.304,0.465,0.525,0.896l0.552,1.075h-1.095l-0.664-1.199
			c-0.239-0.433-0.401-0.705-0.487-0.814c-0.086-0.109-0.177-0.184-0.272-0.225c-0.096-0.041-0.25-0.062-0.461-0.062h-0.189v2.299
			H76.511z M77.426,77.653h0.68c0.416,0,0.68-0.018,0.794-0.054c0.113-0.036,0.205-0.11,0.276-0.22
			c0.07-0.11,0.106-0.257,0.106-0.439c0-0.175-0.036-0.316-0.106-0.423c-0.07-0.107-0.166-0.18-0.288-0.22
			c-0.085-0.028-0.334-0.041-0.744-0.041h-0.718V77.653z"/>
		<path class="st1" d="M82.254,80.832l-1.626-5.508h0.995l1.151,4.077l1.114-4.077h0.975l-1.63,5.508H82.254z"/>
		<path class="st1" d="M85.297,80.832v-5.508h0.915v5.508H85.297z"/>
		<path class="st1" d="M90.001,78.807l0.888,0.342c-0.139,0.616-0.369,1.067-0.692,1.351c-0.323,0.284-0.72,0.427-1.191,0.427
			c-0.592,0-1.073-0.227-1.44-0.68c-0.423-0.524-0.635-1.23-0.635-2.119c0-0.939,0.213-1.675,0.639-2.206
			c0.371-0.461,0.87-0.691,1.495-0.691c0.509,0,0.936,0.173,1.279,0.518c0.245,0.246,0.424,0.61,0.537,1.093l-0.908,0.263
			c-0.058-0.298-0.174-0.527-0.346-0.686c-0.173-0.159-0.377-0.239-0.612-0.239c-0.336,0-0.61,0.145-0.822,0.436
			c-0.212,0.291-0.318,0.771-0.318,1.439c0,0.694,0.103,1.187,0.31,1.48c0.207,0.293,0.476,0.44,0.805,0.44
			c0.242,0,0.451-0.093,0.627-0.28C89.795,79.509,89.922,79.212,90.001,78.807z"/>
		<path class="st1" d="M91.645,80.832v-5.508h0.915v5.508H91.645z"/>
		<path class="st1" d="M93.252,78.112c0-0.656,0.098-1.197,0.293-1.621c0.195-0.424,0.451-0.741,0.766-0.949
			c0.315-0.208,0.697-0.312,1.145-0.312c0.65,0,1.18,0.247,1.59,0.74c0.41,0.494,0.614,1.196,0.614,2.108
			c0,0.922-0.217,1.642-0.65,2.161c-0.381,0.458-0.898,0.688-1.551,0.688c-0.657,0-1.177-0.227-1.557-0.68
			C93.469,79.727,93.252,79.016,93.252,78.112z M94.197,78.074c0,0.634,0.121,1.109,0.364,1.426
			c0.242,0.317,0.543,0.475,0.901,0.475c0.36,0,0.66-0.157,0.897-0.471c0.237-0.314,0.356-0.797,0.356-1.449
			c0-0.639-0.116-1.111-0.347-1.417c-0.231-0.306-0.533-0.458-0.906-0.458c-0.374,0-0.678,0.154-0.913,0.462
			C94.314,76.951,94.197,77.428,94.197,78.074z"/>
		<path class="st1" d="M98.148,79.036l0.896-0.105c0.101,0.704,0.431,1.056,0.99,1.056c0.278,0,0.496-0.072,0.654-0.216
			c0.159-0.144,0.238-0.323,0.238-0.535c0-0.125-0.028-0.231-0.083-0.319c-0.055-0.088-0.14-0.16-0.253-0.216
			c-0.113-0.056-0.388-0.151-0.824-0.283c-0.391-0.118-0.677-0.245-0.858-0.383c-0.181-0.138-0.326-0.319-0.433-0.543
			c-0.107-0.224-0.161-0.465-0.161-0.723c0-0.301,0.068-0.571,0.206-0.811c0.137-0.24,0.327-0.422,0.569-0.544
			c0.242-0.123,0.54-0.184,0.896-0.184c0.535,0,0.952,0.144,1.252,0.432c0.3,0.288,0.459,0.7,0.476,1.236l-0.919,0.049
			c-0.04-0.295-0.127-0.502-0.261-0.62c-0.134-0.118-0.324-0.177-0.571-0.177c-0.247,0-0.438,0.051-0.571,0.154
			c-0.134,0.102-0.2,0.23-0.2,0.382c0,0.15,0.06,0.276,0.182,0.378c0.121,0.102,0.4,0.215,0.836,0.338
			c0.461,0.133,0.794,0.273,1,0.419c0.205,0.147,0.362,0.336,0.471,0.567c0.108,0.232,0.162,0.513,0.162,0.843
			c0,0.479-0.148,0.88-0.444,1.206c-0.296,0.326-0.759,0.488-1.389,0.488C98.894,80.926,98.274,80.296,98.148,79.036z"/>
		<path class="st1" d="M102.586,79.776h0.87v0.755c0,0.428-0.05,0.746-0.151,0.955c-0.124,0.258-0.331,0.449-0.621,0.575
			l-0.17-0.436c0.171-0.07,0.295-0.165,0.37-0.284c0.076-0.119,0.116-0.289,0.121-0.509h-0.42V79.776z"/>
		<path class="st1" d="M106.133,80.832v-5.508h1.372l0.827,3.761l0.82-3.761h1.379v5.508h-0.855v-4.34l-0.906,4.34h-0.883l-0.9-4.34
			v4.34H106.133z"/>
		<path class="st1" d="M111.437,80.832v-5.508h3.373v0.932h-2.458v1.221h2.283v0.928h-2.283V79.9h2.541v0.932H111.437z"/>
		<path class="st1" d="M117.313,75.324h0.915v3.487c0,0.564-0.057,0.983-0.17,1.259c-0.114,0.276-0.283,0.487-0.509,0.635
			c-0.226,0.148-0.504,0.222-0.834,0.222c-0.436,0-0.777-0.149-1.025-0.447c-0.247-0.298-0.372-0.748-0.374-1.349l0.866-0.12
			c0.01,0.323,0.052,0.552,0.125,0.688c0.099,0.186,0.246,0.278,0.444,0.278c0.192,0,0.334-0.067,0.425-0.201
			c0.091-0.134,0.136-0.431,0.136-0.892V75.324z"/>
		<path class="st1" d="M119.014,78.112c0-0.656,0.098-1.197,0.293-1.621c0.195-0.424,0.451-0.741,0.766-0.949
			c0.315-0.208,0.697-0.312,1.145-0.312c0.65,0,1.18,0.247,1.59,0.74c0.41,0.494,0.614,1.196,0.614,2.108
			c0,0.922-0.217,1.642-0.65,2.161c-0.381,0.458-0.898,0.688-1.551,0.688c-0.657,0-1.177-0.227-1.557-0.68
			C119.231,79.727,119.014,79.016,119.014,78.112z M119.96,78.074c0,0.634,0.121,1.109,0.364,1.426
			c0.242,0.317,0.543,0.475,0.901,0.475c0.36,0,0.66-0.157,0.897-0.471c0.237-0.314,0.356-0.797,0.356-1.449
			c0-0.639-0.116-1.111-0.347-1.417c-0.231-0.306-0.533-0.458-0.906-0.458c-0.374,0-0.678,0.154-0.913,0.462
			C120.077,76.951,119.96,77.428,119.96,78.074z"/>
		<path class="st1" d="M124.145,80.832v-5.508h1.932c0.494,0,0.847,0.049,1.058,0.149c0.212,0.099,0.386,0.27,0.522,0.515
			c0.136,0.244,0.204,0.537,0.204,0.877c0,0.431-0.104,0.778-0.312,1.041c-0.209,0.263-0.504,0.428-0.887,0.496
			c0.197,0.14,0.359,0.294,0.488,0.46c0.128,0.166,0.304,0.465,0.525,0.896l0.552,1.075h-1.095l-0.664-1.199
			c-0.239-0.433-0.401-0.705-0.487-0.814c-0.086-0.109-0.177-0.184-0.272-0.225c-0.096-0.041-0.25-0.062-0.461-0.062h-0.189v2.299
			H124.145z M125.06,77.653h0.68c0.416,0,0.68-0.018,0.794-0.054c0.113-0.036,0.205-0.11,0.276-0.22
			c0.07-0.11,0.106-0.257,0.106-0.439c0-0.175-0.035-0.316-0.106-0.423c-0.07-0.107-0.166-0.18-0.288-0.22
			c-0.085-0.028-0.334-0.041-0.744-0.041h-0.718V77.653z"/>
		<path class="st1" d="M128.727,80.832v-5.508h3.373v0.932h-2.458v1.221h2.283v0.928h-2.283V79.9h2.541v0.932H128.727z"/>
		<path class="st1" d="M132.728,79.036l0.896-0.105c0.101,0.704,0.431,1.056,0.99,1.056c0.278,0,0.496-0.072,0.654-0.216
			c0.159-0.144,0.238-0.323,0.238-0.535c0-0.125-0.028-0.231-0.083-0.319c-0.055-0.088-0.14-0.16-0.253-0.216
			c-0.113-0.056-0.388-0.151-0.824-0.283c-0.391-0.118-0.677-0.245-0.858-0.383c-0.181-0.138-0.326-0.319-0.433-0.543
			c-0.107-0.224-0.161-0.465-0.161-0.723c0-0.301,0.068-0.571,0.206-0.811c0.137-0.24,0.327-0.422,0.569-0.544
			c0.242-0.123,0.54-0.184,0.896-0.184c0.535,0,0.952,0.144,1.252,0.432c0.3,0.288,0.459,0.7,0.476,1.236l-0.919,0.049
			c-0.04-0.295-0.127-0.502-0.261-0.62c-0.134-0.118-0.324-0.177-0.571-0.177c-0.247,0-0.438,0.051-0.571,0.154
			c-0.134,0.102-0.2,0.23-0.2,0.382c0,0.15,0.06,0.276,0.182,0.378c0.121,0.102,0.4,0.215,0.836,0.338
			c0.461,0.133,0.794,0.273,1,0.419c0.205,0.147,0.362,0.336,0.471,0.567c0.108,0.232,0.162,0.513,0.162,0.843
			c0,0.479-0.148,0.88-0.444,1.206c-0.296,0.326-0.759,0.488-1.389,0.488C133.473,80.926,132.853,80.296,132.728,79.036z"/>
		<path class="st1" d="M138.728,79.036l0.896-0.105c0.101,0.704,0.431,1.056,0.99,1.056c0.278,0,0.496-0.072,0.654-0.216
			c0.159-0.144,0.238-0.323,0.238-0.535c0-0.125-0.028-0.231-0.083-0.319c-0.055-0.088-0.14-0.16-0.253-0.216
			c-0.113-0.056-0.388-0.151-0.824-0.283c-0.391-0.118-0.677-0.245-0.858-0.383c-0.181-0.138-0.326-0.319-0.433-0.543
			c-0.107-0.224-0.161-0.465-0.161-0.723c0-0.301,0.068-0.571,0.206-0.811c0.137-0.24,0.327-0.422,0.569-0.544
			c0.242-0.123,0.54-0.184,0.896-0.184c0.535,0,0.952,0.144,1.252,0.432c0.3,0.288,0.459,0.7,0.476,1.236l-0.919,0.049
			c-0.04-0.295-0.127-0.502-0.261-0.62c-0.134-0.118-0.324-0.177-0.571-0.177c-0.247,0-0.438,0.051-0.571,0.154
			c-0.134,0.102-0.2,0.23-0.2,0.382c0,0.15,0.06,0.276,0.182,0.378c0.121,0.102,0.4,0.215,0.836,0.338
			c0.461,0.133,0.794,0.273,1,0.419c0.205,0.147,0.362,0.336,0.471,0.567c0.108,0.232,0.163,0.513,0.163,0.843
			c0,0.479-0.148,0.88-0.444,1.206c-0.296,0.326-0.759,0.488-1.389,0.488C139.473,80.926,138.853,80.296,138.728,79.036z"/>
		<path class="st1" d="M143.007,78.112c0-0.656,0.098-1.197,0.293-1.621c0.195-0.424,0.451-0.741,0.766-0.949
			c0.315-0.208,0.697-0.312,1.145-0.312c0.65,0,1.18,0.247,1.59,0.74c0.41,0.494,0.614,1.196,0.614,2.108
			c0,0.922-0.217,1.642-0.65,2.161c-0.381,0.458-0.898,0.688-1.551,0.688c-0.657,0-1.177-0.227-1.557-0.68
			C143.224,79.727,143.007,79.016,143.007,78.112z M143.953,78.074c0,0.634,0.121,1.109,0.364,1.426
			c0.242,0.317,0.543,0.475,0.901,0.475c0.36,0,0.66-0.157,0.897-0.471c0.237-0.314,0.356-0.797,0.356-1.449
			c0-0.639-0.116-1.111-0.347-1.417c-0.231-0.306-0.533-0.458-0.906-0.458c-0.374,0-0.678,0.154-0.913,0.462
			C144.07,76.951,143.953,77.428,143.953,78.074z"/>
		<path class="st1" d="M148.161,80.832v-5.463h0.914V79.9h2.284v0.932H148.161z"/>
		<path class="st1" d="M152.006,75.324h0.915v2.983c0,0.463,0.011,0.765,0.034,0.905c0.04,0.243,0.138,0.431,0.29,0.564
			c0.153,0.133,0.354,0.199,0.604,0.199c0.212,0,0.385-0.047,0.519-0.141c0.134-0.094,0.225-0.224,0.274-0.391
			c0.049-0.166,0.074-0.524,0.074-1.073v-3.047h0.915v2.893c0,0.739-0.04,1.273-0.12,1.603c-0.079,0.329-0.258,0.596-0.537,0.8
			c-0.279,0.204-0.646,0.306-1.102,0.306c-0.474,0-0.843-0.085-1.109-0.254c-0.266-0.169-0.459-0.407-0.579-0.714
			c-0.12-0.307-0.179-0.872-0.179-1.697V75.324z"/>
		<path class="st1" d="M159.507,78.807l0.888,0.342c-0.139,0.616-0.369,1.067-0.692,1.351c-0.323,0.284-0.72,0.427-1.191,0.427
			c-0.592,0-1.073-0.227-1.44-0.68c-0.423-0.524-0.635-1.23-0.635-2.119c0-0.939,0.213-1.675,0.639-2.206
			c0.371-0.461,0.87-0.691,1.495-0.691c0.509,0,0.936,0.173,1.279,0.518c0.245,0.246,0.424,0.61,0.537,1.093l-0.908,0.263
			c-0.058-0.298-0.174-0.527-0.346-0.686c-0.173-0.159-0.377-0.239-0.612-0.239c-0.336,0-0.61,0.145-0.822,0.436
			c-0.212,0.291-0.318,0.771-0.318,1.439c0,0.694,0.103,1.187,0.31,1.48c0.207,0.293,0.476,0.44,0.805,0.44
			c0.242,0,0.451-0.093,0.628-0.28C159.301,79.509,159.428,79.212,159.507,78.807z"/>
		<path class="st1" d="M161.151,80.832v-5.508h0.915v5.508H161.151z"/>
		<path class="st1" d="M162.758,78.112c0-0.656,0.098-1.197,0.293-1.621c0.195-0.424,0.451-0.741,0.766-0.949
			c0.315-0.208,0.697-0.312,1.145-0.312c0.651,0,1.18,0.247,1.59,0.74c0.41,0.494,0.614,1.196,0.614,2.108
			c0,0.922-0.217,1.642-0.65,2.161c-0.381,0.458-0.898,0.688-1.551,0.688c-0.657,0-1.177-0.227-1.557-0.68
			C162.975,79.727,162.758,79.016,162.758,78.112z M163.703,78.074c0,0.634,0.121,1.109,0.364,1.426
			c0.242,0.317,0.543,0.475,0.901,0.475c0.36,0,0.66-0.157,0.897-0.471c0.237-0.314,0.356-0.797,0.356-1.449
			c0-0.639-0.116-1.111-0.347-1.417c-0.231-0.306-0.533-0.458-0.906-0.458c-0.374,0-0.678,0.154-0.913,0.462
			C163.82,76.951,163.703,77.428,163.703,78.074z"/>
		<path class="st1" d="M167.896,80.832v-5.508h0.893l1.86,3.678v-3.678h0.855v5.508h-0.923l-1.83-3.592v3.592H167.896z"/>
		<path class="st1" d="M172.471,80.832v-5.508h3.373v0.932h-2.458v1.221h2.283v0.928h-2.283V79.9h2.541v0.932H172.471z"/>
		<path class="st1" d="M176.472,79.036l0.896-0.105c0.101,0.704,0.431,1.056,0.99,1.056c0.278,0,0.496-0.072,0.654-0.216
			c0.159-0.144,0.238-0.323,0.238-0.535c0-0.125-0.028-0.231-0.083-0.319c-0.055-0.088-0.14-0.16-0.253-0.216
			c-0.113-0.056-0.388-0.151-0.824-0.283c-0.391-0.118-0.677-0.245-0.858-0.383c-0.181-0.138-0.326-0.319-0.433-0.543
			c-0.107-0.224-0.161-0.465-0.161-0.723c0-0.301,0.068-0.571,0.206-0.811c0.137-0.24,0.327-0.422,0.569-0.544
			c0.242-0.123,0.54-0.184,0.896-0.184c0.535,0,0.952,0.144,1.252,0.432c0.3,0.288,0.459,0.7,0.476,1.236l-0.919,0.049
			c-0.04-0.295-0.127-0.502-0.261-0.62c-0.134-0.118-0.324-0.177-0.571-0.177c-0.247,0-0.438,0.051-0.571,0.154
			c-0.134,0.102-0.2,0.23-0.2,0.382c0,0.15,0.06,0.276,0.182,0.378c0.121,0.102,0.4,0.215,0.836,0.338
			c0.461,0.133,0.794,0.273,1,0.419c0.205,0.147,0.362,0.336,0.471,0.567c0.108,0.232,0.162,0.513,0.162,0.843
			c0,0.479-0.148,0.88-0.444,1.206c-0.296,0.326-0.759,0.488-1.389,0.488C177.217,80.926,176.597,80.296,176.472,79.036z"/>
	</g>
	<path class="st1" d="M17.173,70.279l3.14-16.041l0.137-2.51c0,0-0.754-1.073-1.165-3.03c0,0-0.514-1.277,0.274-2.587
		c0,0,0.685-1.294,2.517-2.622l-0.034-1.583c0,0-0.634-0.493-0.925-1.174c0,0-1.885-0.153-2.158-1.48c0,0-0.31-1.192,1.266-2.723
		c0,0,0.481-0.46,1.867-1.192c0,0,0.942-0.561,1.148-0.8c0,0,1.32-0.988,2.895-1.141c0,0-2.98-0.612-4.026-2.144
		c0,0-0.666,0.017-1.215-1.073l-0.771,1.277c0,0-1.353,0.29-1.73-1.021l1.302-2.843c0,0-1.542-4.766,0.96-8.459
		c0,0,2.277-3.286,6.063-3.711c0,0,5.292-0.647,7.125,4.425c0,0,6.268,1.362,0.393,4.477c0,0,1.183,7.949-4.573,9.328
		c0,0,1.335,0.554,1.994,1.239c0,0,0.849,0.871,1.911,1.042c0,0,0.925,0.324,1.165,0.528l0.137-0.187l2.191-0.562
		c0,0,0.479,0,0.428-0.732c0,0-0.256-0.392,0-1.004l0.514-0.869c0,0,0.428-0.273,1.045-0.085c0,0-1.473-2.707,0.223-3.354
		l1.419-2.146c0,0,0.036,1.006,4.147,0.444c0,0-0.522,2.729,1.841,3.921l-1.927,3.706c0,0-0.034,1.225-1.473,1.021
		c0,0,0.069,0.545-0.36,0.766c0,0,0.188,0.698-0.651,0.987c0,0-0.548,0.17-0.444,0.664c0,0-0.035,0.681-1.028,0.749
		c0,0-0.411,0.784-1.301,0.596c0,0-1.32,2.945-2.364,0.902c0,0-1.336,0.459-2.192-0.851c0,0-2.74-0.119-3.323-0.375
		c0,0,0.051,0.834,0.051,1.158c0,0,0.446,0.118,0.942,0.426c0,0,3.323-1.668,4.316,0.765l0.667,6.775c0,0,2.45,2.468-0.016,3.234
		l4.401,18.06L17.173,70.279z"/>
	<path class="st2" d="M19.801,27.329c0,0-1.255-5.695,1.91-9.05c0,0,3.094-3.213,6.903-2.427c0,0,3.595,0.57,4.747,3.996
		c0,0-4.1,0.858-6.689,1.928c0,0-2.027,1.153-4.329,3.081l-0.121-0.45l-1.498,0.933L19.801,27.329z"/>
	<path class="st2" d="M18.636,30.622l2.39-5.115l1.158-0.733l0.41,1.396l-0.914,2.182c0,0-1.046,0.035-0.859,1.306l-1.01,1.627
		C19.811,31.284,18.936,31.463,18.636,30.622"/>
	<path class="st2" d="M24.356,23.859c0,0,3.45-3.161,9.697-3.716c0,0,0.835,0.156,0.905,0.26c0,0-3.063,0.104-5.448,1.367
		C29.51,21.77,25.432,24.773,24.356,23.859"/>
	<path class="st2" d="M26.857,33.532c0,0-3.61-0.822-4.365-2.269c0,0,0.305-0.106,0.305-0.339c0,0-0.989,0.661-1.402-0.41
		c0,0-0.539-1.036-0.108-1.572c0,0,0.198-0.161,0.522-0.124l0.557-1.358c0,0-0.484,1.375,0.288,2.125c0,0,0.88,1.124,0.718-0.178
		c0,0-0.071-0.41-0.195-0.768c0,0-0.289-0.803,0.124-1.106c0,0,1.023-1.126,0.772-2.929c0,0,0.179,0.231,2.263-0.554
		c0,0,1.581-0.786,2.965-1.677c0,0,2.209-0.251,4.42,1.159c0,0,1.976,8.321-4.635,10.213l0.09,0.285c0,0-0.395,0.715-1.276,0.644
		c0,0-0.52-0.089-1.096-0.75L26.857,33.532z"/>
	<path class="st1" d="M27.918,27.756c0,0-0.59-0.181-0.273-0.992c0,0,0.227-0.811,0.998-0.744c0,0,0.385,0.203,0.158,0.968
		C28.802,26.989,28.802,27.666,27.918,27.756"/>
	<path class="st1" d="M28.072,30.084c0,0,1.449,1.24,2.451,0.741c0.059-0.029,0.025,0.133,0.025,0.133s-1.74,1.747-3.08-0.575"/>
	<path class="st1" d="M33.431,25.998c0,0-0.204-0.294-0.611,0.067c0,0-0.499,0.27-0.341,1.082c0,0,0.431,0.564,0.794-0.045
		c0.362-0.607-0.046,0-0.046,0S33.68,26.629,33.431,25.998"/>
	<path class="st1" d="M27.872,23.246c0.075-0.447,0.477,0.429,0.477,0.429c0.068,0.473-0.385,0.608-0.385,0.608
		c-1.34,0.315-1.679,0.97-1.679,0.97c-0.657,0.383-0.84-0.203-0.84-0.203c-0.157-0.383,0.137-0.655,0.137-0.655
		S27.811,23.613,27.872,23.246"/>
	<path class="st1" d="M31.525,23.516c0,0-0.022-0.45,0.635-0.427c0.66,0.022,1.452,1.037,1.452,1.037s0.296,0.766-0.361,0.653
		c0,0-0.113-0.091-0.364-0.338c0,0-0.453-0.315-0.772-0.315C32.115,24.127,31.344,24.283,31.525,23.516"/>
	<path class="st1" d="M30.444,27.422c0.02,0,1.02,0.15,1.158,0.972c0,0,0.103,1.247-1.341,1.024c0,0,1.301,0.02,1.189-0.965
		C31.338,27.468,30.444,27.422,30.444,27.422"/>
	<path class="st2" d="M22.046,41.61l6.288-0.393c0,0,0.681,0.643,1.077-0.036c0,0,0.539-0.607,0.791-1.428
		c0,0,0.372-0.991-0.55-1.657c0,0-0.024-0.522,0.838-0.487c0,0,0.611,0.677,0.97,0.464c0,0,0.179-0.499-1.077-1.179
		c0,0-1.367-0.214-2.156,0.215l-1.437,1l-4.025-1.107C22.764,37.004,19.603,39.184,22.046,41.61"/>
	<path class="st2" d="M37.138,40.959c0,0-2.061,1.289-2.529-2.512c-0.127-1.026,0-0.036,0-0.036s-0.199-0.496,0.397-1.839
		l2.131-0.496c0,0,0.849-0.247,0.722-1.256c0,0-0.641-0.395,0.253-1.344c0.136-0.145,0.019-0.053,0.019-0.053
		s0.342-0.497,1.301,0.087c0,0,1.443,0.69,1.064,1.257c0,0-0.505,0.885-1.789,0.053c0,0,0.488,0.371,1.103,0.461
		C39.811,35.28,37.083,39.208,37.138,40.959"/>
	<path class="st2" d="M41.599,35.561c0,0,0.985,0.827,1.432,0.827c0,0,0.307,0.699-0.422,0.775c0,0,0.499,0.738-0.396,0.852
		c0,0-0.498,0.241-0.601,0.825c0,0,0.09,0.662-0.908,0.56c0,0-0.243,0.863-1.086,0.609c0,0-0.32-0.609,0.894-0.787
		c0,0-1.266-0.088-0.383-0.979l0.28-0.051l-0.19-0.178c0,0-0.563-1.944,1.33-1.333c0,0,0.204-0.103-0.64-0.331
		C40.908,36.349,40.781,35.689,41.599,35.561"/>
	<path class="st2" d="M39.554,29.875l1.237-2.504c0,0,0.213,0.817,4.192,0.447c0,0-0.326,2.699,1.731,4.052l-2.007,3.258
		L39.554,29.875z"/>
	<path class="st0" d="M40.842,27.105l1.623-3.652c0,0,0.428-0.153,1.195,0.122l4.164,3.135c0,0,1.163,0.731,0.491,2.161
		l-1.439,2.769c0,0-1.869-0.852-1.747-4.108C45.13,27.531,42.16,28.322,40.842,27.105"/>
	<path class="st2" d="M21.773,43.937l-1.631,1.965c0,0-0.659,1.107-0.564,2.143c0,0,0.095,1.214,0.972,3.356
		c0,0,0.971,1.679,1.975,0.036c0,0-1.442-1.141-1.474-2.643C21.02,47.295,20.738,46.438,21.773,43.937"/>
	<path class="st2" d="M33.153,50.642c0,0,2.125-1.391,3.445-1.391c0,0,1.586,0.096,1.83,2.191c0,0-1.758,2.22-6.24,0.671
		l0.086-0.279l0.879-0.38V50.642z"/>
	<path class="st2" d="M24.071,51.224c0,0-0.106-5.065-0.341-6.026l0.132-0.027l0.052-0.285c0,0-1.124-0.364-0.679-1.715
		c0,0,0.288-1.013,1.489-1.325l3.529-0.234c0,0,0.495,0.52,1.123,0.13c0,0,0.289-0.312,0.418-0.467l0.941,0.312
		c0,0,0.052,1.896-0.627,5.403c0,0,0.366,0.727,1.02,0.027c0,0,0.471-4.287,0.418-5.274c0,0,2.484,0.444,1.386,2.727l-0.237,6.91
		C32.696,51.379,27.443,54.99,24.071,51.224"/>
	<path class="st2" d="M29.368,37.958c0,0,1.277-0.593,1.473,1.4c0,0,0.433,2.18-0.275,7.746c0,0-0.276,0.639-0.669,0.037
		c0,0,0.827-5.303,0.63-6.956l-0.433-0.789C30.094,39.396,30.254,38.363,29.368,37.958"/>
	<path class="st0" d="M24.907,44.552c0,0-0.613-0.365-0.705-1.156c0,0,0.092-0.762,0.796-0.822c0,0,3.46-1.127,5.605-0.031
		c0,0,0.061,0.426-0.306,2.038c0,0-0.705,0.184-0.675,0.883c0,0,0.214,2.131-0.275,2.223c0,0-0.428,0.091-0.397-1.157
		c0,0-0.339-0.517-0.644-0.03c0,0-0.183,0.242,0.03,1.034c0,0,0.858,2.557-0.336,2.1c0,0-0.736-0.455-0.459-2.1
		c0,0,0.092-1.064-0.889-0.791c0,0-0.398-0.091-0.398,0.67c0,0-0.274,0.851-0.918,0.487c0,0-0.766-0.762-0.337-1.979
		C24.997,45.921,25.335,45.008,24.907,44.552"/>
	<path class="st0" d="M31.705,42.877c0,0,1.5,0.67,0,1.034V42.877z"/>
	<path class="st2" d="M20.628,54.577l0.066-1.946l7.159,0.653l0.026,1.855C27.878,55.139,25.429,55.572,20.628,54.577"/>
	<polygon class="st2" points="28.212,53.522 29.382,53.282 29.583,54.842 28.283,55.235 	"/>
	<path class="st2" d="M29.773,53.162l2.506-0.504c0,0,2.273,0.571,3.346,0.231l0.002,0.144l-5.764,1.306L29.773,53.162z"/>
	<path class="st2" d="M17.393,71.035l3.233-15.89c0,0,2.695,0.465,3.521,0.465L20.59,71.107L17.393,71.035z"/>
	<polygon class="st2" points="28.551,55.441 29.639,55.074 34.011,70.949 32.553,70.979 	"/>
	<polygon class="st2" points="36.5,52.892 37.244,52.687 41.671,70.606 40.777,70.606 	"/>
	<polygon class="st2" points="33.823,53.705 34.306,53.501 35.24,58.211 32.308,59.112 	"/>
	<polygon class="st2" points="31.106,61.728 38.773,58.884 38.885,59.709 31.283,62.692 	"/>
	<polygon class="st2" points="32.033,62.726 36.202,61.136 37.481,65.971 33.525,67.964 	"/>
	<polygon class="st2" points="25.837,55.689 28.109,55.689 32.171,71.017 29.692,71.085 	"/>
	<polygon class="st2" points="25.397,55.927 27.462,63.8 23.132,65.497 	"/>
	<polygon class="st2" points="22.078,70.561 22.831,67.311 27.181,65.42 25.778,70.525 	"/>
	<polygon class="st2" points="33.657,70.303 40.497,66.784 40.732,67.656 33.777,71.447 	"/>
	<rect x="15.671" y="70.168" class="st3" width="28.699" height="0.426"/>
	<polygon class="st3" points="36.129,70.553 38.467,69.25 38.843,70.62 	"/>
	<g>
		<rect x="133.54" y="82.798" class="st4" width="46.419" height="13.013"/>
		<polygon class="st2" points="139.455,84.36 137.209,94.422 142.249,94.422 143,88.892 145.211,94.422 148.246,94.422 
			150.525,88.858 151.276,94.422 156.248,94.422 153.834,84.36 148.723,84.36 146.708,89.602 144.8,84.36 		"/>
		<polygon class="st2" points="155.05,84.36 165.844,84.36 165.844,87.677 163.033,87.677 163.033,94.422 157.858,94.422 
			157.858,87.677 155.05,87.677 		"/>
		<g>
			<path class="st2" d="M178.828,93.82c0,0.153-0.102,0.231-0.25,0.231h-0.422v-0.466h0.422
				C178.726,93.584,178.828,93.667,178.828,93.82z M179.045,93.812c0-0.298-0.212-0.433-0.467-0.433h-0.639v1.446h0.217v-0.571
				h0.329l0.287,0.571h0.248l-0.294-0.59C178.924,94.189,179.045,94.045,179.045,93.812z"/>
			<path class="st5" d="M177.285,94.096c0-0.599,0.487-1.086,1.092-1.086c0.603,0,1.089,0.487,1.089,1.086
				c0,0.596-0.486,1.081-1.089,1.081C177.773,95.177,177.285,94.692,177.285,94.096z"/>
		</g>
		<path class="st2" d="M165.773,93.601c1.253,0.383,2.994,0.682,2.994,0.682c1.056,0.177,1.297,0.216,2.981,0.191
			c1.682-0.031,3.221-0.702,3.221-0.702c1.641-0.67,2.001-1.798,2.001-1.798c0.698-1.303-0.143-2.433-0.143-2.433
			c-0.587-0.87-2.159-1.269-2.159-1.269c-0.415-0.23-2.763-0.473-2.763-0.473c-0.752-0.055-0.534-0.487-0.534-0.487
			c0.027-0.511,1.48-0.41,1.582-0.41c0.735,0,2.362,0.754,2.362,0.754l1.424-2.642c-1.35-0.724-3.754-0.842-3.754-0.842
			c-2.045-0.213-3.976,0.528-3.976,0.528c-2.892,0.929-2.75,3.124-2.75,3.124c-0.034,0.655,0.343,1.488,1.109,1.947
			c1.164,0.7,2.91,0.873,2.982,0.873c0.876,0,1.31,0.202,1.31,0.202c0.661,0.197,0.171,0.698,0.171,0.698
			c-0.36,0.196-1.025,0.23-1.025,0.23c-1.696,0.114-3.554-1.075-3.554-1.075L165.773,93.601z"/>
	</g>
	<g>
		<path class="st0" d="M50.953,15.81V4.189h6.572v1.966h-4.642v2.75h4.02v1.966h-4.02v4.939H50.953z"/>
		<path class="st0" d="M59.129,15.81V4.189h7.115v1.966h-5.185v2.576h4.818v1.958h-4.818v3.155h5.36v1.966H59.129z"/>
		<path class="st0" d="M68.062,15.81V4.189h4.076c1.042,0,1.787,0.104,2.233,0.313c0.446,0.209,0.814,0.571,1.101,1.086
			s0.431,1.132,0.431,1.851c0,0.909-0.219,1.641-0.658,2.196c-0.439,0.555-1.063,0.904-1.871,1.046
			c0.415,0.296,0.758,0.62,1.029,0.971c0.271,0.352,0.641,0.982,1.109,1.891l1.165,2.267h-2.309l-1.401-2.529
			c-0.504-0.914-0.847-1.486-1.027-1.716c-0.181-0.23-0.372-0.388-0.575-0.475c-0.202-0.087-0.527-0.131-0.973-0.131h-0.399v4.851
			H68.062z M69.992,9.104h1.436c0.877,0,1.435-0.038,1.674-0.115c0.24-0.076,0.434-0.231,0.583-0.464
			c0.149-0.232,0.223-0.542,0.223-0.927c0-0.37-0.075-0.667-0.223-0.892c-0.149-0.225-0.351-0.379-0.606-0.464
			c-0.181-0.058-0.705-0.087-1.571-0.087h-1.516V9.104z"/>
		<path class="st0" d="M77.73,15.81V4.189h4.076c1.042,0,1.786,0.104,2.233,0.313c0.446,0.209,0.814,0.571,1.101,1.086
			c0.287,0.515,0.431,1.132,0.431,1.851c0,0.909-0.219,1.641-0.658,2.196c-0.439,0.555-1.063,0.904-1.871,1.046
			c0.415,0.296,0.758,0.62,1.029,0.971c0.271,0.352,0.641,0.982,1.109,1.891l1.165,2.267h-2.309l-1.401-2.529
			c-0.504-0.914-0.847-1.486-1.027-1.716c-0.181-0.23-0.372-0.388-0.575-0.475c-0.202-0.087-0.527-0.131-0.973-0.131H79.66v4.851
			H77.73z M79.66,9.104h1.436c0.877,0,1.435-0.038,1.674-0.115c0.24-0.076,0.434-0.231,0.583-0.464
			c0.149-0.232,0.223-0.542,0.223-0.927c0-0.37-0.075-0.667-0.223-0.892c-0.149-0.225-0.351-0.379-0.606-0.464
			c-0.181-0.058-0.705-0.087-1.571-0.087H79.66V9.104z"/>
		<path class="st0" d="M87.397,15.81V4.189h7.115v1.966h-5.185v2.576h4.818v1.958h-4.818v3.155h5.36v1.966H87.397z"/>
		<path class="st0" d="M98.484,15.81V6.155h-2.848V4.189h7.617v1.966h-2.839v9.655H98.484z"/>
		<path class="st0" d="M104.514,15.81V4.189h7.115v1.966h-5.185v2.576h4.818v1.958h-4.818v3.155h5.36v1.966H104.514z"/>
		<path class="st0" d="M113.447,15.81V4.189h4.076c1.042,0,1.787,0.104,2.233,0.313c0.446,0.209,0.814,0.571,1.101,1.086
			s0.431,1.132,0.431,1.851c0,0.909-0.219,1.641-0.658,2.196c-0.439,0.555-1.062,0.904-1.87,1.046
			c0.415,0.296,0.758,0.62,1.029,0.971c0.271,0.352,0.641,0.982,1.109,1.891l1.165,2.267h-2.309l-1.401-2.529
			c-0.504-0.914-0.847-1.486-1.027-1.716c-0.181-0.23-0.372-0.388-0.575-0.475c-0.202-0.087-0.527-0.131-0.973-0.131h-0.399v4.851
			H113.447z M115.378,9.104h1.436c0.877,0,1.435-0.038,1.674-0.115c0.24-0.076,0.434-0.231,0.583-0.464
			c0.149-0.232,0.223-0.542,0.223-0.927c0-0.37-0.075-0.667-0.223-0.892c-0.149-0.225-0.351-0.379-0.606-0.464
			c-0.181-0.058-0.705-0.087-1.571-0.087h-1.516V9.104z"/>
		<path class="st0" d="M123.051,15.81V4.189h1.93V15.81H123.051z"/>
		<path class="st0" d="M135.486,15.81h-2.098l-0.84-2.632h-3.838l-0.793,2.632h-2.058l3.734-11.621h2.05L135.486,15.81z
			 M131.925,11.213L130.6,6.901l-1.299,4.312H131.925z"/>
	</g>
</g>
</svg>
