<?xml version="1.0" encoding="utf-8"?>
<!-- Generator: Adobe Illustrator 24.0.3, SVG Export Plug-In . SVG Version: 6.00 Build 0)  -->
<svg version="1.1" id="Capa_1" xmlns="http://www.w3.org/2000/svg" xmlns:xlink="http://www.w3.org/1999/xlink" x="0px" y="0px"
	 width="200px" height="100px" viewBox="0 0 200 100" style="enable-background:new 0 0 200 100;" xml:space="preserve">
<style type="text/css">
	.st0{fill:#CF3339;}
	.st1{fill:#6F7271;}
	.st2{fill:#FFFFFF;}
	.st3{fill:#FDFFFF;}
	.st4{fill:#E21F28;}
	.st5{fill:none;stroke:#FFFFFF;stroke-width:0.032;stroke-miterlimit:3.864;}
	.st6{fill:#000F9F;}
	.st7{fill:url(#SVGID_1_);}
	.st8{fill:url(#SVGID_2_);}
	.st9{fill:url(#SVGID_3_);}
	.st10{fill:#C72023;}
</style>
<g>
	<path class="st0" d="M247.248,152.657v-8.334l9.657-0.067v8.401h11.335v7.678h-11.335v17.983c0,2.94,0.463,5.019,1.392,6.232
		c0.927,1.215,2.551,1.822,4.874,1.822c2.319,0,4.486-0.612,6.496-1.835v8.785c-2.241,0.764-5.437,1.147-9.586,1.147
		c-4.125,0-7.293-1.159-9.51-3.472c-2.215-2.314-3.323-5.604-3.323-9.875v-20.786"/>
	<path class="st0" d="M280.463,173.724c0,9.021,3.282,13.53,9.845,13.53c3.01,0,5.396-1.172,7.16-3.518
		c1.764-2.341,2.643-5.682,2.643-10.013c0-8.893-3.268-13.34-9.803-13.34c-3.013,0-5.404,1.171-7.182,3.516
		C281.35,166.244,280.463,169.519,280.463,173.724 M270.47,173.724c0-6.257,1.816-11.352,5.45-15.285
		c3.634-3.934,8.43-5.901,14.388-5.901c6.265,0,11.13,1.891,14.597,5.668c3.466,3.781,5.198,8.953,5.198,15.517
		c0,6.538-1.764,11.735-5.296,15.591c-3.528,3.857-8.362,5.785-14.499,5.785c-6.267,0-11.139-1.949-14.618-5.844
		C272.21,185.365,270.47,180.185,270.47,173.724"/>
	<path class="st0" d="M311.345,191.696l3.43-7.613c2.88,2.281,6.128,3.421,9.753,3.421c3.75,0,5.628-1.33,5.628-3.991
		c0-1.562-0.569-2.839-1.699-3.839c-1.132-1-3.329-2.176-6.596-3.535c-7.122-2.935-10.683-7.048-10.683-12.336
		c0-3.551,1.358-6.316,4.083-8.294c2.721-1.981,6.2-2.971,10.438-2.971c4.288,0,8.32,0.955,12.097,2.862l-2.779,7.403
		c-2.109-1.78-5.041-2.671-8.796-2.671c-3.368,0-5.052,1.332-5.052,3.993c0,1.05,0.552,1.996,1.658,2.842
		c1.104,0.844,3.471,1.976,7.096,3.396c3.629,1.422,6.236,3.14,7.83,5.158c1.596,2.017,2.393,4.457,2.393,7.316
		c0,3.806-1.419,6.802-4.254,8.987c-2.838,2.184-6.694,3.276-11.573,3.276c-2.744,0-4.946-0.226-6.601-0.672
		C316.06,193.985,313.935,193.072,311.345,191.696"/>
	<path class="st0" d="M351.204,173.724c0,9.021,3.28,13.53,9.845,13.53c3.009,0,5.397-1.172,7.159-3.518
		c1.765-2.341,2.646-5.682,2.646-10.013c0-8.893-3.267-13.34-9.804-13.34c-3.013,0-5.406,1.171-7.182,3.516
		C352.092,166.244,351.204,169.519,351.204,173.724 M341.211,173.724c0-6.257,1.816-11.352,5.452-15.285
		c3.633-3.934,8.428-5.901,14.387-5.901c6.265,0,11.131,1.891,14.598,5.668c3.466,3.781,5.198,8.953,5.198,15.517
		c0,6.538-1.765,11.735-5.295,15.591c-3.532,3.857-8.366,5.785-14.501,5.785c-6.267,0-11.139-1.949-14.618-5.844
		C342.95,185.365,341.211,180.185,341.211,173.724"/>
	<g>
		<path class="st1" d="M249.578,205.92v-5.508h1.372l0.827,3.761l0.82-3.761h1.379v5.508h-0.855v-4.34l-0.906,4.34h-0.883
			l-0.899-4.34v4.34H249.578z"/>
		<path class="st1" d="M258.748,205.92h-0.995l-0.398-1.247h-1.82l-0.376,1.247h-0.975l1.77-5.508h0.972L258.748,205.92z
			 M257.06,203.741l-0.627-2.044l-0.616,2.044H257.06z M255.981,200.043l0.428-1.123h0.982l-0.857,1.123H255.981z"/>
		<path class="st1" d="M258.774,204.124l0.896-0.105c0.101,0.704,0.431,1.056,0.99,1.056c0.278,0,0.495-0.072,0.654-0.216
			c0.159-0.144,0.238-0.323,0.238-0.535c0-0.125-0.028-0.231-0.083-0.319c-0.055-0.088-0.14-0.16-0.253-0.216
			c-0.113-0.056-0.388-0.151-0.824-0.283c-0.391-0.118-0.677-0.245-0.858-0.383c-0.181-0.138-0.326-0.319-0.433-0.543
			c-0.107-0.224-0.161-0.465-0.161-0.723c0-0.301,0.068-0.571,0.206-0.811c0.137-0.24,0.327-0.422,0.569-0.544
			c0.242-0.123,0.54-0.184,0.896-0.184c0.535,0,0.952,0.144,1.252,0.432c0.3,0.288,0.459,0.7,0.476,1.236l-0.919,0.049
			c-0.04-0.295-0.127-0.502-0.261-0.62c-0.134-0.118-0.324-0.177-0.571-0.177c-0.247,0-0.438,0.051-0.571,0.154
			c-0.134,0.102-0.201,0.23-0.201,0.382c0,0.15,0.06,0.276,0.182,0.378c0.121,0.102,0.4,0.215,0.836,0.338
			c0.461,0.133,0.794,0.273,1,0.419c0.205,0.147,0.362,0.336,0.471,0.567c0.108,0.232,0.162,0.513,0.162,0.843
			c0,0.479-0.148,0.88-0.444,1.206c-0.296,0.326-0.759,0.488-1.389,0.488C259.519,206.014,258.899,205.384,258.774,204.124z"/>
		<path class="st1" d="M264.774,204.124l0.896-0.105c0.101,0.704,0.431,1.056,0.99,1.056c0.278,0,0.495-0.072,0.654-0.216
			c0.159-0.144,0.238-0.323,0.238-0.535c0-0.125-0.028-0.231-0.083-0.319c-0.055-0.088-0.14-0.16-0.253-0.216
			c-0.113-0.056-0.388-0.151-0.824-0.283c-0.391-0.118-0.677-0.245-0.858-0.383c-0.181-0.138-0.326-0.319-0.433-0.543
			c-0.107-0.224-0.161-0.465-0.161-0.723c0-0.301,0.068-0.571,0.206-0.811c0.137-0.24,0.327-0.422,0.569-0.544
			c0.242-0.123,0.54-0.184,0.896-0.184c0.535,0,0.952,0.144,1.252,0.432c0.3,0.288,0.459,0.7,0.476,1.236l-0.919,0.049
			c-0.04-0.295-0.127-0.502-0.261-0.62c-0.134-0.118-0.324-0.177-0.571-0.177c-0.247,0-0.438,0.051-0.571,0.154
			c-0.134,0.102-0.201,0.23-0.201,0.382c0,0.15,0.06,0.276,0.182,0.378c0.121,0.102,0.4,0.215,0.836,0.338
			c0.461,0.133,0.794,0.273,1,0.419c0.205,0.147,0.362,0.336,0.471,0.567c0.108,0.232,0.162,0.513,0.162,0.843
			c0,0.479-0.148,0.88-0.444,1.206c-0.296,0.326-0.759,0.488-1.389,0.488C265.519,206.014,264.899,205.384,264.774,204.124z"/>
		<path class="st1" d="M269.018,205.92v-5.508h3.373v0.932h-2.457v1.221h2.283v0.928h-2.283v1.495h2.541v0.932H269.018z"/>
		<path class="st1" d="M273.028,205.92v-5.508h1.932c0.494,0,0.847,0.049,1.058,0.149c0.212,0.099,0.386,0.27,0.522,0.515
			c0.136,0.244,0.204,0.537,0.204,0.877c0,0.431-0.104,0.778-0.312,1.041c-0.209,0.263-0.504,0.428-0.887,0.496
			c0.197,0.14,0.359,0.294,0.488,0.46c0.128,0.166,0.304,0.465,0.525,0.896l0.552,1.075h-1.095l-0.664-1.199
			c-0.239-0.433-0.401-0.705-0.487-0.814c-0.086-0.109-0.177-0.184-0.272-0.225c-0.096-0.041-0.25-0.062-0.461-0.062h-0.189v2.299
			H273.028z M273.943,202.741h0.68c0.416,0,0.68-0.018,0.794-0.054c0.113-0.036,0.205-0.11,0.276-0.22
			c0.07-0.11,0.106-0.257,0.106-0.439c0-0.175-0.036-0.316-0.106-0.423c-0.07-0.107-0.166-0.18-0.288-0.22
			c-0.085-0.028-0.334-0.041-0.744-0.041h-0.718V202.741z"/>
		<path class="st1" d="M278.771,205.92l-1.626-5.508h0.995l1.151,4.077l1.114-4.077h0.975l-1.63,5.508H278.771z"/>
		<path class="st1" d="M281.814,205.92v-5.508h0.915v5.508H281.814z"/>
		<path class="st1" d="M286.518,203.895l0.888,0.342c-0.139,0.616-0.369,1.067-0.692,1.351c-0.323,0.284-0.72,0.427-1.191,0.427
			c-0.592,0-1.073-0.227-1.44-0.68c-0.423-0.524-0.635-1.23-0.635-2.119c0-0.939,0.213-1.675,0.639-2.206
			c0.371-0.461,0.87-0.691,1.495-0.691c0.509,0,0.936,0.173,1.279,0.518c0.245,0.246,0.424,0.61,0.537,1.093l-0.908,0.263
			c-0.058-0.298-0.174-0.527-0.346-0.686c-0.173-0.159-0.377-0.239-0.612-0.239c-0.336,0-0.61,0.145-0.822,0.436
			c-0.212,0.291-0.318,0.771-0.318,1.439c0,0.694,0.103,1.187,0.31,1.48c0.207,0.293,0.475,0.44,0.805,0.44
			c0.242,0,0.451-0.093,0.627-0.28C286.312,204.597,286.439,204.3,286.518,203.895z"/>
		<path class="st1" d="M288.162,205.92v-5.508h0.915v5.508H288.162z"/>
		<path class="st1" d="M289.769,203.2c0-0.656,0.098-1.197,0.293-1.621c0.195-0.424,0.451-0.741,0.766-0.949
			c0.315-0.208,0.697-0.312,1.145-0.312c0.65,0,1.18,0.247,1.59,0.74c0.41,0.494,0.614,1.196,0.614,2.108
			c0,0.922-0.217,1.642-0.65,2.161c-0.381,0.458-0.898,0.688-1.551,0.688c-0.657,0-1.177-0.227-1.557-0.68
			C289.986,204.815,289.769,204.104,289.769,203.2z M290.714,203.162c0,0.634,0.121,1.109,0.364,1.426
			c0.242,0.317,0.543,0.475,0.901,0.475c0.36,0,0.66-0.157,0.897-0.471c0.237-0.314,0.356-0.797,0.356-1.448
			c0-0.639-0.116-1.111-0.347-1.417c-0.231-0.306-0.533-0.458-0.906-0.458c-0.374,0-0.678,0.154-0.913,0.462
			C290.831,202.039,290.714,202.516,290.714,203.162z"/>
		<path class="st1" d="M294.665,204.124l0.896-0.105c0.101,0.704,0.431,1.056,0.99,1.056c0.278,0,0.496-0.072,0.654-0.216
			c0.159-0.144,0.238-0.323,0.238-0.535c0-0.125-0.028-0.231-0.083-0.319c-0.055-0.088-0.14-0.16-0.253-0.216
			c-0.113-0.056-0.388-0.151-0.824-0.283c-0.391-0.118-0.677-0.245-0.858-0.383c-0.181-0.138-0.326-0.319-0.433-0.543
			c-0.107-0.224-0.161-0.465-0.161-0.723c0-0.301,0.068-0.571,0.206-0.811c0.137-0.24,0.327-0.422,0.569-0.544
			c0.242-0.123,0.54-0.184,0.896-0.184c0.535,0,0.952,0.144,1.252,0.432c0.3,0.288,0.459,0.7,0.476,1.236l-0.919,0.049
			c-0.04-0.295-0.127-0.502-0.261-0.62c-0.134-0.118-0.324-0.177-0.571-0.177c-0.247,0-0.438,0.051-0.571,0.154
			c-0.134,0.102-0.2,0.23-0.2,0.382c0,0.15,0.06,0.276,0.182,0.378c0.121,0.102,0.4,0.215,0.836,0.338
			c0.461,0.133,0.794,0.273,1,0.419c0.205,0.147,0.362,0.336,0.471,0.567c0.108,0.232,0.162,0.513,0.162,0.843
			c0,0.479-0.148,0.88-0.444,1.206c-0.296,0.326-0.759,0.488-1.389,0.488C295.411,206.014,294.791,205.384,294.665,204.124z"/>
		<path class="st1" d="M299.103,204.864h0.87v0.755c0,0.428-0.05,0.746-0.151,0.955c-0.124,0.258-0.331,0.449-0.621,0.575
			l-0.17-0.436c0.171-0.07,0.295-0.165,0.37-0.284c0.076-0.119,0.116-0.289,0.121-0.509h-0.42V204.864z"/>
		<path class="st1" d="M302.65,205.92v-5.508h1.372l0.827,3.761l0.82-3.761h1.379v5.508h-0.855v-4.34l-0.906,4.34h-0.883l-0.9-4.34
			v4.34H302.65z"/>
		<path class="st1" d="M307.955,205.92v-5.508h3.373v0.932h-2.458v1.221h2.283v0.928h-2.283v1.495h2.541v0.932H307.955z"/>
		<path class="st1" d="M313.83,200.412h0.915v3.487c0,0.564-0.057,0.983-0.17,1.259c-0.114,0.276-0.283,0.487-0.509,0.635
			c-0.226,0.148-0.504,0.222-0.834,0.222c-0.436,0-0.777-0.149-1.025-0.447c-0.247-0.298-0.372-0.748-0.374-1.349l0.866-0.12
			c0.01,0.323,0.052,0.552,0.125,0.688c0.099,0.186,0.246,0.278,0.444,0.278c0.192,0,0.334-0.067,0.425-0.201
			c0.091-0.134,0.136-0.431,0.136-0.892V200.412z"/>
		<path class="st1" d="M315.531,203.2c0-0.656,0.098-1.197,0.293-1.621c0.195-0.424,0.451-0.741,0.766-0.949
			c0.315-0.208,0.697-0.312,1.145-0.312c0.65,0,1.18,0.247,1.59,0.74c0.41,0.494,0.614,1.196,0.614,2.108
			c0,0.922-0.217,1.642-0.65,2.161c-0.381,0.458-0.898,0.688-1.551,0.688c-0.657,0-1.177-0.227-1.557-0.68
			C315.749,204.815,315.531,204.104,315.531,203.2z M316.477,203.162c0,0.634,0.121,1.109,0.364,1.426
			c0.242,0.317,0.543,0.475,0.901,0.475c0.36,0,0.66-0.157,0.897-0.471c0.237-0.314,0.356-0.797,0.356-1.448
			c0-0.639-0.116-1.111-0.347-1.417c-0.231-0.306-0.533-0.458-0.906-0.458c-0.374,0-0.678,0.154-0.913,0.462
			C316.594,202.039,316.477,202.516,316.477,203.162z"/>
		<path class="st1" d="M320.662,205.92v-5.508h1.932c0.494,0,0.847,0.049,1.058,0.149c0.212,0.099,0.386,0.27,0.522,0.515
			c0.136,0.244,0.204,0.537,0.204,0.877c0,0.431-0.104,0.778-0.312,1.041c-0.209,0.263-0.504,0.428-0.887,0.496
			c0.197,0.14,0.359,0.294,0.488,0.46c0.128,0.166,0.304,0.465,0.525,0.896l0.552,1.075h-1.095l-0.664-1.199
			c-0.239-0.433-0.401-0.705-0.487-0.814c-0.086-0.109-0.177-0.184-0.272-0.225c-0.096-0.041-0.25-0.062-0.461-0.062h-0.189v2.299
			H320.662z M321.577,202.741h0.68c0.416,0,0.68-0.018,0.794-0.054c0.113-0.036,0.205-0.11,0.276-0.22
			c0.07-0.11,0.106-0.257,0.106-0.439c0-0.175-0.035-0.316-0.106-0.423c-0.07-0.107-0.166-0.18-0.288-0.22
			c-0.085-0.028-0.334-0.041-0.744-0.041h-0.718V202.741z"/>
		<path class="st1" d="M325.245,205.92v-5.508h3.373v0.932h-2.458v1.221h2.283v0.928h-2.283v1.495h2.541v0.932H325.245z"/>
		<path class="st1" d="M329.245,204.124l0.896-0.105c0.101,0.704,0.431,1.056,0.99,1.056c0.278,0,0.496-0.072,0.654-0.216
			c0.159-0.144,0.238-0.323,0.238-0.535c0-0.125-0.028-0.231-0.083-0.319c-0.055-0.088-0.14-0.16-0.253-0.216
			c-0.113-0.056-0.388-0.151-0.824-0.283c-0.391-0.118-0.677-0.245-0.858-0.383c-0.181-0.138-0.326-0.319-0.433-0.543
			c-0.107-0.224-0.161-0.465-0.161-0.723c0-0.301,0.068-0.571,0.206-0.811c0.137-0.24,0.327-0.422,0.569-0.544
			c0.242-0.123,0.54-0.184,0.896-0.184c0.535,0,0.952,0.144,1.252,0.432c0.3,0.288,0.459,0.7,0.476,1.236l-0.919,0.049
			c-0.04-0.295-0.127-0.502-0.261-0.62c-0.134-0.118-0.324-0.177-0.571-0.177c-0.247,0-0.438,0.051-0.571,0.154
			c-0.134,0.102-0.2,0.23-0.2,0.382c0,0.15,0.06,0.276,0.182,0.378c0.121,0.102,0.4,0.215,0.836,0.338
			c0.461,0.133,0.794,0.273,1,0.419c0.205,0.147,0.362,0.336,0.471,0.567c0.108,0.232,0.162,0.513,0.162,0.843
			c0,0.479-0.148,0.88-0.444,1.206c-0.296,0.326-0.759,0.488-1.389,0.488C329.99,206.014,329.37,205.384,329.245,204.124z"/>
		<path class="st1" d="M335.245,204.124l0.896-0.105c0.101,0.704,0.431,1.056,0.99,1.056c0.278,0,0.496-0.072,0.654-0.216
			c0.159-0.144,0.238-0.323,0.238-0.535c0-0.125-0.028-0.231-0.083-0.319c-0.055-0.088-0.14-0.16-0.253-0.216
			c-0.113-0.056-0.388-0.151-0.824-0.283c-0.391-0.118-0.677-0.245-0.858-0.383c-0.181-0.138-0.326-0.319-0.433-0.543
			c-0.107-0.224-0.161-0.465-0.161-0.723c0-0.301,0.068-0.571,0.206-0.811c0.137-0.24,0.327-0.422,0.569-0.544
			c0.242-0.123,0.54-0.184,0.896-0.184c0.535,0,0.952,0.144,1.252,0.432c0.3,0.288,0.459,0.7,0.476,1.236l-0.919,0.049
			c-0.04-0.295-0.127-0.502-0.261-0.62c-0.134-0.118-0.324-0.177-0.571-0.177c-0.247,0-0.438,0.051-0.571,0.154
			c-0.134,0.102-0.2,0.23-0.2,0.382c0,0.15,0.06,0.276,0.182,0.378c0.121,0.102,0.4,0.215,0.836,0.338
			c0.461,0.133,0.794,0.273,1,0.419c0.205,0.147,0.362,0.336,0.471,0.567c0.108,0.232,0.163,0.513,0.163,0.843
			c0,0.479-0.148,0.88-0.444,1.206c-0.296,0.326-0.759,0.488-1.389,0.488C335.99,206.014,335.37,205.384,335.245,204.124z"/>
		<path class="st1" d="M339.524,203.2c0-0.656,0.098-1.197,0.293-1.621c0.195-0.424,0.451-0.741,0.766-0.949
			c0.315-0.208,0.697-0.312,1.145-0.312c0.65,0,1.18,0.247,1.59,0.74c0.41,0.494,0.614,1.196,0.614,2.108
			c0,0.922-0.217,1.642-0.65,2.161c-0.381,0.458-0.898,0.688-1.551,0.688c-0.657,0-1.177-0.227-1.557-0.68
			C339.741,204.815,339.524,204.104,339.524,203.2z M340.47,203.162c0,0.634,0.121,1.109,0.364,1.426
			c0.242,0.317,0.543,0.475,0.901,0.475c0.36,0,0.66-0.157,0.897-0.471c0.237-0.314,0.356-0.797,0.356-1.448
			c0-0.639-0.116-1.111-0.347-1.417c-0.231-0.306-0.533-0.458-0.906-0.458c-0.374,0-0.678,0.154-0.913,0.462
			C340.587,202.039,340.47,202.516,340.47,203.162z"/>
		<path class="st1" d="M344.678,205.92v-5.463h0.914v4.531h2.284v0.932H344.678z"/>
		<path class="st1" d="M348.523,200.412h0.915v2.983c0,0.463,0.011,0.765,0.034,0.905c0.04,0.243,0.138,0.431,0.29,0.564
			c0.153,0.133,0.354,0.199,0.604,0.199c0.212,0,0.385-0.047,0.519-0.141c0.134-0.094,0.225-0.224,0.274-0.391
			c0.049-0.166,0.074-0.524,0.074-1.073v-3.047h0.915v2.893c0,0.739-0.04,1.273-0.12,1.603c-0.079,0.329-0.258,0.596-0.537,0.8
			c-0.279,0.204-0.646,0.306-1.102,0.306c-0.474,0-0.843-0.085-1.109-0.254c-0.266-0.169-0.459-0.407-0.579-0.714
			c-0.12-0.307-0.179-0.872-0.179-1.697V200.412z"/>
		<path class="st1" d="M356.024,203.895l0.888,0.342c-0.139,0.616-0.369,1.067-0.692,1.351c-0.323,0.284-0.72,0.427-1.191,0.427
			c-0.592,0-1.073-0.227-1.44-0.68c-0.423-0.524-0.635-1.23-0.635-2.119c0-0.939,0.213-1.675,0.639-2.206
			c0.371-0.461,0.87-0.691,1.495-0.691c0.509,0,0.936,0.173,1.279,0.518c0.245,0.246,0.424,0.61,0.537,1.093l-0.908,0.263
			c-0.058-0.298-0.174-0.527-0.346-0.686c-0.173-0.159-0.377-0.239-0.612-0.239c-0.336,0-0.61,0.145-0.822,0.436
			c-0.212,0.291-0.318,0.771-0.318,1.439c0,0.694,0.103,1.187,0.31,1.48c0.207,0.293,0.476,0.44,0.805,0.44
			c0.242,0,0.451-0.093,0.628-0.28C355.818,204.597,355.945,204.3,356.024,203.895z"/>
		<path class="st1" d="M357.668,205.92v-5.508h0.915v5.508H357.668z"/>
		<path class="st1" d="M359.275,203.2c0-0.656,0.098-1.197,0.293-1.621c0.195-0.424,0.451-0.741,0.766-0.949
			c0.315-0.208,0.697-0.312,1.145-0.312c0.651,0,1.18,0.247,1.59,0.74c0.41,0.494,0.614,1.196,0.614,2.108
			c0,0.922-0.217,1.642-0.65,2.161c-0.381,0.458-0.898,0.688-1.551,0.688c-0.657,0-1.177-0.227-1.557-0.68
			C359.492,204.815,359.275,204.104,359.275,203.2z M360.22,203.162c0,0.634,0.121,1.109,0.364,1.426
			c0.242,0.317,0.543,0.475,0.901,0.475c0.36,0,0.66-0.157,0.897-0.471c0.237-0.314,0.356-0.797,0.356-1.448
			c0-0.639-0.116-1.111-0.347-1.417c-0.231-0.306-0.533-0.458-0.906-0.458c-0.374,0-0.678,0.154-0.913,0.462
			C360.337,202.039,360.22,202.516,360.22,203.162z"/>
		<path class="st1" d="M364.413,205.92v-5.508h0.893l1.86,3.678v-3.678h0.855v5.508h-0.923l-1.83-3.592v3.592H364.413z"/>
		<path class="st1" d="M368.988,205.92v-5.508h3.373v0.932h-2.458v1.221h2.283v0.928h-2.283v1.495h2.541v0.932H368.988z"/>
		<path class="st1" d="M372.989,204.124l0.896-0.105c0.101,0.704,0.431,1.056,0.99,1.056c0.278,0,0.496-0.072,0.654-0.216
			c0.159-0.144,0.238-0.323,0.238-0.535c0-0.125-0.028-0.231-0.083-0.319c-0.055-0.088-0.14-0.16-0.253-0.216
			c-0.113-0.056-0.388-0.151-0.824-0.283c-0.391-0.118-0.677-0.245-0.858-0.383c-0.181-0.138-0.326-0.319-0.433-0.543
			c-0.107-0.224-0.161-0.465-0.161-0.723c0-0.301,0.068-0.571,0.206-0.811c0.137-0.24,0.327-0.422,0.569-0.544
			c0.242-0.123,0.54-0.184,0.896-0.184c0.535,0,0.952,0.144,1.252,0.432c0.3,0.288,0.459,0.7,0.476,1.236l-0.919,0.049
			c-0.04-0.295-0.127-0.502-0.261-0.62c-0.134-0.118-0.324-0.177-0.571-0.177c-0.247,0-0.438,0.051-0.571,0.154
			c-0.134,0.102-0.2,0.23-0.2,0.382c0,0.15,0.06,0.276,0.182,0.378c0.121,0.102,0.4,0.215,0.836,0.338
			c0.461,0.133,0.794,0.273,1,0.419c0.205,0.147,0.362,0.336,0.471,0.567c0.108,0.232,0.162,0.513,0.162,0.843
			c0,0.479-0.148,0.88-0.444,1.206c-0.296,0.326-0.759,0.488-1.389,0.488C373.734,206.014,373.114,205.384,372.989,204.124z"/>
	</g>
	<path class="st1" d="M213.69,195.367l3.14-16.041l0.137-2.51c0,0-0.754-1.073-1.165-3.03c0,0-0.514-1.277,0.274-2.587
		c0,0,0.685-1.294,2.517-2.622l-0.034-1.583c0,0-0.634-0.493-0.925-1.174c0,0-1.885-0.153-2.158-1.48c0,0-0.31-1.192,1.266-2.723
		c0,0,0.481-0.46,1.867-1.192c0,0,0.942-0.561,1.148-0.8c0,0,1.32-0.988,2.895-1.141c0,0-2.98-0.612-4.026-2.144
		c0,0-0.666,0.017-1.215-1.073l-0.771,1.277c0,0-1.353,0.29-1.73-1.021l1.302-2.843c0,0-1.542-4.766,0.96-8.459
		c0,0,2.277-3.286,6.063-3.711c0,0,5.292-0.647,7.125,4.425c0,0,6.268,1.362,0.393,4.477c0,0,1.183,7.949-4.573,9.328
		c0,0,1.335,0.554,1.994,1.239c0,0,0.849,0.871,1.911,1.042c0,0,0.925,0.324,1.165,0.528l0.137-0.187l2.191-0.562
		c0,0,0.479,0,0.428-0.732c0,0-0.256-0.392,0-1.004l0.514-0.869c0,0,0.428-0.273,1.045-0.085c0,0-1.473-2.707,0.223-3.354
		l1.419-2.146c0,0,0.036,1.006,4.147,0.444c0,0-0.522,2.729,1.841,3.921l-1.927,3.706c0,0-0.034,1.225-1.473,1.021
		c0,0,0.069,0.545-0.36,0.766c0,0,0.188,0.698-0.651,0.987c0,0-0.548,0.17-0.444,0.664c0,0-0.035,0.681-1.028,0.749
		c0,0-0.411,0.784-1.301,0.596c0,0-1.32,2.945-2.364,0.902c0,0-1.336,0.459-2.192-0.851c0,0-2.74-0.119-3.323-0.375
		c0,0,0.051,0.834,0.051,1.158c0,0,0.446,0.118,0.942,0.426c0,0,3.323-1.668,4.316,0.765l0.667,6.775c0,0,2.45,2.468-0.016,3.234
		l4.401,18.06L213.69,195.367z"/>
	<path class="st2" d="M216.318,152.417c0,0-1.255-5.695,1.91-9.05c0,0,3.094-3.213,6.903-2.427c0,0,3.595,0.57,4.747,3.996
		c0,0-4.1,0.858-6.689,1.928c0,0-2.027,1.153-4.329,3.081l-0.121-0.45l-1.498,0.934L216.318,152.417z"/>
	<path class="st2" d="M215.153,155.71l2.39-5.115l1.158-0.733l0.41,1.396l-0.914,2.182c0,0-1.046,0.035-0.859,1.306l-1.01,1.627
		C216.328,156.372,215.453,156.551,215.153,155.71"/>
	<path class="st2" d="M220.873,148.947c0,0,3.45-3.161,9.697-3.716c0,0,0.835,0.156,0.905,0.26c0,0-3.063,0.104-5.448,1.367
		C226.027,146.858,221.949,149.861,220.873,148.947"/>
	<path class="st2" d="M223.375,158.62c0,0-3.61-0.822-4.365-2.269c0,0,0.305-0.106,0.305-0.339c0,0-0.989,0.661-1.402-0.41
		c0,0-0.539-1.036-0.108-1.572c0,0,0.198-0.161,0.522-0.124l0.557-1.358c0,0-0.484,1.375,0.288,2.125c0,0,0.88,1.124,0.718-0.178
		c0,0-0.071-0.41-0.195-0.768c0,0-0.289-0.803,0.124-1.106c0,0,1.023-1.126,0.772-2.929c0,0,0.179,0.231,2.263-0.554
		c0,0,1.581-0.786,2.965-1.677c0,0,2.209-0.251,4.42,1.159c0,0,1.976,8.321-4.635,10.213l0.09,0.285c0,0-0.395,0.715-1.276,0.644
		c0,0-0.52-0.089-1.096-0.75L223.375,158.62z"/>
	<path class="st1" d="M224.435,152.844c0,0-0.59-0.181-0.273-0.992c0,0,0.227-0.811,0.998-0.744c0,0,0.385,0.203,0.158,0.968
		C225.319,152.077,225.319,152.754,224.435,152.844"/>
	<path class="st1" d="M224.59,155.172c0,0,1.449,1.24,2.451,0.741c0.059-0.029,0.025,0.133,0.025,0.133s-1.74,1.747-3.08-0.575"/>
	<path class="st1" d="M229.948,151.086c0,0-0.204-0.294-0.611,0.067c0,0-0.499,0.27-0.341,1.082c0,0,0.431,0.564,0.794-0.045
		c0.362-0.607-0.046,0-0.046,0S230.197,151.717,229.948,151.086"/>
	<path class="st1" d="M224.389,148.334c0.075-0.447,0.477,0.429,0.477,0.429c0.068,0.473-0.385,0.608-0.385,0.608
		c-1.34,0.315-1.679,0.97-1.679,0.97c-0.657,0.383-0.84-0.203-0.84-0.203c-0.157-0.383,0.137-0.655,0.137-0.655
		S224.328,148.701,224.389,148.334"/>
	<path class="st1" d="M228.042,148.604c0,0-0.022-0.45,0.635-0.427c0.66,0.022,1.452,1.037,1.452,1.037s0.296,0.766-0.361,0.653
		c0,0-0.113-0.091-0.364-0.338c0,0-0.453-0.315-0.772-0.315C228.632,149.215,227.861,149.371,228.042,148.604"/>
	<path class="st1" d="M226.961,152.51c0.02,0,1.02,0.15,1.158,0.972c0,0,0.103,1.247-1.341,1.024c0,0,1.301,0.02,1.189-0.965
		C227.855,152.555,226.961,152.51,226.961,152.51"/>
	<path class="st2" d="M218.563,166.698l6.288-0.393c0,0,0.681,0.643,1.077-0.036c0,0,0.539-0.607,0.791-1.428
		c0,0,0.372-0.991-0.55-1.657c0,0-0.024-0.522,0.838-0.487c0,0,0.611,0.677,0.97,0.464c0,0,0.179-0.499-1.077-1.179
		c0,0-1.367-0.214-2.156,0.215l-1.437,1l-4.025-1.107C219.281,162.092,216.12,164.272,218.563,166.698"/>
	<path class="st2" d="M233.655,166.047c0,0-2.061,1.289-2.529-2.512c-0.127-1.026,0-0.036,0-0.036s-0.199-0.496,0.397-1.839
		l2.131-0.496c0,0,0.849-0.247,0.722-1.256c0,0-0.641-0.395,0.253-1.344c0.136-0.145,0.019-0.053,0.019-0.053
		s0.342-0.497,1.301,0.087c0,0,1.443,0.69,1.064,1.257c0,0-0.505,0.885-1.789,0.053c0,0,0.488,0.371,1.103,0.461
		C236.328,160.368,233.601,164.296,233.655,166.047"/>
	<path class="st2" d="M238.116,160.649c0,0,0.985,0.827,1.432,0.827c0,0,0.307,0.699-0.422,0.775c0,0,0.499,0.738-0.396,0.852
		c0,0-0.498,0.241-0.601,0.825c0,0,0.09,0.662-0.908,0.56c0,0-0.243,0.863-1.086,0.609c0,0-0.32-0.609,0.894-0.787
		c0,0-1.266-0.088-0.383-0.979l0.28-0.051l-0.19-0.178c0,0-0.563-1.944,1.33-1.333c0,0,0.204-0.103-0.64-0.331
		C237.425,161.437,237.298,160.777,238.116,160.649"/>
	<path class="st2" d="M236.071,154.963l1.237-2.504c0,0,0.213,0.817,4.192,0.447c0,0-0.326,2.699,1.731,4.052l-2.007,3.258
		L236.071,154.963z"/>
	<path class="st0" d="M237.359,152.193l1.623-3.652c0,0,0.428-0.153,1.195,0.122l4.164,3.135c0,0,1.163,0.731,0.491,2.161
		l-1.439,2.769c0,0-1.869-0.852-1.747-4.108C241.647,152.619,238.678,153.41,237.359,152.193"/>
	<path class="st2" d="M218.29,169.025l-1.631,1.965c0,0-0.659,1.107-0.564,2.143c0,0,0.095,1.214,0.972,3.356
		c0,0,0.971,1.679,1.975,0.036c0,0-1.442-1.141-1.474-2.643C217.537,172.383,217.256,171.526,218.29,169.025"/>
	<path class="st2" d="M229.67,175.73c0,0,2.125-1.391,3.445-1.391c0,0,1.586,0.096,1.83,2.191c0,0-1.758,2.22-6.24,0.671
		l0.086-0.279l0.879-0.38V175.73z"/>
	<path class="st2" d="M220.588,176.312c0,0-0.106-5.065-0.341-6.026l0.132-0.027l0.052-0.285c0,0-1.124-0.364-0.678-1.715
		c0,0,0.288-1.013,1.489-1.325l3.529-0.234c0,0,0.495,0.52,1.123,0.13c0,0,0.289-0.312,0.418-0.467l0.941,0.312
		c0,0,0.052,1.896-0.627,5.403c0,0,0.366,0.727,1.02,0.027c0,0,0.471-4.287,0.418-5.274c0,0,2.484,0.444,1.386,2.727l-0.237,6.91
		C229.213,176.467,223.96,180.078,220.588,176.312"/>
	<path class="st2" d="M225.886,163.046c0,0,1.277-0.593,1.473,1.4c0,0,0.433,2.18-0.275,7.746c0,0-0.276,0.639-0.669,0.037
		c0,0,0.827-5.303,0.63-6.956l-0.433-0.789C226.611,164.484,226.771,163.451,225.886,163.046"/>
	<path class="st0" d="M221.424,169.64c0,0-0.613-0.365-0.705-1.156c0,0,0.092-0.762,0.796-0.822c0,0,3.46-1.127,5.605-0.031
		c0,0,0.061,0.426-0.306,2.038c0,0-0.705,0.184-0.675,0.883c0,0,0.214,2.131-0.275,2.223c0,0-0.428,0.091-0.397-1.157
		c0,0-0.339-0.517-0.644-0.03c0,0-0.183,0.242,0.03,1.034c0,0,0.858,2.557-0.336,2.1c0,0-0.736-0.455-0.459-2.1
		c0,0,0.092-1.064-0.889-0.791c0,0-0.398-0.091-0.398,0.67c0,0-0.274,0.851-0.918,0.487c0,0-0.766-0.762-0.337-1.979
		C221.514,171.009,221.852,170.096,221.424,169.64"/>
	<path class="st0" d="M228.222,167.965c0,0,1.5,0.67,0,1.034V167.965z"/>
	<path class="st2" d="M217.145,179.665l0.066-1.946l7.159,0.653l0.026,1.855C224.395,180.227,221.946,180.66,217.145,179.665"/>
	<polygon class="st2" points="224.729,178.61 225.899,178.37 226.1,179.93 224.8,180.323 	"/>
	<path class="st2" d="M226.29,178.25l2.506-0.504c0,0,2.273,0.571,3.346,0.231l0.002,0.144l-5.764,1.306L226.29,178.25z"/>
	<path class="st2" d="M213.91,196.123l3.233-15.89c0,0,2.695,0.465,3.521,0.465l-3.557,15.497L213.91,196.123z"/>
	<polygon class="st2" points="225.068,180.529 226.156,180.162 230.528,196.037 229.07,196.067 	"/>
	<polygon class="st2" points="233.017,177.98 233.761,177.775 238.188,195.694 237.294,195.694 	"/>
	<polygon class="st2" points="230.34,178.793 230.823,178.589 231.757,183.299 228.825,184.2 	"/>
	<polygon class="st2" points="227.624,186.816 235.29,183.972 235.402,184.797 227.8,187.78 	"/>
	<polygon class="st2" points="228.55,187.814 232.719,186.224 233.998,191.059 230.042,193.052 	"/>
	<polygon class="st2" points="222.354,180.777 224.626,180.777 228.688,196.105 226.209,196.173 	"/>
	<polygon class="st2" points="221.914,181.015 223.98,188.888 219.65,190.585 	"/>
	<polygon class="st2" points="218.595,195.649 219.348,192.399 223.698,190.508 222.295,195.613 	"/>
	<polygon class="st2" points="230.174,195.391 237.014,191.872 237.25,192.744 230.294,196.535 	"/>
	<rect x="212.188" y="195.256" class="st3" width="28.699" height="0.426"/>
	<polygon class="st3" points="232.646,195.641 234.984,194.338 235.36,195.708 	"/>
	<g>
		<rect x="330.057" y="207.886" class="st4" width="46.419" height="13.013"/>
		<polygon class="st2" points="335.972,209.448 333.726,219.51 338.766,219.51 339.517,213.98 341.728,219.51 344.763,219.51 
			347.042,213.946 347.793,219.51 352.766,219.51 350.351,209.448 345.24,209.448 343.225,214.69 341.318,209.448 		"/>
		<polygon class="st2" points="351.567,209.448 362.361,209.448 362.361,212.765 359.55,212.765 359.55,219.51 354.375,219.51 
			354.375,212.765 351.567,212.765 		"/>
		<g>
			<path class="st2" d="M375.345,218.908c0,0.153-0.102,0.231-0.25,0.231h-0.422v-0.466h0.422
				C375.243,218.672,375.345,218.755,375.345,218.908z M375.562,218.9c0-0.298-0.212-0.433-0.467-0.433h-0.639v1.446h0.217v-0.571
				h0.329l0.287,0.571h0.248l-0.294-0.59C375.441,219.277,375.562,219.133,375.562,218.9z"/>
			<path class="st5" d="M373.802,219.184c0-0.599,0.487-1.086,1.092-1.086c0.603,0,1.089,0.487,1.089,1.086
				c0,0.596-0.486,1.081-1.089,1.081C374.29,220.265,373.802,219.78,373.802,219.184z"/>
		</g>
		<path class="st2" d="M362.29,218.689c1.253,0.383,2.994,0.682,2.994,0.682c1.056,0.177,1.297,0.216,2.981,0.191
			c1.682-0.031,3.221-0.702,3.221-0.702c1.641-0.67,2.001-1.798,2.001-1.798c0.698-1.303-0.143-2.433-0.143-2.433
			c-0.587-0.87-2.159-1.269-2.159-1.269c-0.415-0.23-2.763-0.473-2.763-0.473c-0.752-0.055-0.534-0.487-0.534-0.487
			c0.027-0.511,1.48-0.41,1.582-0.41c0.735,0,2.362,0.754,2.362,0.754l1.424-2.642c-1.35-0.724-3.754-0.842-3.754-0.842
			c-2.045-0.213-3.976,0.528-3.976,0.528c-2.892,0.929-2.75,3.124-2.75,3.124c-0.034,0.655,0.343,1.488,1.109,1.947
			c1.164,0.7,2.909,0.873,2.982,0.873c0.876,0,1.31,0.202,1.31,0.202c0.661,0.197,0.171,0.698,0.171,0.698
			c-0.36,0.196-1.025,0.23-1.025,0.23c-1.696,0.114-3.554-1.075-3.554-1.075L362.29,218.689z"/>
	</g>
	<g>
		<path class="st0" d="M247.47,140.898v-11.621h6.572v1.966H249.4v2.75h4.02v1.966h-4.02v4.939H247.47z"/>
		<path class="st0" d="M255.646,140.898v-11.621h7.115v1.966h-5.185v2.576h4.818v1.958h-4.818v3.155h5.36v1.966H255.646z"/>
		<path class="st0" d="M264.579,140.898v-11.621h4.076c1.042,0,1.787,0.104,2.233,0.313c0.446,0.209,0.814,0.571,1.101,1.086
			c0.287,0.515,0.431,1.132,0.431,1.851c0,0.909-0.219,1.641-0.658,2.196c-0.439,0.555-1.063,0.904-1.871,1.046
			c0.415,0.296,0.758,0.62,1.029,0.971c0.271,0.352,0.641,0.982,1.109,1.891l1.165,2.267h-2.309l-1.401-2.529
			c-0.504-0.914-0.847-1.486-1.027-1.716c-0.181-0.23-0.372-0.388-0.575-0.475c-0.202-0.087-0.527-0.131-0.973-0.131h-0.399v4.851
			H264.579z M266.509,134.192h1.436c0.877,0,1.435-0.038,1.674-0.115c0.24-0.076,0.434-0.231,0.583-0.464
			c0.149-0.232,0.223-0.542,0.223-0.927c0-0.37-0.075-0.667-0.223-0.892c-0.149-0.225-0.351-0.379-0.606-0.464
			c-0.181-0.058-0.705-0.087-1.571-0.087h-1.516V134.192z"/>
		<path class="st0" d="M274.247,140.898v-11.621h4.076c1.042,0,1.786,0.104,2.233,0.313c0.446,0.209,0.814,0.571,1.101,1.086
			c0.287,0.515,0.431,1.132,0.431,1.851c0,0.909-0.219,1.641-0.658,2.196c-0.439,0.555-1.063,0.904-1.871,1.046
			c0.415,0.296,0.758,0.62,1.029,0.971c0.271,0.352,0.641,0.982,1.109,1.891l1.165,2.267h-2.309l-1.401-2.529
			c-0.504-0.914-0.847-1.486-1.027-1.716c-0.181-0.23-0.372-0.388-0.575-0.475c-0.202-0.087-0.527-0.131-0.973-0.131h-0.399v4.851
			H274.247z M276.177,134.192h1.436c0.877,0,1.435-0.038,1.674-0.115c0.24-0.076,0.434-0.231,0.583-0.464
			c0.149-0.232,0.223-0.542,0.223-0.927c0-0.37-0.075-0.667-0.223-0.892c-0.149-0.225-0.351-0.379-0.606-0.464
			c-0.181-0.058-0.705-0.087-1.571-0.087h-1.516V134.192z"/>
		<path class="st0" d="M283.914,140.898v-11.621h7.115v1.966h-5.185v2.576h4.818v1.958h-4.818v3.155h5.36v1.966H283.914z"/>
		<path class="st0" d="M295.001,140.898v-9.655h-2.848v-1.966h7.617v1.966h-2.839v9.655H295.001z"/>
		<path class="st0" d="M301.031,140.898v-11.621h7.115v1.966h-5.185v2.576h4.818v1.958h-4.818v3.155h5.36v1.966H301.031z"/>
		<path class="st0" d="M309.964,140.898v-11.621h4.076c1.042,0,1.787,0.104,2.233,0.313c0.446,0.209,0.814,0.571,1.101,1.086
			c0.287,0.515,0.431,1.132,0.431,1.851c0,0.909-0.219,1.641-0.658,2.196c-0.439,0.555-1.062,0.904-1.87,1.046
			c0.415,0.296,0.758,0.62,1.029,0.971c0.271,0.352,0.641,0.982,1.109,1.891l1.165,2.267h-2.309l-1.401-2.529
			c-0.504-0.914-0.847-1.486-1.027-1.716c-0.181-0.23-0.372-0.388-0.575-0.475c-0.202-0.087-0.527-0.131-0.973-0.131h-0.399v4.851
			H309.964z M311.895,134.192h1.436c0.877,0,1.435-0.038,1.674-0.115c0.24-0.076,0.434-0.231,0.583-0.464
			c0.149-0.232,0.223-0.542,0.223-0.927c0-0.37-0.075-0.667-0.223-0.892c-0.149-0.225-0.351-0.379-0.606-0.464
			c-0.181-0.058-0.705-0.087-1.571-0.087h-1.516V134.192z"/>
		<path class="st0" d="M319.568,140.898v-11.621h1.93v11.621H319.568z"/>
		<path class="st0" d="M332.003,140.898h-2.098l-0.84-2.632h-3.838l-0.793,2.632h-2.058l3.734-11.621h2.05L332.003,140.898z
			 M328.442,136.301l-1.324-4.312l-1.299,4.312H328.442z"/>
	</g>
</g>
<g>
	<path class="st2" d="M112.09,47.914H65.26c-1.527,0-2.769-1.084-2.769-2.417V6.891c0-1.333,1.242-2.417,2.769-2.417h46.83
		c1.528,0,2.772,1.084,2.772,2.417v38.606C114.861,46.83,113.618,47.914,112.09,47.914z M65.26,5.983
		c-0.683,0-1.261,0.416-1.261,0.908v38.606c0,0.492,0.577,0.908,1.261,0.908h46.83c0.685,0,1.263-0.416,1.263-0.908V6.891
		c0-0.492-0.578-0.908-1.263-0.908H65.26z"/>
	<path class="st6" d="M98.767,47.159H65.26c-1.113,0-2.015-0.744-2.015-1.663V6.891c0-0.918,0.902-1.662,2.015-1.662h46.83
		c1.113,0,2.017,0.744,2.017,1.662v38.606c0,0.918-0.904,1.663-2.017,1.663H98.767"/>
	<polygon class="st2" points="90.579,40.866 80.164,40.866 91.005,11.523 101.421,11.523 	"/>
	<linearGradient id="SVGID_1_" gradientUnits="userSpaceOnUse" x1="95.1211" y1="22.434" x2="115.9588" y2="34.4646">
		<stop  offset="0" style="stop-color:#6F6C6C"/>
		<stop  offset="0.6532" style="stop-color:#C0C0C2"/>
		<stop  offset="0.9386" style="stop-color:#C3C5C7"/>
	</linearGradient>
	<polygon class="st7" points="101.421,11.523 96.213,25.617 101.848,40.866 112.263,40.866 	"/>
	<polygon class="st2" points="75.506,40.866 65.089,40.866 75.932,11.523 86.349,11.523 	"/>
	<g>
		<linearGradient id="SVGID_2_" gradientUnits="userSpaceOnUse" x1="93.8844" y1="31.9194" x2="93.8873" y2="31.9211">
			<stop  offset="0" style="stop-color:#6F6C6C"/>
			<stop  offset="0.7703" style="stop-color:#C3C5C7"/>
		</linearGradient>
		<polygon class="st8" points="93.884,31.922 93.887,31.922 93.885,31.918 		"/>
		<linearGradient id="SVGID_3_" gradientUnits="userSpaceOnUse" x1="81.5728" y1="19.7948" x2="88.245" y2="23.6471">
			<stop  offset="0" style="stop-color:#6F6C6C"/>
			<stop  offset="0.7703" style="stop-color:#C3C5C7"/>
		</linearGradient>
		<polygon class="st9" points="88.677,17.823 86.349,11.523 81.14,25.617 83.469,31.919 		"/>
	</g>
	<g>
		<g>
			<polygon class="st6" points="109.51,93.137 98.742,93.137 98.742,94.382 99.213,94.382 99.213,95.526 101.366,95.526 
				101.366,94.382 106.884,94.382 106.884,95.526 109.038,95.526 109.038,94.382 109.51,94.382 			"/>
			<path class="st6" d="M100.184,85.014v7.888h7.935v-7.888H100.184z M101.507,92.385c-0.378,0-0.684-0.306-0.684-0.684
				c0-0.378,0.306-0.684,0.684-0.684c0.378,0,0.684,0.306,0.684,0.684C102.191,92.079,101.884,92.385,101.507,92.385z
				 M106.712,92.385c-0.378,0-0.685-0.306-0.685-0.684c0-0.378,0.307-0.684,0.685-0.684c0.378,0,0.684,0.306,0.684,0.684
				C107.396,92.079,107.09,92.385,106.712,92.385z M107.888,88.478h-7.476v-3.235h7.476V88.478z"/>
			<polygon class="st6" points="98.767,82.268 98.767,92.901 99.726,92.901 99.726,84.556 108.575,84.556 108.575,92.901 
				109.535,92.901 109.535,82.268 			"/>
			<g>
				<path class="st6" d="M45.927,87.113c0-0.883-0.715-1.598-1.597-1.598c-0.882,0-1.598,0.715-1.598,1.598
					c0,0.882,0.715,1.597,1.598,1.597C45.212,88.71,45.927,87.995,45.927,87.113z"/>
				<path class="st6" d="M52.028,85.515c-0.883,0-1.598,0.715-1.598,1.598c0,0.882,0.715,1.597,1.598,1.597
					c0.882,0,1.597-0.715,1.597-1.597C53.625,86.23,52.91,85.515,52.028,85.515z"/>
				<path class="st6" d="M48.103,92.331c-0.882,0-1.597,0.715-1.597,1.597c0,0.882,0.715,1.597,1.597,1.597
					c0.883,0,1.598-0.715,1.598-1.597C49.7,93.046,48.986,92.331,48.103,92.331z"/>
				<path class="st6" d="M47.814,90.611c0-0.881-0.716-1.597-1.598-1.597s-1.598,0.715-1.598,1.597c0,0.883,0.716,1.598,1.598,1.598
					S47.814,91.494,47.814,90.611z"/>
				<path class="st6" d="M49.99,89.014c-0.883,0-1.598,0.715-1.598,1.597c0,0.883,0.715,1.598,1.598,1.598
					c0.881,0,1.596-0.715,1.596-1.598C51.586,89.73,50.871,89.014,49.99,89.014z"/>
				<path class="st6" d="M47.89,85.531c-0.781,0.104-1.384,0.771-1.384,1.582c0,0.882,0.715,1.597,1.597,1.597
					c0.883,0,1.598-0.715,1.598-1.597c0-0.757-0.526-1.389-1.232-1.554v-2.296h2.86v-0.761H45.03v0.761h2.86V85.531z"/>
			</g>
			<g>
				<path class="st6" d="M81.518,91.956c0,0-1.029,3.163,2.853,2.923C84.371,94.879,85.114,91.548,81.518,91.956z"/>
				<path class="st6" d="M81.641,88.407c0,0-0.986,3.03,2.732,2.8C84.374,91.207,85.085,88.016,81.641,88.407z"/>
				<path class="st6" d="M84.384,87.581c0,0,0.595-2.664-2.283-2.339C82.101,85.243,81.277,87.774,84.384,87.581z"/>
				<path class="st6" d="M88.741,91.956c-3.594-0.408-2.852,2.923-2.852,2.923C89.772,95.118,88.741,91.956,88.741,91.956z"/>
				<path class="st6" d="M88.619,88.407c-3.444-0.39-2.732,2.8-2.732,2.8C89.606,91.437,88.619,88.407,88.619,88.407z"/>
				<path class="st6" d="M88.159,85.243c-2.876-0.326-2.282,2.339-2.282,2.339C88.983,87.774,88.159,85.243,88.159,85.243z"/>
				<rect x="84.903" y="86.539" class="st6" width="0.455" height="8.987"/>
				<rect x="84.088" y="81.602" class="st6" width="0.259" height="2.803"/>
				<rect x="85.913" y="81.602" class="st6" width="0.26" height="2.803"/>
				<rect x="84.986" y="80.667" class="st6" width="0.26" height="3.738"/>
			</g>
			<polygon class="st6" points="73.62,88.144 70.859,84.383 70.859,82.366 68.195,82.366 68.195,83.586 62.618,83.586 
				59.272,88.144 60.812,88.144 60.812,95.526 65.146,95.526 65.146,92.156 67.746,92.156 67.746,95.526 72.079,95.526 
				72.079,88.144 			"/>
		</g>
		<g>
			<rect x="121.036" y="85.423" class="st10" width="28.025" height="7.182"/>
			<polygon class="st2" points="128.082,86.215 126.864,91.702 129.597,91.702 130.003,88.685 131.203,91.702 132.846,91.702 
				134.083,88.667 134.49,91.702 137.185,91.702 135.874,86.215 133.104,86.215 132.015,89.073 130.982,86.215 			"/>
			<polygon class="st2" points="136.534,86.215 142.385,86.215 142.385,88.024 140.862,88.024 140.862,91.702 138.057,91.702 
				138.057,88.024 136.534,88.024 			"/>
			<polygon class="st2" points="123.542,89.644 121.654,89.644 121.654,88.28 121.877,88.28 121.877,89.394 122.455,89.394 
				122.455,88.351 122.677,88.351 122.677,89.394 123.319,89.394 123.319,88.236 123.542,88.236 			"/>
			<path class="st2" d="M142.346,91.253c0.679,0.21,1.624,0.374,1.624,0.374c0.57,0.094,0.702,0.116,1.615,0.101
				c0.913-0.016,1.747-0.382,1.747-0.382c0.889-0.366,1.085-0.981,1.085-0.981c0.375-0.709-0.078-1.325-0.078-1.325
				c-0.32-0.475-1.17-0.693-1.17-0.693c-0.226-0.125-1.499-0.257-1.499-0.257c-0.406-0.031-0.288-0.265-0.288-0.265
				c0.015-0.281,0.804-0.226,0.858-0.226c0.398,0,1.28,0.413,1.28,0.413l0.773-1.441c-0.733-0.397-2.036-0.46-2.036-0.46
				c-1.108-0.116-2.153,0.288-2.153,0.288c-1.568,0.506-1.49,1.707-1.49,1.707c-0.019,0.352,0.185,0.808,0.601,1.06
				c0.631,0.381,1.577,0.475,1.615,0.475c0.476,0,0.71,0.109,0.71,0.109c0.359,0.109,0.094,0.382,0.094,0.382
				c-0.195,0.109-0.554,0.125-0.554,0.125c-0.92,0.063-1.927-0.584-1.927-0.584L142.346,91.253z"/>
			<path class="st2" d="M122.487,91.398v-0.537c0-0.114-0.012-0.203-0.035-0.268c-0.024-0.064-0.062-0.113-0.113-0.147
				c-0.053-0.033-0.109-0.05-0.17-0.05c-0.089,0-0.163,0.033-0.221,0.098c-0.057,0.064-0.086,0.166-0.086,0.306v0.597H122.487z
				 M123.542,91.648h-1.888v-0.836c0-0.168,0.017-0.296,0.052-0.384c0.033-0.087,0.093-0.157,0.179-0.21
				c0.086-0.052,0.181-0.078,0.285-0.078c0.134,0,0.247,0.043,0.338,0.13c0.092,0.087,0.15,0.221,0.175,0.401
				c0.032-0.066,0.063-0.116,0.094-0.151c0.067-0.073,0.15-0.142,0.251-0.207l0.514-0.328v0.314l-0.393,0.25
				c-0.113,0.073-0.2,0.133-0.26,0.18c-0.06,0.047-0.102,0.089-0.126,0.127c-0.024,0.037-0.041,0.075-0.05,0.113
				c-0.006,0.028-0.009,0.075-0.009,0.139v0.289h0.838V91.648z"/>
			<path class="st2" d="M123.319,87.542v-0.403c0-0.124-0.012-0.222-0.035-0.292c-0.023-0.071-0.056-0.128-0.098-0.17
				c-0.059-0.059-0.139-0.105-0.238-0.138c-0.1-0.034-0.222-0.05-0.364-0.05c-0.198,0-0.349,0.033-0.455,0.098
				c-0.107,0.064-0.178,0.143-0.214,0.235c-0.026,0.067-0.039,0.174-0.039,0.323v0.396H123.319z M123.542,87.792h-1.888v-0.65
				c0-0.147,0.009-0.259,0.027-0.336c0.025-0.108,0.07-0.2,0.135-0.276c0.084-0.099,0.192-0.174,0.323-0.223
				c0.13-0.05,0.28-0.074,0.448-0.075c0.144,0,0.27,0.017,0.381,0.051c0.111,0.033,0.203,0.076,0.276,0.128
				c0.072,0.052,0.129,0.11,0.171,0.172c0.041,0.062,0.073,0.137,0.094,0.225c0.022,0.087,0.032,0.188,0.032,0.302V87.792z"/>
		</g>
	</g>
	<g>
		<path class="st6" d="M45.12,76.234l3.66-17.101l-7.386,17.101h-7.722l-0.067-17.101l-3.66,17.101h-6.48l5.272-24.51h10.307
			L39.01,69.42l7.554-17.696h10.307L51.6,76.234H45.12z"/>
		<path class="st6" d="M54.116,76.234l3.793-17.629h5.976l-3.793,17.629H54.116z M58.212,57.116l1.174-5.392h5.977l-1.175,5.392
			H58.212z"/>
		<path class="st6" d="M84.264,76.234l2.047-9.559c0.571-2.58-0.167-3.672-1.679-3.672c-1.276,0-2.82,1.422-3.357,4.036
			l-1.981,9.194h-5.976l2.047-9.559c0.571-2.58-0.167-3.672-1.679-3.672c-1.274,0-2.819,1.422-3.357,4.036l-1.979,9.194h-5.976
			l3.793-17.629h5.707l-0.57,2.579c1.241-1.919,3.056-2.943,5.372-2.943c2.653,0,4.297,1.323,4.902,3.406
			c1.409-2.05,3.425-3.406,6.043-3.406c3.726,0,5.873,2.843,4.969,7.077l-2.351,10.916H84.264z"/>
		<path class="st6" d="M103.13,76.597c-2.117,0-4.063-1.323-4.399-2.778l-0.504,2.415H92.52l5.271-24.51h5.977l-1.914,8.831
			c1.174-1.356,3.491-2.314,5.237-2.314c4.229,0,7.185,3.539,5.976,9.161C111.858,73.058,107.359,76.597,103.13,76.597z
			 M104.572,63.004c-1.746,0-3.524,1.356-4.196,4.399c-0.671,3.076,0.537,4.432,2.283,4.432c1.746,0,3.491-1.357,4.164-4.432
			C107.494,64.359,106.319,63.004,104.572,63.004z"/>
		<path class="st6" d="M124.513,63.135c-2.182,0-3.861,1.589-4.465,4.399l-1.847,8.7h-5.976l3.794-17.629h5.707l-0.571,2.678
			c1.075-1.654,3.189-3.042,6.984-3.042l-1.142,5.258C126.394,63.301,125.285,63.135,124.513,63.135z"/>
		<path class="st6" d="M134.651,76.234l0.503-2.449c-1.443,1.852-3.289,2.812-5.842,2.812c-3.692,0-5.673-2.448-5.069-5.259
			c0.705-3.307,4.231-5.755,9.938-5.755h2.484c0.368-1.687-0.773-3.076-2.786-3.076c-1.142,0-2.519,0.496-3.726,1.29l-2.586-3.275
			c2.451-1.554,4.968-2.414,8.124-2.414c5.507,0,7.892,3.175,7.018,7.21l-2.35,10.916H134.651z M133.509,68.758
			c-1.746,0-2.92,0.926-3.155,1.952c-0.201,0.859,0.168,1.852,1.746,1.852c2.014,0,3.459-1.919,3.895-3.804H133.509z"/>
		<path class="st6" d="M142.641,76.234l5.27-24.51h5.976l-5.271,24.51H142.641z"/>
	</g>
	<g>
		<circle class="st2" cx="153.787" cy="73.436" r="3.191"/>
		<circle class="st10" cx="153.786" cy="73.436" r="2.789"/>
		<path class="st2" d="M163.588,76.999c-0.884,0-1.702-0.154-2.431-0.457c-0.738-0.306-1.362-0.751-1.855-1.321
			c-0.495-0.572-0.84-1.273-1.026-2.085c-0.186-0.805-0.172-1.713,0.042-2.699c0.195-0.973,0.557-1.866,1.072-2.649
			c0.51-0.775,1.124-1.447,1.825-1.997c0.699-0.548,1.482-0.978,2.326-1.275c0.845-0.298,1.718-0.449,2.594-0.449
			c0.895,0,1.686,0.135,2.351,0.401c0.66,0.264,1.296,0.672,1.891,1.212l0.34,0.308l-3.432,2.906l-0.257-0.331
			c-0.12-0.154-0.29-0.285-0.504-0.388c-0.218-0.104-0.486-0.157-0.797-0.157c-0.26,0-0.53,0.059-0.802,0.175
			c-0.282,0.121-0.546,0.292-0.783,0.507c-0.242,0.219-0.459,0.495-0.644,0.82c-0.186,0.325-0.32,0.688-0.397,1.08
			c-0.077,0.404-0.094,0.767-0.05,1.078c0.041,0.294,0.132,0.545,0.269,0.748c0.136,0.202,0.301,0.353,0.504,0.461
			c0.201,0.108,0.422,0.16,0.673,0.16c0.325,0,0.623-0.055,0.91-0.168c0.289-0.115,0.542-0.262,0.754-0.438l0.321-0.267l2.309,2.986
			l-0.356,0.24c-0.805,0.543-1.596,0.949-2.35,1.205C165.315,76.867,164.476,76.999,163.588,76.999z"/>
		<path class="st10" d="M165.552,73.254c-0.331,0.131-0.683,0.197-1.057,0.197c-0.316,0-0.604-0.069-0.863-0.208
			c-0.259-0.138-0.475-0.335-0.647-0.59c-0.172-0.255-0.284-0.561-0.334-0.917c-0.051-0.357-0.032-0.762,0.054-1.213
			c0.086-0.437,0.234-0.838,0.443-1.202c0.208-0.364,0.449-0.67,0.723-0.918c0.273-0.248,0.572-0.44,0.895-0.579
			c0.323-0.138,0.643-0.208,0.96-0.208c0.374,0,0.698,0.066,0.971,0.197c0.273,0.131,0.489,0.299,0.647,0.503l2.762-2.338
			c-0.561-0.51-1.151-0.888-1.77-1.136c-0.619-0.248-1.352-0.372-2.201-0.372c-0.835,0-1.655,0.142-2.46,0.426
			c-0.806,0.284-1.543,0.688-2.212,1.213c-0.669,0.524-1.249,1.158-1.737,1.901c-0.489,0.743-0.827,1.581-1.015,2.513
			c-0.202,0.932-0.216,1.773-0.043,2.524c0.172,0.75,0.485,1.387,0.939,1.912c0.453,0.524,1.021,0.929,1.705,1.213
			c0.683,0.284,1.442,0.426,2.277,0.426c0.848,0,1.636-0.124,2.363-0.372c0.726-0.247,1.478-0.634,2.255-1.158l-1.791-2.316
			C166.17,72.955,165.883,73.123,165.552,73.254z"/>
		<polygon class="st2" points="168.315,76.759 171.872,59.762 176.535,59.762 172.979,76.759 		"/>
		<polygon class="st10" points="172.199,60.165 168.811,76.357 172.652,76.357 176.04,60.165 		"/>
	</g>
</g>
</svg>
