<?xml version="1.0" encoding="utf-8"?>
<!-- Generator: Adobe Illustrator 24.0.3, SVG Export Plug-In . SVG Version: 6.00 Build 0)  -->
<svg version="1.1" id="Capa_1" xmlns="http://www.w3.org/2000/svg" xmlns:xlink="http://www.w3.org/1999/xlink" x="0px" y="0px"
	 width="200px" height="100px" viewBox="0 0 200 100" style="enable-background:new 0 0 200 100;" xml:space="preserve">
<style type="text/css">
	.st0{fill-rule:evenodd;clip-rule:evenodd;fill:#E42730;}
	.st1{fill-rule:evenodd;clip-rule:evenodd;fill:#FFFFFF;}
	.st2{fill:#1C1C1A;}
	.st3{fill:#E00D1A;}
</style>
<g>
	<g>
		<rect x="169.2" y="61.073" class="st0" width="30.026" height="6.152"/>
		<g>
			<polygon class="st1" points="180.661,61.811 179.602,66.566 181.972,66.566 182.323,63.954 183.366,66.566 184.791,66.566 
				185.86,63.938 186.216,66.566 188.555,66.566 187.419,61.811 185.013,61.811 184.068,64.287 183.175,61.811 			"/>
			<polygon class="st1" points="187.987,61.811 193.061,61.811 193.061,63.378 191.74,63.378 191.74,66.566 189.308,66.566 
				189.308,63.378 187.987,63.378 			"/>
			<path class="st1" d="M193.025,66.179c0.589,0.181,1.409,0.325,1.409,0.325c0.496,0.08,0.609,0.101,1.405,0.085
				c0.79-0.013,1.512-0.328,1.512-0.328c0.775-0.318,0.94-0.855,0.94-0.855c0.325-0.614-0.067-1.146-0.067-1.146
				c-0.273-0.413-1.017-0.604-1.017-0.604c-0.191-0.106-1.296-0.222-1.296-0.222c-0.351-0.026-0.253-0.232-0.253-0.232
				c0.015-0.24,0.697-0.194,0.743-0.194c0.346,0,1.115,0.362,1.115,0.362l0.666-1.252c-0.635-0.343-1.766-0.4-1.766-0.4
				c-0.96-0.098-1.869,0.25-1.869,0.25c-1.358,0.442-1.29,1.482-1.29,1.482c-0.016,0.304,0.16,0.702,0.521,0.919
				c0.547,0.331,1.368,0.408,1.399,0.408c0.413,0,0.619,0.098,0.619,0.098c0.31,0.093,0.083,0.33,0.083,0.33
				c-0.17,0.096-0.48,0.109-0.48,0.109c-0.8,0.051-1.673-0.503-1.673-0.503L193.025,66.179z"/>
		</g>
		<g>
			<path class="st1" d="M171.704,66.548h-1.673v-0.741c0-0.15,0.016-0.261,0.041-0.341c0.031-0.077,0.083-0.137,0.16-0.183
				c0.077-0.047,0.16-0.072,0.258-0.072c0.114,0,0.217,0.041,0.299,0.119c0.077,0.072,0.129,0.191,0.155,0.354
				c0.026-0.057,0.052-0.103,0.083-0.134c0.057-0.062,0.134-0.127,0.222-0.183l0.454-0.289v0.276l-0.346,0.225
				c-0.103,0.062-0.181,0.114-0.232,0.157c-0.051,0.041-0.093,0.08-0.114,0.114c-0.021,0.034-0.036,0.064-0.047,0.098
				c0,0.029-0.005,0.067-0.005,0.124v0.258h0.743V66.548z M170.769,66.329v-0.475c0-0.103-0.01-0.18-0.031-0.24
				c-0.021-0.057-0.057-0.101-0.103-0.127c-0.041-0.031-0.098-0.047-0.145-0.047c-0.083,0-0.15,0.031-0.201,0.088
				c-0.052,0.054-0.072,0.145-0.072,0.268v0.532H170.769z"/>
			<polygon class="st1" points="171.704,64.772 170.031,64.772 170.031,63.564 170.227,63.564 170.227,64.55 170.738,64.55 
				170.738,63.626 170.934,63.626 170.934,64.55 171.508,64.55 171.508,63.523 171.704,63.523 			"/>
			<path class="st1" d="M171.704,63.13h-1.673v-0.575c0-0.132,0.005-0.232,0.026-0.297c0.015-0.098,0.062-0.178,0.119-0.245
				c0.072-0.088,0.165-0.155,0.284-0.199c0.119-0.044,0.247-0.064,0.397-0.064c0.129,0,0.238,0.013,0.341,0.044
				c0.098,0.028,0.175,0.064,0.243,0.114c0.062,0.047,0.114,0.098,0.149,0.152c0.042,0.054,0.067,0.121,0.083,0.199
				c0.021,0.08,0.031,0.168,0.031,0.268V63.13z M171.508,62.911v-0.359c0-0.108-0.01-0.199-0.031-0.258
				c-0.026-0.064-0.052-0.114-0.088-0.149c-0.056-0.055-0.123-0.093-0.212-0.124c-0.088-0.031-0.196-0.044-0.32-0.044
				c-0.175,0-0.315,0.028-0.408,0.085c-0.093,0.057-0.155,0.129-0.191,0.209c-0.021,0.06-0.031,0.155-0.031,0.287v0.354H171.508z"/>
		</g>
	</g>
	<g>
		<path class="st2" d="M68.864,66.933c-0.222,0.114-0.692,0.23-1.28,0.23c-1.368,0-2.385-0.864-2.385-2.457
			c0-1.525,1.027-2.548,2.53-2.548c0.599,0,0.986,0.129,1.151,0.217l-0.155,0.508c-0.232-0.113-0.568-0.199-0.976-0.199
			c-1.136,0-1.89,0.725-1.89,1.998c0,1.193,0.687,1.949,1.854,1.949c0.392,0,0.779-0.08,1.033-0.201L68.864,66.933z"/>
		<path class="st2" d="M74.667,64.811h-1.879v1.747h2.101v0.524h-2.731v-4.845h2.623v0.524h-1.993v1.533h1.879V64.811z"/>
		<path class="st2" d="M78.219,67.082v-4.845h0.687l1.549,2.45c0.351,0.571,0.64,1.079,0.862,1.575l0.021-0.008
			c-0.057-0.646-0.072-1.234-0.072-1.988v-2.029h0.589v4.845h-0.63l-1.539-2.457c-0.341-0.542-0.661-1.094-0.903-1.618l-0.021,0.008
			c0.041,0.612,0.046,1.195,0.046,1.998v2.07H78.219z"/>
		<path class="st2" d="M86.381,62.769H84.91v-0.532h3.588v0.532h-1.482v4.313h-0.635V62.769z"/>
		<path class="st2" d="M91.544,62.302c0.32-0.059,0.779-0.101,1.203-0.101c0.666,0,1.105,0.129,1.399,0.392
			c0.237,0.22,0.382,0.55,0.382,0.929c0,0.635-0.403,1.058-0.904,1.231v0.021c0.362,0.129,0.589,0.475,0.702,0.979
			c0.16,0.676,0.274,1.143,0.377,1.329h-0.65c-0.078-0.142-0.186-0.555-0.315-1.156c-0.145-0.668-0.408-0.922-0.976-0.942h-0.594
			v2.099h-0.625V62.302z M92.168,64.509h0.64c0.671,0,1.094-0.364,1.094-0.919c0-0.627-0.454-0.898-1.115-0.898
			c-0.304,0-0.511,0.021-0.619,0.049V64.509z"/>
		<path class="st2" d="M102.07,64.61c0,1.662-1.012,2.553-2.251,2.553c-1.286,0-2.179-0.996-2.179-2.465
			c0-1.538,0.95-2.545,2.24-2.545C101.213,62.152,102.07,63.164,102.07,64.61z M98.301,64.682c0,1.043,0.563,1.97,1.554,1.97
			c0.992,0,1.554-0.916,1.554-2.014c0-0.97-0.506-1.975-1.549-1.975C98.818,62.663,98.301,63.626,98.301,64.682z"/>
		<path class="st2" d="M109.422,62.237h2.612v0.524h-1.977v1.611h1.827v0.519h-1.827v2.191h-0.635V62.237z"/>
		<path class="st2" d="M117.95,64.811h-1.879v1.747h2.101v0.524h-2.731v-4.845h2.623v0.524h-1.993v1.533h1.879V64.811z"/>
		<path class="st2" d="M121.497,62.302c0.32-0.059,0.779-0.101,1.203-0.101c0.671,0,1.11,0.129,1.404,0.392
			c0.238,0.22,0.377,0.55,0.377,0.929c0,0.635-0.398,1.058-0.903,1.231v0.021c0.366,0.129,0.588,0.475,0.707,0.979
			c0.155,0.676,0.268,1.143,0.372,1.329h-0.645c-0.083-0.142-0.191-0.555-0.32-1.156c-0.145-0.668-0.408-0.922-0.975-0.942h-0.588
			v2.099h-0.63V62.302z M122.127,64.509h0.64c0.666,0,1.09-0.364,1.09-0.919c0-0.627-0.449-0.898-1.115-0.898
			c-0.299,0-0.506,0.021-0.614,0.049V64.509z"/>
		<path class="st2" d="M127.883,62.302c0.315-0.059,0.779-0.101,1.198-0.101c0.671,0,1.11,0.129,1.404,0.392
			c0.238,0.22,0.382,0.55,0.382,0.929c0,0.635-0.403,1.058-0.909,1.231v0.021c0.367,0.129,0.594,0.475,0.707,0.979
			c0.155,0.676,0.274,1.143,0.372,1.329h-0.645c-0.078-0.142-0.186-0.555-0.315-1.156c-0.145-0.668-0.413-0.922-0.976-0.942h-0.594
			v2.099h-0.625V62.302z M128.508,64.509h0.64c0.666,0,1.094-0.364,1.094-0.919c0-0.627-0.454-0.898-1.115-0.898
			c-0.305,0-0.511,0.021-0.62,0.049V64.509z"/>
		<path class="st2" d="M136.768,64.811h-1.874v1.747h2.096v0.524h-2.731v-4.845h2.623v0.524h-1.988v1.533h1.874V64.811z"/>
		<path class="st2" d="M141.239,62.769h-1.477v-0.532h3.588v0.532h-1.477v4.313h-0.635V62.769z"/>
		<path class="st2" d="M148.911,64.811h-1.879v1.747h2.101v0.524h-2.731v-4.845h2.623v0.524h-1.993v1.533h1.879V64.811z"/>
		<path class="st2" d="M152.463,62.302c0.315-0.059,0.774-0.101,1.198-0.101c0.666,0,1.11,0.129,1.404,0.392
			c0.238,0.22,0.382,0.55,0.382,0.929c0,0.635-0.403,1.058-0.909,1.231v0.021c0.366,0.129,0.588,0.475,0.702,0.979
			c0.16,0.676,0.274,1.143,0.377,1.329h-0.645c-0.082-0.142-0.191-0.555-0.32-1.156c-0.14-0.668-0.408-0.922-0.976-0.942h-0.588
			v2.099h-0.625V62.302z M153.087,64.509h0.64c0.666,0,1.094-0.364,1.094-0.919c0-0.627-0.455-0.898-1.12-0.898
			c-0.299,0-0.506,0.021-0.614,0.049V64.509z"/>
		<path class="st2" d="M162.984,64.61c0,1.662-1.012,2.553-2.246,2.553c-1.291,0-2.184-0.996-2.184-2.465
			c0-1.538,0.95-2.545,2.246-2.545C162.127,62.152,162.984,63.164,162.984,64.61z M159.221,64.682c0,1.043,0.558,1.97,1.549,1.97
			c0.996,0,1.554-0.916,1.554-2.014c0-0.97-0.501-1.975-1.544-1.975C159.737,62.663,159.221,63.626,159.221,64.682z"/>
	</g>
	<g>
		<polygon class="st2" points="94.259,57.258 88.234,57.258 86.52,43.905 80.919,57.258 78.524,57.258 73.18,43.905 71.213,57.258 
			65.199,57.258 69.138,34.07 75.101,34.07 79.794,46.437 84.75,34.07 90.764,34.07 		"/>
		<path class="st2" d="M120.114,57.258h-6.438l-1.492-4.045h-8.328l-1.59,4.045H95.89l8.921-23.188h6.572L120.114,57.258z
			 M110.553,48.626l-2.499-7.388l-2.529,7.388H110.553z"/>
		<path class="st2" d="M143.113,45.655c0,2.411-0.728,4.646-2.179,6.701c-1.456,2.055-3.315,3.482-5.581,4.272
			c-1.197,0.418-2.426,0.63-3.67,0.63h-8.9V34.07h8.9c2.173,0,4.192,0.607,6.046,1.817c1.827,1.18,3.221,2.752,4.197,4.721
			C142.721,42.242,143.113,43.923,143.113,45.655 M136.866,45.655c0-1.601-0.449-2.997-1.347-4.189
			c-1.188-1.577-2.969-2.367-5.328-2.367h-1.379v13.128h1.379c2.375,0,4.151-0.787,5.328-2.367
			C136.417,48.66,136.866,47.255,136.866,45.655"/>
		<path class="st2" d="M166.237,57.258h-7.496l-5.756-8.9v8.9h-6.03V34.07h9.375c2.741,0,4.77,0.821,6.081,2.462
			c1.069,1.327,1.601,2.883,1.601,4.672c0,2.05-0.614,3.686-1.838,4.907c-0.779,0.782-1.858,1.327-3.227,1.631L166.237,57.258z
			 M157.76,41.535c0-0.826-0.305-1.518-0.909-2.083c-0.568-0.532-1.482-0.798-2.742-0.798h-1.125v5.777h1.125
			c1.27,0,2.189-0.263,2.742-0.795C157.455,43.058,157.76,42.361,157.76,41.535"/>
		<rect x="168.761" y="34.07" class="st3" width="6.03" height="4.035"/>
		<rect x="168.761" y="39.481" class="st2" width="6.03" height="17.777"/>
		<path class="st2" d="M200,45.655c0,2.411-0.728,4.646-2.179,6.701c-1.456,2.055-3.314,3.482-5.581,4.272
			c-1.203,0.418-2.427,0.63-3.671,0.63h-8.9V34.07h8.9c2.174,0,4.192,0.607,6.046,1.817c1.827,1.18,3.222,2.752,4.197,4.721
			C199.608,42.242,200,43.923,200,45.655 M193.753,45.655c0-1.601-0.449-2.997-1.347-4.189c-1.192-1.577-2.968-2.367-5.328-2.367
			h-1.379v13.128h1.379c2.37,0,4.151-0.787,5.328-2.367C193.304,48.66,193.753,47.255,193.753,45.655"/>
		<polygon class="st3" points="31.719,49.021 41.079,33.311 63.433,67.147 43.8,67.147 		"/>
		<polygon class="st3" points="31.719,49.021 22.354,33.311 0,67.147 19.634,67.147 		"/>
	</g>
</g>
</svg>
